<svg width="213px" height="57px" viewBox="0 0 213 57" version="1.1" xmlns="http://www.w3.org/2000/svg" xmlns:xlink="http://www.w3.org/1999/xlink">
    <g id="Symbols" stroke="none" stroke-width="1" fill="none" fill-rule="evenodd">
        <g id="Header" transform="translate(0.000000, -12.000000)">
            <g id="Logo_Mod" transform="translate(0.000000, 12.000000)">
                <text id="Modérateur" font-family="Lato-Black, Lato" font-size="16" font-weight="700" fill="#EBEDF6">
                    <tspan x="124" y="28">Modérateur</tspan>
                </text>
                <g id="logo" fill="#FFFFFF">
                    <path d="M28,0.5 C34.373689,0.5 40.2499816,2.62960711 44.9561397,6.21608326 L25.820468,6.21685317 C20.7246574,6.21685317 13.3362893,9.11314852 13.3362893,20.2400733 C13.3362893,27.6580232 17.8427949,32.7446654 26.855806,35.5 L26.855806,35.5 L26.855806,45.0280631 L35.6147561,35.5 C41.1970727,35.8671702 45.2345912,35.8671702 47.7273113,35.5 C50.1848675,35.1380093 53.803515,33.2870801 55.9953223,29.0194163 C55.7190002,44.2430354 43.2908838,56.5 28,56.5 C12.536027,56.5 2.22162039e-13,43.963973 2.20268248e-13,28.5 C2.18374458e-13,13.036027 12.536027,0.5 28,0.5 Z M25.5,18 C26.8807119,18 28,19.1192881 28,20.5 C28,21.8807119 26.8807119,23 25.5,23 C24.1192881,23 23,21.8807119 23,20.5 C23,19.1192881 24.1192881,18 25.5,18 Z M35.5,18 C36.8807119,18 38,19.1192881 38,20.5 C38,21.8807119 36.8807119,23 35.5,23 C34.1192881,23 33,21.8807119 33,20.5 C33,19.1192881 34.1192881,18 35.5,18 Z M45.5,18 C46.8807119,18 48,19.1192881 48,20.5 C48,21.8807119 46.8807119,23 45.5,23 C44.1192881,23 43,21.8807119 43,20.5 C43,19.1192881 44.1192881,18 45.5,18 Z" fill-rule="nonzero"></path>
                    <path d="M77.808,28 L75.712,28 C75.4773322,28 75.2840008,27.9453339 75.132,27.836 C74.9799992,27.7266661 74.874667,27.5866675 74.816,27.416 L74.128,25.384 L69.696,25.384 L69.008,27.416 C68.9546664,27.5653341 68.8506674,27.6999994 68.696,27.82 C68.5413326,27.9400006 68.3520011,28 68.128,28 L66.016,28 L70.528,16.344 L73.296,16.344 L77.808,28 Z M70.32,23.544 L73.504,23.544 L72.432,20.352 C72.3626663,20.1493323 72.2813338,19.910668 72.188,19.636 C72.0946662,19.361332 72.0026671,19.0640016 71.912,18.744 C71.8266662,19.069335 71.7386671,19.3706653 71.648,19.648 C71.5573329,19.9253347 71.4720004,20.1653323 71.392,20.368 L70.32,23.544 Z M78.752,28 L78.752,19.704 L80.288,19.704 C80.4426674,19.704 80.5719995,19.7386663 80.676,19.808 C80.7800005,19.8773337 80.8533331,19.9813326 80.896,20.12 L81.04,20.6 C81.2000008,20.4506659 81.3653325,20.3120006 81.536,20.184 C81.7066675,20.0559994 81.8893324,19.9480004 82.084,19.86 C82.2786676,19.7719996 82.4893322,19.7026669 82.716,19.652 C82.9426678,19.6013331 83.189332,19.576 83.456,19.576 C83.9093356,19.576 84.3106649,19.6546659 84.66,19.812 C85.0093351,19.9693341 85.3039988,20.1879986 85.544,20.468 C85.7840012,20.7480014 85.9653327,21.0813314 86.088,21.468 C86.2106673,21.8546686 86.272,22.2746644 86.272,22.728 L86.272,28 L83.792,28 L83.792,22.728 C83.792,22.3226646 83.6986676,22.0066678 83.512,21.78 C83.3253324,21.5533322 83.0506685,21.44 82.688,21.44 C82.4159986,21.44 82.1600012,21.4986661 81.92,21.616 C81.6799988,21.7333339 81.4506678,21.8906657 81.232,22.088 L81.232,28 L78.752,28 Z M91.728,19.576 C92.3573365,19.576 92.9306641,19.6746657 93.448,19.872 C93.9653359,20.0693343 94.4093315,20.3519982 94.78,20.72 C95.1506685,21.0880018 95.4386656,21.534664 95.644,22.06 C95.8493344,22.585336 95.952,23.1759967 95.952,23.832 C95.952,24.4933366 95.8493344,25.0893307 95.644,25.62 C95.4386656,26.1506693 95.1506685,26.6013315 94.78,26.972 C94.4093315,27.3426685 93.9653359,27.627999 93.448,27.828 C92.9306641,28.028001 92.3573365,28.128 91.728,28.128 C91.0933302,28.128 90.5160026,28.028001 89.996,27.828 C89.4759974,27.627999 89.0280019,27.3426685 88.652,26.972 C88.2759981,26.6013315 87.9853344,26.1506693 87.78,25.62 C87.5746656,25.0893307 87.472,24.4933366 87.472,23.832 C87.472,23.1759967 87.5746656,22.585336 87.78,22.06 C87.9853344,21.534664 88.2759981,21.0880018 88.652,20.72 C89.0280019,20.3519982 89.4759974,20.0693343 89.996,19.872 C90.5160026,19.6746657 91.0933302,19.576 91.728,19.576 Z M91.728,26.288 C92.2986695,26.288 92.7186653,26.0866687 92.988,25.684 C93.2573347,25.2813313 93.392,24.6693374 93.392,23.848 C93.392,23.0266626 93.2573347,22.416 92.988,22.016 C92.7186653,21.615998 92.2986695,21.416 91.728,21.416 C91.1413304,21.416 90.7120014,21.615998 90.44,22.016 C90.1679986,22.416 90.032,23.0266626 90.032,23.848 C90.032,24.6693374 90.1679986,25.2813313 90.44,25.684 C90.7120014,26.0866687 91.1413304,26.288 91.728,26.288 Z M100.224,28.128 C99.8293314,28.128 99.4813348,28.0706672 99.18,27.956 C98.8786652,27.8413328 98.6253344,27.6786677 98.42,27.468 C98.2146656,27.2573323 98.0586672,27.0026682 97.952,26.704 C97.8453328,26.4053318 97.792,26.0720018 97.792,25.704 L97.792,21.416 L97.088,21.416 C96.9599994,21.416 96.8506671,21.3746671 96.76,21.292 C96.6693329,21.2093329 96.624,21.0880008 96.624,20.928 L96.624,19.96 L97.944,19.704 L98.432,17.68 C98.4960003,17.4239987 98.6773318,17.296 98.976,17.296 L100.272,17.296 L100.272,19.72 L102.288,19.72 L102.288,21.416 L100.272,21.416 L100.272,25.536 C100.272,25.728001 100.318666,25.886666 100.412,26.012 C100.505334,26.137334 100.639999,26.2 100.816,26.2 C100.906667,26.2 100.982666,26.1906668 101.044,26.172 C101.105334,26.1533332 101.158666,26.1320001 101.204,26.108 C101.249334,26.0839999 101.292,26.0626668 101.332,26.044 C101.372,26.0253332 101.418666,26.016 101.472,26.016 C101.546667,26.016 101.606666,26.0333332 101.652,26.068 C101.697334,26.1026668 101.744,26.157333 101.792,26.232 L102.544,27.408 C102.223998,27.6480012 101.864002,27.8279994 101.464,27.948 C101.063998,28.0680006 100.650669,28.128 100.224,28.128 Z M107.264,19.576 C107.813336,19.576 108.315998,19.6613325 108.772,19.832 C109.228002,20.0026675 109.619998,20.250665 109.948,20.576 C110.276002,20.901335 110.531999,21.2999976 110.716,21.772 C110.900001,22.2440024 110.992,22.7786637 110.992,23.376 C110.992,23.5626676 110.984,23.7146661 110.968,23.832 C110.952,23.9493339 110.922667,24.0426663 110.88,24.112 C110.837333,24.1813337 110.78,24.2293332 110.708,24.256 C110.636,24.2826668 110.544001,24.296 110.432,24.296 L105.648,24.296 C105.728,24.9893368 105.938665,25.4919984 106.28,25.804 C106.621335,26.1160016 107.061331,26.272 107.6,26.272 C107.888001,26.272 108.135999,26.2373337 108.344,26.168 C108.552001,26.0986663 108.737333,26.0213338 108.9,25.936 C109.062667,25.8506662 109.211999,25.7733337 109.348,25.704 C109.484001,25.6346663 109.626666,25.6 109.776,25.6 C109.973334,25.6 110.122666,25.6719993 110.224,25.816 L110.944,26.704 C110.687999,26.9973348 110.412001,27.2359991 110.116,27.42 C109.819999,27.6040009 109.516002,27.7479995 109.204,27.852 C108.891998,27.9560005 108.580002,28.0279998 108.268,28.068 C107.955998,28.1080002 107.658668,28.128 107.376,28.128 C106.794664,28.128 106.249336,28.0333343 105.74,27.844 C105.230664,27.6546657 104.785335,27.3733352 104.404,27 C104.022665,26.6266648 103.721334,26.1626694 103.5,25.608 C103.278666,25.0533306 103.168,24.4080037 103.168,23.672 C103.168,23.1173306 103.262666,22.5920025 103.452,22.096 C103.641334,21.5999975 103.913332,21.1653352 104.268,20.792 C104.622668,20.4186648 105.051997,20.1226678 105.556,19.904 C106.060003,19.6853322 106.62933,19.576 107.264,19.576 Z M107.312,21.288 C106.837331,21.288 106.466668,21.4226653 106.2,21.692 C105.933332,21.9613347 105.757334,22.3493308 105.672,22.856 L108.768,22.856 C108.768,22.6586657 108.742667,22.4666676 108.692,22.28 C108.641333,22.0933324 108.558667,21.9266674 108.444,21.78 C108.329333,21.6333326 108.178668,21.5146671 107.992,21.424 C107.805332,21.3333329 107.578668,21.288 107.312,21.288 Z M110.496,16.216 L108.416,18.32 C108.293333,18.4426673 108.176001,18.5293331 108.064,18.58 C107.951999,18.6306669 107.802668,18.656 107.616,18.656 L106.128,18.656 L107.216,16.696 C107.306667,16.5413326 107.413333,16.4226671 107.536,16.34 C107.658667,16.2573329 107.845332,16.216 108.096,16.216 L110.496,16.216 Z M118.144,28 C117.909332,28 117.732001,27.9680003 117.612,27.904 C117.491999,27.8399997 117.392,27.7066677 117.312,27.504 L117.136,27.048 C116.927999,27.2240009 116.728001,27.378666 116.536,27.512 C116.343999,27.645334 116.145334,27.7586662 115.94,27.852 C115.734666,27.9453338 115.516,28.0146664 115.284,28.06 C115.051999,28.1053336 114.794668,28.128 114.512,28.128 C114.133331,28.128 113.789335,28.0786672 113.48,27.98 C113.170665,27.8813328 112.908001,27.736001 112.692,27.544 C112.475999,27.351999 112.309334,27.1133348 112.192,26.828 C112.074666,26.5426652 112.016,26.2133352 112.016,25.84 C112.016,25.5466652 112.090666,25.2453349 112.24,24.936 C112.389334,24.6266651 112.647998,24.3453346 113.016,24.092 C113.384002,23.8386654 113.879997,23.6266675 114.504,23.456 C115.128003,23.2853325 115.914662,23.1893334 116.864,23.168 L116.864,22.816 C116.864,22.3306642 116.764001,21.9800011 116.564,21.764 C116.363999,21.5479989 116.080002,21.44 115.712,21.44 C115.418665,21.44 115.178668,21.4719997 114.992,21.536 C114.805332,21.6000003 114.638667,21.6719996 114.492,21.752 C114.345333,21.8320004 114.202667,21.9039997 114.064,21.968 C113.925333,22.0320003 113.760001,22.064 113.568,22.064 C113.397332,22.064 113.252001,22.0226671 113.132,21.94 C113.011999,21.8573329 112.917334,21.7546673 112.848,21.632 L112.4,20.856 C112.901336,20.4133311 113.45733,20.0840011 114.068,19.868 C114.67867,19.6519989 115.33333,19.544 116.032,19.544 C116.533336,19.544 116.985331,19.6253325 117.388,19.788 C117.790669,19.9506675 118.131999,20.1773319 118.412,20.468 C118.692001,20.7586681 118.906666,21.103998 119.056,21.504 C119.205334,21.904002 119.28,22.341331 119.28,22.816 L119.28,28 L118.144,28 Z M115.296,26.488 C115.616002,26.488 115.895999,26.4320006 116.136,26.32 C116.376001,26.2079994 116.618665,26.0266679 116.864,25.776 L116.864,24.624 C116.367998,24.6453334 115.960002,24.6879997 115.64,24.752 C115.319998,24.8160003 115.066668,24.8959995 114.88,24.992 C114.693332,25.0880005 114.564,25.1973327 114.492,25.32 C114.42,25.4426673 114.384,25.5759993 114.384,25.72 C114.384,26.0026681 114.461333,26.2013328 114.616,26.316 C114.770667,26.4306672 114.997332,26.488 115.296,26.488 Z" id="Anotéa"></path>
                    <g id="label-pe" transform="translate(67.000000, 35.000000)" fill-rule="nonzero">
                        <path d="M36,0 L36,11 L0,11 L0,0 L36,0 Z M25.412,4.865 C25.1959989,4.865 25.0075008,4.90899956 24.8465,4.997 C24.6854992,5.08500044 24.5430006,5.19999929 24.419,5.342 L24.419,5.342 L24.359,5.057 C24.349,5.01099977 24.3270002,4.97700011 24.293,4.955 C24.2589998,4.93299989 24.2180002,4.922 24.17,4.922 L24.17,4.922 L23.717,4.922 L23.717,9.005 L24.458,9.005 L24.458,7.745 C24.5540005,7.83900047 24.6624994,7.91249974 24.7835,7.9655 C24.9045006,8.01850027 25.0519991,8.045 25.226,8.045 C25.428001,8.045 25.6104992,8.00450041 25.7735,7.9235 C25.9365008,7.8424996 26.0754994,7.73000072 26.1905,7.586 C26.3055006,7.44199928 26.3939997,7.27200098 26.456,7.076 C26.5180003,6.87999902 26.549,6.66700115 26.549,6.437 C26.549,6.18499874 26.5215003,5.96150098 26.4665,5.7665 C26.4114997,5.57149903 26.3335005,5.40750067 26.2325,5.2745 C26.1314995,5.14149934 26.0115007,5.04000035 25.8725,4.97 C25.7334993,4.89999965 25.5800008,4.865 25.412,4.865 Z M7.37,4.874 C7.13999885,4.874 6.93100094,4.91099963 6.743,4.985 C6.55499906,5.05900037 6.39450067,5.16399932 6.2615,5.3 C6.12849934,5.43600068 6.02550037,5.60199902 5.9525,5.798 C5.87949964,5.99400098 5.843,6.21299879 5.843,6.455 C5.843,6.69900122 5.87949964,6.91899902 5.9525,7.115 C6.02550037,7.31100098 6.12849934,7.47799931 6.2615,7.616 C6.39450067,7.75400069 6.55499906,7.85999963 6.743,7.934 C6.93100094,8.00800037 7.13999885,8.045 7.37,8.045 C7.60000115,8.045 7.80849907,8.00800037 7.9955,7.934 C8.18250094,7.85999963 8.34199934,7.75400069 8.474,7.616 C8.60600066,7.47799931 8.70799964,7.31100098 8.78,7.115 C8.85200036,6.91899902 8.888,6.69900122 8.888,6.455 C8.888,6.21299879 8.85200036,5.99400098 8.78,5.798 C8.70799964,5.60199902 8.60600066,5.43600068 8.474,5.3 C8.34199934,5.16399932 8.18250094,5.05900037 7.9955,4.985 C7.80849907,4.91099963 7.60000115,4.874 7.37,4.874 Z M12.365,4.874 C12.1349989,4.874 11.9285009,4.9139996 11.7455,4.994 C11.5624991,5.0740004 11.4075006,5.18249932 11.2805,5.3195 C11.1534994,5.45650069 11.0560003,5.61749908 10.988,5.8025 C10.9199997,5.98750093 10.886,6.18499895 10.886,6.395 C10.886,6.66500135 10.9249996,6.90249898 11.003,7.1075 C11.0810004,7.31250103 11.1879993,7.48449931 11.324,7.6235 C11.4600007,7.7625007 11.6199991,7.86749965 11.804,7.9385 C11.9880009,8.00950036 12.1869989,8.045 12.401,8.045 C12.5090005,8.045 12.6204994,8.03700008 12.7355,8.021 C12.8505006,8.00499992 12.9634994,7.9775002 13.0745,7.9385 C13.1855006,7.89949981 13.2919995,7.84750033 13.394,7.7825 C13.4960005,7.71749968 13.5879996,7.63700048 13.67,7.541 L13.67,7.541 L13.454,7.271 C13.4379999,7.24899989 13.4190001,7.23200006 13.397,7.22 C13.3749999,7.20799994 13.3490002,7.202 13.319,7.202 C13.2729998,7.202 13.2255002,7.21599986 13.1765,7.244 C13.1274998,7.27200014 13.0705003,7.30299983 13.0055,7.337 C12.9404997,7.37100017 12.8645004,7.40199986 12.7775,7.43 C12.6904996,7.45800014 12.5870006,7.472 12.467,7.472 C12.2229988,7.472 12.0270007,7.39800074 11.879,7.25 C11.7309993,7.10199926 11.6460001,6.87000158 11.624,6.554 L11.624,6.554 L13.526,6.554 C13.5600002,6.554 13.5879999,6.54950005 13.61,6.5405 C13.6320001,6.53149996 13.6494999,6.51650011 13.6625,6.4955 C13.6755001,6.4744999 13.6845,6.44550019 13.6895,6.4085 C13.6945,6.37149982 13.697,6.32500028 13.697,6.269 C13.697,6.04699889 13.6640003,5.84950087 13.598,5.6765 C13.5319997,5.50349914 13.4400006,5.3575006 13.322,5.2385 C13.2039994,5.11949941 13.0635008,5.02900031 12.9005,4.967 C12.7374992,4.90499969 12.559001,4.874 12.365,4.874 Z M16.73,4.874 C16.4999989,4.874 16.2935009,4.9139996 16.1105,4.994 C15.9274991,5.0740004 15.7725006,5.18249932 15.6455,5.3195 C15.5184994,5.45650069 15.4210003,5.61749908 15.353,5.8025 C15.2849997,5.98750093 15.251,6.18499895 15.251,6.395 C15.251,6.66500135 15.2899996,6.90249898 15.368,7.1075 C15.4460004,7.31250103 15.5529993,7.48449931 15.689,7.6235 C15.8250007,7.7625007 15.9849991,7.86749965 16.169,7.9385 C16.3530009,8.00950036 16.5519989,8.045 16.766,8.045 C16.8740005,8.045 16.9854994,8.03700008 17.1005,8.021 C17.2155006,8.00499992 17.3284994,7.9775002 17.4395,7.9385 C17.5505006,7.89949981 17.6569995,7.84750033 17.759,7.7825 C17.8610005,7.71749968 17.9529996,7.63700048 18.035,7.541 L18.035,7.541 L17.819,7.271 C17.8029999,7.24899989 17.7840001,7.23200006 17.762,7.22 C17.7399999,7.20799994 17.7140002,7.202 17.684,7.202 C17.6379998,7.202 17.5905002,7.21599986 17.5415,7.244 C17.4924998,7.27200014 17.4355003,7.30299983 17.3705,7.337 C17.3054997,7.37100017 17.2295004,7.40199986 17.1425,7.43 C17.0554996,7.45800014 16.9520006,7.472 16.832,7.472 C16.5879988,7.472 16.3920007,7.39800074 16.244,7.25 C16.0959993,7.10199926 16.0110001,6.87000158 15.989,6.554 L15.989,6.554 L17.891,6.554 C17.9250002,6.554 17.9529999,6.54950005 17.975,6.5405 C17.9970001,6.53149996 18.0144999,6.51650011 18.0275,6.4955 C18.0405001,6.4744999 18.0495,6.44550019 18.0545,6.4085 C18.0595,6.37149982 18.062,6.32500028 18.062,6.269 C18.062,6.04699889 18.0290003,5.84950087 17.963,5.6765 C17.8969997,5.50349914 17.8050006,5.3575006 17.687,5.2385 C17.5689994,5.11949941 17.4285008,5.02900031 17.2655,4.967 C17.1024992,4.90499969 16.924001,4.874 16.73,4.874 Z M30.05,4.874 C29.8199989,4.874 29.6110009,4.91099963 29.423,4.985 C29.2349991,5.05900037 29.0745007,5.16399932 28.9415,5.3 C28.8084993,5.43600068 28.7055004,5.60199902 28.6325,5.798 C28.5594996,5.99400098 28.523,6.21299879 28.523,6.455 C28.523,6.69900122 28.5594996,6.91899902 28.6325,7.115 C28.7055004,7.31100098 28.8084993,7.47799931 28.9415,7.616 C29.0745007,7.75400069 29.2349991,7.85999963 29.423,7.934 C29.6110009,8.00800037 29.8199989,8.045 30.05,8.045 C30.2800012,8.045 30.4884991,8.00800037 30.6755,7.934 C30.8625009,7.85999963 31.0219993,7.75400069 31.154,7.616 C31.2860007,7.47799931 31.3879996,7.31100098 31.46,7.115 C31.5320004,6.91899902 31.568,6.69900122 31.568,6.455 C31.568,6.21299879 31.5320004,5.99400098 31.46,5.798 C31.3879996,5.60199902 31.2860007,5.43600068 31.154,5.3 C31.0219993,5.16399932 30.8625009,5.05900037 30.6755,4.985 C30.4884991,4.91099963 30.2800012,4.874 30.05,4.874 Z M3.878,3.662 L2.465,3.662 L2.465,8 L3.272,8 L3.272,6.473 L3.878,6.473 C4.16000141,6.473 4.40599895,6.43800035 4.616,6.368 C4.82600105,6.29799965 5.0009993,6.20000063 5.141,6.074 C5.2810007,5.94799937 5.38599965,5.79750088 5.456,5.6225 C5.52600035,5.44749913 5.561,5.25500105 5.561,5.045 C5.561,4.84299899 5.52800033,4.65700085 5.462,4.487 C5.39599967,4.31699915 5.29400069,4.17100061 5.156,4.049 C5.01799931,3.92699939 4.84300106,3.83200034 4.631,3.764 C4.41899894,3.69599966 4.16800145,3.662 3.878,3.662 L3.878,3.662 Z M10.256,3.542 L9.515,3.542 L9.515,8 L10.256,8 L10.256,3.542 Z M21.926,4.874 C21.8279995,4.874 21.7305005,4.88499989 21.6335,4.907 C21.5364995,4.92900011 21.4450004,4.96299977 21.359,5.009 C21.2729996,5.05500023 21.1940004,5.11449964 21.122,5.1875 C21.0499996,5.26050037 20.9900002,5.34799949 20.942,5.45 C20.8799997,5.27599913 20.7865006,5.13650053 20.6615,5.0315 C20.5364994,4.92649948 20.377001,4.874 20.183,4.874 C20.0909995,4.874 20.0065004,4.8844999 19.9295,4.9055 C19.8524996,4.92650011 19.7805003,4.95499982 19.7135,4.991 C19.6464997,5.02700018 19.5835003,5.06999975 19.5245,5.12 C19.4654997,5.17000025 19.4090003,5.2249997 19.355,5.285 L19.355,5.285 L19.307,5.057 C19.2769999,4.96699955 19.2140005,4.922 19.118,4.922 L19.118,4.922 L18.665,4.922 L18.665,8 L19.406,8 L19.406,5.747 C19.4860004,5.65499954 19.5724995,5.58250027 19.6655,5.5295 C19.7585005,5.47649974 19.8579995,5.45 19.964,5.45 C20.1260008,5.45 20.2484996,5.49699953 20.3315,5.591 C20.4145004,5.68500047 20.456,5.83499897 20.456,6.041 L20.456,6.041 L20.456,8 L21.2,8 L21.2,6.041 C21.2,5.94499952 21.2139999,5.86000037 21.242,5.786 C21.2700001,5.71199963 21.3084998,5.65050025 21.3575,5.6015 C21.4065002,5.55249976 21.4634997,5.51500013 21.5285,5.489 C21.5935003,5.46299987 21.6639996,5.45 21.74,5.45 C21.9060008,5.45 22.0319996,5.49949951 22.118,5.5985 C22.2040004,5.6975005 22.247,5.84499902 22.247,6.041 L22.247,6.041 L22.247,8 L22.988,8 L22.988,6.041 C22.988,5.85499907 22.9645002,5.69000072 22.9175,5.546 C22.8704998,5.40199928 22.8020005,5.2800005 22.712,5.18 C22.6219996,5.0799995 22.5110007,5.00400026 22.379,4.952 C22.2469993,4.89999974 22.0960009,4.874 21.926,4.874 Z M27.899,3.542 L27.158,3.542 L27.158,8 L27.899,8 L27.899,3.542 Z M32.936,4.922 L32.195,4.922 L32.195,8 L32.936,8 L32.936,4.922 Z M25.157,5.45 C25.2550005,5.45 25.3424996,5.46799982 25.4195,5.504 C25.4965004,5.54000018 25.5619997,5.59699961 25.616,5.675 C25.6700003,5.75300039 25.7114999,5.85449938 25.7405,5.9795 C25.7695001,6.10450063 25.784,6.2569991 25.784,6.437 C25.784,6.61500089 25.7670002,6.76949935 25.733,6.9005 C25.6989998,7.03150066 25.6505003,7.13999957 25.5875,7.226 C25.5244997,7.31200043 25.4475005,7.37599979 25.3565,7.418 C25.2654995,7.46000021 25.1640006,7.481 25.052,7.481 C24.9379994,7.481 24.8315005,7.46050021 24.7325,7.4195 C24.6334995,7.3784998 24.5420004,7.30600052 24.458,7.202 L24.458,7.202 L24.458,5.822 C24.5520005,5.70399941 24.6534995,5.61250033 24.7625,5.5475 C24.8715005,5.48249968 25.0029992,5.45 25.157,5.45 Z M7.37,5.441 C7.62600128,5.441 7.81549939,5.52799913 7.9385,5.702 C8.06150062,5.87600087 8.123,6.12899834 8.123,6.461 C8.123,6.79300166 8.06150062,7.04499914 7.9385,7.217 C7.81549939,7.38900086 7.62600128,7.475 7.37,7.475 C7.1099987,7.475 6.91800062,7.38850087 6.794,7.2155 C6.66999938,7.04249914 6.608,6.79100165 6.608,6.461 C6.608,6.13099835 6.66999938,5.87850088 6.794,5.7035 C6.91800062,5.52849913 7.1099987,5.441 7.37,5.441 Z M30.05,5.441 C30.3060013,5.441 30.4954994,5.52799913 30.6185,5.702 C30.7415006,5.87600087 30.803,6.12899834 30.803,6.461 C30.803,6.79300166 30.7415006,7.04499914 30.6185,7.217 C30.4954994,7.38900086 30.3060013,7.475 30.05,7.475 C29.7899987,7.475 29.5980006,7.38850087 29.474,7.2155 C29.3499994,7.04249914 29.288,6.79100165 29.288,6.461 C29.288,6.13099835 29.3499994,5.87850088 29.474,5.7035 C29.5980006,5.52849913 29.7899987,5.441 30.05,5.441 Z M12.38,5.405 C12.4900006,5.405 12.5859996,5.42349982 12.668,5.4605 C12.7500004,5.49750019 12.8179997,5.54799968 12.872,5.612 C12.9260003,5.67600032 12.9659999,5.75049958 12.992,5.8355 C13.0180001,5.92050043 13.031,6.01099952 13.031,6.107 L13.031,6.107 L11.639,6.107 C11.6730002,5.88299888 11.7509994,5.71000061 11.873,5.588 C11.9950006,5.46599939 12.1639989,5.405 12.38,5.405 Z M16.745,5.405 C16.8550006,5.405 16.9509996,5.42349982 17.033,5.4605 C17.1150004,5.49750019 17.1829997,5.54799968 17.237,5.612 C17.2910003,5.67600032 17.3309999,5.75049958 17.357,5.8355 C17.3830001,5.92050043 17.396,6.01099952 17.396,6.107 L17.396,6.107 L16.004,6.107 C16.0380002,5.88299888 16.1159994,5.71000061 16.238,5.588 C16.3600006,5.46599939 16.5289989,5.405 16.745,5.405 Z M3.878,4.286 C4.02600074,4.286 4.15499945,4.30349983 4.265,4.3385 C4.37500055,4.37350018 4.46599964,4.42399967 4.538,4.49 C4.61000036,4.55600033 4.66399982,4.63599953 4.7,4.73 C4.73600018,4.82400047 4.754,4.92899942 4.754,5.045 C4.754,5.16700061 4.73600018,5.27749951 4.7,5.3765 C4.66399982,5.4755005 4.61000036,5.55949966 4.538,5.6285 C4.46599964,5.69750035 4.37500055,5.75049982 4.265,5.7875 C4.15499945,5.82450019 4.02600074,5.843 3.878,5.843 L3.878,5.843 L3.272,5.843 L3.272,4.286 Z M7.721,3.662 L7.025,3.662 L6.338,4.496 L6.851,4.496 C6.88100015,4.496 6.90949987,4.49050006 6.9365,4.4795 C6.96350014,4.46849995 6.98499992,4.45600007 7.001,4.442 L7.001,4.442 L7.322,4.157 C7.33200005,4.14699995 7.34249995,4.13700005 7.3535,4.127 C7.36450006,4.11699995 7.37499995,4.10500007 7.385,4.091 C7.39500005,4.10500007 7.40549995,4.11699995 7.4165,4.127 L7.4165,4.127 L7.448,4.157 L7.763,4.442 C7.80100019,4.47800018 7.85099969,4.496 7.913,4.496 L7.913,4.496 L8.408,4.496 L7.721,3.662 Z M32.567,3.551 C32.5029997,3.551 32.4425003,3.56349988 32.3855,3.5885 C32.3284997,3.61350013 32.2790002,3.64699979 32.237,3.689 C32.1949998,3.73100021 32.1615001,3.78099971 32.1365,3.839 C32.1114999,3.89700029 32.099,3.95899967 32.099,4.025 C32.099,4.08900032 32.1114999,4.14899972 32.1365,4.205 C32.1615001,4.26100028 32.1949998,4.30999979 32.237,4.352 C32.2790002,4.39400021 32.3284997,4.42749988 32.3855,4.4525 C32.4425003,4.47750013 32.5029997,4.49 32.567,4.49 C32.6330003,4.49 32.6949997,4.47750013 32.753,4.4525 C32.8110003,4.42749988 32.8614998,4.39400021 32.9045,4.352 C32.9475002,4.30999979 32.9819999,4.26100028 33.008,4.205 C33.0340001,4.14899972 33.047,4.08900032 33.047,4.025 C33.047,3.95899967 33.0340001,3.89700029 33.008,3.839 C32.9819999,3.78099971 32.9475002,3.73100021 32.9045,3.689 C32.8614998,3.64699979 32.8110003,3.61350013 32.753,3.5885 C32.6949997,3.56349988 32.6330003,3.551 32.567,3.551 Z" id="Combined-Shape"></path>
                    </g>
                </g>
            </g>
        </g>
    </g>
</svg>
