<?xml version="1.0" encoding="UTF-8"?>
<svg width="1440px" height="503px" viewBox="0 0 1440 503" version="1.1" xmlns="http://www.w3.org/2000/svg" xmlns:xlink="http://www.w3.org/1999/xlink">
    <!-- Generator: Sketch 51.3 (57544) - http://www.bohemiancoding.com/sketch -->
    <title>Group 3</title>
    <desc>Created with Sketch.</desc>
    <defs>
        <linearGradient x1="15.7599038%" y1="0%" x2="96.4301968%" y2="93.674308%" id="linearGradient-1">
            <stop stop-color="#FFBA08" offset="0%"></stop>
            <stop stop-color="#FF9B21" offset="100%"></stop>
        </linearGradient>
        <linearGradient x1="17.5748743%" y1="-97.4960568%" x2="97.6253684%" y2="90.523955%" id="linearGradient-2">
            <stop stop-color="#FFDD86" offset="0%"></stop>
            <stop stop-color="#F9E761" stop-opacity="0.965891078" offset="100%"></stop>
        </linearGradient>
    </defs>
    <g id="Maquettes" stroke="none" stroke-width="1" fill="none" fill-rule="evenodd">
        <g id="Landing-Copy-4" transform="translate(0.000000, -698.000000)">
            <g id="Group-3" transform="translate(0.000000, 698.000000)">
                <g id="Rectangle-2-Copy" opacity="0.368279643" transform="translate(721.000000, 251.500000) scale(1, -1) translate(-721.000000, -251.500000) ">
                    <polygon id="Rectangle-Copy" fill="url(#linearGradient-1)" transform="translate(721.000000, 144.500000) scale(1, -1) translate(-721.000000, -144.500000) " points="0 76.3965217 1442 0 1442 289 0 289"></polygon>
                    <polygon id="Rectangle" fill="url(#linearGradient-2)" points="0 204 473.363094 242.289936 1442 186 1442 503 0 503"></polygon>
                </g>
                <g id="humaaan-2-copy" transform="translate(218.000000, 86.000000)">
                    <g id="Head/Front/Airy" transform="translate(63.000000, 0.000000)">
                        <g id="Head" stroke-width="1" transform="translate(41.383574, 23.773409)" fill="#B28B67">
                            <path d="M6.33189668,26.4499322 C2.80056772,22.3020467 0.410490408,17.218756 0.80987373,11.5227827 C1.96060829,-4.88890235 24.7907001,-1.27854074 29.2316256,7.00466854 C33.6725511,15.2878778 33.1448537,36.2989251 27.4053532,37.7793657 C25.1164483,38.3697633 20.2404003,36.9235255 15.2777211,33.9302578 L18.3926995,55.9825442 L0,55.9825442 L6.33189668,26.4499322 Z"></path>
                        </g>
                        <path d="M60.1318272,21.2313851 C57.7077226,20.8335877 51.1807142,20.560091 49.9770173,20.5602676 C49.2077981,20.5602676 48.3741989,20.7361247 47.9186129,20.0293415 C47.5455249,19.4505666 47.6822007,18.4716991 47.5708548,17.800052 C47.4415668,17.0198183 47.2579252,16.2496487 47.0721728,15.4814214 C46.5435875,13.2953899 45.7442891,11.2156496 44.6259046,9.26303497 C42.5273945,5.59969753 39.4531564,2.73018915 35.5720562,1.06042907 C31.2862055,-0.783245961 26.4364133,-1.20540905 21.8263755,-0.831447769 C16.8930298,-0.431355104 12.4272315,1.19832508 7.76934833,2.73195478 C3.33063894,4.19337005 -1.31844916,4.76861361 -5.960853,4.05494434 C-10.6382613,3.33597818 -14.172483,0.799115235 -18.1177874,-1.60867986 C-22.1566717,-4.0736815 -26.7723385,-5.68588191 -31.5470206,-5.31527533 C-36.0040237,-4.96921106 -40.1118616,-3.12765479 -43.7973589,-0.667596934 C-47.2455645,1.63408356 -50.0907783,4.40330393 -51.6971148,8.30076444 C-53.4251753,12.4932624 -53.4235922,17.0952109 -50.5818965,20.8003938 C-46.4629768,26.1710993 -38.8163439,27.5599471 -32.4546745,27.4218745 C-28.774982,27.3422444 -25.1610768,26.6700675 -21.6870136,25.447366 C-17.0539325,23.8166264 -13.0502286,21.0527029 -8.71582908,18.8101712 C-6.68169912,17.7578533 -4.57914331,16.8935755 -2.37526798,16.2710129 C-0.236652273,15.6666364 1.86977338,15.3894318 3.80610187,16.6822291 C5.85447988,18.0498892 7.69001656,19.3933601 10.0333821,20.249516 C12.2814088,21.070889 14.6625933,21.5303069 17.057674,21.5117678 C21.7176681,21.4757488 26.3113471,20.0228086 30.8373038,19.0495911 C34.5280782,18.2561152 38.4770766,17.4652877 42.2397949,18.2280416 C43.8098955,18.5463854 46.1033049,19.2035544 46.6704128,20.8364128 C37.1257979,22.5674403 33.3771606,34.3795318 36.0679325,43.050737 C37.5201788,47.7309031 46.2498312,53.2019677 49.6440349,50.7415337 C51.7943607,49.182778 50.4888919,47.1364141 49.6440349,45.7855275 C48.026089,43.1985206 47.4725256,39.8754208 50.4663765,38.0742976 C53.0487928,36.5208928 55.7640256,40.2098169 55.8153889,40.2057559 C56.5251532,40.1497854 62.6581336,36.6789544 66.8836454,31.6141319 C71.0521285,31.8614034 71.6845477,29.1109418 70.6891956,26.8615812 C69.6938434,24.6122205 63.4811759,21.7813801 60.1318272,21.2313851 Z" id="hair" fill="#191847"></path>
                    </g>
                    <g id="Bottom/Standing/Jogging" transform="translate(0.000000, 143.000000)">
                        <polygon id="Leg" fill="#997659" points="99.6565976 0 156.619092 95.0791376 199.324575 175.460534 208.522957 175.460534 136.969322 3.8960065e-13"></polygon>
                        <g id="Accessories/Shoe/Flat-Sneaker" transform="translate(191.647303, 152.307970)" fill="#E4E4E4">
                            <path d="M1.82794745,20.4962889 C1.12357362,22.5008666 0.771386707,24.0261851 0.771386707,25.0722446 C0.771386707,26.4804828 1.00312223,28.5354526 1.46659328,31.2371539 C3.08028687,31.2371539 17.5828229,31.2371539 44.9742015,31.2371539 C46.10481,27.4531689 45.4521572,25.4103171 43.0162431,25.1085986 C40.580329,24.8068801 38.5567737,24.5344525 36.9455774,24.2913157 L17.0236594,15.3001628 C16.4783738,15.0540646 15.8368305,15.296604 15.5907323,15.8418897 C15.5851997,15.8541486 15.5798958,15.8665095 15.5748234,15.878966 L14.3965545,18.7725104 C12.1415351,19.8376639 10.3090978,20.3702406 8.89924248,20.3702406 C7.86699406,20.3702406 6.48032595,19.9899096 4.73923815,19.2292474 L4.73924609,19.2292292 C3.64281155,18.750209 2.36565313,19.2507222 1.88663292,20.3471568 C1.8652385,20.3961267 1.84566328,20.4458714 1.82794745,20.4962889 Z" id="shoe"></path>
                        </g>
                        <path d="M187.464069,162.589056 L205.202987,157.231489 C197.431084,134.034745 187.905513,108.507578 176.626274,80.6499885 C165.347035,52.7923993 153.233553,25.9090698 140.285826,2.84217094e-14 L90.1846773,2.84217094e-14 C104.579765,32.7737836 119.840489,62.5529731 135.966849,89.3375683 C152.093208,116.122164 169.258948,140.539326 187.464069,162.589056 Z" id="Pant" fill="#DB2721"></path>
                        <path d="M95.9130573,2.84217094e-14 C90.5368676,33.4114618 80.1676698,76.0984719 79.1890972,77.4158057 C78.5367154,78.2940283 55.0508038,86.1513571 8.73136247,100.987792 L10.718324,109.086135 C65.9541491,101.129259 95.0587184,94.9559876 98.0320317,90.5663201 C102.492002,83.9818188 124.761233,31.9641137 133.386523,2.84217094e-14 L95.9130573,2.84217094e-14 Z" id="Leg" fill="#B28B67"></path>
                        <path d="M25.0134287,93.987394 L28.513245,107.030361 C69.826424,110.648006 95.1399212,108.03403 104.453737,99.1884351 C113.767552,90.3428398 124.382553,57.2800281 136.298738,-1.13686838e-13 L88.5243009,-1.13686838e-13 C80.9744864,46.9046356 76.7536487,71.3414557 75.8617879,73.3104604 C74.9699271,75.2794651 58.020474,82.1717763 25.0134287,93.987394 Z" id="Pant" fill="#FF4133"></path>
                        <g id="Accessories/Shoe/Flat-Sneaker" transform="translate(18.781436, 117.866469) rotate(80.000000) translate(-18.781436, -117.866469) translate(-4.599535, 102.559136)" fill="#E4E4E4">
                            <path d="M1.82794745,20.4962889 C1.12357362,22.5008666 0.771386707,24.0261851 0.771386707,25.0722446 C0.771386707,26.4804828 1.00312223,28.5354526 1.46659328,31.2371539 C3.08028687,31.2371539 17.5828229,31.2371539 44.9742015,31.2371539 C46.10481,27.4531689 45.4521572,25.4103171 43.0162431,25.1085986 C40.580329,24.8068801 38.5567737,24.5344525 36.9455774,24.2913157 L17.0236594,15.3001628 C16.4783738,15.0540646 15.8368305,15.296604 15.5907323,15.8418897 C15.5851997,15.8541486 15.5798958,15.8665095 15.5748234,15.878966 L14.3965545,18.7725104 C12.1415351,19.8376639 10.3090978,20.3702406 8.89924248,20.3702406 C7.86699406,20.3702406 6.48032595,19.9899096 4.73923815,19.2292474 L4.73924609,19.2292292 C3.64281155,18.750209 2.36565313,19.2507222 1.88663292,20.3471568 C1.8652385,20.3961267 1.84566328,20.4458714 1.82794745,20.4962889 Z" id="shoe"></path>
                        </g>
                    </g>
                    <g id="Body/Jacket" transform="translate(17.000000, 63.000000)">
                        <path d="M148.722168,67.9990514 L170.442072,89.0953118 C176.760424,91.7806148 181.93771,94.7450365 185.97393,97.9885768 C186.881756,99.0786677 187.870421,101.167048 183.600775,100.23105 C179.331128,99.2950509 174.797969,98.5016688 173.996101,99.8836786 C173.194234,101.265688 175.559404,103.384807 174.077164,105.193335 C173.089004,106.39902 169.762681,102.561472 164.098196,93.6806908 L141.515734,80.4192572 L148.722168,67.9990514 Z M52.3859614,70.9689004 L68.4000249,71.0171297 C58.4831607,102.816431 53.1297951,119.689023 52.3399279,121.634908 C50.5627268,126.013148 54.3090525,132.675293 55.9104654,136.255852 C50.682001,138.589711 51.246711,129.963491 44.6510379,133.024239 C38.6308133,135.817948 34.0485803,140.874238 27.0998894,136.608016 C26.2455887,136.083509 25.3106882,134.106581 27.5752717,132.559007 C33.2171752,128.703433 41.3485812,121.957063 42.4484504,119.737869 C43.9483184,116.711602 47.260822,100.455279 52.3859614,70.9689004 Z" id="Skin" fill="#B28B67"></path>
                        <path d="M93.5237597,7.04456231 L100.027211,5.34204702 C113.879016,32.6223105 135.982713,56.5809179 166.338304,77.2178692 L147.209389,104.970276 C115.996497,74.5400134 95.5561135,42.1197921 93.5237597,7.04456231 Z" id="Coat-Back" fill="#191847" transform="translate(129.931032, 55.156162) rotate(5.000000) translate(-129.931032, -55.156162) "></path>
                        <path d="M68.9821999,86.9887478 L128.000304,86.9887478 C114.327166,53.8911674 107.490596,25.7751655 107.490596,2.64074206 L89.6877498,0 C75.6963852,22.4022022 71.7451871,49.9838489 68.9821999,86.9887478 Z" id="Shirt" fill="#DDE3E9"></path>
                        <path d="M89.3108209,0.0125293303 C89.3131583,0.00835216076 89.3154955,0.00417571725 89.3178325,-2.33309327e-14 L90.4799292,-4.26339562e-14 C91.8704785,0.0476707004 93.9884635,0.133558932 96.8338844,0.257664696 L101.135691,12.4965289 C101.590727,27.4185655 104.248066,57.4904958 109.10771,102.71232 L70.420158,102.71232 C70.5215771,105.835604 70.688801,108.988065 70.9218297,112.169701 L42.1557888,112.169701 C46.4586811,63.8405562 62.1723057,26.4506558 89.2966626,1.42108547e-14 L89.3108209,0.0125293255 Z" id="Coat-Front" fill="#2F3676"></path>
                        <path d="M72.9756791,62.7487237 C74.0767218,82.2180195 76.8333961,95.6394418 81.2457021,103.012991 L70.4301217,103.012991 C69.9566194,89.0054023 70.8051388,75.5839955 72.9756782,62.748729 Z" id="Shade" fill-opacity="0.1" fill="#000000"></path>
                        <polygon id="Light" fill-opacity="0.2" fill="#FFFFFF" points="79.031296 79.3581559 98.1080176 70.5290054 98.1080176 79.3581559"></polygon>
                    </g>
                </g>
                <g id="humaaan-3-copy" transform="translate(15.000000, 77.000000)">
                    <g id="Head/Front/Short-Beard" transform="translate(116.000000, 64.000000) rotate(-15.000000) translate(-116.000000, -64.000000) translate(52.000000, 15.000000)">
                        <g id="Head" stroke-width="1" transform="translate(50.933629, 29.122426)" fill="#B28B67">
                            <path d="M7.79310361,32.4011669 C3.44685258,27.3200073 0.505218964,21.0929761 0.996767667,14.1154088 C2.41305635,-5.98890537 30.5116309,-1.56621241 35.9773854,8.58071897 C41.4431398,18.7276503 40.7936661,44.4661833 33.7296655,46.2797229 C30.9125517,47.00296 24.9112619,45.2313187 18.803349,41.5645658 L22.6371686,68.5786167 L0,68.5786167 L7.79310361,32.4011669 Z"></path>
                        </g>
                        <path d="M70.8687739,45.4581619 C71.7352907,57.4802531 74.0274568,63.4912987 77.7452723,63.4912987 C83.3223221,63.4912987 88.0540527,59.9649962 90.5011282,59.9649962 C92.2849632,59.9649962 91.8866876,62.188349 90.7042685,63.836807 C89.7287346,65.196838 84.9779665,66.5077452 84.9779665,68.6162499 C84.9779665,70.7247546 88.7314673,69.0935207 88.7314673,70.3440336 C88.7314673,72.4125346 89.3911395,76.3016863 85.7865914,76.3016863 C82.1386684,76.3016863 71.679427,74.9776439 69.8869964,69.5851931 C68.730214,66.105063 67.9822711,58.8935825 67.6431677,47.9507516 C67.4218729,47.9245609 67.1966613,47.9110884 66.9682904,47.9110884 C63.8427496,47.9110884 61.3089982,50.4346795 61.3089982,53.547687 C61.3089982,55.1280185 61.9619785,56.5564499 63.0138741,57.5799349 C61.7043907,59.4208501 60.2368353,61.3439326 58.5551737,63.3283037 C52.2375353,59.5531767 47.5494883,48.5019648 53.7260053,37.8857198 C55.433214,32.6849864 59.2980957,29.9070792 63.862614,28.6172077 C67.5601091,27.0767358 71.3984589,26.9030463 74.6385727,27.8265453 C80.9900932,28.3691547 86.6616963,30.2981392 88.2690742,31.4437156 C88.2690742,37.4328124 87.1039293,39.2097598 77.1520032,39.0531285 C74.7066537,40.3393855 72.8267923,42.5543184 70.8687739,45.4581619 Z" id="Hair" fill="#191847"></path>
                    </g>
                    <g id="Bottom/Standing/Baggy-Pants" transform="translate(0.000000, 190.000000)">
                        <polygon id="Leg" fill="#997659" points="126.393896 0 172.689565 116.900579 203.740262 215.730165 216.001509 215.730165 168.531817 4.79017192e-13"></polygon>
                        <path d="M117.071524,0 C116.578541,41.0796661 109.389043,96.3867688 108.240404,98.9474661 C107.474644,100.654598 81.039387,122.36375 28.9346327,164.074923 L37.3796472,173.090878 C98.8584303,137.32878 131.02029,117.06284 133.865225,112.293058 C138.132629,105.138384 152.025824,39.3001398 163.180179,0 L117.071524,0 Z" id="Leg" fill="#B28B67"></path>
                        <g id="Accessories/Shoe/Flat-Sneaker" transform="translate(48.576759, 177.853652) rotate(50.000000) translate(-48.576759, -177.853652) translate(19.807999, 159.033159)" fill="#E4E4E4">
                            <path d="M2.44825128,24.5901134 C1.45069978,27.3121906 0.951924022,29.3600591 0.951924022,30.7337191 C0.951924022,32.4599466 1.23789552,34.9789419 1.80983852,38.2907048 C3.80120508,38.2907048 21.6979517,38.2907048 55.5000784,38.2907048 C56.8952974,33.6522715 56.0898961,31.1481306 53.0838744,30.7782822 C50.0778528,30.4084337 47.5806995,30.0744901 45.5924147,29.7764515 L20.7642609,18.645804 C20.2183604,18.4010727 19.5774268,18.6452186 19.3326955,19.191119 C19.32791,19.2017937 19.3232977,19.2125453 19.3188604,19.2233694 L17.7659609,23.0114644 C14.983171,24.3171364 12.7218654,24.9699724 10.9820439,24.9699724 C9.61597387,24.9699724 7.74690707,24.4338043 5.37484352,23.3614683 L5.37484606,23.3614626 C4.28457816,22.8685865 3.00118632,23.3528682 2.50831016,24.4431361 C2.48650138,24.4913782 2.4664683,24.5404036 2.44825128,24.5901134 Z" id="shoe"></path>
                        </g>
                        <g id="Accessories/Shoe/Flat-Sneaker" transform="translate(196.193510, 187.263898)" fill="#E4E4E4">
                            <path d="M2.44825128,24.5901134 C1.45069978,27.3121906 0.951924022,29.3600591 0.951924022,30.7337191 C0.951924022,32.4599466 1.23789552,34.9789419 1.80983852,38.2907048 C3.80120508,38.2907048 21.6979517,38.2907048 55.5000784,38.2907048 C56.8952974,33.6522715 56.0898961,31.1481306 53.0838744,30.7782822 C50.0778528,30.4084337 47.5806995,30.0744901 45.5924147,29.7764515 L20.7642609,18.645804 C20.2183604,18.4010727 19.5774268,18.6452186 19.3326955,19.191119 C19.32791,19.2017937 19.3232977,19.2125453 19.3188604,19.2233694 L17.7659609,23.0114644 C14.983171,24.3171364 12.7218654,24.9699724 10.9820439,24.9699724 C9.61597387,24.9699724 7.74690707,24.4338043 5.37484352,23.3614683 L5.37484606,23.3614626 C4.28457816,22.8685865 3.00118632,23.3528682 2.50831016,24.4431361 C2.48650138,24.4913782 2.4664683,24.5404036 2.44825128,24.5901134 Z" id="shoe"></path>
                        </g>
                        <polygon id="Pant" fill="#69A1AC" points="157.520751 205.550725 215.817072 199.238744 172.61256 2.84217094e-14 120.398744 2.84217094e-14"></polygon>
                        <path d="M40.9930853,149.529262 L79.2319946,194.684781 C119.508214,150.799157 142.989355,122.16378 149.675418,108.778649 C156.36148,95.3935185 162.37191,59.1339687 167.706708,0 L108.923379,0 C106.009242,52.0234863 104.04491,79.2456831 103.030385,81.6665905 C102.01586,84.0874979 81.3367598,106.708388 40.9930853,149.529262 Z" id="Pant" fill="#89C5CC"></path>
                    </g>
                    <g id="Body/Hoodie" transform="translate(140.500000, 180.000000) rotate(-10.000000) translate(-140.500000, -180.000000) translate(20.000000, 92.000000)">
                        <path d="M179.804545,86.6042826 L209.862555,108.59727 C218.015598,110.788226 224.827038,113.514754 230.296874,116.776855 C231.588871,117.950008 233.150194,120.326032 227.791156,119.916326 C222.432117,119.506619 216.776633,119.315854 216.036846,121.137546 C215.297058,122.959237 218.539705,125.137027 217.044496,127.595057 C216.047691,129.233744 211.340553,125.126114 202.923083,115.272168 L173.15603,102.975938 L179.804545,86.6042826 Z M64.40543,87.3491928 L84.0970184,87.412384 C71.9104326,126.545992 65.3317455,147.310119 64.360957,149.704766 C62.1766829,155.092721 66.7849203,163.292842 68.7549434,167.699885 C62.326359,170.570956 63.0186851,159.954644 54.9090964,163.719984 C47.5070399,167.156812 41.8737411,173.378583 33.3283123,168.126402 C32.277702,167.480677 31.1276351,165.047412 33.9118933,163.143325 C40.8484956,158.399551 50.8456046,150.098616 52.1975193,147.367677 C54.0410965,143.643554 58.1104,123.637393 64.40543,87.3491928 Z" id="Skin" fill="#B28B67"></path>
                        <path d="M115.667772,8.99734669 L123.664363,6.90194325 C156.062582,30.2057204 172.808122,78.9414934 212.046692,102.111275 L204.123667,113.863025 C139.377309,111.54436 118.166738,52.1668603 115.667772,8.99734669 Z" id="Coat-Back" fill="#E87613" transform="translate(163.857232, 60.382484) rotate(5.000000) translate(-163.857232, -60.382484) "></path>
                        <path d="M84.8199498,107.063074 C117.496134,107.063074 141.532051,107.063074 156.927699,107.063074 C160.222655,107.063074 159.601784,102.321905 159.125478,99.9294855 C153.628332,72.3180697 132.16956,42.5542995 132.16956,3.25014408 L111.370291,0 C94.1666229,27.5719411 88.2172963,61.5185832 84.8199498,107.063074 Z" id="Shirt" fill="#DDE3E9"></path>
                        <path d="M85.3994033,27.1019452 C82.3785704,26.2366406 79.9863835,24.2184803 78.2228426,21.0474642 C70.6206727,7.37803179 73.3661721,-0.148003229 81.4904807,-2.62185344 C89.6147893,-5.09570365 96.8599714,-1.82076576e-14 109.804167,-5.32907052e-15 C110.508223,-4.88498131e-15 111.15306,0.043982764 111.738676,0.131948292 L118.24993,0.502200897 C136.931429,63.5947095 142.083675,105.689049 133.706668,126.785219 L76.952253,126.785219 C73.5896143,134.598824 70.3718528,141.172873 67.2989686,146.507365 L51.8344138,146.507365 C50.3789819,99.6128844 61.5673117,59.8110779 85.3994033,27.1019452 Z" id="Coat-Front" fill="#FF9B21"></path>
                        <path d="M89.3109103,94.3823291 C91.0958256,109.264463 93.9969103,120.065426 98.0141643,126.785219 L76.952253,126.785219 C80.8746772,117.670867 84.9942296,106.869904 89.3109103,94.3823291 Z" id="Shade" fill-opacity="0.1" fill="#000000"></path>
                    </g>
                </g>
                <g id="A-Human/Standing" transform="translate(1230.000000, 234.000000) scale(-1, 1) translate(-1230.000000, -234.000000) translate(1106.000000, 58.000000)">
                    <g id="Head/Front/Long" transform="translate(67.786667, 0.000000)">
                        <path d="M57.7309359,75.0400552 C48.8252702,73.6909433 42,66.0028294 42,56.7205882 L42,40.8563348 C42,30.6228233 50.2959002,22.3269231 60.5294118,22.3269231 C67.8482233,22.3269231 74.1759784,26.5701405 77.1867937,32.7306921 C77.5290488,33.3387741 77.877151,34.1808928 78.2352941,35.3017311 C81.0972769,44.2585406 85.6872858,71.2840989 81.625986,75.2685775 L57.7436331,75.2685775 C57.7392467,75.1920526 57.7350146,75.1158776 57.7309356,75.0400503 Z" id="Hair-Back" fill="#191847"></path>
                        <g id="Head" stroke-width="1" transform="translate(44.470588, 25.634615)" fill="#B28B67">
                            <path d="M6.80422555,28.5206817 C3.00947652,24.0480608 0.441111007,18.5668022 0.870286393,12.4248946 C2.10686018,-5.27165163 26.6399664,-1.37863694 31.4121635,7.55305991 C36.1843606,16.4847568 35.6172995,39.1407466 29.44966,40.7370899 C26.9900138,41.3737094 21.7502363,39.8142465 16.4173652,36.5866377 L19.7647059,60.3653846 L0,60.3653846 L6.80422555,28.5206817 Z"></path>
                        </g>
                        <path d="M56.6176179,51.1657281 C57.5282582,60.9879254 57.1634284,72.2046614 54.4495154,74.8672396 L30.5671625,74.8672396 C29.2365088,51.652497 42.0965743,60.6422845 42.0965743,38.7850016 C42.8983495,37.9983923 43.6559621,37.2198288 44.4056265,36.5483951 L44.3790752,35.9055792 C48.5145713,27.4044238 53.7611512,23.1538462 60.1188151,23.1538462 C69.6553109,23.1538462 72.6654232,27.6095742 75.2283255,31.3925517 C73.3118421,37.9956066 65.874472,38.9746929 59.265904,43.0905578 C58.4869385,42.4550612 57.493648,42.0741877 56.4117647,42.0741877 C53.9102397,42.0741877 51.8823529,44.1104311 51.8823529,46.6222646 C51.8823529,49.1340982 53.9102397,51.1703416 56.4117647,51.1703416 C56.4807535,51.1703416 56.5493821,51.1687928 56.6176179,51.1657281 Z" id="Hair-Front" fill="#191847"></path>
                    </g>
                    <g id="Bottom/Standing/Skirt" transform="translate(0.000000, 154.516432)">
                        <path d="M80.5238021,80.8508393 C100.354996,86.3815527 117.464752,89.1469094 131.853068,89.1469094 C146.241383,89.1469094 159.605916,84.888309 171.946667,76.3711084 C152.540039,70.6943345 136.557817,67.8559476 124,67.8559476 C111.442183,67.8559476 96.9501171,72.1875782 80.5238021,80.8508393 Z" id="Skirt-Shadow" fill="#1F28CF"></path>
                        <path d="M149.020584,97.1187969 C148.829364,96.8321643 148.667878,96.5203655 148.539791,96.1826136 C145.889006,89.1927707 103.429958,13.7863185 99.2,0 L147.002899,0 C150.218996,10.4819326 164.694335,76.261057 166.731492,89.3849619 C173.159096,110.086501 186.39289,177.131227 188.082293,181.77588 C189.859516,186.661977 179.859672,191.752027 177.194949,185.745177 C172.954925,176.187264 162.852216,149.74069 158.353899,133.592597 C154.136735,118.453795 150.702838,104.834087 149.020584,97.1187969 Z" id="Leg" fill="#997659"></path>
                        <path d="M109.911171,106.325265 C90.4995924,111.217194 19.4961304,120.060936 14.6235619,121.448055 C9.61120905,122.874967 5.21633472,112.573366 11.4118735,110.341864 C21.2700218,106.791169 48.4336825,98.5871351 64.9031081,95.2392309 C78.1501168,92.5463795 90.2381748,90.3490163 98.3537785,89.0622646 C97.6662434,66.3316642 94.5233447,11.7817091 96.5833416,1.42108547e-14 L138.88,1.42108547e-14 C136.904602,11.2978668 120.205693,93.7338479 117.101962,101.985457 C116.11699,104.931336 113.17804,106.233198 109.911171,106.325265 Z" id="Leg" fill="#B28B67"></path>
                        <g id="Accessories/Shoe/Flat-Sneaker" transform="translate(20.253333, 129.410042) rotate(80.000000) translate(-20.253333, -129.410042) translate(-4.960000, 112.924686)" fill="#E4E4E4">
                            <path d="M2.05646067,21.3342463 C1.23193498,23.6096483 0.819672131,25.3272924 0.819672131,26.4871784 C0.819672131,27.9748896 1.06591328,30.1458301 1.55839559,33 C3.27309932,33 18.6834305,33 47.7893892,33 C48.9907688,29.0024685 48.2972628,26.8443299 45.7088712,26.5255841 C43.1204795,26.2068384 40.9702586,25.9190365 39.2582085,25.6621784 L17.9433264,16.0981329 C17.4394417,15.8720385 16.8476768,16.097232 16.6215823,16.6011166 C16.6170741,16.6111639 16.6127322,16.6212849 16.6085583,16.6314755 L15.2977157,19.8319234 C12.901542,20.957188 10.9544021,21.5198203 9.45629602,21.5198203 C8.30411391,21.5198203 6.73638147,21.0764751 4.75309871,20.1897846 L4.7530934,20.1897965 C3.74472121,19.7389712 2.56180793,20.1909522 2.11098263,21.1993244 C2.09117794,21.2436221 2.07299192,21.2886258 2.05646067,21.3342463 Z" id="shoe"></path>
                        </g>
                        <g id="Accessories/Shoe/Flat-Sneaker" transform="translate(171.946667, 164.029289)" fill="#E4E4E4">
                            <path d="M2.05646067,21.3342463 C1.23193498,23.6096483 0.819672131,25.3272924 0.819672131,26.4871784 C0.819672131,27.9748896 1.06591328,30.1458301 1.55839559,33 C3.27309932,33 18.6834305,33 47.7893892,33 C48.9907688,29.0024685 48.2972628,26.8443299 45.7088712,26.5255841 C43.1204795,26.2068384 40.9702586,25.9190365 39.2582085,25.6621784 L17.9433264,16.0981329 C17.4394417,15.8720385 16.8476768,16.097232 16.6215823,16.6011166 C16.6170741,16.6111639 16.6127322,16.6212849 16.6085583,16.6314755 L15.2977157,19.8319234 C12.901542,20.957188 10.9544021,21.5198203 9.45629602,21.5198203 C8.30411391,21.5198203 6.73638147,21.0764751 4.75309871,20.1897846 L4.7530934,20.1897965 C3.74472121,19.7389712 2.56180793,20.1909522 2.11098263,21.1993244 C2.09117794,21.2436221 2.07299192,21.2886258 2.05646067,21.3342463 Z" id="shoe"></path>
                        </g>
                        <path d="M96.72,2.66453526e-15 C115.358721,-5.31713639 132.994276,-5.31713639 149.626667,2.66453526e-15 C155.413333,26.3250261 169.474057,36.7734494 171.946667,77.1340936 C143.84,91.0591073 109.12,67.2029291 80.1866667,80.7826203 C71.92,61.7880257 83.4933333,16.0439752 96.72,2.66453526e-15 Z" id="Skirt" fill="#2B44FF"></path>
                    </g>
                    <g id="Body/Long-Sleeve" transform="translate(18.186667, 67.755869)">
                        <path d="M159,54.1346119 L191.696757,49.6705912 C198.237434,46.0292198 204.254541,43.564075 209.748076,42.275157 C211.294013,42.2299792 213.753303,42.7924776 210.089643,45.8494947 C206.425983,48.9065118 202.708683,52.2882111 203.361436,53.9196877 C204.014189,55.5511644 207.421347,54.9441458 207.985778,57.4534956 C208.362066,59.1263955 202.832456,59.3982251 191.39695,58.2689843 L164.866333,68.7967914 L159,54.1346119 Z M56.2796888,61.7134317 L74.4141908,61.7848947 C54.5374946,106.566846 44.1734948,130.013974 43.3221914,132.126278 C41.4067587,136.878963 45.4632633,144.118507 47.1981323,148.008902 C41.5505263,150.5373 42.1506061,141.169859 35.0263264,144.486046 C28.5236143,147.512907 23.5776048,152.99864 16.0631589,148.357292 C15.1393019,147.786665 14.1266243,145.638608 16.5721143,143.960613 C22.6647219,139.780116 31.4443001,132.463145 32.6302973,130.054392 C34.2476165,126.769628 42.130747,103.989308 56.2796888,61.7134317 Z" id="Skin" fill="#997659"></path>
                        <path d="M102.251548,8.01463819 L116.478112,7.71917162 C122.718729,38.9577507 143.434352,57.2204386 185.326478,46.7552491 L194.521055,86.8821683 C155.264389,95.4952611 119.051668,82.6336731 108.149629,40.1795215 C105.327435,29.1894828 102.854267,17.7115912 102.251548,8.01463819 Z" id="Clothes-Back" fill="#AFB9C5" transform="translate(148.386302, 48.565122) rotate(5.000000) translate(-148.386302, -48.565122) "></path>
                        <path d="M98.9533325,0.0132119295 L120.46536,4.94448058 C120.46536,41.977999 132.251583,65.6059954 138.296875,92.8342246 L80.1986511,92.8342246 C79.3802361,102.242723 78.8776547,111.912955 78.6157616,121.84492 L35.1138546,121.84492 C44.9716307,69.3471353 65.7780609,28.7321621 97.5331452,0 L98.9420183,0 L98.9533325,0.0132119295 Z" id="Clothes" fill="#C5CFD6"></path>
                        <path d="M89.3650005,40.000982 C87.8677588,63.0779783 88.7483294,80.6890592 92.0067125,92.8342246 L80.1986511,92.8342246 C81.8199288,74.1960151 84.680648,56.5849372 89.364998,40.0009909 Z" id="Shade" fill-opacity="0.1" fill="#000000"></path>
                    </g>
                </g>
            </g>
        </g>
    </g>
</svg>