<svg id="Calque_1" data-name="Calque 1" xmlns="http://www.w3.org/2000/svg" viewBox="0 0 515 75"><defs><style>.cls-1{fill:#fff;}.cls-2{fill:#1b2e57;}</style></defs><title>pe-connect-504x50-w</title><path class="cls-1" d="M35.5,66.5a29,29,0,0,1,0-58h444a29,29,0,0,1,0,58Z"/><path class="cls-2" d="M479.5,9.5a28,28,0,0,1,0,56H35.5a28,28,0,0,1,0-56h444m0-2H35.5a30,30,0,0,0,0,60h444a30,30,0,0,0,0-60Z"/><path class="cls-2" d="M173.85,35a.67.67,0,0,1-.23.28.57.57,0,0,1-.31.08.79.79,0,0,1-.4-.14l-.53-.31a4.3,4.3,0,0,0-.72-.31,3,3,0,0,0-1-.14,2.84,2.84,0,0,0-.88.12,1.86,1.86,0,0,0-.63.34,1.34,1.34,0,0,0-.38.52,1.69,1.69,0,0,0-.13.66,1.15,1.15,0,0,0,.26.76,2.13,2.13,0,0,0,.68.52,6.28,6.28,0,0,0,1,.39l1.1.36a10.75,10.75,0,0,1,1.1.45,3.82,3.82,0,0,1,1,.65,2.94,2.94,0,0,1,.68,1,3.32,3.32,0,0,1,.26,1.38,4.48,4.48,0,0,1-.3,1.65,3.81,3.81,0,0,1-.88,1.34,4.14,4.14,0,0,1-1.42.9,5.23,5.23,0,0,1-1.92.33,6.18,6.18,0,0,1-1.22-.12,6.43,6.43,0,0,1-1.16-.35,6,6,0,0,1-1-.54,5,5,0,0,1-.86-.7l.7-1.16a.88.88,0,0,1,.24-.21.58.58,0,0,1,.31-.09.86.86,0,0,1,.49.18l.62.41a4.69,4.69,0,0,0,.84.41,3.23,3.23,0,0,0,1.16.18,2.37,2.37,0,0,0,1.6-.49,1.76,1.76,0,0,0,.57-1.41,1.31,1.31,0,0,0-.26-.84,2.08,2.08,0,0,0-.68-.54,5.14,5.14,0,0,0-1-.37l-1.1-.33a9.47,9.47,0,0,1-1.1-.43,3.55,3.55,0,0,1-1-.66,3,3,0,0,1-.68-1,3.86,3.86,0,0,1-.26-1.5,3.58,3.58,0,0,1,1.11-2.58,4.08,4.08,0,0,1,1.34-.84,4.86,4.86,0,0,1,1.81-.32,6.07,6.07,0,0,1,2.12.36,4.79,4.79,0,0,1,1.66,1Z"/><path class="cls-2" d="M180.22,36.46a4.49,4.49,0,0,1,1.61.28,3.52,3.52,0,0,1,1.26.81,3.73,3.73,0,0,1,.83,1.31,5,5,0,0,1,.3,1.78,3.29,3.29,0,0,1,0,.42.68.68,0,0,1-.08.26.33.33,0,0,1-.16.13.66.66,0,0,1-.25,0H178a3.18,3.18,0,0,0,.77,2.09,2.38,2.38,0,0,0,1.76.67,3.06,3.06,0,0,0,.93-.13,4.31,4.31,0,0,0,.68-.28l.51-.28a.86.86,0,0,1,.43-.13.48.48,0,0,1,.23.05.51.51,0,0,1,.17.15l.65.81a3.71,3.71,0,0,1-.83.72,4.63,4.63,0,0,1-1,.47,5.29,5.29,0,0,1-1,.25,7.31,7.31,0,0,1-1,.07,4.94,4.94,0,0,1-1.79-.32,4,4,0,0,1-1.44-.95,4.43,4.43,0,0,1-1-1.55,6,6,0,0,1-.35-2.14,5.1,5.1,0,0,1,.31-1.78A4.28,4.28,0,0,1,177,37.8a4.13,4.13,0,0,1,1.4-1A4.6,4.6,0,0,1,180.22,36.46Zm0,.93a2.06,2.06,0,0,0-1.52.55,2.71,2.71,0,0,0-.7,1.56h4.18a2.77,2.77,0,0,0-.12-.81,1.87,1.87,0,0,0-.36-.67,1.71,1.71,0,0,0-.61-.45A2.09,2.09,0,0,0,180.26,37.39Z"/><path class="cls-2" d="M196,38.36a1.1,1.1,0,0,1-.19.2.44.44,0,0,1-.27.07.61.61,0,0,1-.33-.1l-.39-.23a2.88,2.88,0,0,0-.54-.23,2.46,2.46,0,0,0-.77-.1,2.35,2.35,0,0,0-1,.21,2,2,0,0,0-.73.61,2.75,2.75,0,0,0-.44,1,5.17,5.17,0,0,0-.14,1.27,5,5,0,0,0,.16,1.31,2.81,2.81,0,0,0,.45,1,2,2,0,0,0,.72.59,2.17,2.17,0,0,0,1,.2,2.36,2.36,0,0,0,.86-.13,2.68,2.68,0,0,0,.55-.29l.39-.29a.59.59,0,0,1,.37-.13.45.45,0,0,1,.4.21l.64.81a4,4,0,0,1-.8.72,4.31,4.31,0,0,1-.9.47,4.59,4.59,0,0,1-1,.25,6.82,6.82,0,0,1-1,.07,4.1,4.1,0,0,1-1.61-.32,3.76,3.76,0,0,1-1.32-.93,4.49,4.49,0,0,1-.89-1.5,5.79,5.79,0,0,1-.33-2,5.88,5.88,0,0,1,.29-1.89,4.26,4.26,0,0,1,.86-1.5,3.94,3.94,0,0,1,1.4-1,4.84,4.84,0,0,1,1.93-.36,4.58,4.58,0,0,1,1.81.33,4.44,4.44,0,0,1,1.4,1Z"/><path class="cls-2" d="M202,36.26a5.06,5.06,0,0,1,1.88.33,4.05,4.05,0,0,1,1.44.94,4.18,4.18,0,0,1,.92,1.49,6.18,6.18,0,0,1,0,4,4.27,4.27,0,0,1-.92,1.5,4,4,0,0,1-1.44,1,5.47,5.47,0,0,1-3.76,0,4,4,0,0,1-1.44-1,4.29,4.29,0,0,1-.93-1.5,6.1,6.1,0,0,1,0-4,4.2,4.2,0,0,1,.93-1.49,4.09,4.09,0,0,1,1.44-.94A5.09,5.09,0,0,1,202,36.26Zm0,7.8a2,2,0,0,0,1.71-.77,3.88,3.88,0,0,0,.55-2.27,3.92,3.92,0,0,0-.55-2.28A2,2,0,0,0,202,38a2,2,0,0,0-1.73.79,3.9,3.9,0,0,0-.56,2.27,3.86,3.86,0,0,0,.56,2.26A2,2,0,0,0,202,44.06Z"/><path class="cls-2" d="M208.5,45.5v-9h1.35a.54.54,0,0,1,.56.39l.15.71a5,5,0,0,1,.59-.51,4.09,4.09,0,0,1,.65-.39,3.36,3.36,0,0,1,.74-.25,4,4,0,0,1,.86-.09,3.35,3.35,0,0,1,1.33.25,2.63,2.63,0,0,1,1,.7,3.07,3.07,0,0,1,.59,1.08,4.51,4.51,0,0,1,.2,1.38V45.5h-2V39.76c-.36-.56-.49-1-.75-1.31a1.45,1.45,0,0,0-1.17-.46,2.32,2.32,0,0,0-1.08.26,5,5,0,0,0-1,.71V45.5Z"/><path class="cls-2" d="M218.5,45.5v-9h1.35a.54.54,0,0,1,.56.39l.15.71a5,5,0,0,1,.59-.51,4.09,4.09,0,0,1,.65-.39,3.36,3.36,0,0,1,.74-.25,4,4,0,0,1,.86-.09,3.35,3.35,0,0,1,1.33.25,2.63,2.63,0,0,1,1,.7,3.07,3.07,0,0,1,.59,1.08,4.51,4.51,0,0,1,.2,1.38V45.5h-2V39.76a3,3,0,0,0-.52-1.31,1.45,1.45,0,0,0-1.17-.46,2.32,2.32,0,0,0-1.08.26c-.34.17-.65.41-1.23.71V45.5Z"/><path class="cls-2" d="M232.6,36.46a4.49,4.49,0,0,1,1.61.28,3.52,3.52,0,0,1,1.26.81,3.73,3.73,0,0,1,.83,1.31,5,5,0,0,1,.3,1.78,3.29,3.29,0,0,1,0,.42.68.68,0,0,1-.08.26.33.33,0,0,1-.16.13.66.66,0,0,1-.25,0h-5.71a3.18,3.18,0,0,0,.77,2.09,2.38,2.38,0,0,0,1.76.67,3.06,3.06,0,0,0,.93-.13,4.31,4.31,0,0,0,.68-.28l.51-.28a.86.86,0,0,1,.43-.13.48.48,0,0,1,.23.05.51.51,0,0,1,.17.15l.65.81a3.71,3.71,0,0,1-.83.72,4.63,4.63,0,0,1-1,.47,5.29,5.29,0,0,1-1,.25,7.31,7.31,0,0,1-1,.07,4.94,4.94,0,0,1-1.79-.32,4,4,0,0,1-1.44-.95,4.43,4.43,0,0,1-1-1.55,6,6,0,0,1-.35-2.14,5.1,5.1,0,0,1,.31-1.78,4.28,4.28,0,0,1,.88-1.45,4.13,4.13,0,0,1,1.4-1A4.6,4.6,0,0,1,232.6,36.46Zm0,.93a2.06,2.06,0,0,0-1.52.55,2.71,2.71,0,0,0-.7,1.56h4.18a2.77,2.77,0,0,0-.12-.81,1.87,1.87,0,0,0-.36-.67,1.71,1.71,0,0,0-.61-.45A2.09,2.09,0,0,0,232.64,37.39Z"/><path class="cls-2" d="M244.89,38.36a1.1,1.1,0,0,1-.19.2.44.44,0,0,1-.27.07.61.61,0,0,1-.33-.1l-.39-.23a2.88,2.88,0,0,0-.54-.23,2.46,2.46,0,0,0-.77-.1,2.35,2.35,0,0,0-1,.21,2,2,0,0,0-.73.61,2.75,2.75,0,0,0-.44,1,5.17,5.17,0,0,0-.14,1.27,5,5,0,0,0,.16,1.31,2.81,2.81,0,0,0,.45,1,2,2,0,0,0,.72.59,2.17,2.17,0,0,0,1,.2,2.36,2.36,0,0,0,.86-.13,2.68,2.68,0,0,0,.55-.29l.39-.29a.59.59,0,0,1,.37-.13.45.45,0,0,1,.4.21l.64.81a4,4,0,0,1-.8.72,4.31,4.31,0,0,1-.9.47,4.59,4.59,0,0,1-1,.25,6.82,6.82,0,0,1-1,.07,4.1,4.1,0,0,1-1.61-.32,3.76,3.76,0,0,1-1.32-.93,4.49,4.49,0,0,1-.89-1.5,5.79,5.79,0,0,1-.33-2,5.88,5.88,0,0,1,.29-1.89,4.26,4.26,0,0,1,.86-1.5,3.94,3.94,0,0,1,1.4-1,4.84,4.84,0,0,1,1.93-.36,4.58,4.58,0,0,1,1.81.33,4.44,4.44,0,0,1,1.4,1Z"/><path class="cls-2" d="M250,45.78a2.43,2.43,0,0,1-1.85-.68,2.75,2.75,0,0,1-.68-1.88V37.5h-.91s-.22.53-.31.45-.13-.19-.78-.35v-.88l2.14-.24L248.1,34a.44.44,0,0,1,.17-.28c.09-.07.2-.1.33-.18h.9v3h2v2l-2-1v5.57c.25.29.32.51.47.68a.73.73,0,0,0,.58.24,1,1,0,0,0,.35,0l.24-.1.18-.1a.31.31,0,0,1,.16,0,.25.25,0,0,1,.16,0,.76.76,0,0,1,.14.15l.67,1.08a3.37,3.37,0,0,1-1.12.61A4.13,4.13,0,0,1,250,45.78Z"/><path class="cls-2" d="M257.77,36.46a4.49,4.49,0,0,1,1.61.28,3.52,3.52,0,0,1,1.26.81,3.74,3.74,0,0,1,.83,1.31,5,5,0,0,1,.3,1.78,3.29,3.29,0,0,1,0,.42.68.68,0,0,1-.08.26.33.33,0,0,1-.16.13.66.66,0,0,1-.25,0h-5.71a3.18,3.18,0,0,0,.77,2.09,2.38,2.38,0,0,0,1.76.67,3.05,3.05,0,0,0,.93-.13,4.29,4.29,0,0,0,.68-.28l.51-.28a.86.86,0,0,1,.43-.13.48.48,0,0,1,.23.05.51.51,0,0,1,.17.15l.65.81a3.72,3.72,0,0,1-.83.72,4.63,4.63,0,0,1-1,.47,5.29,5.29,0,0,1-1,.25,7.3,7.3,0,0,1-1,.07,4.93,4.93,0,0,1-1.79-.32,4,4,0,0,1-1.44-.95,4.43,4.43,0,0,1-1-1.55,6,6,0,0,1-.35-2.14,5.1,5.1,0,0,1,.31-1.78,4.28,4.28,0,0,1,.88-1.45,4.13,4.13,0,0,1,1.4-1A4.6,4.6,0,0,1,257.77,36.46Zm0,.93a2.05,2.05,0,0,0-1.52.55,2.71,2.71,0,0,0-.7,1.56h4.18a2.77,2.77,0,0,0-.12-.81,1.88,1.88,0,0,0-.36-.67,1.71,1.71,0,0,0-.61-.45A2.09,2.09,0,0,0,257.82,37.39Z"/><path class="cls-2" d="M263.5,45.5v-9h1.38a.43.43,0,0,1,.48,0,.73.73,0,0,1,.18.43l.13,1.12a4.39,4.39,0,0,1,1.16-1.35,2.44,2.44,0,0,1,1.49-.49,1.93,1.93,0,0,1,1.13.31l-.29,1.67a.34.34,0,0,1-.12.23.39.39,0,0,1-.24.07,1.51,1.51,0,0,1-.37-.06,2.47,2.47,0,0,0-.62-.06,1.89,1.89,0,0,0-1.19.38c-.33.26-.61.63-1.13,1.12V45.5Z"/><path class="cls-2" d="M281.5,45.5h-.92a.92.92,0,0,1-.46-.09.6.6,0,0,1-.25-.38l-.18-.66a7.31,7.31,0,0,1-.63.55,3.88,3.88,0,0,1-.64.4,3.16,3.16,0,0,1-.71.24,3.94,3.94,0,0,1-.83.08,3,3,0,0,1-1-.16,2.1,2.1,0,0,1-.78-.47,2.15,2.15,0,0,1-.51-.79,3,3,0,0,1-.18-1.09,2.31,2.31,0,0,1,.25-1,2.5,2.5,0,0,1,.84-.92,5.14,5.14,0,0,1,1.57-.68,9.27,9.27,0,0,1,2.43-.27v-.54a2.19,2.19,0,0,0-.36-1.38,1.27,1.27,0,0,0-1-.45,2.35,2.35,0,0,0-.83.13,3.12,3.12,0,0,0-.58.28l-.45.28a.86.86,0,0,1-.46.13.56.56,0,0,1-.36-.12.9.9,0,0,1-.24-.29l-.37-.71a4.85,4.85,0,0,1,3.54-1.46,3.19,3.19,0,0,1,1.33.27,2.85,2.85,0,0,1,1,.74,3.23,3.23,0,0,1,.62,1.13,4.67,4.67,0,0,1,.21,1.44Zm-4.15-1.25a3,3,0,0,0,.63-.06,2.43,2.43,0,0,0,.54-.19,2.93,2.93,0,0,0,.5-.31,4.41,4.41,0,0,0,.48-.43V41.72a9.07,9.07,0,0,0-1.62.12,4.3,4.3,0,0,0-1,.31,1.34,1.34,0,0,0-.56.44,1,1,0,0,0-.17.55,1,1,0,0,0,.35.84A1.5,1.5,0,0,0,277.35,44.25Z"/><path class="cls-2" d="M288.1,45.5h-2l-3.58-9h1.8a.68.68,0,0,1,.4.11.59.59,0,0,1,.22.29l1.74,4.81c.1.28.18.56.25.83s.13.54.18.81q.08-.4.18-.81a7.38,7.38,0,0,1,.26-.83l1.78-4.81a.59.59,0,0,1,.22-.29.63.63,0,0,1,.38-.11h1.71Z"/><path class="cls-2" d="M296.62,36.46a4.49,4.49,0,0,1,1.61.28,3.52,3.52,0,0,1,1.26.81,3.74,3.74,0,0,1,.83,1.31,5,5,0,0,1,.3,1.78,3.29,3.29,0,0,1,0,.42.67.67,0,0,1-.08.26.33.33,0,0,1-.16.13.67.67,0,0,1-.25,0H294.4a3.18,3.18,0,0,0,.76,2.09,2.38,2.38,0,0,0,1.76.67,3.05,3.05,0,0,0,.93-.13,4.31,4.31,0,0,0,.68-.28l.51-.28a.86.86,0,0,1,.43-.13.48.48,0,0,1,.23.05.52.52,0,0,1,.17.15l.65.81a3.7,3.7,0,0,1-.83.72,4.62,4.62,0,0,1-1,.47,5.28,5.28,0,0,1-1,.25,7.3,7.3,0,0,1-1,.07,4.93,4.93,0,0,1-1.79-.32,4,4,0,0,1-1.44-.95,4.43,4.43,0,0,1-1-1.55,6,6,0,0,1-.35-2.14,5.1,5.1,0,0,1,.31-1.78,4.26,4.26,0,0,1,.88-1.45,4.13,4.13,0,0,1,1.39-1A4.6,4.6,0,0,1,296.62,36.46Zm0,.93a2.05,2.05,0,0,0-1.52.55,2.7,2.7,0,0,0-.7,1.56h4.18a2.77,2.77,0,0,0-.12-.81,1.9,1.9,0,0,0-.36-.67,1.71,1.71,0,0,0-.61-.45A2.09,2.09,0,0,0,296.67,37.39Z"/><path class="cls-2" d="M308.92,38.36a1.07,1.07,0,0,1-.19.2.44.44,0,0,1-.27.07.61.61,0,0,1-.33-.1l-.39-.23a2.91,2.91,0,0,0-.54-.23,2.46,2.46,0,0,0-.77-.1,2.35,2.35,0,0,0-1,.21,1.94,1.94,0,0,0-.73.61,2.73,2.73,0,0,0-.44,1,5.12,5.12,0,0,0-.14,1.27,5,5,0,0,0,.16,1.31,2.8,2.8,0,0,0,.45,1,2,2,0,0,0,.72.59,2.17,2.17,0,0,0,1,.2,2.36,2.36,0,0,0,.86-.13,2.7,2.7,0,0,0,.55-.29l.39-.29a.59.59,0,0,1,.37-.13.45.45,0,0,1,.41.21l.64.81a4,4,0,0,1-.8.72,4.31,4.31,0,0,1-.9.47,4.57,4.57,0,0,1-1,.25,6.83,6.83,0,0,1-1,.07,4.09,4.09,0,0,1-1.61-.32,3.75,3.75,0,0,1-1.32-.93,4.49,4.49,0,0,1-.89-1.5,5.8,5.8,0,0,1-.33-2,5.86,5.86,0,0,1,.29-1.89,4.27,4.27,0,0,1,.86-1.5,4,4,0,0,1,1.4-1,4.84,4.84,0,0,1,1.93-.36,4.58,4.58,0,0,1,1.81.33,4.43,4.43,0,0,1,1.4,1Z"/><path class="cls-2" d="M314.5,48.5v-12h1.35a.31.31,0,0,1,.37,0,.47.47,0,0,1,.2.31l.18.85a4.67,4.67,0,0,1,1.28-1,3.48,3.48,0,0,1,1.7-.4,3,3,0,0,1,1.38.31,3.09,3.09,0,0,1,1.08.91,4.39,4.39,0,0,1,.7,1.48,7.42,7.42,0,0,1,.25,2,6.34,6.34,0,0,1-.28,1.92,4.71,4.71,0,0,1-.8,1.53A3.59,3.59,0,0,1,319,45.77a3.3,3.3,0,0,1-1.33-.24c-.36-.16-.69-.38-1.19-.66V48.5ZM318.6,38a2.27,2.27,0,0,0-1.18.29,3.42,3.42,0,0,0-.91.82v4.14a2.11,2.11,0,0,0,.82.65,2.48,2.48,0,0,0,1,.18,2.15,2.15,0,0,0,.91-.19,1.77,1.77,0,0,0,.69-.58,2.88,2.88,0,0,0,.44-1,5.6,5.6,0,0,0,.15-1.39,6.18,6.18,0,0,0-.13-1.37,2.65,2.65,0,0,0-.37-.91,1.48,1.48,0,0,0-.59-.51A1.84,1.84,0,0,0,318.6,38Z"/><path class="cls-2" d="M328.61,36.26a5.06,5.06,0,0,1,1.88.33,4.06,4.06,0,0,1,1.44.94,4.2,4.2,0,0,1,.92,1.49,6.2,6.2,0,0,1,0,4,4.3,4.3,0,0,1-.92,1.5,4,4,0,0,1-1.44,1,5.47,5.47,0,0,1-3.76,0,4,4,0,0,1-1.44-1,4.29,4.29,0,0,1-.93-1.5,6.09,6.09,0,0,1,0-4,4.2,4.2,0,0,1,.93-1.49,4.08,4.08,0,0,1,1.44-.94A5.09,5.09,0,0,1,328.61,36.26Zm3.11-.76h-1.49a1.33,1.33,0,0,0-.45-.53l-.94-.85-.09-.09-.09-.11-.09.11-.09.09-1,.85a.7.7,0,0,1-.19.11c-.08,0-.17,0-.26.42h-1.54l2.06-3h2.09Zm-3.11,8.56a2,2,0,0,0,1.71-.77,3.89,3.89,0,0,0,.55-2.27,3.93,3.93,0,0,0-.55-2.28,2,2,0,0,0-1.71-.78,2,2,0,0,0-1.73.79,3.9,3.9,0,0,0-.56,2.27,3.86,3.86,0,0,0,.56,2.26A2,2,0,0,0,328.61,44.06Z"/><path class="cls-2" d="M337.5,32.5v13h-2v-13Z"/><path class="cls-2" d="M343.59,36.46a4.49,4.49,0,0,1,1.61.28,3.52,3.52,0,0,1,1.26.81,3.74,3.74,0,0,1,.83,1.31,5,5,0,0,1,.3,1.78,3.29,3.29,0,0,1,0,.42.67.67,0,0,1-.08.26.33.33,0,0,1-.16.13.67.67,0,0,1-.25,0h-5.71a3.18,3.18,0,0,0,.76,2.09,2.38,2.38,0,0,0,1.76.67,3.05,3.05,0,0,0,.93-.13,4.31,4.31,0,0,0,.68-.28l.51-.28a.86.86,0,0,1,.43-.13.48.48,0,0,1,.23.05.52.52,0,0,1,.17.15l.65.81a3.7,3.7,0,0,1-.83.72,4.62,4.62,0,0,1-1,.47,5.28,5.28,0,0,1-1,.25,7.3,7.3,0,0,1-1,.07,4.93,4.93,0,0,1-1.79-.32,4,4,0,0,1-1.44-.95,4.43,4.43,0,0,1-1-1.55,6,6,0,0,1-.35-2.14,5.1,5.1,0,0,1,.31-1.78,4.26,4.26,0,0,1,.88-1.45,4.13,4.13,0,0,1,1.39-1A4.6,4.6,0,0,1,343.59,36.46Zm0,.93a2.05,2.05,0,0,0-1.52.55,2.7,2.7,0,0,0-.7,1.56h4.18a2.77,2.77,0,0,0-.12-.81,1.9,1.9,0,0,0-.36-.67,1.71,1.71,0,0,0-.61-.45A2.09,2.09,0,0,0,343.64,37.39Z"/><path class="cls-2" d="M356.69,36.46a4.49,4.49,0,0,1,1.61.28,3.52,3.52,0,0,1,1.26.81,3.74,3.74,0,0,1,.83,1.31,5,5,0,0,1,.3,1.78,3.29,3.29,0,0,1,0,.42.67.67,0,0,1-.08.26.33.33,0,0,1-.16.13.67.67,0,0,1-.25,0h-5.71a3.18,3.18,0,0,0,.76,2.09,2.38,2.38,0,0,0,1.76.67,3.05,3.05,0,0,0,.93-.13,4.31,4.31,0,0,0,.68-.28l.51-.28a.86.86,0,0,1,.43-.13.48.48,0,0,1,.23.05.52.52,0,0,1,.17.15l.65.81a3.7,3.7,0,0,1-.83.72,4.62,4.62,0,0,1-1,.47,5.28,5.28,0,0,1-1,.25,7.3,7.3,0,0,1-1,.07,4.93,4.93,0,0,1-1.79-.32,4,4,0,0,1-1.44-.95,4.43,4.43,0,0,1-1-1.55,6,6,0,0,1-.35-2.14,5.1,5.1,0,0,1,.31-1.78,4.26,4.26,0,0,1,.88-1.45,4.13,4.13,0,0,1,1.39-1A4.6,4.6,0,0,1,356.69,36.46Zm0,.93a2.05,2.05,0,0,0-1.52.55,2.7,2.7,0,0,0-.7,1.56h4.18a2.77,2.77,0,0,0-.12-.81,1.9,1.9,0,0,0-.36-.67,1.71,1.71,0,0,0-.61-.45A2.09,2.09,0,0,0,356.73,37.39Z"/><path class="cls-2" d="M362.5,45.5v-9h1.36a.55.55,0,0,1,.57.39l.14.67a5.28,5.28,0,0,1,.51-.48,3.27,3.27,0,0,1,.57-.38,3.1,3.1,0,0,1,.65-.25,3,3,0,0,1,.76-.09,2.2,2.2,0,0,1,1.44.46,2.77,2.77,0,0,1,.84,1.22,2.76,2.76,0,0,1,.54-.77,3,3,0,0,1,.71-.52,3.36,3.36,0,0,1,.83-.3,4.07,4.07,0,0,1,.88-.1,3.8,3.8,0,0,1,1.36.23,2.63,2.63,0,0,1,1,.67,2.92,2.92,0,0,1,.62,1.07,4.55,4.55,0,0,1,.21,1.45V45.5h-2V39.62a2,2,0,0,0-.37-1.33,1.33,1.33,0,0,0-1.08-.45,1.56,1.56,0,0,0-.61.12,1.43,1.43,0,0,0-.49.34,1.55,1.55,0,0,0-.33.55,2.25,2.25,0,0,0-.12.77V45.5h-3V39.62a2.08,2.08,0,0,0-.36-1.35,1.3,1.3,0,0,0-1.05-.42,1.64,1.64,0,0,0-.85.24,2.92,2.92,0,0,0-.74.65V45.5Z"/><path class="cls-2" d="M377.5,48.5v-12H379a.31.31,0,0,1,.37,0,.47.47,0,0,1,.2.31l.18.85a4.67,4.67,0,0,1,1.28-1,3.48,3.48,0,0,1,1.7-.4,3,3,0,0,1,1.38.31,3.09,3.09,0,0,1,1.08.91,4.39,4.39,0,0,1,.7,1.48,7.42,7.42,0,0,1,.25,2,6.34,6.34,0,0,1-.28,1.92,4.71,4.71,0,0,1-.8,1.53,3.59,3.59,0,0,1-2.89,1.38,3.3,3.3,0,0,1-1.33-.24c-.36-.16-.69-.38-1.35-.66V48.5ZM381.6,38a2.27,2.27,0,0,0-1.18.29,3.42,3.42,0,0,0-.91.82v4.14a2.11,2.11,0,0,0,.82.65,2.48,2.48,0,0,0,1,.18,2.15,2.15,0,0,0,.91-.19,1.77,1.77,0,0,0,.69-.58,2.88,2.88,0,0,0,.44-1,5.6,5.6,0,0,0,.15-1.39,6.18,6.18,0,0,0-.13-1.37,2.65,2.65,0,0,0-.37-.91,1.48,1.48,0,0,0-.59-.51A1.84,1.84,0,0,0,381.6,38Z"/><path class="cls-2" d="M390.5,32.5v13h-2v-13Z"/><path class="cls-2" d="M396.65,36.26a5.06,5.06,0,0,1,1.88.33,4.06,4.06,0,0,1,1.44.94,4.2,4.2,0,0,1,.92,1.49,6.2,6.2,0,0,1,0,4,4.3,4.3,0,0,1-.92,1.5,4,4,0,0,1-1.44,1,5.47,5.47,0,0,1-3.76,0,4,4,0,0,1-1.44-1,4.29,4.29,0,0,1-.93-1.5,6.09,6.09,0,0,1,0-4,4.2,4.2,0,0,1,.93-1.49,4.08,4.08,0,0,1,1.44-.94A5.09,5.09,0,0,1,396.65,36.26Zm0,7.8a2,2,0,0,0,1.71-.77,3.89,3.89,0,0,0,.55-2.27,3.93,3.93,0,0,0-.55-2.28,2,2,0,0,0-1.71-.78,2,2,0,0,0-1.73.79,3.9,3.9,0,0,0-.56,2.27,3.86,3.86,0,0,0,.56,2.26A2,2,0,0,0,396.65,44.06Z"/><path class="cls-2" d="M405.64,33.71a1.28,1.28,0,0,1-.12.54,1.47,1.47,0,0,1-.77.74,1.39,1.39,0,0,1-.56.11,1.34,1.34,0,0,1-.54-.11,1.44,1.44,0,0,1-.45-.3,1.46,1.46,0,0,1-.3-.44,1.31,1.31,0,0,1-.11-.54,1.39,1.39,0,0,1,.11-.56,1.41,1.41,0,0,1,.75-.75,1.34,1.34,0,0,1,.54-.11,1.39,1.39,0,0,1,.56.11,1.5,1.5,0,0,1,.46.3,1.46,1.46,0,0,1,.31.45A1.36,1.36,0,0,1,405.64,33.71Zm-.14,2.79v9h-2v-9Z"/><path class="cls-2" d="M132.34,46.44c-2.07-2.13-3.12-5-3.12-8.74a14.64,14.64,0,0,1,.78-4.84,10.56,10.56,0,0,1,2.24-3.79,9.7,9.7,0,0,1,3.62-2.42,13.13,13.13,0,0,1,4.81-.85,12.28,12.28,0,0,1,4.51.78A18,18,0,1,0,145,49.15a14.1,14.1,0,0,1-3.85.49C137.3,49.64,134.41,48.57,132.34,46.44Z"/><path class="cls-2" d="M135.39,36.5h10.2a.66.66,0,0,0,.68-.62,7.5,7.5,0,0,0-1.74-4.59,5.33,5.33,0,0,0-4.06-1.64,5.17,5.17,0,0,0-4,1.67,7.88,7.88,0,0,0-1.81,4.52C134.65,36.2,135,36.5,135.39,36.5Z"/><path class="cls-2" d="M146.8,38.5H135.37a.65.65,0,0,0-.69.68,8.18,8.18,0,0,0,.86,3.45,5.89,5.89,0,0,0,5.4,3.35,7.61,7.61,0,0,0,2.07-.27,6.81,6.81,0,0,0,1.82-.84,13.46,13.46,0,0,0,1.58-1.19c.48-.42,1.4-1.28,1.72-1.58a1.43,1.43,0,0,1,.33-.22,18,18,0,0,0,.55-3.6A10.72,10.72,0,0,1,146.8,38.5Z"/><path class="cls-2" d="M145.4,49c2.26-.8,4.81-3.05,5.25-5.18.28-1.39-.57-1.69-1-1.76h-.28a2,2,0,0,0-.87.2A17.94,17.94,0,0,1,145,49.15Z"/><path class="cls-2" d="M149,38.67a5.12,5.12,0,0,0,1.28-.43c.71-.36,1.11-1.17,1.11-2.63A9.76,9.76,0,0,0,150.2,31a9.89,9.89,0,0,0-5-4.37A17.92,17.92,0,0,1,149,37.73Q149,38.2,149,38.67Z"/><path class="cls-1" d="M146.42,43.68a13.46,13.46,0,0,1-1.58,1.19,6.81,6.81,0,0,1-1.82.84,7.61,7.61,0,0,1-2.07.27,5.89,5.89,0,0,1-5.4-3.35,8.18,8.18,0,0,1-.86-3.45.65.65,0,0,1,.69-.68H146.8a10.72,10.72,0,0,0,2.22-.21h0a17.93,17.93,0,0,0-3.84-12.08,12.28,12.28,0,0,0-4.51-.78,13.13,13.13,0,0,0-4.81.85,9.7,9.7,0,0,0-3.62,2.42A10.56,10.56,0,0,0,130,32.49a14.64,14.64,0,0,0-.78,4.84c0,3.72,1,6.6,3.12,8.74s5,3.2,8.77,3.2a14.1,14.1,0,0,0,3.85-.49,17.94,17.94,0,0,0,3.51-6.88,1.43,1.43,0,0,0-.33.22C147.82,42.4,146.89,43.27,146.42,43.68Zm-11.71-7.85a7.88,7.88,0,0,1,1.81-4.52,5.17,5.17,0,0,1,4-1.67,5.33,5.33,0,0,1,4.06,1.64,7.5,7.5,0,0,1,1.74,4.59.66.66,0,0,1-.68.62h-10.2C135,36.5,134.65,36.2,134.71,35.83Z"/></svg>