<?xml version="1.0" encoding="UTF-8"?>
<svg width="40px" height="40px" viewBox="0 0 40 40" version="1.1" xmlns="http://www.w3.org/2000/svg"
     xmlns:xlink="http://www.w3.org/1999/xlink">
    <!-- Generator: Sketch 57.1 (83088) - https://sketch.com -->
    <title>Illu</title>
    <desc>Created with Sketch.</desc>
    <g id="Symbol" stroke="none" stroke-width="1" fill="none" fill-rule="evenodd">
        <g id="Section-/-Features-/-Financeur-/-Avis" transform="translate(-181.000000, -227.000000)">
            <g id="Features-list" transform="translate(165.000000, 211.000000)">
                <g id="Feature:active" transform="translate(16.000000, 16.000000)">
                    <g id="Illu">
                        <rect id="Container" fill="#E5F2ED" x="0" y="0" width="40" height="40" rx="20"></rect>
                        <g id="Icons/eye" transform="translate(10.000000, 10.000000)" fill="#007E54">
                            <g id="Rectangle" transform="translate(0.000000, 3.333333)">
                                <g id="Mask">
                                    <path d="M2.21025982,7.63144189 C2.68527852,8.32093727 3.24648652,9.0108992 3.88804728,9.6524154 C5.68280352,11.447047 7.73124169,12.5065104 10,12.5065104 C12.2687583,12.5065104 14.3171965,11.447047 16.1119527,9.6524154 C16.7535135,9.0108992 17.3147215,8.32093727 17.7897402,7.63144189 C17.9245643,7.4357431 18.0441416,7.25194015 18.1481718,7.08333333 C18.0441416,6.91472651 17.9245643,6.73092356 17.7897402,6.53522478 C17.3147215,5.84572939 16.7535135,5.15576747 16.1119527,4.51425127 C14.3171965,2.71961965 12.2687583,1.66015625 10,1.66015625 C7.73124169,1.66015625 5.68280352,2.71961965 3.88804728,4.51425127 C3.24648652,5.15576747 2.68527852,5.84572939 2.21025982,6.53522478 C2.07543574,6.73092356 1.95585836,6.91472651 1.85182824,7.08333333 C1.95585836,7.25194015 2.07543574,7.4357431 2.21025982,7.63144189 Z M0.169894883,6.73685926 C0.286066865,6.51905192 0.504105174,6.15567997 0.821764977,5.69459293 C1.34752107,4.9314516 1.96787298,4.1687768 2.68220066,3.45449873 C4.76141135,1.37543243 7.20677484,0.110677083 10,0.110677083 C12.7932252,0.110677083 15.2385886,1.37543243 17.3177993,3.45449873 C18.032127,4.1687768 18.6524789,4.9314516 19.178235,5.69459293 C19.4958948,6.15567997 19.7139331,6.51905192 19.8301051,6.73685926 C19.9464388,6.95496975 19.9464388,7.21169692 19.8301051,7.42980741 C19.7139331,7.64761475 19.4958948,8.01098669 19.178235,8.47207374 C18.6524789,9.23521507 18.032127,9.99788986 17.3177993,10.7121679 C15.2385886,12.7912342 12.7932252,14.0559896 10,14.0559896 C7.20677484,14.0559896 4.76141135,12.7912342 2.68220066,10.7121679 C1.96787298,9.99788986 1.34752107,9.23521507 0.821764977,8.47207374 C0.504105174,8.01098669 0.286066865,7.64761475 0.169894883,7.42980741 C0.0535612096,7.21169692 0.0535612096,6.95496975 0.169894883,6.73685926 Z"
                                          id="Path"></path>
                                    <path d="M10,10.1822917 C8.17426529,10.1822917 6.69421488,8.79484076 6.69421488,7.08333333 C6.69421488,5.37182591 8.17426529,3.984375 10,3.984375 C11.8257347,3.984375 13.3057851,5.37182591 13.3057851,7.08333333 C13.3057851,8.79484076 11.8257347,10.1822917 10,10.1822917 Z M10,8.6328125 C10.9128674,8.6328125 11.6528926,7.93908705 11.6528926,7.08333333 C11.6528926,6.22757962 10.9128674,5.53385417 10,5.53385417 C9.08713264,5.53385417 8.34710744,6.22757962 8.34710744,7.08333333 C8.34710744,7.93908705 9.08713264,8.6328125 10,8.6328125 Z"
                                          id="Oval"></path>
                                </g>
                            </g>
                        </g>
                    </g>
                </g>
            </g>
        </g>
    </g>
</svg>