<?xml version="1.0" encoding="UTF-8"?>
<svg width="40px" height="40px" viewBox="0 0 40 40" version="1.1" xmlns="http://www.w3.org/2000/svg"
     xmlns:xlink="http://www.w3.org/1999/xlink">
    <!-- Generator: Sketch 57.1 (83088) - https://sketch.com -->
    <title>FILTRES</title>
    <desc>Created with Sketch.</desc>
    <g id="Symbol" stroke="none" stroke-width="1" fill="none" fill-rule="evenodd">
        <g id="Section-/-Features-/-Financeur-/-Avis" transform="translate(-181.000000, -433.000000)">
            <g id="Features-list" transform="translate(165.000000, 211.000000)">
                <g id="Feature-/-Active" transform="translate(16.000000, 222.000000)">
                    <g id="FILTRES">
                        <rect id="Rectangle-Copy-19" fill="#E5F2ED" x="0" y="0" width="40" height="40" rx="20"></rect>
                        <g id="Icons/sliders" transform="translate(9.000000, 11.000000)" fill="#007E54">
                            <g id="Rectangle" transform="translate(0.916667, 2.250000)">
                                <g id="Mask">
                                    <path d="M3.66666667,13.5 C3.66666667,13.9142136 3.25626102,14.25 2.75,14.25 C2.24373898,14.25 1.83333333,13.9142136 1.83333333,13.5 L1.83333333,8.25 C1.83333333,7.83578644 2.24373898,7.5 2.75,7.5 C3.25626102,7.5 3.66666667,7.83578644 3.66666667,8.25 L3.66666667,13.5 Z"
                                          id="Path"></path>
                                    <path d="M3.66666667,5.25 C3.66666667,5.66421356 3.25626102,6 2.75,6 C2.24373898,6 1.83333333,5.66421356 1.83333333,5.25 L1.83333333,0 C1.83333333,-0.414213562 2.24373898,-0.75 2.75,-0.75 C3.25626102,-0.75 3.66666667,-0.414213562 3.66666667,0 L3.66666667,5.25 Z"
                                          id="Path"></path>
                                    <path d="M11,13.5 C11,13.9142136 10.5895944,14.25 10.0833333,14.25 C9.57707231,14.25 9.16666667,13.9142136 9.16666667,13.5 L9.16666667,6.75 C9.16666667,6.33578644 9.57707231,6 10.0833333,6 C10.5895944,6 11,6.33578644 11,6.75 L11,13.5 Z"
                                          id="Path"></path>
                                    <path d="M11,3.75 C11,4.16421356 10.5895944,4.5 10.0833333,4.5 C9.57707231,4.5 9.16666667,4.16421356 9.16666667,3.75 L9.16666667,0 C9.16666667,-0.414213562 9.57707231,-0.75 10.0833333,-0.75 C10.5895944,-0.75 11,-0.414213562 11,0 L11,3.75 Z"
                                          id="Path"></path>
                                    <path d="M18.3333333,13.5 C18.3333333,13.9142136 17.9229277,14.25 17.4166667,14.25 C16.9104056,14.25 16.5,13.9142136 16.5,13.5 L16.5,9.75 C16.5,9.33578644 16.9104056,9 17.4166667,9 C17.9229277,9 18.3333333,9.33578644 18.3333333,9.75 L18.3333333,13.5 Z"
                                          id="Path"></path>
                                    <path d="M18.3333333,6.75 C18.3333333,7.16421356 17.9229277,7.5 17.4166667,7.5 C16.9104056,7.5 16.5,7.16421356 16.5,6.75 L16.5,0 C16.5,-0.414213562 16.9104056,-0.75 17.4166667,-0.75 C17.9229277,-0.75 18.3333333,-0.414213562 18.3333333,0 L18.3333333,6.75 Z"
                                          id="Path"></path>
                                    <path d="M0,9 C-0.506261021,9 -0.916666667,8.66421356 -0.916666667,8.25 C-0.916666667,7.83578644 -0.506261021,7.5 0,7.5 L5.5,7.5 C6.00626102,7.5 6.41666667,7.83578644 6.41666667,8.25 C6.41666667,8.66421356 6.00626102,9 5.5,9 L0,9 Z"
                                          id="Path"></path>
                                    <path d="M7.33333333,4.5 C6.82707231,4.5 6.41666667,4.16421356 6.41666667,3.75 C6.41666667,3.33578644 6.82707231,3 7.33333333,3 L12.8333333,3 C13.3395944,3 13.75,3.33578644 13.75,3.75 C13.75,4.16421356 13.3395944,4.5 12.8333333,4.5 L7.33333333,4.5 Z"
                                          id="Path"></path>
                                    <path d="M14.6666667,10.5 C14.1604056,10.5 13.75,10.1642136 13.75,9.75 C13.75,9.33578644 14.1604056,9 14.6666667,9 L20.1666667,9 C20.6729277,9 21.0833333,9.33578644 21.0833333,9.75 C21.0833333,10.1642136 20.6729277,10.5 20.1666667,10.5 L14.6666667,10.5 Z"
                                          id="Path"></path>
                                </g>
                            </g>
                        </g>
                    </g>
                </g>
            </g>
        </g>
    </g>
</svg>