<?xml version="1.0" encoding="UTF-8"?>
<svg width="40px" height="40px" viewBox="0 0 40 40" version="1.1" xmlns="http://www.w3.org/2000/svg"
     xmlns:xlink="http://www.w3.org/1999/xlink">
    <!-- Generator: Sketch 57.1 (83088) - https://sketch.com -->
    <title>Illu</title>
    <desc>Created with Sketch.</desc>
    <g id="Symbol" stroke="none" stroke-width="1" fill="none" fill-rule="evenodd">
        <g id="Section-/-Features-/-Organisme" transform="translate(-181.000000, -547.000000)">
            <g id="Features-list" transform="translate(165.000000, 211.000000)">
                <g id="Feature" transform="translate(0.000000, 320.000000)">
                    <g id="Illu" transform="translate(16.000000, 16.000000)">
                        <rect id="Rectangle-Copy-20" fill="#FDF2E7" x="0" y="0" width="40" height="40" rx="20"></rect>
                        <g id="Icons/share" transform="translate(11.000000, 9.000000)" fill="#F28017">
                            <g id="Share" transform="translate(1.500000, 0.833333)">
                                <path d="M0,10.5394525 C0,10.0013973 0.419733047,9.56521739 0.9375,9.56521739 C1.45526695,9.56521739 1.875,10.0013973 1.875,10.5394525 L1.875,15.9951691 C1.875,16.1565987 2.14957166,16.3848631 2.578125,16.3848631 L12.421875,16.3848631 C12.8504283,16.3848631 13.125,16.1565987 13.125,15.9951691 L13.125,10.5394525 C13.125,10.0013973 13.544733,9.56521739 14.0625,9.56521739 C14.580267,9.56521739 15,10.0013973 15,10.5394525 L15,15.9951691 C15,17.340294 13.805506,18.3333333 12.421875,18.3333333 L2.578125,18.3333333 C1.19449401,18.3333333 0,17.340294 0,15.9951691 L0,10.5394525 Z"
                                      id="Path"></path>
                                <path d="M4.5363961,5.3073336 C4.18492424,5.67050233 3.61507576,5.67050233 3.2636039,5.3073336 C2.91213203,4.94416488 2.91213203,4.35535203 3.2636039,3.99218331 L6.8636039,0.272376544 C7.21507576,-0.0907921814 7.78492424,-0.0907921814 8.1363961,0.272376544 L11.7363961,3.99218331 C12.087868,4.35535203 12.087868,4.94416488 11.7363961,5.3073336 C11.3849242,5.67050233 10.8150758,5.67050233 10.4636039,5.3073336 L7.5,2.24510198 L4.5363961,5.3073336 Z"
                                      id="Path"></path>
                                <path d="M6.375,1.73429952 C6.375,1.23670963 6.87867966,0.833333333 7.5,0.833333333 C8.12132034,0.833333333 8.625,1.23670963 8.625,1.73429952 L8.625,13.4468599 C8.625,13.9444498 8.12132034,14.3478261 7.5,14.3478261 C6.87867966,14.3478261 6.375,13.9444498 6.375,13.4468599 L6.375,1.73429952 Z"
                                      id="Path"></path>
                            </g>
                        </g>
                    </g>
                </g>
            </g>
        </g>
    </g>
</svg>