<?xml version="1.0" encoding="UTF-8"?>
<svg width="65px" height="65px" viewBox="0 0 65 65" version="1.1" xmlns="http://www.w3.org/2000/svg"
     xmlns:xlink="http://www.w3.org/1999/xlink">
    <!-- Generator: Sketch 57.1 (83088) - https://sketch.com -->
    <title>Illu_Stag</title>
    <desc>Created with Sketch.</desc>
    <g id="Symbol" stroke="none" stroke-width="1" fill="none" fill-rule="evenodd">
        <g id="Section-/-Value" transform="translate(-1065.000000, -175.000000)">
            <g id="Stagiaires">
                <g transform="translate(919.000000, 175.000000)">
                    <g id="Illu_Stag" transform="translate(146.000000, 0.000000)">
                        <g id="Picto_Stagiaire" fill="#EBEDF6">
                            <rect id="Rectangle-Copy-22" x="0" y="0" width="65" height="65" rx="32.5"></rect>
                        </g>
                        <g id="Icons/users" transform="translate(16.000000, 16.000000)" fill="#384EAA">
                            <g id="Rectangle" transform="translate(0.000000, 4.125000)">
                                <g id="Mask" transform="translate(1.100000, 0.000000)">
                                    <path d="M23.2053571,23.9479167 C23.2053571,24.6159 22.653708,25.1574074 21.9732143,25.1574074 C21.2927206,25.1574074 20.7410714,24.6159 20.7410714,23.9479167 L20.7410714,21.5289352 C20.7410714,19.5249853 19.086124,17.900463 17.0446429,17.900463 L7.1875,17.900463 C5.14601887,17.900463 3.49107143,19.5249853 3.49107143,21.5289352 L3.49107143,23.9479167 C3.49107143,24.6159 2.93942228,25.1574074 2.25892857,25.1574074 C1.57843486,25.1574074 1.02678571,24.6159 1.02678571,23.9479167 L1.02678571,21.5289352 C1.02678571,18.1890187 3.78503145,15.4814815 7.1875,15.4814815 L17.0446429,15.4814815 C20.4471114,15.4814815 23.2053571,18.1890187 23.2053571,21.5289352 L23.2053571,23.9479167 Z"
                                          id="Path"></path>
                                    <path d="M12.1160714,13.0625 C8.71360288,13.0625 5.95535714,10.3549628 5.95535714,7.0150463 C5.95535714,3.67512984 8.71360288,0.967592593 12.1160714,0.967592593 C15.51854,0.967592593 18.2767857,3.67512984 18.2767857,7.0150463 C18.2767857,10.3549628 15.51854,13.0625 12.1160714,13.0625 Z M12.1160714,10.6435185 C14.1575526,10.6435185 15.8125,9.01899617 15.8125,7.0150463 C15.8125,5.01109642 14.1575526,3.38657407 12.1160714,3.38657407 C10.0745903,3.38657407 8.41964286,5.01109642 8.41964286,7.0150463 C8.41964286,9.01899617 10.0745903,10.6435185 12.1160714,10.6435185 Z"
                                          id="Oval"></path>
                                    <path d="M30.5982143,23.9479167 C30.5982143,24.6159 30.0465651,25.1574074 29.3660714,25.1574074 C28.6855777,25.1574074 28.1339286,24.6159 28.1339286,23.9479167 L28.1339289,21.5298374 C28.1326724,19.8762679 26.9926555,18.4326825 25.3616075,18.0192905 C24.7027222,17.8522948 24.3065023,17.1926058 24.4766256,16.5458337 C24.6467488,15.8990616 25.318793,15.5101259 25.9776782,15.6771216 C28.6960915,16.3661082 30.5961198,18.772084 30.5982143,21.5289352 L30.5982143,23.9479167 Z"
                                          id="Path"></path>
                                    <path d="M20.4354517,3.50601128 C19.7762234,3.34032525 19.3786439,2.68142484 19.547433,2.03431603 C19.7162221,1.38720722 20.3874629,0.996936943 21.0466911,1.16262297 C23.772676,1.8477538 25.6793069,4.25890589 25.6793069,7.02109375 C25.6793069,9.78328161 23.772676,12.1944337 21.0466911,12.8795645 C20.3874629,13.0452506 19.7162221,12.6549803 19.547433,12.0078715 C19.3786439,11.3607627 19.7762234,10.7018622 20.4354517,10.5361762 C22.0710427,10.1250977 23.2150212,8.67840647 23.2150212,7.02109375 C23.2150212,5.36378103 22.0710427,3.91708978 20.4354517,3.50601128 Z"
                                          id="Path"></path>
                                </g>
                            </g>
                        </g>
                    </g>
                </g>
            </g>
        </g>
    </g>
</svg>