<?xml version="1.0" encoding="UTF-8"?>
<svg width="1046px" height="396px" viewBox="0 0 1046 396" version="1.1" xmlns="http://www.w3.org/2000/svg" xmlns:xlink="http://www.w3.org/1999/xlink">
    <!-- Generator: sketchtool 57 (101010) - https://sketch.com -->
    <title>15117247-9ADF-49FB-A6C1-12A0A0C1C75E</title>
    <desc>Created with sketchtool.</desc>
    <g id="Maquettes" stroke="none" stroke-width="1" fill="none" fill-rule="evenodd">
        <g id="D_Landing" transform="translate(-193.000000, -186.000000)">
            <g id="Section/Landing" transform="translate(-1.000000, 107.000000)">
                <g id="Illu">
                    <g transform="translate(166.000000, 0.000000)">
                        <rect id="Rectangle" x="0" y="0" width="1110" height="554"></rect>
                        <path d="M520.241676,298.853152 C528.317173,200.588141 961.601996,10.9263184 1042.03981,104.000994 C1122.47763,197.07567 1045.14665,371.75249 876.578692,416.482778 C708.010739,461.213066 512.166178,397.118162 520.241676,298.853152 Z" id="Background-Shape" fill="#F8F8F8" fill-rule="nonzero" transform="translate(797.000000, 255.000000) scale(1, -1) translate(-797.000000, -255.000000) "></path>
                        <g id="People-Pro" transform="translate(513.000000, 206.137505)">
                            <g id="Piecahrt" opacity="0.717703683" transform="translate(265.000000, 0.862495)">
                                <path d="M21.915384,6.77901259 C35.1811441,1.12984058 50.4504317,4.25336776 60.6028834,14.6930331 C70.755335,25.1326985 73.7914881,40.8324746 68.2955259,54.4712528 C62.7995637,68.1100309 49.8538819,77.0017383 35.4953018,77 C26.0806383,77 17.0516361,73.1543945 10.3948556,66.3092931 C3.7380752,59.4641918 -0.00110815809,50.1803987 0,40.5005336 C0,25.7374864 8.64962383,12.4281846 21.915384,6.77901259 Z" id="Path" fill="#FFFFFF"></path>
                                <path d="M34,43 L39.3706286,0 C48.3330811,1.11654616 54.8243688,3.1982727 58.8444916,6.24517962 C62.8646143,9.29208653 67.2497838,15.453778 72,24.7302542 L34,43 Z" id="Path" fill="#F2F9F6" fill-rule="nonzero"></path>
                                <polygon id="Path" fill="#A4D4C3" fill-rule="nonzero" transform="translate(55.795040, 21.760985) rotate(14.000000) translate(-55.795040, -21.760985) " points="43.0631011 39.1660534 45.3018895 4.35591573 57.7099263 8.50724 68.5269794 14.9298183"></polygon>
                            </g>
                            <g id="Charts" opacity="0.740745908" transform="translate(125.500000, 49.362495) scale(-1, 1) translate(-125.500000, -49.362495) translate(69.000000, 0.862495)">
                                <path d="M5,0 L108,0 C110.761424,-5.07265313e-16 113,2.23857625 113,5 L113,92 C113,94.7614237 110.761424,97 108,97 L5,97 C2.23857625,97 3.38176876e-16,94.7614237 0,92 L0,5 C-3.38176876e-16,2.23857625 2.23857625,5.07265313e-16 5,0 Z" id="Path" fill="#FFFFFF" fill-rule="nonzero"></path>
                                <polygon id="Path" fill-opacity="0.306818182" fill="#F28017" points="8 7 23 7 23 89 8 89"></polygon>
                                <polygon id="Path" fill-opacity="0.306818182" fill="#F28017" points="28 20 43 20 43 89 28 89"></polygon>
                                <polygon id="Path" fill-opacity="0.306818182" fill="#F28017" points="49 38 64 38 64 89 49 89"></polygon>
                                <polygon id="Path" fill-opacity="0.306818182" fill="#F28017" points="69 63 84 63 84 89 69 89"></polygon>
                                <polygon id="Path" fill-opacity="0.306818182" fill="#F28017" points="90 38 105 38 105 89 90 89"></polygon>
                            </g>
                            <g id="People" transform="translate(0.000000, 21.000000)">
                                <g id="Head-Head/Front/Chongo">
                                    <g id="Head" transform="translate(32.955882, 18.480769)" fill="#F7B374">
                                        <path d="M23.2786569,5.44522911 C26.8151958,11.8843592 26.394963,28.2177468 21.8243016,29.368599 C20.0015772,29.8275449 16.1186878,28.7033539 12.1667596,26.3766006 L14.6470588,43.5192308 L0,43.5192308 L5.0431128,20.5622188 C2.23055096,17.3376253 0.326868539,13.3857338 0.64494438,8.95748191 C1.56133389,-3.80049294 19.742118,-0.993901026 23.2786569,5.44522911 Z"></path>
                                    </g>
                                    <path d="M50.4490448,16.9128705 C48.4476209,16.3167166 45.5422566,16.1145418 44.3200562,16.2513114 C45.0152995,14.624157 45.2911822,12.8113112 45.0662712,11.0461858 C44.8476674,9.33103939 44.0630951,7.870642 43.3374837,6.340322 C43.0030138,5.63494462 42.6239728,4.9334118 42.0588453,4.39387836 C41.483159,3.84420495 40.7544174,3.48137628 39.9902618,3.30827577 C39.2082591,3.13109044 38.3905622,3.14584387 37.6073448,3.30664184 C37.2608678,3.37776587 36.9499916,3.53250869 36.6101956,3.61853032 C36.2622236,3.70666645 36.0934235,3.4939191 35.8408541,3.2801145 C35.2321833,2.76494585 34.3398743,2.51062939 33.569832,2.41960985 C32.705882,2.31753726 31.8094149,2.44483966 30.9854574,2.72227144 C30.1834585,2.99235052 29.4129957,3.43091667 28.8331513,4.06983152 C28.5749755,4.35423152 28.340627,4.67794197 28.1883192,5.03534022 C28.1258543,5.1820095 28.1155291,5.26889615 27.9656974,5.32262363 C27.8271253,5.3723624 27.6650529,5.3738041 27.5220424,5.42114002 C26.139218,5.87864054 24.9569166,6.92233762 24.313159,8.26240084 C23.9375753,9.04418849 23.7596648,10.4206402 23.808394,11.9634165 C23.8571231,13.5061927 25.2832105,17.5317361 26.6170254,19.0000629 C27.8075963,20.3106673 29.5575947,21.1755451 31.2464832,21.5541364 C30.1254788,22.8057752 29.3792637,24.369831 28.8274515,25.9605103 C28.228078,27.6883918 27.8571197,29.4837449 27.720136,31.3130261 C27.5900203,33.0510475 27.5779665,34.889027 27.9950844,36.5899485 C28.3852915,38.1805798 29.219761,39.4854655 30.6128171,40.3132915 C31.2509216,40.6925075 31.9374749,40.9773881 32.6279995,41.2377597 C33.3085259,41.4943348 33.991108,41.7437976 34.7039648,41.8877757 C36.0531039,42.1601615 37.6076251,42.1134022 38.6468692,41.0644189 C39.021425,40.6862601 39.433357,40.2110747 39.7066235,39.7491049 C39.8048761,39.5829727 39.8641173,39.4743163 39.7447472,39.3119324 C39.6017366,39.1174467 39.3704249,38.9684226 39.1867211,38.8162748 C38.1391141,37.948802 37.4906377,36.7907297 37.3271638,35.4144798 C37.1613071,34.018094 37.5453004,32.2157246 38.9351328,31.6063166 C40.6507452,30.8540358 42.5401101,31.71752 44.0649639,32.5224229 C44.7130198,30.2881673 46.0436578,28.2764625 48.1298548,27.2516037 C50.4378793,26.1178002 53.0863072,25.9851154 55.4581515,25.0123021 C56.076213,24.7588026 56.705721,24.4710386 57.1607757,23.9545244 C57.3509269,23.7386533 57.5740159,23.4586265 57.6499362,23.1731212 C57.7496838,22.7980861 57.5020668,22.4836506 57.3107943,22.1912732 C56.2965922,20.6410096 52.4504687,17.5090243 50.4490448,16.9128705 Z" id="hair" fill="#24303A" fill-rule="nonzero"></path>
                                </g>
                                <path d="M21,132.471949 C21.1724842,135.289066 21,242 21,242 L30.1947336,242 L44.2588283,171.872909 C44.4366197,169.599446 47,144.464573 47,144.464573 L30.8130231,131 L21,132.471949 Z" id="Path" fill="#FF9533" fill-rule="nonzero"></path>
                                <path d="M58.3183857,133 C58.3183857,133 69,186.89391 69,189.087859 C69,191.281807 51.5112108,241 51.5112108,241 L42.5381166,241 L50.1713004,183.67725 L24,135.185462" id="Path" fill="#FFA95A"></path>
                                <path d="M19.2220622,79 C18.7512239,79.6378335 15.7883238,86.0816492 16.0120371,88.6184317 C16.3554109,92.4987874 19.211657,94.6451091 24.0969303,97 C25.5016414,97 27,81.8738884 27,81.8738884 L22.6063756,79 L19.2220622,79 Z" id="Path" fill="#F7B374"></path>
                                <path d="M27,64 C20.544193,68.6611425 15.0686272,77.8355304 16.1331078,79.5244193 C16.6436501,80.3139987 19.3035753,81.7214062 22.3413018,83" id="Path" fill="#FFFFFF" fill-rule="nonzero"></path>
                                <path d="M40,57.8369686 C42.1755745,57.8369686 45.0268302,57.063482 47.3411285,57.063482 C59.6318372,67.8686345 61.3483348,129.709418 59.2276668,133.783842 C55.8558842,140.26296 31.7311681,145.47946 21.7336587,135.150712 C18.2488483,131.564477 18.888387,66.1349794 34.3674878,55 C36.1351456,57.063482 37.8244255,57.8369686 40,57.8369686 Z" id="Path" fill="#FFFFFF" fill-rule="nonzero"></path>
                                <polyline id="Path" fill="#000000" fill-rule="nonzero" points="20 242 20 247 42 247 42 244.175829 29.3660155 242"></polyline>
                                <polyline id="Path" fill="#000000" fill-rule="nonzero" points="42 239 42 247 65 247 65 243.888889 51.0095026 239"></polyline>
                                <path d="M61.1074444,76.8664728 C61.5151044,77.292043 65.0421373,82.3456901 65.5349415,83.4248147 C66.5179696,82.6015389 98.085817,56.6164203 98.6044224,56.2643116 C99.1230278,55.9122028 100.020912,55.9426007 100.371809,56.1756511 C100.960659,56.5539715 101.167988,57.3050587 100.854293,57.923529 C100.575639,58.4301603 96.6512667,61.8195236 96.6512667,61.8195236 C96.9712024,62.2121628 98.6095827,66.2905447 96.5119398,68.2056109 C95.0851299,69.5101865 93.4673906,69.9433562 91.9115743,69.1352793 C90.8795238,70.2321361 66.2083545,97 61.9047035,97 C59.9128459,97 53.080671,90.117414 50,84.9320428" id="Path" fill="#F7B374"></path>
                                <path d="M38,67.5185185 C38,76.0740741 45.011236,88 47.4382022,88 C49.8651685,88 62,79.4444444 62,77.3703704 C62,75.2962963 52.5617978,60 44.4719101,60 C41.2359551,60 38,63.3703704 38,67.5185185 Z" id="Path" fill="#FFFFFF" fill-rule="nonzero"></path>
                            </g>
                            <g id="Group" transform="translate(225.000000, 144.500000) scale(-1, 1) translate(-225.000000, -144.500000) translate(170.000000, 21.000000)">
                                <g id="People" transform="translate(55.000000, 123.500000) scale(-1, 1) translate(-55.000000, -123.500000) ">
                                    <polygon id="Path" fill="#000000" fill-rule="nonzero" points="23.9448894 240.138889 16.2962963 245.643646 16.2962963 247 31.2345679 247 31.2345679 240.138889"></polygon>
                                    <polygon id="Path" fill="#000000" fill-rule="nonzero" points="65.1851852 238.766667 73.3333333 238.766667 73.3333333 244.255556 65.1851852 244.255556"></polygon>
                                    <polygon id="Path" fill="#FFFFFF" fill-rule="nonzero" points="4.7405109 134.477778 32.5925926 142.899915 27.8520817 159.177778 0 150.755641"></polygon>
                                    <polygon id="Path" fill="#339D79" points="29.4658073 126.244444 24.4444444 238.693223 32.9061365 238.766667 50.2469136 165.17955 49.8326828 128.567932"></polygon>
                                    <path d="M73.3328833,125.825544 C73.1933253,129.061911 72.8363163,240.074702 72.8363163,240.074702 L64.3654659,240.138889 L38.0246914,128.61936 C38.0246914,128.61936 73.4789325,122.592555 73.3328833,125.825544 Z" id="Path" fill="#198E66"></path>
                                    <path d="M21.5836676,78.5219365 C19.8147166,81.4607395 15.5783728,103.63359 15.6175378,108.819903 C14.2532915,113.466041 15.3597017,127.436609 15.395603,129.288634 C15.4315042,131.140658 15.0692282,138.069674 15.4706691,139.773794 C14.4001601,142.461802 19.8147166,148.050029 21.4727002,148.194719 C23.1306837,148.339408 25.0824045,145.474557 25.0824045,144.09197 C25.0824045,140.574409 22.7553528,137.600237 22.7977815,136.146912 C23.0197163,128.889934 26.224716,110.382548 26.6294207,109.138219 C27.0341253,107.89389 28.3983716,105.472754 29.5406831,104.492081 C30.6829946,103.511408 31.2345679,81.9237457 31.2345679,81.9237457 C31.2345679,81.9237457 22.5268905,76.9560754 21.5836676,78.5219365 Z" id="Path" fill="#E49D75" fill-rule="nonzero"></path>
                                    <path d="M44.0158715,42.062999 C44.0158715,42.9104766 44.5576043,50.6869789 43.5239531,52.4326634 C42.490302,54.1783479 53.7297016,53.5875008 53.7297016,52.2655551 C53.7297016,50.9436094 53.3592062,44.8053649 54.268321,42.5822283 C55.1774359,40.3590916 44.0158715,41.2125373 44.0158715,42.062999 Z" id="Path" fill="#E49D75" fill-rule="nonzero"></path>
                                    <path d="M82.4955244,66.566109 L84.1909531,67.823387 C84.1909531,67.823387 98.7562267,39.1443873 98.9328339,38.1059084 C99.109441,37.0674295 97.9695221,34.5136857 98.1429182,33.2955957 C98.3163143,32.0775056 104.176461,26.1699321 106.013175,26.0784937 C107.84989,25.9870553 107.994386,26.9112363 107.544841,27.8223546 C107.095295,28.7334729 103.579208,32.3648834 103.579208,32.3648834 C103.579208,32.3648834 106.013175,31.6823611 106.864101,32.3648834 C107.715026,33.0474057 110.94212,37.4233861 109.731559,39.3370611 C108.520997,41.2507361 106.199415,42.2075736 105.743448,43.3472879 C105.28748,44.4870021 91.4479016,84.0667648 89.7492619,84.8472568 C86.8818039,86.1535196 77.6083228,81.5815998 76.2179428,79.3348278 C74.8275629,77.0880558 82.4955244,66.566109 82.4955244,66.566109 Z" id="Path" fill="#E49D75" fill-rule="nonzero"></path>
                                    <path d="M44.2150878,55.1455817 C53.2359855,58.4667961 41.3021732,83.1655489 38.4392171,84.8649192 C36.1725835,86.2045687 19.6063819,80.8831831 19.0404841,78.3310267 C18.2007648,74.5508582 36.3746651,52.2616139 44.2150878,55.1455817 Z" id="Path" fill="#FFFFFF" fill-rule="nonzero"></path>
                                    <path d="M50.36346,49.4 C63.108582,49.3466287 66.1726323,68.9073497 69.4375192,88.1990173 C72.6972002,107.459924 76.1695797,126.449743 74.033458,129.000051 C66.3386177,138.19966 29.3197444,134.078957 27.7071735,129.197707 C26.5104001,125.579478 27.3544428,109.097732 29.4993149,91.9387794 C32.0972747,71.1551305 37.1852701,49.4543259 50.36346,49.4 Z" id="Path" fill="#FFFFFF" fill-rule="nonzero"></path>
                                    <path d="M50.6413693,59.3451552 C45.1414072,50.2524292 43.5266296,49.8155575 52.7496769,51.621053 C61.9727243,53.4265484 82.8834891,58.9939702 84.0603991,61.5589667 C85.2690692,64.1759653 78.1644471,81.9238519 75.4424826,82.3169056 C71.3972044,82.8880093 56.1413314,68.4378811 50.6413693,59.3451552 Z" id="Path" fill="#FFFFFF" fill-rule="nonzero"></path>
                                    <path d="M38.0246914,27.4427693 C38.0246914,19.1074064 43.4958955,12.35 50.2469136,12.35 C56.9979316,12.35 62.4691358,19.1074064 62.4691358,27.4427693 C62.4691358,35.7781323 56.9979316,42.5388889 50.2469136,42.5388889 C43.4958955,42.5388889 38.0246914,35.7781323 38.0246914,27.4427693 Z" id="Path" fill="#E49D75" fill-rule="nonzero"></path>
                                    <path d="M33.9857396,24.8844489 C33.5476721,18.312913 37.3268737,12.2062783 38.6723669,8.36822175 C39.8335935,4.67697607 42.1490933,1.93650579 45.1390781,1.79319038 C48.1290629,1.64987496 48.9634772,2.41189349 50.9556415,2.33848803 C52.9478057,2.26508258 56.4071486,0 58.6600673,0 C60.912986,0 62.2584792,1.61841548 63.6491698,2.63210985 C65.0398604,3.64580421 67.9116364,5.55434602 67.9012346,7.23568046 C67.8421019,17.3446601 58.6531139,16.3868937 55.9795112,19.2916524 C54.16466,20.8261759 54.0534047,24.4090612 53.1459791,24.9928093 C52.2385535,25.5765575 50.2742031,25.2305032 50.2394358,28.1003069 C50.2185755,29.7886323 50.6740266,31.1693539 51.8734973,31.2777144 C53.0729679,31.3860748 53.4971285,31.8265075 53.4727914,32.7038775 C53.2189904,41.1699732 47.2737881,42.7604247 44.8505098,42.5157398 C41.4537481,42.194154 40.4906948,38.0240251 39.6528037,36.597862 C36.4403085,32.9940038 34.2569243,29.0161273 33.9857396,24.8844489 Z" id="Path" fill="#24303A" fill-rule="nonzero"></path>
                                </g>
                            </g>
                        </g>
                        <path d="M28.2102667,322.990657 C35.2362411,224.725646 412.209679,35.0638236 482.193483,128.1385 C552.177288,221.213176 484.89654,395.889995 338.236335,440.620283 C191.57613,485.350571 21.1842923,421.255668 28.2102667,322.990657 Z" id="Background-Shape" fill="#F8F8F8" fill-rule="nonzero" transform="translate(269.000000, 279.137505) scale(-1, 1) translate(-269.000000, -279.137505) "></path>
                        <g id="People-Stagiaire" transform="translate(317.000000, 225.000000)">
                            <g id="Head/Front-Head/Front/Long" transform="translate(36.000000, 0.000000)">
                                <path d="M51.5198078,18.2814826 C53.4269647,19.616192 54.9652413,21.3558334 56.0512349,23.3402378 C56.449935,23.737681 56.8550458,24.5317294 57.2794116,25.8605704 C59.3747918,32.4219539 62.735334,52.2197463 59.7618824,55.1386085 L42.2765885,55.1386085 L42.2696782,55.0009584 C34.6051507,54.0658285 28.4503208,47.9445259 27.6329426,40.0872657 C26.8263907,32.3340756 27.7973182,26.3878711 30.5457249,22.2486523 L30.75,21.9490074 L30.75,21.9490074 C35.472665,15.2008244 44.7716247,13.5588176 51.5198078,18.2814826 Z" id="Hair-Back" fill="#24303A" fill-rule="nonzero"></path>
                                <g id="Head" transform="translate(32.558824, 18.778846)" fill="#F7B374">
                                    <path d="M22.9981911,5.53305538 C26.4921211,12.0760425 26.0769514,28.6728718 21.5613582,29.8422861 C19.7604966,30.3086596 15.9240704,29.1661872 12.0195364,26.8016446 L14.4705882,44.2211538 L0,44.2211538 L4.98104308,20.8923234 C2.20308607,17.6160029 0.322979724,13.600926 0.637173966,9.10195742 C1.54252263,-3.86179122 19.5042611,-1.00993169 22.9981911,5.53305538 Z"></path>
                                </g>
                                <path d="M44.0155618,16.9615385 C50.9976392,16.9615385 53.2014714,20.2256182 55.077882,22.9968691 C53.6746725,27.8342318 48.2289818,28.5512998 43.3903852,31.5667896 C42.8205567,31.1007095 42.0934343,30.8217887 41.3014706,30.8217887 C39.4699969,30.8217887 37.9852941,32.3134554 37.9852941,34.1535194 C37.9852941,35.9935835 39.4699969,37.4852502 41.3014706,37.4852502 L41.4522165,37.4811477 C42.1189369,44.6762006 41.8519179,52.8939939 39.8648248,54.8446061 L22.3795297,54.8446061 C21.405301,37.8384573 30.8207066,44.4239994 30.8207066,28.4122687 C31.4074765,27.8362714 31.9619399,27.2661631 32.5105779,26.7744382 L32.4918234,26.3029241 C35.5195974,20.0753337 39.3608435,16.9615385 44.0155618,16.9615385 Z" id="Hair-Front" fill="#24303A" fill-rule="nonzero"></path>
                            </g>
                            <g id="Bottom/Skinny-Jeans-1" transform="translate(40.000000, 117.000000)">
                                <polygon id="Leg" fill="#F7B374" points="24.4791789 0 44.7733654 70.0969347 54.3187371 122.726784 63.8994143 122.726784 54.3358119 2.80367382e-29"></polygon>
                                <path d="M15.3587642,0 C16.7748248,36.4149938 16.2163511,56.276721 15.8994198,59.5851815 C15.5824885,62.8936421 13.7832461,85.0514924 1.52266714,123.837433 L11.4874142,123.837433 C27.7245346,86.6289502 33.3927578,64.4710999 35.2550326,59.5851815 C37.1173074,54.6992632 42.617436,34.837536 50.64738,0 L15.3587642,0 Z" id="Leg" fill="#F7B374"></path>
                                <path d="M24.0435197,0 C29.322354,24.1205473 38.4524752,62.6230676 51.433883,115.507561 L65.4467136,115.507561 C66.481721,61.2266864 62.0788481,25.5007901 54.4541718,0 L24.0435197,0 Z" id="Pant" fill="#A6ABAF" fill-rule="nonzero"></path>
                                <path d="M15.2879557,0 C16.6748019,36.4149938 13.0807022,72.29066 1.94750037,116.074524 L16.89842,116.074524 C33.1653915,79.421366 44.8244539,43.722733 52.7926483,0 L15.2879557,0 Z" id="Pant" fill="#91979C" fill-rule="nonzero"></path>
                                <g id="Left-Shoe-Accessories/Shoe/Flat-Simple" transform="translate(0.102335, 110.509638)" fill="#191847">
                                    <path d="M0,20.5470173 L0.549821192,11.6618207 C3.76894698,12.6055535 7.80096905,12.235337 12.6458874,10.5511711 C17.645897,14.1012634 23.8882158,16.5706363 31.3728439,17.9592899 C32.4588737,18.1607932 33.1759313,19.2045401 32.9744355,20.2905714 C32.9632169,20.3510379 32.9492153,20.4109548 32.9324754,20.4701311 L32.4394503,22.2129917 L32.4394503,22.2129917 L12.6458874,22.2129917 L1.09964238,22.2129917 L0,20.5470173 Z" id="Shoe"></path>
                                </g>
                                <g id="Right-Shoe-Accessories/Shoe/Flat-Simple" transform="translate(52.180138, 110.509638)" fill="#191847">
                                    <path d="M0,20.5470173 L0.549821192,11.6618207 C3.76894698,12.6055535 7.80096905,12.235337 12.6458874,10.5511711 C17.645897,14.1012634 23.8882158,16.5706363 31.3728439,17.9592899 C32.4588737,18.1607932 33.1759313,19.2045401 32.9744355,20.2905714 C32.9632169,20.3510379 32.9492153,20.4109548 32.9324754,20.4701311 L32.4394503,22.2129917 L32.4394503,22.2129917 L12.6458874,22.2129917 L1.09964238,22.2129917 L0,20.5470173 Z" id="Shoe"></path>
                                </g>
                            </g>
                            <g id="Group-3" transform="translate(31.894625, 177.294772) rotate(14.000000) translate(-31.894625, -177.294772) translate(5.894625, 153.794772)" fill="#24303A" fill-rule="nonzero">
                                <rect id="Rectangle" x="0.0742360754" y="11.3254892" width="51.6369459" height="34.7489228"></rect>
                                <path d="M26.0932064,23.1913968 C31.1487229,23.1913968 35.2470287,18.0172553 35.2470287,11.6346283 C35.2470287,5.25200138 31.1487229,0.0778599098 26.0932064,0.0778599098 C21.03769,0.0778599098 16.9393842,5.25200138 16.9393842,11.6346283 C16.9393842,18.0172553 21.03769,23.1913968 26.0932064,23.1913968 Z M26.0932064,19.8967843 C22.4789206,19.8967843 19.5489629,16.1976911 19.5489629,11.6346283 C19.5489629,7.07156561 22.4789206,3.37247239 26.0932064,3.37247239 C29.7074923,3.37247239 32.63745,7.07156561 32.63745,11.6346283 C32.63745,16.1976911 29.7074923,19.8967843 26.0932064,19.8967843 Z" id="Oval"></path>
                            </g>
                            <g id="Body/Long-Sleeve-1" transform="translate(24.000000, 59.000000)">
                                <path d="M87.9700488,50.5543607 L104.974469,64.4779527 C109.703032,66.0249272 113.625907,67.846696 116.743092,69.9432591 C117.466985,70.6763227 118.312272,72.1283058 115.172433,71.7201716 C112.032595,71.3120373 108.711631,71.0240497 108.220358,72.0772474 C107.729086,73.130445 109.569514,74.5174394 108.614271,75.9231262 C107.977442,76.8602507 105.33495,74.2878486 100.686794,68.20592 L83.5549496,60.0195114 L87.9700488,50.5543607 Z" id="Arm" fill="#F7B374" transform="translate(100.487419, 63.332581) rotate(5.000000) translate(-100.487419, -63.332581) "></path>
                                <path d="M24.57781,52.0069428 C16.5032699,72.2303248 11.7066703,83.3061517 10.1880111,85.2344235 C9.07436218,86.6484456 2.32951748,98.5743867 5.87291565,101.067846 C9.41631383,103.561305 6.54199236,96.8299932 11.1829571,95.4255884 C12.4006766,95.0570937 13.9759259,95.2490553 14.1563671,96.0576062 C14.4805287,97.5101633 12.9492766,100.173127 15.5548233,99.6134732 C15.3503627,98.653952 16.8812884,95.8975657 16.6152667,94.5452222 C16.2378398,92.6265411 15.6501299,89.030005 15.4990239,86.6574213 C15.4471439,85.8428304 19.7931665,80.7259186 20.2123732,80.2794264 C21.2991939,79.1218662 26.5337226,70.516596 35.9159593,54.4636157 L24.57781,52.0069428 Z" id="Arm" fill="#F7B374" transform="translate(20.384812, 76.811795) rotate(-12.000000) translate(-20.384812, -76.811795) "></path>
                                <path d="M49.1442601,5.12732382 L53.8546159,3.88809935 C63.8886901,23.750192 79.8994381,41.1943203 101.88686,56.2204842 L88.0331027,76.4248212 C65.4242928,54.268574 50.6178921,30.6640228 49.1442601,5.12732382 Z" id="Coat-Back" fill="#31438F" transform="translate(75.515560, 40.156460) rotate(5.000000) translate(-75.515560, -40.156460) "></path>
                                <path d="M31.3712842,63.3327176 L74.1177145,63.3327176 C64.2143489,39.2358112 59.2626661,18.7657751 59.2626661,1.92260925 L46.3681798,0 C36.2343251,16.3100674 33.3724979,36.3910628 31.3712842,63.3327176 Z" id="Shirt" fill="#FFFFFF"></path>
                                <path d="M46.9419502,0 C47.949116,0.0347069602 49.4831588,0.0972384401 51.5440787,0.18759444 L51.5440787,0.18759444 L54.6598493,9.09817824 C54.9894287,19.9622631 56.9141226,41.8563254 60.4339309,74.7803653 L60.4339309,74.7803653 L32.4128013,74.7807774 C32.4862598,77.0545702 32.6073745,79.349602 32.7761454,81.6658727 L32.7761454,81.6658727 L11.9410886,81.6658727 C15.0576455,46.4795277 26.438922,19.2575702 46.0849179,5.68434189e-14 L46.0849179,5.68434189e-14 L46.0950886,0.01 L46.1002511,0 Z" id="Coat-Front" fill="#384EAA"></path>
                                <path d="M40.2536593,74.9992708 L32.4200158,74.9996073 C32.0770427,64.8014142 32.6915811,55.0299557 34.263631,45.6852319 C35.0613681,59.8601151 37.0579785,69.631119 40.2536593,74.9992708 Z" id="Shade" fill="#384EAA"></path>
                                <polygon id="Light" fill-opacity="0.2" fill="#FFFFFF" points="38.6497793 57.777216 52.4669251 51.3490962 52.4669251 57.777216"></polygon>
                            </g>
                        </g>
                    </g>
                </g>
            </g>
        </g>
    </g>
</svg>