<?xml version="1.0" encoding="UTF-8"?>
<svg width="26px" height="20px" viewBox="0 0 26 20" version="1.1" xmlns="http://www.w3.org/2000/svg" xmlns:xlink="http://www.w3.org/1999/xlink">
    <!-- Generator: Sketch 57.1 (83088) - https://sketch.com -->
    <title>Group</title>
    <desc>Created with Sketch.</desc>
    <g id="Maquettes" stroke="none" stroke-width="1" fill="none" fill-rule="evenodd">
        <g id="OF---LP_Organisme_Hover_1" transform="translate(-1314.000000, -44.000000)" fill="#24303A" fill-rule="nonzero">
            <g id="Group" transform="translate(1314.000000, 44.000000)">
                <g id="np_admin_1938451_000000">
                    <path d="M25.8664103,14.8497436 C25.8103205,14.6424128 25.6861231,14.4611282 25.5148462,14.3319231 L25.0180513,13.8972308 L25.0180513,12.8936154 C25.0110403,12.8695769 25.0110403,12.8445359 25.0180513,12.8204974 L25.608,12.2305487 C25.6821179,12.1444103 25.7412128,12.0462538 25.7832795,11.9410872 C25.895459,11.6526256 25.8724231,11.3301128 25.7211795,11.0606769 L24.6855128,9.23875385 L24.6865144,9.23875385 C24.5432862,9.0174 24.3219246,8.85813846 24.0655144,8.7940359 C23.8591836,8.73293846 23.6398221,8.73293846 23.4335144,8.7940359 L22.8025144,9.0214 L22.2646426,8.78301795 L21.9130785,8.55565385 L21.9120767,8.55565385 C21.9080703,8.53562154 21.9080703,8.51458718 21.9120767,8.49355385 L21.7047459,7.68627179 C21.6506587,7.56607949 21.5725331,7.45690513 21.4773818,7.36575897 C21.3381587,7.21652051 21.157869,7.11235385 20.9595613,7.06527179 C20.8563972,7.04924615 20.7522305,7.04924615 20.6490741,7.06527179 L18.5787664,7.06527179 C18.3213562,7.06827641 18.0739459,7.1684359 17.8856638,7.34470769 C17.7294126,7.49394615 17.6272536,7.69027179 17.5952023,7.90360513 L17.4609869,8.55565641 L17.4609869,8.62777179 L17.2226049,8.78302051 L16.6426818,9.07248205 L16.5084664,9.07348385 L15.7011844,8.84611974 C15.3936972,8.78201718 15.0731844,8.86214538 14.8317997,9.06346846 C14.7526741,9.13458128 14.6865664,9.21871718 14.6344844,9.3118659 L13.5988177,11.133789 L13.5998192,11.133789 C13.4726167,11.3601505 13.4355577,11.6265838 13.4966551,11.8789685 C13.5477372,12.0883044 13.6679295,12.2736095 13.8381936,12.4068146 L14.3249628,12.8515326 L14.3249628,13.8861992 L14.323961,13.8872008 C14.3299708,13.9112392 14.3299708,13.9352777 14.323961,13.9593162 L13.7129867,14.5392392 L13.7139882,14.5392392 C13.5046523,14.7736136 13.413501,15.089111 13.4655908,15.3986238 C13.4866244,15.5037931 13.5246856,15.6059546 13.5787728,15.698111 L14.6144395,17.5410597 C14.7426446,17.7624136 14.9499779,17.9286751 15.1943626,18.0068033 C15.4006933,18.0638956 15.6190292,18.0638956 15.8253626,18.0068033 L16.4563626,17.8104905 L16.5394959,17.8104905 L16.7878933,17.9346879 L17.3257651,18.2972777 L17.3267669,18.2972777 C17.3307733,18.3173097 17.3307733,18.3383444 17.3267669,18.3593777 L17.5230797,19.1766854 C17.5531285,19.2848597 17.6022054,19.3860213 17.6683131,19.4771726 C17.8516054,19.7285751 18.1430823,19.8778136 18.4545695,19.8808136 L20.5769541,19.8808136 C20.8293592,19.877809 21.072749,19.7816546 21.2600567,19.6113777 C21.4183105,19.4671469 21.5234669,19.2738392 21.5605438,19.0625059 L21.7157926,18.4204803 L21.7157926,18.3483649 L22.5130746,17.8415444 L22.6893567,17.7383803 L22.77249,17.7383803 L23.5797721,17.955729 L23.5787703,17.955729 C23.8892574,18.0128213 24.2097703,17.9256803 24.4481549,17.7173469 C24.5272805,17.6452315 24.5933882,17.5620982 24.6444677,17.4689495 L25.6801344,15.6159751 C25.8403908,15.3946213 25.9074985,15.1191803 25.8664318,14.8497444 L25.8664103,14.8497436 Z M23.8582051,15.3986154 L23.4856154,16.0716923 C22.7574615,15.8192872 21.9541538,15.9054256 21.2961026,16.3060667 C20.6370513,16.7057077 20.1913333,17.3787846 20.0801538,18.1420154 L19.137641,18.1420154 C19.024459,17.3978359 18.5917692,16.739759 17.9527436,16.3421436 C17.3137179,15.9435026 16.5324615,15.8453487 15.8153333,16.0717077 L15.4327179,15.3786051 L15.4317164,15.3776036 C15.9835882,14.8828087 16.295101,14.1736805 16.2870754,13.432501 C16.2790497,12.6913215 15.9525369,11.9891933 15.3906395,11.5064241 L15.8353574,10.7401933 C16.0987677,10.8323421 16.3752292,10.881419 16.6536651,10.8854267 C17.8846395,10.8824218 18.9463318,10.0190421 19.1997421,8.81511897 L20.0591267,8.81511897 C20.2063626,9.55629846 20.670101,10.1953241 21.3301523,10.5639138 C21.9892036,10.9325036 22.77746,10.9926062 23.4855882,10.7301805 L23.9202805,11.4853856 C23.3283318,11.9651549 22.9807677,12.6833087 22.9707677,13.4455138 C22.9607515,14.2067446 23.2892805,14.9338985 23.8682036,15.4296933 L23.8582051,15.3986154 Z" id="Shape"></path>
                    <path d="M13.5997436,1.37230769 C12.6983077,0.55 11.5174103,0.102282051 10.2974359,0.119307692 C9.07748718,0.102280513 7.89658974,0.55 6.99512821,1.37230769 C5.97248718,2.437 5.46869231,3.89835897 5.61892308,5.36769231 C5.76315385,6.56661538 6.30702564,7.68238462 7.16138462,8.53564103 C7.9025641,9.53423077 9.02938462,10.1762564 10.2662564,10.3054615 C11.5042308,10.179259 12.6320513,9.53623077 13.3721538,8.53564103 C14.2255128,7.68128205 14.7683846,6.56648718 14.9136154,5.36769231 C15.0808821,3.90735897 14.6001026,2.44794872 13.5995128,1.37230769 L13.5997436,1.37230769 Z M13.2271538,5.2025641 C13.131,6.01487179 12.7664103,6.77207692 12.1914872,7.355 C11.6436154,7.85179487 11.042641,8.53589744 10.2974615,8.54589744 C9.55228205,8.55589744 9.0344359,7.97597436 8.45451282,7.366 C7.87958974,6.78307692 7.515,6.02584615 7.41984615,5.2125641 C7.32669744,4.28307692 7.63118462,3.35858974 8.25817949,2.66648718 C8.83110256,2.16569231 9.56828205,1.89325641 10.3284872,1.90025641 C11.0886923,1.89324513 11.8258718,2.16569231 12.3987949,2.66648718 C13.0167949,3.35458974 13.3172564,4.27105128 13.2271282,5.19153846 L13.2271538,5.2025641 Z" id="Shape"></path>
                    <path d="M12.43,18.1210256 L2.24358974,18.1210256 C2.89664103,15.6761026 4.6424359,13.6689744 6.97410256,12.6864103 C7.96069231,13.2232821 9.0614359,13.5147436 10.1833333,13.5347692 L10.2975154,13.5347692 C10.5609256,13.5327662 10.8233615,13.515739 11.0837718,13.4836872 C11.5404897,13.3905385 11.8460026,12.957841 11.7798744,12.4970974 C11.7137692,12.0353538 11.3001051,11.705841 10.8353615,11.7438923 C10.6560744,11.75491 10.4767974,11.75491 10.2974897,11.7438923 L10.204341,11.7438923 C9.19972564,11.7218572 8.22316154,11.4133538 7.38895641,10.8544564 C7.29981282,10.794359 7.19564615,10.7613077 7.08846923,10.7613077 C7.02737179,10.75029 6.96426923,10.75029 6.90217179,10.7613077 C5.1093,11.3843077 3.53165897,12.5061026 2.35396667,13.9943846 C1.17709487,15.4837692 0.448915385,17.2777179 0.256607692,19.1666923 C0.24959641,19.3129256 0.289661538,19.4581538 0.370789744,19.580359 C0.514017949,19.767659 0.735379487,19.8778462 0.970738462,19.8808462 L12.4299692,19.8808462 C12.9157385,19.8808462 13.3103795,19.4872051 13.3103795,19.0004359 C13.3103795,18.5146667 12.9157385,18.1210256 12.4299692,18.1210256 L12.43,18.1210256 Z" id="Path"></path>
                    <path d="M21.0015385,13.3694872 C21.0015385,15.1503333 18.3302564,15.1503333 18.3302564,13.3694872 C18.3302564,11.588641 21.0015385,11.588641 21.0015385,13.3694872" id="Path"></path>
                </g>
            </g>
        </g>
    </g>
</svg>