<?xml version="1.0" encoding="UTF-8"?>
<svg width="25px" height="20px" viewBox="0 0 25 20" version="1.1" xmlns="http://www.w3.org/2000/svg" xmlns:xlink="http://www.w3.org/1999/xlink">
    <!-- Generator: sketchtool 57 (101010) - https://sketch.com -->
    <title>EB88EFC2-E228-4EC7-B37F-A5E92905260B</title>
    <desc>Created with sketchtool.</desc>
    <g id="Maquettes" stroke="none" stroke-width="1" fill="none" fill-rule="evenodd">
        <g id="D_Landing" transform="translate(-1165.000000, -1368.000000)">
            <g id="Section-/-Numbers-Section-/-Numbers-2" transform="translate(1.000000, 1224.000000)">
                <g id="Number+Icon" transform="translate(1016.000000, 135.000000)">
                    <g id="Icons/users" transform="translate(147.000000, 5.000000)">
                        <g id="Rectangle" transform="translate(0.000000, 3.250000)">
                            <g id="Mask" transform="translate(0.900000, 0.000000)" fill="#000000" fill-rule="nonzero">
                                <path d="M18.9862006,18.8680554 C18.9862006,19.3943452 18.5348513,19.8209875 17.9780837,19.8209875 C17.4213162,19.8209875 16.9699669,19.3943452 16.9699669,18.8680554 L16.9699669,16.9621912 C16.9699669,15.3833217 15.615919,14.103395 13.9456164,14.103395 L5.88068164,14.103395 C4.21037897,14.103395 2.85633112,15.3833217 2.85633112,16.9621912 L2.85633112,18.8680554 C2.85633112,19.3943452 2.40498183,19.8209875 1.84821428,19.8209875 C1.29144672,19.8209875 0.840097435,19.3943452 0.840097435,18.8680554 L0.840097435,16.9621912 C0.840097435,14.3307419 3.09684385,12.1975308 5.88068164,12.1975308 L13.9456164,12.1975308 C16.7294542,12.1975308 18.9862006,14.3307419 18.9862006,16.9621912 L18.9862006,18.8680554 Z" id="Path"></path>
                                <path d="M9.91314894,10.2916665 C7.12931115,10.2916665 4.87256473,8.15845535 4.87256473,5.52700607 C4.87256473,2.8955568 7.12931115,0.762345677 9.91314894,0.762345677 C12.6969867,0.762345677 14.9537331,2.8955568 14.9537331,5.52700607 C14.9537331,8.15845535 12.6969867,10.2916665 9.91314894,10.2916665 Z M9.91314907,8.38580231 C11.5834517,8.38580231 12.9374996,7.10587564 12.9374996,5.52700607 C12.9374996,3.94813651 11.5834517,2.66820984 9.91314907,2.66820984 C8.2428464,2.66820984 6.88879855,3.94813651 6.88879855,5.52700607 C6.88879855,7.10587564 8.2428464,8.38580231 9.91314907,8.38580231 Z" id="Oval"></path>
                                <path d="M25.0349026,18.8680553 C25.0349026,19.3943452 24.5835534,19.8209875 24.0267858,19.8209875 C23.4700182,19.8209875 23.018669,19.3943452 23.018669,18.8680553 L23.0186692,16.9629019 C23.0176412,15.6600896 22.0849001,14.5227193 20.7504064,14.1970165 C20.2113185,14.0654441 19.8871386,13.5456891 20.0263303,13.0361111 C20.165522,12.5265331 20.7153763,12.2200989 21.2544642,12.3516712 C23.4786205,12.8945092 25.0331889,14.7901265 25.0349026,16.9621911 L25.0349026,18.8680553 Z" id="Path"></path>
                                <path d="M16.7199151,2.76231199 C16.1805465,2.63177147 15.8552542,2.11263779 15.9933544,1.60279446 C16.1314546,1.09295114 16.6806515,0.785465451 17.2200201,0.916005967 C19.4503712,1.45580604 21.0103419,3.3555017 21.0103419,5.53177101 C21.0103419,7.70804033 19.4503712,9.60773599 17.2200201,10.1475361 C16.6806515,10.2780766 16.1314546,9.97059089 15.9933544,9.46074756 C15.8552542,8.95090423 16.1805465,8.43177056 16.7199151,8.30123004 C18.0581258,7.97735 18.9941082,6.8375326 18.9941082,5.53177101 C18.9941082,4.22600942 18.0581258,3.08619203 16.7199151,2.76231199 Z" id="Path"></path>
                            </g>
                            <rect fill="#384EAA" x="-0.225000003" y="0" width="29.25" height="20.5833333"></rect>
                        </g>
                    </g>
                </g>
            </g>
        </g>
    </g>
</svg>