<?xml version="1.0" encoding="UTF-8"?>
<svg width="15px" height="25px" viewBox="0 0 15 25" version="1.1" xmlns="http://www.w3.org/2000/svg" xmlns:xlink="http://www.w3.org/1999/xlink">
    <!-- Generator: sketchtool 57.1 (101010) - https://sketch.com -->
    <title>703AF737-42F9-4FFC-9AB3-B9B5000C99A7</title>
    <desc>Created with sketchtool.</desc>
    <g id="Maquettes" stroke="none" stroke-width="1" fill="none" fill-rule="evenodd" fill-opacity="0.8">
        <g id="OF---Connexion_DEPUIS_MAIL_DEJA_FAIT" transform="translate(-516.000000, -497.000000)" fill="#24303A" fill-rule="nonzero">
            <g id="Icone_Password" transform="translate(516.000000, 497.000000)">
                <g id="np_password_1150416_0065DB" transform="translate(0.000000, 0.000000)">
                    <path d="M7.40613011,20.6693293 C7.75938079,20.6693293 8.04478119,20.3839289 8.04478119,20.0306782 L8.04478119,17.6666729 C8.95087381,17.3922573 9.61246524,16.5500298 9.61246524,15.5551392 C9.61246524,14.3387132 8.62255606,13.348804 7.40613011,13.348804 C6.18970415,13.348804 5.19979497,14.3387132 5.19979497,15.5551392 C5.19979497,16.5500298 5.8613864,17.391261 6.76747902,17.6666729 L6.76747902,20.0306782 C6.76747902,20.3829326 7.05287942,20.6693293 7.40613011,20.6693293 Z M6.47709714,15.5550114 C6.47709714,15.0430943 6.89421294,14.6259785 7.40613011,14.6259785 C7.91804727,14.6259785 8.33516307,15.0430943 8.33516307,15.5550114 C8.33516307,16.0669286 7.91804727,16.4840444 7.40613011,16.4840444 C6.89421294,16.4840444 6.47709714,16.0669286 6.47709714,15.5550114 L6.47709714,15.5550114 Z M14.1738646,12.6471053 C14.5271153,12.6471053 14.8125157,12.3617049 14.8125157,12.0084542 L14.8125157,10.4657031 C14.8125157,10.1124524 14.5271153,9.82705201 14.1738646,9.82705201 L13.0432478,9.82705201 L13.0432478,5.6380118 C13.0432478,2.52956923 10.5145982,-7.70938868e-13 7.40625784,-7.70938868e-13 C4.29791745,-7.70938868e-13 1.76926788,2.52864957 1.76926788,5.6380118 L1.76926788,9.82705201 L0.638651087,9.82705201 C0.285400398,9.82705201 0,10.1124524 0,10.4657031 L0,22.3435915 C0,23.5939426 1.01785656,24.6117991 2.26920395,24.6117991 L12.5456109,24.6117991 C13.795962,24.6117991 14.8148148,23.5939426 14.8148148,22.3435915 L14.8128192,14.3065507 C14.8128192,13.9533 14.5274188,13.6678996 14.1741681,13.6678996 C13.8209174,13.6678996 13.535517,13.9533 13.535517,14.3065507 L13.535517,22.3425696 C13.535517,22.8894082 13.0904538,23.3334751 12.5436152,23.3334751 L2.26823014,23.3344729 C1.72139153,23.3344729 1.27632836,22.8904061 1.27632836,22.3435675 L1.27732619,11.1043302 L2.34706676,11.1043302 C2.36702486,11.1063261 2.38698245,11.1103174 2.40793787,11.1103174 C2.42889355,11.1103174 2.44785356,11.1063261 2.46880898,11.1043302 L12.3449094,11.1043302 C12.3648672,11.1063261 12.3848251,11.1103174 12.4057805,11.1103174 C12.4267364,11.1103174 12.4456962,11.1063261 12.4666516,11.1043302 L13.5363922,11.1043302 L13.5363922,12.0084302 C13.5353944,12.3606846 13.8217926,12.6470813 14.174047,12.6470813 L14.1738646,12.6471053 Z M11.7659456,9.82707755 L3.04631459,9.82707755 L3.04631459,5.63803734 C3.04631459,3.23410356 5.00217078,1.27732772 7.40600238,1.27732772 C9.80983397,1.27732772 11.7656902,3.2331839 11.7656902,5.63803734 L11.7659456,9.82707755 Z" id="Shape"></path>
                </g>
            </g>
        </g>
    </g>
</svg>