<?xml version="1.0" encoding="UTF-8"?>
<svg width="17px" height="16px" viewBox="0 0 17 16" version="1.1" xmlns="http://www.w3.org/2000/svg" xmlns:xlink="http://www.w3.org/1999/xlink">
    <!-- Generator: sketchtool 57.1 (101010) - https://sketch.com -->
    <title>D1B0DF7F-4D7D-419E-B47F-7BD2D88F2F57</title>
    <desc>Created with sketchtool.</desc>
    <g id="Maquettes" stroke="none" stroke-width="1" fill="none" fill-rule="evenodd" opacity="0.8">
        <g id="OF---Connexion_DEPUIS_MAIL_DEJA_FAIT" transform="translate(-516.000000, -433.000000)" fill="#24303A" fill-rule="nonzero">
            <g id="Popin-Login" transform="translate(495.000000, 192.000000)">
                <g id="Icone_warning" transform="translate(21.000000, 241.000000)">
                    <g id="np_warning_2797276_0065DB" transform="translate(0.000000, 0.000000)">
                        <path d="M13.82368,2.33632 C12.256176,0.783824 10.208,0 8.16,0 C6.112,0 4.06368,0.783744 2.49632,2.33632 C-0.62368,5.45632 -0.62368,10.52816 2.49632,13.64816 C4.063824,15.216288 6.112,16 8.16,16 C10.208,16 12.25632,15.216256 13.82368,13.66368 C16.94368,10.528 16.94368,5.47184 13.82368,2.33616 L13.82368,2.33632 Z M12.831808,12.672 C11.58368,13.903872 9.919968,14.592 8.159968,14.592 C6.399968,14.592 4.736288,13.903872 3.488128,12.65568 C0.911808,10.07936 0.911808,5.90384 3.488128,3.32752 C4.736256,2.096272 6.399968,1.40816 8.159968,1.40816 C9.919968,1.40816 11.583648,2.096288 12.816288,3.34448 C14.080032,4.576352 14.751968,6.24016 14.751968,8.00016 C14.751968,9.76016 14.080096,11.42384 12.831968,12.672 L12.831808,12.672 Z" id="Shape"></path>
                        <path d="M8.16,10.54368 C7.791872,10.54368 7.52,10.6399296 7.328128,10.815552 C7.136256,10.991808 7.04,11.26368 7.04,11.615552 C7.04,11.951808 7.1362496,12.22368 7.328128,12.399296 C7.52,12.591168 7.791872,12.687424 8.144384,12.687424 C8.496256,12.687424 8.752512,12.5911744 8.944384,12.399296 C9.136256,12.207424 9.232512,11.951168 9.232512,11.615552 C9.232512,11.279296 9.1362624,11.007424 8.944384,10.815552 C8.78376,10.63992 8.511888,10.54368 8.160016,10.54368 L8.16,10.54368 Z" id="Path"></path>
                        <polygon id="Path" points="7.40816 9.45632 8.943792 9.45632 9.263792 3.312 7.088112 3.312"></polygon>
                    </g>
                </g>
            </g>
        </g>
    </g>
</svg>