<?xml version="1.0" encoding="utf-8"?>
<!-- Generator: Adobe Illustrator 24.3.0, SVG Export Plug-In . SVG Version: 6.00 Build 0)  -->
<svg version="1.1" id="Calque_1" xmlns="http://www.w3.org/2000/svg" xmlns:xlink="http://www.w3.org/1999/xlink" x="0px" y="0px"
	 viewBox="0 0 117 46" style="enable-background:new 0 0 117 46;" xml:space="preserve">
<style type="text/css">
	.st0{fill:#003D7C;}
	.st1{fill:#FFFFFF;}
	.st2{fill:#DA0719;}
</style>
<path id="Path" class="st0" d="M8.3,0C8.3,0,0,0,0,8.3v29.4c0,0,0,8.3,8.3,8.3h29.4c0,0,8.3,0,8.3-8.3V8.3c0,0,0-8.3-8.3-8.3H8.3z"
	/>
<path id="Shape" class="st1" d="M24.1,17.3c0.1-0.9,0.4-1.7,0.9-2.2c0.5-0.5,1.1-0.8,1.9-0.8c0.8,0,1.5,0.3,1.9,0.8
	c0.5,0.5,0.7,1.2,0.8,2.2c0,0.2-0.2,0.3-0.3,0.3h-4.9C24.3,17.7,24.1,17.5,24.1,17.3 M31.8,21.3c0.1-0.7-0.3-0.8-0.5-0.8
	c0,0-0.1,0-0.1,0c-0.2,0-0.5,0.1-0.6,0.2c-0.2,0.1-0.6,0.6-0.8,0.8S29.3,21.8,29,22c-0.3,0.2-0.6,0.3-0.9,0.4
	c-0.3,0.1-0.6,0.1-1,0.1c-0.5,0-1.1-0.1-1.5-0.4c-0.5-0.3-0.8-0.7-1.1-1.2c-0.2-0.5-0.4-1-0.4-1.7c0-0.2,0.2-0.3,0.3-0.3h5.5
	c0.7,0,1.3-0.1,1.7-0.3c0.3-0.2,0.5-0.6,0.5-1.3c0-0.8-0.2-1.5-0.6-2.2c-0.4-0.7-1-1.3-1.7-1.8C29,13,28.1,12.7,27,12.7
	c-0.8,0-1.6,0.1-2.3,0.4c-0.7,0.3-1.3,0.7-1.7,1.2c-0.5,0.5-0.8,1.1-1.1,1.8c-0.2,0.7-0.4,1.5-0.4,2.3c0,1.8,0.5,3.2,1.5,4.2
	c1,1,2.4,1.5,4.2,1.5c0.8,0,1.5-0.1,2.1-0.3C30.3,23.4,31.6,22.4,31.8,21.3"/>
<path id="Path_1_" class="st1" d="M22.5,9.8L22.5,9.8c-4.8,0-8.6,3.9-8.6,8.6l0,0c0,4.8,3.9,8.6,8.6,8.6s8.6-3.9,8.6-8.6
	S27.2,9.8,22.5,9.8z"/>
<path id="Shape_1_" class="st0" d="M24.1,17.3c0.1-0.9,0.4-1.7,0.9-2.2c0.5-0.5,1.1-0.8,1.9-0.8c0.8,0,1.5,0.3,1.9,0.8
	c0.5,0.5,0.7,1.2,0.8,2.2c0,0.2-0.2,0.3-0.3,0.3h-4.9C24.3,17.7,24.1,17.5,24.1,17.3 M30.9,20.5c-0.1,0-0.2,0.1-0.3,0.2
	c-0.2,0.1-0.6,0.6-0.8,0.8S29.3,21.8,29,22c-0.3,0.2-0.6,0.3-0.9,0.4c-0.3,0.1-0.6,0.1-1,0.1c-0.5,0-1-0.1-1.5-0.4
	c-0.5-0.3-0.8-0.7-1.1-1.2c-0.2-0.5-0.4-1-0.4-1.6c0-0.2,0.2-0.3,0.3-0.3h5.5c0.5,0,0.9,0,1-0.1c0,0,0.2,0,0.2-0.1
	c0-0.1,0-0.2,0-0.4c0-2-0.7-3.8-1.2-4.5c0,0-0.6-0.7-0.9-0.9c-0.3-0.2-1.1-0.3-2-0.3c-0.8,0-1.6,0.1-2.3,0.4
	c-0.7,0.3-1.3,0.7-1.7,1.2c-0.5,0.5-0.8,1.1-1.1,1.8c-0.2,0.7-0.4,1.5-0.4,1.9c0,0,0,0.4,0,1.3s0.5,2.3,1.5,3.3c1,1,2.4,1.5,4.2,1.5
	c0.7,0,1.4-0.1,1.7-0.2c0,0,0.3-0.1,0.7-0.6C30,22.9,30.5,21.8,30.9,20.5"/>
<path id="Shape_2_" class="st1" d="M8.9,33c0-0.4-0.1-0.6-0.2-0.8C8.6,32,8.3,31.8,8,31.8S7.4,32,7.3,32.2c-0.1,0.2-0.2,0.4-0.2,0.8
	v1.1H8c0.3,0,0.6-0.1,0.7-0.3C8.8,33.6,8.9,33.3,8.9,33 M9.5,33c0,1.2-0.5,1.8-1.5,1.8H7.1v1.4H6.5V33c0-1.2,0.5-1.8,1.5-1.8
	C9,31.1,9.5,31.7,9.5,33"/>
<path id="Shape_3_" class="st1" d="M12.3,33c0-0.4-0.1-0.6-0.2-0.8c-0.1-0.2-0.4-0.3-0.7-0.3c-0.3,0-0.6,0.1-0.7,0.3
	c-0.1,0.2-0.2,0.4-0.2,0.8s0.1,0.6,0.2,0.8c0.1,0.2,0.4,0.3,0.7,0.3c0.3,0,0.6-0.1,0.7-0.3C12.3,33.6,12.3,33.3,12.3,33 M12.7,30.4
	l-0.3,0.4l-1-0.6l-1,0.6l-0.3-0.4l1.3-0.7L12.7,30.4z M13,33c0,1.2-0.5,1.8-1.5,1.8S9.9,34.2,9.9,33c0-1.2,0.5-1.8,1.5-1.8
	C12.5,31.1,13,31.7,13,33"/>
<path id="Path_2_" class="st1" d="M15.1,34.8c-1.1,0-1.6-0.4-1.6-1.3v-3.8h0.6v3.8c0,0.2,0.1,0.3,0.2,0.4c0.2,0.1,0.4,0.2,0.8,0.2
	L15.1,34.8L15.1,34.8z"/>
<path id="Path_3_" class="st1" d="M29.6,34.8h-0.6v-1.8c0-0.4-0.1-0.6-0.2-0.8c-0.1-0.2-0.4-0.3-0.7-0.3c-0.3,0-0.6,0.1-0.7,0.3
	c-0.1,0.2-0.2,0.4-0.2,0.8v1.8h-0.6v-1.8c0-0.4-0.1-0.6-0.2-0.8c-0.1-0.2-0.4-0.3-0.7-0.3c-0.3,0-0.6,0.1-0.7,0.3
	c-0.1,0.2-0.2,0.4-0.2,0.8v1.8h-0.6v-1.8c0-1.2,0.5-1.8,1.5-1.8c0.5,0,0.9,0.2,1.2,0.6c0.3-0.4,0.6-0.6,1.2-0.6c1,0,1.5,0.6,1.5,1.8
	V34.8z"/>
<path id="Shape_4_" class="st1" d="M32.5,33c0-0.4-0.1-0.6-0.2-0.8c-0.1-0.2-0.4-0.3-0.7-0.3c-0.3,0-0.6,0.1-0.7,0.3
	c-0.1,0.2-0.2,0.4-0.2,0.8v1.1h0.9c0.3,0,0.6-0.1,0.7-0.3C32.4,33.6,32.5,33.3,32.5,33 M33.1,33c0,1.2-0.5,1.8-1.5,1.8h-0.9v1.4
	h-0.6V33c0-1.2,0.5-1.8,1.5-1.8C32.6,31.1,33.1,31.7,33.1,33"/>
<path id="Path_4_" class="st1" d="M35.2,34.8c-1.1,0-1.6-0.4-1.6-1.3v-3.8h0.6v3.8c0,0.2,0.1,0.3,0.2,0.4c0.2,0.1,0.4,0.2,0.8,0.2
	L35.2,34.8L35.2,34.8z"/>
<path id="Shape_5_" class="st1" d="M37.8,33c0-0.4-0.1-0.6-0.2-0.8c-0.1-0.2-0.4-0.3-0.7-0.3c-0.3,0-0.6,0.1-0.7,0.3
	C36.1,32.3,36,32.6,36,33s0.1,0.6,0.2,0.8c0.1,0.2,0.4,0.3,0.7,0.3c0.3,0,0.6-0.1,0.7-0.3C37.7,33.6,37.8,33.3,37.8,33 M38.4,33
	c0,1.2-0.5,1.8-1.5,1.8s-1.5-0.6-1.5-1.8c0-1.2,0.5-1.8,1.5-1.8C37.9,31.1,38.4,31.7,38.4,33"/>
<path id="Shape_6_" class="st1" d="M38.9,34.8h1v-3.6h-1V34.8z M38.9,30.4h1v-0.7h-1V30.4z"/>
<path id="Shape_7_" class="st1" d="M17.6,32.2c-0.1-0.3-0.4-0.5-0.7-0.5c-0.3,0-0.6,0.2-0.7,0.5c-0.1,0.2-0.1,0.3-0.1,0.5h1.6
	C17.7,32.5,17.6,32.4,17.6,32.2 M16.1,33.2c0,0.6,0.3,1,0.9,1c0.4,0,0.6-0.1,0.9-0.4l0.5,0.4c-0.4,0.4-0.7,0.6-1.3,0.6
	c-0.9,0-1.6-0.5-1.6-1.8c0-1.2,0.6-1.8,1.5-1.8c1,0,1.5,0.7,1.5,1.7v0.3H16.1z"/>
<path id="Shape_8_" class="st1" d="M22.8,32.2c-0.1-0.3-0.4-0.5-0.7-0.5c-0.3,0-0.6,0.2-0.7,0.5c-0.1,0.2-0.1,0.3-0.1,0.5h1.6
	C22.9,32.5,22.9,32.4,22.8,32.2 M21.3,33.2c0,0.6,0.3,1,0.9,1c0.4,0,0.6-0.1,0.9-0.4l0.5,0.4c-0.4,0.4-0.7,0.6-1.3,0.6
	c-0.9,0-1.6-0.5-1.6-1.8c0-1.2,0.6-1.8,1.5-1.8c1,0,1.5,0.7,1.5,1.7v0.3H21.3z"/>
<path id="Shape_9_" class="st1" d="M17.6,32.2c-0.1-0.3-0.4-0.5-0.7-0.5c-0.3,0-0.6,0.2-0.7,0.5c-0.1,0.2-0.1,0.3-0.1,0.5h1.6
	C17.7,32.5,17.6,32.4,17.6,32.2 M16.1,33.2c0,0.6,0.3,1,0.9,1c0.4,0,0.6-0.1,0.9-0.4l0.5,0.4c-0.4,0.4-0.7,0.6-1.3,0.6
	c-0.9,0-1.6-0.5-1.6-1.8c0-1.2,0.6-1.8,1.5-1.8c1,0,1.5,0.7,1.5,1.7v0.3H16.1z"/>
<path id="Shape_10_" class="st1" d="M22.8,32.2c-0.1-0.3-0.4-0.5-0.7-0.5c-0.3,0-0.6,0.2-0.7,0.5c-0.1,0.2-0.1,0.3-0.1,0.5h1.6
	C22.9,32.5,22.9,32.4,22.8,32.2 M21.3,33.2c0,0.6,0.3,1,0.9,1c0.4,0,0.6-0.1,0.9-0.4l0.5,0.4c-0.4,0.4-0.7,0.6-1.3,0.6
	c-0.9,0-1.6-0.5-1.6-1.8c0-1.2,0.6-1.8,1.5-1.8c1,0,1.5,0.7,1.5,1.7v0.3H21.3z"/>
<path id="Path_5_" class="st2" d="M103,32.6c-0.6,0-1.1,0.5-1.1,1.2c0,0.7,0.5,1.2,1.1,1.2c0.7,0,1.2-0.5,1.2-1.2
	C104.1,33.1,103.6,32.6,103,32.6z"/>
<path id="fr" class="st2" d="M108.8,35v-7.5h1.8V26h-1.8v-0.8c0-1,0.5-1.5,1.4-1.5c0.3,0,0.6,0,0.8,0.1l0,0l0-1.6
	c-0.4-0.1-0.8-0.1-1.1-0.1c-1,0-1.8,0.3-2.3,0.8s-0.8,1.3-0.8,2.3l0,0V26h-1.4v1.5h1.4V35H108.8z M114.1,35v-6.1
	c0.3-0.7,0.9-1.1,1.9-1.1c0.3,0,0.6,0,0.8,0.1l0,0l0-1.9c-0.2-0.1-0.4-0.1-0.7-0.1c-0.9,0-1.5,0.4-2,1.2l0,0l0-1h-1.9v9H114.1z"/>
<path id="Shape_11_" class="st0" d="M99.8,26.3h-1.9v8.4h1.9V26.3z M98.9,22.5c-0.7,0-1.2,0.5-1.2,1.2c0,0.6,0.5,1.2,1.2,1.2
	c0.7,0,1.2-0.5,1.2-1.2C100.1,23,99.5,22.5,98.9,22.5 M92,27.6c1.4,0,2.2,1.2,2.2,2.9c0,1.7-0.8,2.9-2.2,2.9c-1.4,0-2.2-1.2-2.2-2.9
	C89.9,28.8,90.6,27.6,92,27.6 M92.1,26.1c-1.2,0-2.2,0.4-2.9,1.2C88.4,28,88,29.2,88,30.5c0,1.4,0.4,2.6,1.3,3.3
	c0.7,0.7,1.7,1,2.8,1c1.2,0,2.2-0.4,2.9-1.2c0.8-0.8,1.2-1.9,1.2-3.3c0-1.3-0.4-2.4-1.2-3.2C94.3,26.5,93.3,26.1,92.1,26.1
	 M87.3,34.5L87,33.2c-0.2,0.1-0.4,0.1-0.6,0.1c-0.5,0-0.6-0.2-0.6-0.9V22.1H84v11.1c0,1,0.5,1.8,1.8,1.8
	C86.3,34.9,86.7,34.8,87.3,34.5 M80.4,30.5c0,1.8-1,2.9-2.6,2.9c-0.5,0-0.9-0.1-1.2-0.2v-5.3c0.3-0.1,0.6-0.1,1.1-0.1
	C79.3,27.7,80.4,28.5,80.4,30.5 M82.3,30.4c0-2.6-1.6-4.3-4.4-4.3c-1.3,0-2.3,0.3-3.1,0.6V39h1.9v-4.3c0.4,0.2,0.8,0.2,1.3,0.2
	C80.4,34.9,82.3,33.2,82.3,30.4 M72.7,34.7v-5.8c0-2.2-1.3-2.8-2.7-2.8c-0.9,0-2.1,0.5-3,1.3c-0.3-0.8-1.1-1.3-2.2-1.3
	c-0.9,0-1.9,0.4-2.9,1.2l-0.2-0.9h-1.5v8.4H62v-6c0.6-0.5,1.4-1,2.3-1c1.1,0,1.3,0.8,1.3,1.8v5.2h1.9v-5.7v-0.4c0.6-0.5,1.4-1,2.3-1
	c1.1,0,1.2,0.7,1.2,1.8v5.3L72.7,34.7L72.7,34.7z M56.5,29.6H53c0-1,0.7-2.1,1.8-2.1C55.9,27.5,56.5,28.6,56.5,29.6 M58.4,30.9v-0.5
	c0-2.6-1.4-4.4-3.6-4.4c-2.3,0-3.7,2-3.7,4.4c0,2.3,1.3,4.5,4.1,4.5c1,0,2.1-0.3,2.9-0.9l-0.5-1.2c-0.7,0.4-1.4,0.6-2.1,0.6
	c-1.5,0-2.5-1-2.5-2.4H58.4z"/>
<path id="Shape_12_" class="st0" d="M80.8,12.7h-2.8c0-0.6,0.5-1.5,1.4-1.5C80.3,11.3,80.7,12,80.8,12.7 M83.5,14.5v-0.8
	c0-2.6-1.7-4.4-4-4.4c-2.7,0-4.1,2.1-4.1,4.5c0,2.2,1.2,4.3,4.4,4.3c1,0,2.2-0.2,3.4-1l-0.6-1.7C81.6,15.9,81,16,80.1,16
	c-0.9,0-2.1-0.5-2.1-1.5L83.5,14.5L83.5,14.5z M74.7,17.6l-0.3-2c-0.3,0.1-0.6,0.1-0.7,0.1c-0.4,0-0.5-0.3-0.5-0.8V5.3h-2.7v10.7
	c0,1.2,0.6,2.1,2.2,2.1C73.2,18.1,73.9,18.1,74.7,17.6 M66.2,13.8c0,1.3-0.5,2.4-1.7,2.4c-1.1,0-1.8-1-1.8-2.4
	c0-1.3,0.5-2.4,1.7-2.4C65.5,11.4,66.2,12.4,66.2,13.8 M68.9,13.7c0-1.2-0.4-2.3-1.1-3.1c-0.8-0.8-1.9-1.3-3.4-1.3
	c-1.3,0-2.4,0.5-3.2,1.3c-0.8,0.8-1.3,1.9-1.3,3.2c0,1.3,0.5,2.5,1.4,3.3c0.8,0.7,1.8,1,3.1,1c1.4,0,2.5-0.5,3.3-1.3
	C68.5,16,68.9,14.9,68.9,13.7 M67.1,8.5l-1.8-2.6h-2.1l-1.8,2.6h2l0.8-1.1l0.8,1.1H67.1z M56.6,10.1c0,1.1-0.6,1.8-2,1.8h-0.4V8.4
	h0.4C55.9,8.4,56.6,9.2,56.6,10.1 M59.3,10.1c0-2.6-1.8-3.9-4.4-3.9h-3.4V18h2.7v-3.9h0.3C58.1,14.1,59.3,12,59.3,10.1"/>
</svg>
