<svg width="162" height="60" viewBox="0 0 162 60" fill="none" xmlns="http://www.w3.org/2000/svg">
<g clip-path="url(#clip0_26_1797)">
<rect x="66.0024" y="48" width="63" height="9" fill="#283276"/>
<path d="M68.4746 55.5V49.2H71.9846V50.073H69.5006V51.855H71.6246V52.728H69.5006V55.5H68.4746Z" fill="white"/>
<path d="M72.8113 55.5V50.964H73.7383V51.477C74.0533 51.126 74.4493 50.874 75.0073 50.874C75.1513 50.874 75.2863 50.901 75.4033 50.937V51.846C75.2593 51.81 75.1153 51.783 74.9263 51.783C74.3503 51.783 73.9723 52.089 73.7383 52.476V55.5H72.8113Z" fill="white"/>
<path d="M77.4637 55.635C76.5637 55.635 75.9517 55.122 75.9517 54.321C75.9517 53.637 76.4827 53.142 77.4457 52.98L78.9127 52.737V52.503C78.9127 51.945 78.4987 51.603 77.9137 51.603C77.4187 51.603 77.0317 51.828 76.7707 52.197L76.0777 51.666C76.4827 51.126 77.1307 50.784 77.9407 50.784C79.1647 50.784 79.8397 51.504 79.8397 52.503V55.5H78.9127V54.987C78.5887 55.383 78.0217 55.635 77.4637 55.635ZM76.8877 54.285C76.8877 54.636 77.1667 54.879 77.6347 54.879C78.2017 54.879 78.6427 54.609 78.9127 54.177V53.394L77.6887 53.601C77.1217 53.7 76.8877 53.943 76.8877 54.285Z" fill="white"/>
<path d="M81.2928 55.5V50.964H82.2198V51.405C82.5618 51.045 83.0118 50.784 83.6598 50.784C84.6588 50.784 85.4238 51.459 85.4238 52.773V55.5H84.4878V52.809C84.4878 52.089 84.0918 51.657 83.4438 51.657C82.8228 51.657 82.4538 52.044 82.2198 52.44V55.5H81.2928Z" fill="white"/>
<path d="M88.9891 54.807C89.5021 54.807 89.9161 54.555 90.1681 54.204L90.8971 54.762C90.4831 55.32 89.8171 55.68 88.9801 55.68C87.4591 55.68 86.5051 54.555 86.5051 53.232C86.5051 51.909 87.4591 50.784 88.9801 50.784C89.8081 50.784 90.4831 51.144 90.8971 51.702L90.1681 52.26C89.9161 51.909 89.5021 51.657 88.9801 51.657C88.1071 51.657 87.4771 52.341 87.4771 53.232C87.4771 54.132 88.1071 54.807 88.9891 54.807Z" fill="white"/>
<path d="M95.7853 54.762C95.3623 55.329 94.6692 55.68 93.8232 55.68C92.2572 55.68 91.3303 54.555 91.3303 53.232C91.3303 51.873 92.1943 50.784 93.6343 50.784C94.8853 50.784 95.6953 51.639 95.6953 52.791C95.6953 52.998 95.6682 53.205 95.6322 53.34H92.2842C92.3472 54.33 92.9502 54.843 93.8232 54.843C94.3722 54.843 94.8312 54.6 95.1102 54.222L95.7853 54.762ZM93.6162 51.558C92.9412 51.558 92.4732 51.945 92.3292 52.647H94.7683C94.7503 52.08 94.3452 51.558 93.6162 51.558Z" fill="white"/>
<path d="M98.8777 50.145V49.2H103.963V50.145H101.938V55.5H100.903V50.145H98.8777Z" fill="white"/>
<path d="M104.399 55.5V50.964H105.326V51.477C105.641 51.126 106.037 50.874 106.595 50.874C106.739 50.874 106.874 50.901 106.991 50.937V51.846C106.847 51.81 106.703 51.783 106.514 51.783C105.938 51.783 105.56 52.089 105.326 52.476V55.5H104.399Z" fill="white"/>
<path d="M109.052 55.635C108.152 55.635 107.54 55.122 107.54 54.321C107.54 53.637 108.071 53.142 109.034 52.98L110.501 52.737V52.503C110.501 51.945 110.087 51.603 109.502 51.603C109.007 51.603 108.62 51.828 108.359 52.197L107.666 51.666C108.071 51.126 108.719 50.784 109.529 50.784C110.753 50.784 111.428 51.504 111.428 52.503V55.5H110.501V54.987C110.177 55.383 109.61 55.635 109.052 55.635ZM108.476 54.285C108.476 54.636 108.755 54.879 109.223 54.879C109.79 54.879 110.231 54.609 110.501 54.177V53.394L109.277 53.601C108.71 53.7 108.476 53.943 108.476 54.285Z" fill="white"/>
<path d="M112.171 50.964H113.17L114.502 54.492L115.825 50.964H116.833L115.114 55.5H113.881L112.171 50.964Z" fill="white"/>
<path d="M118.834 55.635C117.934 55.635 117.322 55.122 117.322 54.321C117.322 53.637 117.853 53.142 118.816 52.98L120.283 52.737V52.503C120.283 51.945 119.869 51.603 119.284 51.603C118.789 51.603 118.402 51.828 118.141 52.197L117.448 51.666C117.853 51.126 118.501 50.784 119.311 50.784C120.535 50.784 121.21 51.504 121.21 52.503V55.5H120.283V54.987C119.959 55.383 119.392 55.635 118.834 55.635ZM118.258 54.285C118.258 54.636 118.537 54.879 119.005 54.879C119.572 54.879 120.013 54.609 120.283 54.177V53.394L119.059 53.601C118.492 53.7 118.258 53.943 118.258 54.285Z" fill="white"/>
<path d="M123.131 49.956C122.789 49.956 122.501 49.668 122.501 49.326C122.501 48.984 122.789 48.696 123.131 48.696C123.473 48.696 123.761 48.984 123.761 49.326C123.761 49.668 123.473 49.956 123.131 49.956ZM122.663 55.5V50.964H123.59V55.5H122.663Z" fill="white"/>
<path d="M125.106 55.5V48.75H126.033V55.5H125.106Z" fill="white"/>
<path d="M66.001 28.6125V26.25H78.7135V28.6125H73.651V42H71.0635V28.6125H66.001Z" fill="#283276"/>
<path d="M79.8047 42V30.66H82.1222V31.9425C82.9097 31.065 83.8997 30.435 85.2947 30.435C85.6547 30.435 85.9922 30.5025 86.2847 30.5925V32.865C85.9247 32.775 85.5647 32.7075 85.0922 32.7075C83.6522 32.7075 82.7072 33.4725 82.1222 34.44V42H79.8047Z" fill="#283276"/>
<path d="M91.4356 42.3375C89.1856 42.3375 87.6556 41.055 87.6556 39.0525C87.6556 37.3425 88.9831 36.105 91.3906 35.7L95.0581 35.0925V34.5075C95.0581 33.1125 94.0231 32.2575 92.5606 32.2575C91.3231 32.2575 90.3556 32.82 89.7031 33.7425L87.9706 32.415C88.9831 31.065 90.6031 30.21 92.6281 30.21C95.6881 30.21 97.3756 32.01 97.3756 34.5075V42H95.0581V40.7175C94.2481 41.7075 92.8306 42.3375 91.4356 42.3375ZM89.9956 38.9625C89.9956 39.84 90.6931 40.4475 91.8631 40.4475C93.2806 40.4475 94.3831 39.7725 95.0581 38.6925V36.735L91.9981 37.2525C90.5806 37.5 89.9956 38.1075 89.9956 38.9625Z" fill="#283276"/>
<path d="M99.2335 30.66H101.731L105.061 39.48L108.368 30.66H110.888L106.591 42H103.508L99.2335 30.66Z" fill="#283276"/>
<path d="M115.891 42.3375C113.641 42.3375 112.111 41.055 112.111 39.0525C112.111 37.3425 113.439 36.105 115.846 35.7L119.514 35.0925V34.5075C119.514 33.1125 118.479 32.2575 117.016 32.2575C115.779 32.2575 114.811 32.82 114.159 33.7425L112.426 32.415C113.439 31.065 115.059 30.21 117.084 30.21C120.144 30.21 121.831 32.01 121.831 34.5075V42H119.514V40.7175C118.704 41.7075 117.286 42.3375 115.891 42.3375ZM114.451 38.9625C114.451 39.84 115.149 40.4475 116.319 40.4475C117.736 40.4475 118.839 39.7725 119.514 38.6925V36.735L116.454 37.2525C115.036 37.5 114.451 38.1075 114.451 38.9625Z" fill="#283276"/>
<path d="M126.634 28.14C125.779 28.14 125.059 27.42 125.059 26.565C125.059 25.71 125.779 24.99 126.634 24.99C127.489 24.99 128.209 25.71 128.209 26.565C128.209 27.42 127.489 28.14 126.634 28.14ZM125.464 42V30.66H127.781V42H125.464Z" fill="#283276"/>
<path d="M131.572 42V25.125H133.89V42H131.572Z" fill="#283276"/>
<path d="M138.851 42.27C137.906 42.27 137.163 41.5275 137.163 40.605C137.163 39.705 137.906 38.94 138.851 38.94C139.773 38.94 140.516 39.705 140.516 40.605C140.516 41.5275 139.773 42.27 138.851 42.27Z" fill="#283276"/>
<path d="M144.915 28.14C144.06 28.14 143.34 27.42 143.34 26.565C143.34 25.71 144.06 24.99 144.915 24.99C145.77 24.99 146.49 25.71 146.49 26.565C146.49 27.42 145.77 28.14 144.915 28.14ZM143.745 42V30.66H146.063V42H143.745Z" fill="#283276"/>
<path d="M155.119 30.21C158.809 30.21 161.284 32.9775 161.284 36.33C161.284 39.6825 158.809 42.45 155.119 42.45C151.451 42.45 148.954 39.6825 148.954 36.33C148.954 32.9775 151.451 30.21 155.119 30.21ZM155.141 40.2675C157.279 40.2675 158.854 38.49 158.854 36.33C158.854 34.125 157.279 32.3925 155.141 32.3925C152.959 32.3925 151.384 34.1475 151.384 36.33C151.384 38.5125 152.959 40.2675 155.141 40.2675Z" fill="#283276"/>
<path d="M67.501 19.5V3.75H76.276V5.9325H70.066V10.3875H75.376V12.57H70.066V19.5H67.501Z" fill="#283276"/>
<path d="M78.3428 19.5V8.16H80.6603V9.4425C81.4478 8.565 82.4378 7.935 83.8328 7.935C84.1928 7.935 84.5303 8.0025 84.8228 8.0925V10.365C84.4628 10.275 84.1028 10.2075 83.6303 10.2075C82.1903 10.2075 81.2453 10.9725 80.6603 11.94V19.5H78.3428Z" fill="#283276"/>
<path d="M89.9737 19.8375C87.7237 19.8375 86.1937 18.555 86.1937 16.5525C86.1937 14.8425 87.5212 13.605 89.9287 13.2L93.5962 12.5925V12.0075C93.5962 10.6125 92.5612 9.7575 91.0987 9.7575C89.8612 9.7575 88.8937 10.32 88.2412 11.2425L86.5087 9.915C87.5212 8.565 89.1412 7.71 91.1662 7.71C94.2262 7.71 95.9137 9.51 95.9137 12.0075V19.5H93.5962V18.2175C92.7862 19.2075 91.3687 19.8375 89.9737 19.8375ZM88.5337 16.4625C88.5337 17.34 89.2312 17.9475 90.4012 17.9475C91.8187 17.9475 92.9212 17.2725 93.5962 16.1925V14.235L90.5362 14.7525C89.1187 15 88.5337 15.6075 88.5337 16.4625Z" fill="#283276"/>
<path d="M99.5464 19.5V8.16H101.864V9.2625C102.719 8.3625 103.844 7.71 105.464 7.71C107.961 7.71 109.874 9.3975 109.874 12.6825V19.5H107.534V12.7725C107.534 10.9725 106.544 9.8925 104.924 9.8925C103.371 9.8925 102.449 10.86 101.864 11.85V19.5H99.5464Z" fill="#283276"/>
<path d="M118.787 17.7675C120.07 17.7675 121.105 17.1375 121.735 16.26L123.557 17.655C122.522 19.05 120.857 19.95 118.765 19.95C114.962 19.95 112.577 17.1375 112.577 13.83C112.577 10.5225 114.962 7.71 118.765 7.71C120.835 7.71 122.522 8.61 123.557 10.005L121.735 11.4C121.105 10.5225 120.07 9.8925 118.765 9.8925C116.582 9.8925 115.007 11.6025 115.007 13.83C115.007 16.08 116.582 17.7675 118.787 17.7675Z" fill="#283276"/>
<path d="M135.778 17.655C134.72 19.0725 132.988 19.95 130.873 19.95C126.958 19.95 124.64 17.1375 124.64 13.83C124.64 10.4325 126.8 7.71 130.4 7.71C133.528 7.71 135.553 9.8475 135.553 12.7275C135.553 13.245 135.485 13.7625 135.395 14.1H127.025C127.183 16.575 128.69 17.8575 130.873 17.8575C132.245 17.8575 133.393 17.25 134.09 16.305L135.778 17.655ZM130.355 9.645C128.668 9.645 127.498 10.6125 127.138 12.3675H133.235C133.19 10.95 132.178 9.645 130.355 9.645Z" fill="#283276"/>
<g clip-path="url(#clip1_26_1797)">
<path d="M21.807 54.9112C17.9911 60.3331 10.5102 61.6234 5.0883 57.8075C-0.333597 53.9915 -1.62387 46.5107 2.19205 41.0888C6.00797 35.6669 13.4888 34.3766 18.9107 38.1925C24.3326 42.0085 25.6229 49.4893 21.807 54.9112Z" fill="#686F9F"/>
<path d="M58.3678 28.1149C56.0992 30.5283 52.298 30.6369 49.8846 28.3683C47.4712 26.0997 47.3626 22.2985 49.6312 19.8851C51.8998 17.4717 55.701 17.3631 58.1144 19.6317C60.5278 21.9124 60.6364 25.7015 58.3678 28.1149Z" fill="#9398BA"/>
<path d="M51 30C51 18.45 41.55 9 30 9C18.45 9 9 18.45 9 30C9 41.55 18.45 51 30 51C41.55 51 51 41.55 51 30Z" fill="#283276"/>
<path fill-rule="evenodd" clip-rule="evenodd" d="M26.4002 38.85H40.8002V21.15H19.2002V24.6H26.4002V38.85ZM37.5002 35.4H29.8502V24.6H37.5002V35.4Z" fill="white"/>
<path d="M19.2002 28.05H22.6502V38.85H19.2002V28.05Z" fill="white"/>
</g>
</g>
<defs>
<clipPath id="clip0_26_1797">
<rect width="162" height="60" fill="white"/>
</clipPath>
<clipPath id="clip1_26_1797">
<rect width="60" height="60" fill="white" transform="translate(0.000976562)"/>
</clipPath>
</defs>
</svg>
