<?xml version="1.0" encoding="UTF-8"?>
<svg width="30px" height="20px" viewBox="0 0 30 20" version="1.1" xmlns="http://www.w3.org/2000/svg"
     xmlns:xlink="http://www.w3.org/1999/xlink">
    <!-- Generator: sketchtool 57 (101010) - https://sketch.com -->
    <title>7D8D8BEB-39D1-489A-87AF-D8CE347D1C31</title>
    <desc>Created with sketchtool.</desc>
    <g id="Maquettes" stroke="none" stroke-width="1" fill="none" fill-rule="evenodd">
        <g id="D_Landing" transform="translate(-759.000000, -1367.000000)" fill="#007E54">
            <g id="Section-/-Numbers-Section-/-Numbers-2" transform="translate(1.000000, 1224.000000)">
                <g id="Group" transform="translate(653.000000, 135.000000)">
                    <g id="ic_formation" transform="translate(105.000000, 8.000000)">
                        <g id="Upper">
                            <path d="M15.0716437,2.15089371 L2.33124321,6.16591333 L15.071953,9.54910629 L27.6687242,6.16600299 L15.0716437,2.15089371 Z M15.8324777,0.117836647 L28.4295582,4.13294593 C29.6462177,4.52073586 30.2918782,5.74533236 29.8716812,6.86815877 C29.6247566,7.52797636 29.046224,8.03617017 28.3199556,8.23122342 L15.7231843,11.6143267 C15.3001556,11.7279392 14.8508971,11.7285666 14.4274977,11.6161363 L1.6867879,8.23294334 C0.449797667,7.90447054 -0.264448581,6.71274986 0.0914742567,5.57116071 C0.302110345,4.89556519 0.857200816,4.35760354 1.57808471,4.13042363 L14.3184852,0.115404006 C14.8093805,-0.0392971297 15.342169,-0.0384410598 15.8324777,0.117836647 Z"
                                  id="Line"></path>
                            <path d="M27,6.30475317 C27,5.69461484 27.6715729,5.2 28.5,5.2 C29.3284271,5.2 30,5.69461484 30,6.30475317 L30,11.8952468 C30,12.5053852 29.3284271,13 28.5,13 C27.6715729,13 27,12.5053852 27,11.8952468 L27,6.30475317 Z"
                                  id="Line-4"></path>
                        </g>
                        <path d="M5,13.3333333 C5,12.5969537 5.49532158,12 6.10633171,12 C6.71734185,12 7.21266343,12.5969537 7.21266343,13.3333333 L7.21266343,17.3333333 L22.7873366,17.3333333 L22.7873366,13.3333333 C22.7873366,12.5969537 23.2826582,12 23.8936683,12 C24.5046784,12 25,12.5969537 25,13.3333333 L25,17.3333333 C25,18.8060927 24.0093568,20 22.7873366,20 L7.21266343,20 C5.99064316,20 5,18.8060927 5,17.3333333 L5,13.3333333 Z"
                              id="Line-2"></path>
                    </g>
                </g>
            </g>
        </g>
    </g>
</svg>