<?xml version="1.0" encoding="UTF-8"?>
<svg width="18px" height="18px" viewBox="0 0 18 18" version="1.1" xmlns="http://www.w3.org/2000/svg"
     xmlns:xlink="http://www.w3.org/1999/xlink">
    <!-- Generator: Sketch 57.1 (83088) - https://sketch.com -->
    <title>Icon</title>
    <desc>Created with Sketch.</desc>
    <g id="Symbol" stroke="none" stroke-width="1" fill="none" fill-rule="evenodd">
        <g id="Section-/-Features-/-Organisme" transform="translate(-192.000000, -238.000000)" fill="#F28017">
            <g id="Features-list" transform="translate(165.000000, 211.000000)">
                <g id="Feature">
                    <g id="Illu" transform="translate(16.000000, 16.000000)">
                        <g id="Icons/message-square" transform="translate(11.000000, 11.000000)">
                            <path d="M4.18462865,12.3635938 C4.34286247,12.2093041 4.55747359,12.122625 4.78125,12.122625 L14.90625,12.122625 C15.3722403,12.122625 15.75,11.7542813 15.75,11.2999063 L15.75,3.07271875 C15.75,2.61834373 15.3722403,2.25 14.90625,2.25 L3.09375,2.25 C2.62775974,2.25 2.25,2.61834373 2.25,3.07271875 L2.25,14.25 L4.18462865,12.3635938 Z M4.87279221,14.3985567 L1.5363961,17.7346184 C0.969427728,18.30153 0,17.9000201 0,17.0982861 L0,2.69972939 C0,1.20871002 1.20883118,-3.25260652e-19 2.7,-3.25260652e-19 L15.3,-3.25260652e-19 C16.7911688,-3.25260652e-19 18,1.20871002 18,2.69972939 L18,11.6988273 C18,13.1898467 16.7911688,14.3985567 15.3,14.3985567 L4.87279221,14.3985567 Z"
                                  id="Path"></path>
                        </g>
                    </g>
                </g>
            </g>
        </g>
    </g>
</svg>