<svg id="Calque_1" data-name="Calque 1" xmlns="http://www.w3.org/2000/svg" viewBox="0 0 203 46">
    <defs>
        <style>.cls-1{fill:#0059b2;}.cls-2{fill:#1c1c1c;}.cls-3{fill:#d9d9d9;}.cls-4{fill:#fff;}</style>
    </defs>
    <title>Plan de travail 1</title>
    <path class="cls-1"
          d="M139.43,4.63a1.58,1.58,0,0,1-.3.89,2.08,2.08,0,0,1-.59.63,7.55,7.55,0,0,0-1-.81,9.77,9.77,0,0,0-1.77-.92,15.89,15.89,0,0,0-2.53-.77,14.92,14.92,0,0,0-3.3-.33q-7.38,0-7.37,4.72A3.87,3.87,0,0,0,123,9.91a3.74,3.74,0,0,0,1.22,1.31,7.65,7.65,0,0,0,1.94.9,20.11,20.11,0,0,0,2.54.63l4.39.81a12.49,12.49,0,0,1,5.81,2.36,5.6,5.6,0,0,1,1.9,4.5,6.86,6.86,0,0,1-.63,2.93,6,6,0,0,1-1.92,2.3A9.93,9.93,0,0,1,135,27.16a16.9,16.9,0,0,1-4.57.55,21.49,21.49,0,0,1-3.71-.29,20.06,20.06,0,0,1-3-.76,17.15,17.15,0,0,1-2.34-1,17.81,17.81,0,0,1-1.66-1l1.25-2q.55.37,1.42.85a15,15,0,0,0,2.07.92,17.64,17.64,0,0,0,2.69.74,17.24,17.24,0,0,0,3.34.3,10.85,10.85,0,0,0,5.55-1.2,4,4,0,0,0,2-3.74,4.31,4.31,0,0,0-.48-2.14,3.76,3.76,0,0,0-1.31-1.36,7.13,7.13,0,0,0-1.94-.81q-1.11-.29-2.32-.52L127.6,15a15.09,15.09,0,0,1-3-.79,8.93,8.93,0,0,1-2.43-1.36,6.25,6.25,0,0,1-1.64-2,5.67,5.67,0,0,1-.61-2.67,7.13,7.13,0,0,1,.52-2.71,5.62,5.62,0,0,1,1.71-2.25,8.9,8.9,0,0,1,3.1-1.55,16.38,16.38,0,0,1,4.66-.57,22.86,22.86,0,0,1,3.54.24,17.29,17.29,0,0,1,2.54.57,9.3,9.3,0,0,1,1.66.68,8.83,8.83,0,0,1,.92.57,3,3,0,0,1,.72.74,1.41,1.41,0,0,1,.17.7"/>
    <path class="cls-1"
          d="M145.11,11.09V21.78a3.51,3.51,0,0,0,1.07,2.91,4.37,4.37,0,0,0,2.8.85,5.7,5.7,0,0,0,2.06-.37,8.4,8.4,0,0,0,1.48-.7l1.07,1.59a4.76,4.76,0,0,1-.68.44,9.62,9.62,0,0,1-1.11.52,8.33,8.33,0,0,1-1.51.42,10.12,10.12,0,0,1-1.9.17,7.18,7.18,0,0,1-2.54-.41,4.79,4.79,0,0,1-1.77-1.12A4.63,4.63,0,0,1,143,24.36a6.52,6.52,0,0,1-.35-2.18v-17a1.3,1.3,0,0,1,.31-.9,1.3,1.3,0,0,1,1-.35,2.29,2.29,0,0,1,.65.09,3.08,3.08,0,0,1,.46.17V8.87h6.49a1.35,1.35,0,0,1,1.07.35,1.3,1.3,0,0,1,.3.87,2,2,0,0,1-.07.55c0,.17-.1.32-.15.44Z"/>
    <path class="cls-1"
          d="M169.52,18a8.44,8.44,0,0,0-.52-3,7.24,7.24,0,0,0-1.48-2.42,6.72,6.72,0,0,0-2.29-1.6,7.9,7.9,0,0,0-5.9,0,6.72,6.72,0,0,0-2.29,1.6A7.21,7.21,0,0,0,155.58,15a8.41,8.41,0,0,0-.52,3,8.06,8.06,0,0,0,.53,2.93,7.41,7.41,0,0,0,1.48,2.4,6.82,6.82,0,0,0,2.27,1.6,7.67,7.67,0,0,0,5.9,0,6.93,6.93,0,0,0,3.76-4,8.33,8.33,0,0,0,.52-2.93m2.62,0a9.47,9.47,0,0,1-5.9,8.87,10.67,10.67,0,0,1-7.89,0,9.57,9.57,0,0,1-3.12-2.06,9.56,9.56,0,0,1-2.78-6.8,9.64,9.64,0,0,1,.74-3.78,9.48,9.48,0,0,1,2-3.06,9.36,9.36,0,0,1,3.12-2,10.92,10.92,0,0,1,7.89,0,9.37,9.37,0,0,1,3.12,2,9.51,9.51,0,0,1,2,3.06,9.66,9.66,0,0,1,.74,3.78"/>
    <path class="cls-1"
          d="M186.3,10.2a1.14,1.14,0,0,1-.2.66,3.39,3.39,0,0,1-.39.48,9.84,9.84,0,0,0-1.59-.55,8.73,8.73,0,0,0-2.25-.26,7.46,7.46,0,0,0-2.53.37A3.89,3.89,0,0,0,177.7,12a4.14,4.14,0,0,0-.88,1.79,10.41,10.41,0,0,0-.26,2.43V27.09h-2.43v-12a6.38,6.38,0,0,1,1.92-5,8,8,0,0,1,5.6-1.75A10.63,10.63,0,0,1,185,8.8q1.33.44,1.33,1.4"/>
    <path class="cls-1"
          d="M188.25,17.65q1,.07,1.94.09l2,0a22.4,22.4,0,0,0,4.13-.31,8.93,8.93,0,0,0,2.56-.83,3.09,3.09,0,0,0,1.31-1.22,3.12,3.12,0,0,0,.37-1.48,3.29,3.29,0,0,0-.42-1.73A3.23,3.23,0,0,0,199,11.07a5.25,5.25,0,0,0-1.62-.61,9.3,9.3,0,0,0-1.86-.18,7.27,7.27,0,0,0-3.06.61,6.54,6.54,0,0,0-2.23,1.64,7.61,7.61,0,0,0-1.4,2.36,8.43,8.43,0,0,0-.53,2.77m.07,1.92A6.52,6.52,0,0,0,190.68,24a8.07,8.07,0,0,0,5.16,1.55A8.43,8.43,0,0,0,199,25a17,17,0,0,0,2-.94l1.07,1.77c-.2.12-.49.29-.88.5a10.23,10.23,0,0,1-1.44.61,13.61,13.61,0,0,1-1.92.5,12.74,12.74,0,0,1-2.36.2A11.77,11.77,0,0,1,191.7,27a9.19,9.19,0,0,1-3.13-1.79,8.34,8.34,0,0,1-2.12-2.91,9.78,9.78,0,0,1-.77-4,10.68,10.68,0,0,1,.74-4,9.17,9.17,0,0,1,2.06-3.13,9.3,9.3,0,0,1,3.15-2,10.82,10.82,0,0,1,4-.72,11.07,11.07,0,0,1,3.23.42,6.49,6.49,0,0,1,2.3,1.2,5,5,0,0,1,1.38,1.83,5.59,5.59,0,0,1,.46,2.27,5,5,0,0,1-.5,2.23,4.45,4.45,0,0,1-1.7,1.77,9.85,9.85,0,0,1-3.21,1.18,25.18,25.18,0,0,1-5.07.42l-2.16,0q-1,0-2-.09"/>
    <path class="cls-2"
          d="M0,5.3q0-3.5,3.65-3.5H16.26a3.34,3.34,0,0,1,2.41.72,2.82,2.82,0,0,1,.72,2.08,5.42,5.42,0,0,1-.3,1.83,6.67,6.67,0,0,1-.48,1.12H6.16v3.95h9.62a3.34,3.34,0,0,1,2.41.72,2.82,2.82,0,0,1,.72,2.08,5.41,5.41,0,0,1-.3,1.82,6.63,6.63,0,0,1-.48,1.12h-12v4.09H19.21v5.75H0Z"/>
    <path class="cls-2"
          d="M21.24,15a7.22,7.22,0,0,1,.65-3.15,6.54,6.54,0,0,1,1.77-2.27,7.58,7.58,0,0,1,2.65-1.38,11.53,11.53,0,0,1,3.34-.46,10,10,0,0,1,3.95.74,7.09,7.09,0,0,1,2.8,2.06A7.12,7.12,0,0,1,39.16,8.5a9.72,9.72,0,0,1,3.91-.74,11.4,11.4,0,0,1,3.3.46A7.59,7.59,0,0,1,49,9.61a6.56,6.56,0,0,1,1.77,2.27A7.22,7.22,0,0,1,51.44,15V27.09H45.5V16.73A3.83,3.83,0,0,0,44.73,14a2.87,2.87,0,0,0-2.18-.81,3.07,3.07,0,0,0-2.34,1,4.36,4.36,0,0,0-.9,3.06v9.85H33.37V17.24a4.42,4.42,0,0,0-.88-3.06,3,3,0,0,0-2.32-1A2.93,2.93,0,0,0,28,14a3.77,3.77,0,0,0-.79,2.69V27.09H21.24Z"/>
    <path class="cls-2"
          d="M63.31,22.18a4,4,0,0,0,3-1.27,4.57,4.57,0,0,0,1.2-3.26,4.38,4.38,0,0,0-1.2-3.21,4.09,4.09,0,0,0-3-1.22,4.16,4.16,0,0,0-3,1.18,4.35,4.35,0,0,0-1.2,3.25,5,5,0,0,0,.31,1.79,4.28,4.28,0,0,0,.89,1.44,4.19,4.19,0,0,0,1.35,1,4.07,4.07,0,0,0,1.7.35M53.21,34.46V18.53a15.45,15.45,0,0,1,.48-4.09A8.65,8.65,0,0,1,55,11.53a8.93,8.93,0,0,1,3.58-2.8,11.85,11.85,0,0,1,4.83-1,11.11,11.11,0,0,1,4,.72,9.74,9.74,0,0,1,3.23,2,9.11,9.11,0,0,1,2.14,3.13,10.38,10.38,0,0,1,.77,4.06,10.89,10.89,0,0,1-.72,4.06,9.5,9.5,0,0,1-2,3.1,8.58,8.58,0,0,1-2.89,2,9,9,0,0,1-3.54.7,7.89,7.89,0,0,1-3.41-.65,7.35,7.35,0,0,1-2-1.31v8.89Z"/>
    <path class="cls-2"
          d="M75.29,2.53a2.3,2.3,0,0,1,.85-2,3.87,3.87,0,0,1,2.25-.59A6.37,6.37,0,0,1,80.2.15l1,.31V27.09H75.29Z"/>
    <path class="cls-2"
          d="M93.29,22.29A4.19,4.19,0,0,0,95,21.94a4.37,4.37,0,0,0,1.38-1,4.13,4.13,0,0,0,.9-1.46,5.58,5.58,0,0,0,0-3.69,4.13,4.13,0,0,0-.9-1.46,4.38,4.38,0,0,0-1.38-1,4.2,4.2,0,0,0-1.71-.35,4.16,4.16,0,0,0-1.73.35,4.44,4.44,0,0,0-1.36,1,4.09,4.09,0,0,0-.9,1.46,5.58,5.58,0,0,0,0,3.69,4.1,4.1,0,0,0,.9,1.46,4.43,4.43,0,0,0,1.36,1,4.15,4.15,0,0,0,1.73.35m-10.4-4.61a9.52,9.52,0,0,1,.81-3.95,9.66,9.66,0,0,1,2.23-3.13,10.52,10.52,0,0,1,3.3-2.08,11.21,11.21,0,0,1,8.09,0,10.49,10.49,0,0,1,3.32,2.08,9.67,9.67,0,0,1,2.23,3.13,9.53,9.53,0,0,1,.81,3.95,9.52,9.52,0,0,1-.81,3.95,9.67,9.67,0,0,1-2.23,3.13,10.47,10.47,0,0,1-3.32,2.08,11.21,11.21,0,0,1-8.09,0,10.5,10.5,0,0,1-3.3-2.08,9.66,9.66,0,0,1-2.23-3.13,9.51,9.51,0,0,1-.81-3.95"/>
    <path class="cls-2"
          d="M105.34,10.9a2.3,2.3,0,0,1,.85-2,3.87,3.87,0,0,1,2.25-.59,6.37,6.37,0,0,1,1.81.24l1,.31V27.09h-5.94ZM105,3.23A3.24,3.24,0,0,1,106,.87a3.15,3.15,0,0,1,2.34-1,3.21,3.21,0,0,1,2.36,1,3.21,3.21,0,0,1,1,2.36,3.15,3.15,0,0,1-1,2.34,3.24,3.24,0,0,1-2.36.94A3.21,3.21,0,0,1,105,3.23"/>
    <path class="cls-1"
          d="M73.76,36.83h62a8.6,8.6,0,0,1,8.6,8.6v.13a0,0,0,0,1,0,0h-62a8.6,8.6,0,0,1-8.6-8.6v-.13A0,0,0,0,1,73.76,36.83Z"/>
    <path class="cls-3"
          d="M0,36.83H62a8.6,8.6,0,0,1,8.6,8.6v.13a0,0,0,0,1,0,0H8.6A8.6,8.6,0,0,1,0,37v-.13a0,0,0,0,1,0,0Z"/>
    <path class="cls-4" d="M6,44.28V39.73a.48.48,0,0,1,.18-.43.81.81,0,0,1,.47-.12,1.3,1.3,0,0,1,.38.05l.21.07v5Z"/>
    <path class="cls-4"
          d="M9.51,43.18l.2,0h.37a2.51,2.51,0,0,0,.68-.09,1.4,1.4,0,0,0,.52-.27,1.19,1.19,0,0,0,.34-.46,1.71,1.71,0,0,0,.12-.67,1.81,1.81,0,0,0-.1-.6,1.28,1.28,0,0,0-.29-.48,1.34,1.34,0,0,0-.5-.31,2,2,0,0,0-.71-.11H9.69l-.18,0ZM8.27,39.84a.8.8,0,0,1,0-.28.61.61,0,0,1,.11-.2.49.49,0,0,1,.16-.12l.19-.06.41-.06q.27,0,.8,0a4.28,4.28,0,0,1,1.25.17,2.68,2.68,0,0,1,1,.51,2.24,2.24,0,0,1,.61.82A2.73,2.73,0,0,1,13,41.72a2.88,2.88,0,0,1-.2,1.11,2.13,2.13,0,0,1-.6.82,2.7,2.7,0,0,1-1,.52,4.74,4.74,0,0,1-1.37.18q-.84,0-1.21,0l-.4,0Z"/>
    <path class="cls-4"
          d="M14.88,38.44l1-.5.28-.13a.76.76,0,0,1,.27-.05.48.48,0,0,1,.3.09.69.69,0,0,1,.18.2.81.81,0,0,1,.09.21.87.87,0,0,1,0,.12l-1.89.6Zm-1,1.45q0-.71.74-.71h2.54a.67.67,0,0,1,.49.14.57.57,0,0,1,.14.42,1.08,1.08,0,0,1-.06.37,1.34,1.34,0,0,1-.1.23H15.09v.79H17a.67.67,0,0,1,.49.14.57.57,0,0,1,.14.42,1.1,1.1,0,0,1-.06.37,1.26,1.26,0,0,1-.1.23H15.09v.82h2.63v1.16H13.85Z"/>
    <path class="cls-4"
          d="M18.61,39.89q0-.71.74-.71h2.54a.67.67,0,0,1,.49.14.57.57,0,0,1,.14.42,1.08,1.08,0,0,1-.06.37,1.34,1.34,0,0,1-.1.23H19.85v.79h1.94a.67.67,0,0,1,.49.14.57.57,0,0,1,.14.42,1.1,1.1,0,0,1-.06.37,1.26,1.26,0,0,1-.1.23H19.85v.82h2.63v1.16H18.61Z"/>
    <path class="cls-4"
          d="M23.59,42.82l.2.12a3.06,3.06,0,0,0,.39.16,5,5,0,0,0,.55.14,3.42,3.42,0,0,0,.68.06,2.22,2.22,0,0,0,.48,0,.83.83,0,0,0,.27-.11.32.32,0,0,0,.13-.15.54.54,0,0,0,0-.17.36.36,0,0,0-.14-.29,1.26,1.26,0,0,0-.54-.18l-.76-.13a4.24,4.24,0,0,1-.59-.15,1.86,1.86,0,0,1-.53-.27,1.28,1.28,0,0,1-.53-1.1,1.64,1.64,0,0,1,.13-.64,1.39,1.39,0,0,1,.39-.52,1.91,1.91,0,0,1,.66-.35,3,3,0,0,1,.93-.13,4.94,4.94,0,0,1,.68,0,3.88,3.88,0,0,1,.5.1l.34.12.19.1a1,1,0,0,1,.24.2.45.45,0,0,1,.12.31.66.66,0,0,1,0,.24,1.1,1.1,0,0,1-.11.21,1,1,0,0,1-.14.17l-.13.11a1.27,1.27,0,0,0-.22-.17,1.85,1.85,0,0,0-.36-.17,3.29,3.29,0,0,0-.48-.13,3,3,0,0,0-.57-.05,1.76,1.76,0,0,0-.46,0,.72.72,0,0,0-.26.12.32.32,0,0,0-.11.16.59.59,0,0,0,0,.16.43.43,0,0,0,0,.13.25.25,0,0,0,.09.12.75.75,0,0,0,.2.1l.35.09.79.16a4.34,4.34,0,0,1,.73.2,1.91,1.91,0,0,1,.53.3,1.13,1.13,0,0,1,.32.43,1.54,1.54,0,0,1,.11.6A1.44,1.44,0,0,1,27,44a2.69,2.69,0,0,1-1.65.44,4.51,4.51,0,0,1-.89-.08,5.29,5.29,0,0,1-.71-.19,4.21,4.21,0,0,1-.49-.2,1.18,1.18,0,0,1-.23-.13Z"/>
    <path class="cls-4"
          d="M81,42.92l.19,0h.36a2.45,2.45,0,0,0,.66-.08,1.36,1.36,0,0,0,.51-.26,1.16,1.16,0,0,0,.33-.45,1.68,1.68,0,0,0,.12-.65,1.76,1.76,0,0,0-.09-.59,1.24,1.24,0,0,0-.29-.46,1.3,1.3,0,0,0-.49-.3,2,2,0,0,0-.69-.11h-.43l-.17,0Zm-1.21-3.26a.79.79,0,0,1,0-.28.6.6,0,0,1,.11-.19.46.46,0,0,1,.16-.12l.18-.05.4-.05q.26,0,.78,0a4.2,4.2,0,0,1,1.22.17,2.62,2.62,0,0,1,.94.49,2.2,2.2,0,0,1,.6.8,2.68,2.68,0,0,1,.21,1.09,2.82,2.82,0,0,1-.2,1.08,2.09,2.09,0,0,1-.58.8,2.65,2.65,0,0,1-1,.5,4.65,4.65,0,0,1-1.34.17q-.82,0-1.18,0l-.39,0Z"/>
    <path class="cls-4"
          d="M86,38.29l1-.49.27-.12a.74.74,0,0,1,.26-.05.47.47,0,0,1,.29.09.67.67,0,0,1,.17.2.76.76,0,0,1,.08.21.79.79,0,0,1,0,.12l-1.84.59ZM85,39.7q0-.69.72-.69h2.48a.66.66,0,0,1,.48.14.55.55,0,0,1,.14.41,1.06,1.06,0,0,1-.06.36,1.29,1.29,0,0,1-.09.22H86.26v.78h1.89a.66.66,0,0,1,.48.14.56.56,0,0,1,.14.41,1.06,1.06,0,0,1-.06.36,1.26,1.26,0,0,1-.09.22H86.26v.8h2.57V44H85Z"/>
    <path class="cls-4"
          d="M91,44q-.17-.34-.35-.72l-.35-.76-.33-.72-.28-.63-.21-.49-.11-.28L89.17,40a1.22,1.22,0,0,1-.09-.45q0-.5.59-.5a1.19,1.19,0,0,1,.39.05l.19.08q.12.36.3.81l.36.93.37.92.33.78q.25-.59.56-1.38t.64-1.66a1,1,0,0,1,.25-.41.71.71,0,0,1,.48-.13,1,1,0,0,1,.27,0l.22.08.15.09.07.05-.16.41-.29.71-.38.9-.42,1-.41.94-.36.79Z"/>
    <path class="cls-4"
          d="M94.64,39.7q0-.69.72-.69h2.48a.66.66,0,0,1,.48.14.55.55,0,0,1,.14.41,1.06,1.06,0,0,1-.06.36,1.29,1.29,0,0,1-.09.22H95.85v.78h1.89a.66.66,0,0,1,.48.14.56.56,0,0,1,.14.41,1.06,1.06,0,0,1-.06.36,1.26,1.26,0,0,1-.09.22H95.85v.8h2.57V44H94.64Z"/>
    <path class="cls-4"
          d="M99.14,44V39.55a.47.47,0,0,1,.17-.42.8.8,0,0,1,.46-.12,1.28,1.28,0,0,1,.37.05l.21.07v3.73h2.3V44Z"/>
    <path class="cls-4"
          d="M105.45,43a1.43,1.43,0,0,0,.57-.11,1.31,1.31,0,0,0,.45-.32,1.47,1.47,0,0,0,.29-.47,1.6,1.6,0,0,0,.1-.59,1.62,1.62,0,0,0-.1-.59,1.42,1.42,0,0,0-.29-.47,1.34,1.34,0,0,0-.45-.31,1.52,1.52,0,0,0-1.15,0,1.34,1.34,0,0,0-.45.31,1.42,1.42,0,0,0-.29.47,1.63,1.63,0,0,0-.1.59,1.61,1.61,0,0,0,.1.59,1.47,1.47,0,0,0,.29.47,1.31,1.31,0,0,0,.45.32,1.43,1.43,0,0,0,.57.11m-2.69-1.49a2.57,2.57,0,0,1,.78-1.86,2.69,2.69,0,0,1,.86-.55,2.87,2.87,0,0,1,2.12,0,2.69,2.69,0,0,1,.86.55,2.61,2.61,0,0,1,0,3.72,2.68,2.68,0,0,1-.86.55,2.87,2.87,0,0,1-2.12,0,2.68,2.68,0,0,1-.86-.55,2.57,2.57,0,0,1-.78-1.86"/>
    <path class="cls-4"
          d="M110,41.35l.18,0,.42,0a1.94,1.94,0,0,0,.54-.06.86.86,0,0,0,.32-.16.51.51,0,0,0,.16-.23.83.83,0,0,0,0-.25.94.94,0,0,0,0-.24.49.49,0,0,0-.14-.23.83.83,0,0,0-.31-.17,1.83,1.83,0,0,0-.56-.07h-.41l-.2,0Zm-1.18-1.69a.77.77,0,0,1,0-.28.61.61,0,0,1,.11-.19.46.46,0,0,1,.16-.12l.19-.05.17,0,.25,0,.36,0h.52a3.4,3.4,0,0,1,1.09.15,2,2,0,0,1,.7.39,1.39,1.39,0,0,1,.38.56,2,2,0,0,1,0,1.35,1.38,1.38,0,0,1-.38.55,1.82,1.82,0,0,1-.67.36,3.33,3.33,0,0,1-1,.13h-.48l-.17,0H110V44H108.8Z"/>
    <path class="cls-4"
          d="M114.68,41.35l.18,0,.42,0a1.94,1.94,0,0,0,.54-.06.86.86,0,0,0,.32-.16.51.51,0,0,0,.16-.23.83.83,0,0,0,0-.25.94.94,0,0,0,0-.24.49.49,0,0,0-.14-.23.83.83,0,0,0-.31-.17,1.83,1.83,0,0,0-.56-.07h-.41l-.2,0Zm-1.18-1.69a.79.79,0,0,1,0-.28.6.6,0,0,1,.11-.19.46.46,0,0,1,.16-.12L114,39l.17,0,.25,0,.36,0h.52a3.4,3.4,0,0,1,1.09.15,2,2,0,0,1,.7.39,1.39,1.39,0,0,1,.38.56,2,2,0,0,1,0,1.35,1.38,1.38,0,0,1-.38.55,1.82,1.82,0,0,1-.67.36,3.33,3.33,0,0,1-1,.13h-.48l-.17,0h-.09V44H113.5Z"/>
    <path class="cls-4"
          d="M118.2,39.7q0-.69.72-.69h2.48a.66.66,0,0,1,.48.14.55.55,0,0,1,.14.41,1.06,1.06,0,0,1-.06.36,1.34,1.34,0,0,1-.09.22h-2.45v.78h1.89a.66.66,0,0,1,.48.14.56.56,0,0,1,.14.41,1.06,1.06,0,0,1-.06.36,1.31,1.31,0,0,1-.09.22h-2.36v.8H122V44H118.2Z"/>
    <path class="cls-4"
          d="M122.65,39.55a.47.47,0,0,1,.17-.42.79.79,0,0,1,.46-.12,1.26,1.26,0,0,1,.37.05l.21.07v2.53a2.73,2.73,0,0,0,.05.58,1.08,1.08,0,0,0,.18.42.79.79,0,0,0,.33.26,1.59,1.59,0,0,0,1,0,.8.8,0,0,0,.33-.26,1.08,1.08,0,0,0,.18-.42,2.73,2.73,0,0,0,.05-.58V39.55a.47.47,0,0,1,.17-.42.79.79,0,0,1,.46-.12,1.26,1.26,0,0,1,.37.05l.21.07v2.65a2.37,2.37,0,0,1-.59,1.72,2.66,2.66,0,0,1-3.41,0,2.37,2.37,0,0,1-.59-1.72Z"/>
    <path class="cls-4"
          d="M129.25,41.28h.64a2,2,0,0,0,.51-.05.85.85,0,0,0,.31-.14.46.46,0,0,0,.15-.21.76.76,0,0,0,0-.24.82.82,0,0,0,0-.24.5.5,0,0,0-.15-.22.86.86,0,0,0-.32-.17,1.93,1.93,0,0,0-.56-.07h-.4l-.18,0Zm-1.18-1.62a.79.79,0,0,1,0-.28.61.61,0,0,1,.11-.19.47.47,0,0,1,.16-.12l.19-.05.17,0,.25,0,.36,0h.52a3.57,3.57,0,0,1,1.09.14,1.92,1.92,0,0,1,.7.38A1.38,1.38,0,0,1,132,40a1.87,1.87,0,0,1,.11.64,1.71,1.71,0,0,1-.18.79,1.38,1.38,0,0,1-.59.58l.24.41.27.49.28.53.26.54H131l-.13-.3-.22-.48-.26-.5c-.09-.16-.17-.29-.23-.38h-.94V44h-1.18Z"/>
    <path class="cls-4"
          d="M133.14,42.57l.2.11a2.94,2.94,0,0,0,.38.15,4.75,4.75,0,0,0,.54.14,3.31,3.31,0,0,0,.66.06,2.16,2.16,0,0,0,.46,0,.79.79,0,0,0,.27-.11.31.31,0,0,0,.12-.15.52.52,0,0,0,0-.17.35.35,0,0,0-.14-.29,1.22,1.22,0,0,0-.53-.18l-.74-.13a4.23,4.23,0,0,1-.58-.14,1.84,1.84,0,0,1-.52-.26,1.25,1.25,0,0,1-.52-1.07,1.6,1.6,0,0,1,.12-.63,1.35,1.35,0,0,1,.38-.51,1.86,1.86,0,0,1,.64-.34,2.92,2.92,0,0,1,.91-.13,4.7,4.7,0,0,1,.66,0,3.7,3.7,0,0,1,.49.1l.33.12.18.09a1,1,0,0,1,.24.2.44.44,0,0,1,.11.3.64.64,0,0,1,0,.24,1.1,1.1,0,0,1-.1.21.92.92,0,0,1-.13.16l-.12.11a1.23,1.23,0,0,0-.22-.16,1.8,1.8,0,0,0-.35-.16,3.24,3.24,0,0,0-.46-.12,2.92,2.92,0,0,0-.56-.05,1.71,1.71,0,0,0-.45,0,.7.7,0,0,0-.25.12.33.33,0,0,0-.11.16.57.57,0,0,0,0,.16.42.42,0,0,0,0,.12.24.24,0,0,0,.09.11.72.72,0,0,0,.2.1l.34.09.77.15a4.23,4.23,0,0,1,.71.2,1.87,1.87,0,0,1,.52.29,1.09,1.09,0,0,1,.31.42,1.48,1.48,0,0,1,.11.59,1.4,1.4,0,0,1-.57,1.19,2.63,2.63,0,0,1-1.61.43A4.4,4.4,0,0,1,134,44a5.16,5.16,0,0,1-.69-.18,4.11,4.11,0,0,1-.48-.2,1.12,1.12,0,0,1-.22-.13Z"/>
</svg>