<?xml version="1.0" encoding="UTF-8" standalone="no"?>
<svg
   width="120px"
   height="57px"
   viewBox="0 0 120 57"
   version="1.1"
   id="svg13"
   sodipodi:docname="logo.svg"
   inkscape:version="1.1.2 (0a00cf5339, 2022-02-04)"
   xmlns:inkscape="http://www.inkscape.org/namespaces/inkscape"
   xmlns:sodipodi="http://sodipodi.sourceforge.net/DTD/sodipodi-0.dtd"
   xmlns="http://www.w3.org/2000/svg"
   xmlns:svg="http://www.w3.org/2000/svg">
  <defs
     id="defs17" />
  <sodipodi:namedview
     id="namedview15"
     pagecolor="#ffffff"
     bordercolor="#666666"
     borderopacity="1.0"
     inkscape:pageshadow="2"
     inkscape:pageopacity="0.0"
     inkscape:pagecheckerboard="0"
     showgrid="true"
     inkscape:snap-grids="true"
     inkscape:zoom="33.520303"
     inkscape:cx="85.94791"
     inkscape:cy="40.647007"
     inkscape:window-width="1559"
     inkscape:window-height="1082"
     inkscape:window-x="1349"
     inkscape:window-y="619"
     inkscape:window-maximized="0"
     inkscape:current-layer="label-pe">
    <inkscape:grid
       type="xygrid"
       id="grid389" />
  </sodipodi:namedview>
  <!-- Generator: Sketch 52.5 (67469) - http://www.bohemiancoding.com/sketch -->
  <title
     id="title2">anotea-logo-white</title>
  <desc
     id="desc4">Created with Sketch.</desc>
  <g
     id="V2"
     stroke="none"
     stroke-width="1"
     fill="none"
     fill-rule="evenodd">
    <g
       id="Stagiaire-:àModérer"
       transform="translate(-165.000000, -16.000000)"
       fill="#FFFFFF">
      <g
         id="anotea-logo-white"
         transform="translate(165.000000, 16.000000)">
        <path
           d="M44.9571499,6.21685317 L25.820468,6.21685317 C20.7246574,6.21685317 13.3362893,9.11314852 13.3362893,20.2400733 C13.3362893,27.6580232 17.8427949,32.7446654 26.855806,35.5 L26.855806,45.0280631 L35.6147561,35.5 C41.1970727,35.8671702 45.2345912,35.8671702 47.7273113,35.5 C50.1848506,35.1380118 53.8034654,33.2871055 55.9952772,29.0195041 C55.7182652,44.2437602 43.2904317,56.5 28,56.5 C12.536027,56.5 2.22162039e-13,43.963973 2.20268248e-13,28.5 C2.18374458e-13,13.036027 12.536027,0.5 28,0.5 C34.3741451,0.5 40.2508225,2.62991189 44.9571499,6.21685317 Z M25.5,18 C26.8807119,18 28,19.1192881 28,20.5 C28,21.8807119 26.8807119,23 25.5,23 C24.1192881,23 23,21.8807119 23,20.5 C23,19.1192881 24.1192881,18 25.5,18 Z M35.5,18 C36.8807119,18 38,19.1192881 38,20.5 C38,21.8807119 36.8807119,23 35.5,23 C34.1192881,23 33,21.8807119 33,20.5 C33,19.1192881 34.1192881,18 35.5,18 Z M45.5,18 C46.8807119,18 48,19.1192881 48,20.5 C48,21.8807119 46.8807119,23 45.5,23 C44.1192881,23 43,21.8807119 43,20.5 C43,19.1192881 44.1192881,18 45.5,18 Z"
           id="logo"
           fill-rule="nonzero" />
        <path
           d="M77.808,28 L75.712,28 C75.4773322,28 75.2840008,27.9453339 75.132,27.836 C74.9799992,27.7266661 74.874667,27.5866675 74.816,27.416 L74.128,25.384 L69.696,25.384 L69.008,27.416 C68.9546664,27.5653341 68.8506674,27.6999994 68.696,27.82 C68.5413326,27.9400006 68.3520011,28 68.128,28 L66.016,28 L70.528,16.344 L73.296,16.344 L77.808,28 Z M70.32,23.544 L73.504,23.544 L72.432,20.352 C72.3626663,20.1493323 72.2813338,19.910668 72.188,19.636 C72.0946662,19.361332 72.0026671,19.0640016 71.912,18.744 C71.8266662,19.069335 71.7386671,19.3706653 71.648,19.648 C71.5573329,19.9253347 71.4720004,20.1653323 71.392,20.368 L70.32,23.544 Z M78.752,28 L78.752,19.704 L80.288,19.704 C80.4426674,19.704 80.5719995,19.7386663 80.676,19.808 C80.7800005,19.8773337 80.8533331,19.9813326 80.896,20.12 L81.04,20.6 C81.2000008,20.4506659 81.3653325,20.3120006 81.536,20.184 C81.7066675,20.0559994 81.8893324,19.9480004 82.084,19.86 C82.2786676,19.7719996 82.4893322,19.7026669 82.716,19.652 C82.9426678,19.6013331 83.189332,19.576 83.456,19.576 C83.9093356,19.576 84.3106649,19.6546659 84.66,19.812 C85.0093351,19.9693341 85.3039988,20.1879986 85.544,20.468 C85.7840012,20.7480014 85.9653327,21.0813314 86.088,21.468 C86.2106673,21.8546686 86.272,22.2746644 86.272,22.728 L86.272,28 L83.792,28 L83.792,22.728 C83.792,22.3226646 83.6986676,22.0066678 83.512,21.78 C83.3253324,21.5533322 83.0506685,21.44 82.688,21.44 C82.4159986,21.44 82.1600012,21.4986661 81.92,21.616 C81.6799988,21.7333339 81.4506678,21.8906657 81.232,22.088 L81.232,28 L78.752,28 Z M91.728,19.576 C92.3573365,19.576 92.9306641,19.6746657 93.448,19.872 C93.9653359,20.0693343 94.4093315,20.3519982 94.78,20.72 C95.1506685,21.0880018 95.4386656,21.534664 95.644,22.06 C95.8493344,22.585336 95.952,23.1759967 95.952,23.832 C95.952,24.4933366 95.8493344,25.0893307 95.644,25.62 C95.4386656,26.1506693 95.1506685,26.6013315 94.78,26.972 C94.4093315,27.3426685 93.9653359,27.627999 93.448,27.828 C92.9306641,28.028001 92.3573365,28.128 91.728,28.128 C91.0933302,28.128 90.5160026,28.028001 89.996,27.828 C89.4759974,27.627999 89.0280019,27.3426685 88.652,26.972 C88.2759981,26.6013315 87.9853344,26.1506693 87.78,25.62 C87.5746656,25.0893307 87.472,24.4933366 87.472,23.832 C87.472,23.1759967 87.5746656,22.585336 87.78,22.06 C87.9853344,21.534664 88.2759981,21.0880018 88.652,20.72 C89.0280019,20.3519982 89.4759974,20.0693343 89.996,19.872 C90.5160026,19.6746657 91.0933302,19.576 91.728,19.576 Z M91.728,26.288 C92.2986695,26.288 92.7186653,26.0866687 92.988,25.684 C93.2573347,25.2813313 93.392,24.6693374 93.392,23.848 C93.392,23.0266626 93.2573347,22.416002 92.988,22.016 C92.7186653,21.615998 92.2986695,21.416 91.728,21.416 C91.1413304,21.416 90.7120014,21.615998 90.44,22.016 C90.1679986,22.416002 90.032,23.0266626 90.032,23.848 C90.032,24.6693374 90.1679986,25.2813313 90.44,25.684 C90.7120014,26.0866687 91.1413304,26.288 91.728,26.288 Z M100.224,28.128 C99.8293314,28.128 99.4813348,28.0706672 99.18,27.956 C98.8786652,27.8413328 98.6253344,27.6786677 98.42,27.468 C98.2146656,27.2573323 98.0586672,27.0026682 97.952,26.704 C97.8453328,26.4053318 97.792,26.0720018 97.792,25.704 L97.792,21.416 L97.088,21.416 C96.9599994,21.416 96.8506671,21.3746671 96.76,21.292 C96.6693329,21.2093329 96.624,21.0880008 96.624,20.928 L96.624,19.96 L97.944,19.704 L98.432,17.68 C98.4960003,17.4239987 98.6773318,17.296 98.976,17.296 L100.272,17.296 L100.272,19.72 L102.288,19.72 L102.288,21.416 L100.272,21.416 L100.272,25.536 C100.272,25.728001 100.318666,25.886666 100.412,26.012 C100.505334,26.137334 100.639999,26.2 100.816,26.2 C100.906667,26.2 100.982666,26.1906668 101.044,26.172 C101.105334,26.1533332 101.158666,26.1320001 101.204,26.108 C101.249334,26.0839999 101.292,26.0626668 101.332,26.044 C101.372,26.0253332 101.418666,26.016 101.472,26.016 C101.546667,26.016 101.606666,26.0333332 101.652,26.068 C101.697334,26.1026668 101.744,26.157333 101.792,26.232 L102.544,27.408 C102.223998,27.6480012 101.864002,27.8279994 101.464,27.948 C101.063998,28.0680006 100.650669,28.128 100.224,28.128 Z M107.264,19.576 C107.813336,19.576 108.315998,19.6613325 108.772,19.832 C109.228002,20.0026675 109.619998,20.250665 109.948,20.576 C110.276002,20.901335 110.531999,21.2999976 110.716,21.772 C110.900001,22.2440024 110.992,22.7786637 110.992,23.376 C110.992,23.5626676 110.984,23.7146661 110.968,23.832 C110.952,23.9493339 110.922667,24.0426663 110.88,24.112 C110.837333,24.1813337 110.78,24.2293332 110.708,24.256 C110.636,24.2826668 110.544001,24.296 110.432,24.296 L105.648,24.296 C105.728,24.9893368 105.938665,25.4919984 106.28,25.804 C106.621335,26.1160016 107.061331,26.272 107.6,26.272 C107.888001,26.272 108.135999,26.2373337 108.344,26.168 C108.552001,26.0986663 108.737333,26.0213338 108.9,25.936 C109.062667,25.8506662 109.211999,25.7733337 109.348,25.704 C109.484001,25.6346663 109.626666,25.6 109.776,25.6 C109.973334,25.6 110.122666,25.6719993 110.224,25.816 L110.944,26.704 C110.687999,26.9973348 110.412001,27.2359991 110.116,27.42 C109.819999,27.6040009 109.516002,27.7479995 109.204,27.852 C108.891998,27.9560005 108.580002,28.0279998 108.268,28.068 C107.955998,28.1080002 107.658668,28.128 107.376,28.128 C106.794664,28.128 106.249336,28.0333343 105.74,27.844 C105.230664,27.6546657 104.785335,27.3733352 104.404,27 C104.022665,26.6266648 103.721334,26.1626694 103.5,25.608 C103.278666,25.0533306 103.168,24.4080037 103.168,23.672 C103.168,23.1173306 103.262666,22.5920025 103.452,22.096 C103.641334,21.5999975 103.913332,21.1653352 104.268,20.792 C104.622668,20.4186648 105.051997,20.1226678 105.556,19.904 C106.060003,19.6853322 106.62933,19.576 107.264,19.576 Z M107.312,21.288 C106.837331,21.288 106.466668,21.4226653 106.2,21.692 C105.933332,21.9613347 105.757334,22.3493308 105.672,22.856 L108.768,22.856 C108.768,22.6586657 108.742667,22.4666676 108.692,22.28 C108.641333,22.0933324 108.558667,21.9266674 108.444,21.78 C108.329333,21.6333326 108.178668,21.5146671 107.992,21.424 C107.805332,21.3333329 107.578668,21.288 107.312,21.288 Z M110.496,16.216 L108.416,18.32 C108.293333,18.4426673 108.176001,18.5293331 108.064,18.58 C107.951999,18.6306669 107.802668,18.656 107.616,18.656 L106.128,18.656 L107.216,16.696 C107.306667,16.5413326 107.413333,16.4226671 107.536,16.34 C107.658667,16.2573329 107.845332,16.216 108.096,16.216 L110.496,16.216 Z M118.144,28 C117.909332,28 117.732001,27.9680003 117.612,27.904 C117.491999,27.8399997 117.392,27.7066677 117.312,27.504 L117.136,27.048 C116.927999,27.2240009 116.728001,27.378666 116.536,27.512 C116.343999,27.645334 116.145334,27.7586662 115.94,27.852 C115.734666,27.9453338 115.516001,28.0146664 115.284,28.06 C115.051999,28.1053336 114.794668,28.128 114.512,28.128 C114.133331,28.128 113.789335,28.0786672 113.48,27.98 C113.170665,27.8813328 112.908001,27.736001 112.692,27.544 C112.475999,27.351999 112.309334,27.1133348 112.192,26.828 C112.074666,26.5426652 112.016,26.2133352 112.016,25.84 C112.016,25.5466652 112.090666,25.2453349 112.24,24.936 C112.389334,24.6266651 112.647998,24.3453346 113.016,24.092 C113.384002,23.8386654 113.879997,23.6266675 114.504,23.456 C115.128003,23.2853325 115.914662,23.1893334 116.864,23.168 L116.864,22.816 C116.864,22.3306642 116.764001,21.9800011 116.564,21.764 C116.363999,21.5479989 116.080002,21.44 115.712,21.44 C115.418665,21.44 115.178668,21.4719997 114.992,21.536 C114.805332,21.6000003 114.638667,21.6719996 114.492,21.752 C114.345333,21.8320004 114.202667,21.9039997 114.064,21.968 C113.925333,22.0320003 113.760001,22.064 113.568,22.064 C113.397332,22.064 113.252001,22.0226671 113.132,21.94 C113.011999,21.8573329 112.917334,21.7546673 112.848,21.632 L112.4,20.856 C112.901336,20.4133311 113.45733,20.0840011 114.068,19.868 C114.67867,19.6519989 115.33333,19.544 116.032,19.544 C116.533336,19.544 116.985331,19.6253325 117.388,19.788 C117.790669,19.9506675 118.131999,20.1773319 118.412,20.468 C118.692001,20.7586681 118.906666,21.103998 119.056,21.504 C119.205334,21.904002 119.28,22.341331 119.28,22.816 L119.28,28 L118.144,28 Z M115.296,26.488 C115.616002,26.488 115.895999,26.4320006 116.136,26.32 C116.376001,26.2079994 116.618665,26.0266679 116.864,25.776 L116.864,24.624 C116.367998,24.6453334 115.960002,24.6879997 115.64,24.752 C115.319998,24.8160003 115.066668,24.8959995 114.88,24.992 C114.693332,25.0880005 114.564,25.1973327 114.492,25.32 C114.42,25.4426673 114.384,25.5759993 114.384,25.72 C114.384,26.0026681 114.461333,26.2013328 114.616,26.316 C114.770667,26.4306672 114.997332,26.488 115.296,26.488 Z"
           id="Anotéa" />
        <g
           id="label-pe"
           transform="translate(67.000000, 35.000000)"
           fill-rule="nonzero" />
      </g>
    </g>
  </g>
</svg>
