<?xml version="1.0" encoding="UTF-8"?>
<svg width="65px" height="65px" viewBox="0 0 65 65" version="1.1" xmlns="http://www.w3.org/2000/svg"
     xmlns:xlink="http://www.w3.org/1999/xlink">
    <!-- Generator: Sketch 57.1 (83088) - https://sketch.com -->
    <title>LOCK</title>
    <desc>Created with Sketch.</desc>
    <g id="Symbol" stroke="none" stroke-width="1" fill="none" fill-rule="evenodd">
        <g id="Section/-RGPD" transform="translate(-252.000000, -165.000000)">
            <g id="ARGUMENTS">
                <g transform="translate(165.000000, 165.000000)">
                    <g id="ARGU_1">
                        <g id="LOCK" transform="translate(87.000000, 0.000000)">
                            <rect id="Pastille" fill="#F28017" x="0" y="0" width="65" height="65" rx="32.5"></rect>
                            <g id="Icone_lock" transform="translate(21.000000, 15.000000)" fill="#FFFFFF">
                                <g transform="translate(-0.000000, 0.000000)" id="Shape">
                                    <path d="M3.87364983,11.7387793 L3.87364983,6.57622068 C3.87364983,2.94439888 7.05247097,0 10.9756407,0 C14.897571,0 18.0776317,2.94693446 18.0776317,6.57622068 L18.0776317,11.7387793 L19.5181105,11.7387793 C20.8617497,11.7387793 21.9512195,12.9089947 21.9512195,14.3457587 L21.9512195,27.3930206 C21.9512195,28.8322575 20.8617807,30 19.5181105,30 L2.43310899,30 C1.08946983,30 0,28.8297846 0,27.3930206 L0,14.3457587 C0,12.9065218 1.08943884,11.7387793 2.43310899,11.7387793 L3.87364983,11.7387793 Z M2.58324926,14.3482004 L2.58324926,27.3904537 L19.3679703,27.3904537 L19.3679703,14.3482004 L2.58324926,14.3482004 Z M15.4943824,11.7387793 L15.4943824,6.57622068 C15.4943824,4.44001327 13.517644,2.60945238 10.9756098,2.60945238 C8.43115836,2.60945238 6.45683711,4.437509 6.45683711,6.57622068 L6.45683711,11.7387793 L15.4943824,11.7387793 Z M9.68400062,19.2835275 C9.68400062,18.5632986 10.2577874,17.9800222 10.9756098,17.9800222 C11.6885978,17.9800222 12.2672189,18.5584153 12.2672189,19.2835275 L12.2672189,23.1977061 C12.2672189,23.917935 11.6934321,24.5012114 10.9756098,24.5012114 C10.2626217,24.5012114 9.68400062,23.9228183 9.68400062,23.1977061 L9.68400062,19.2835275 Z"
                                          fill-rule="nonzero"></path>
                                </g>
                            </g>
                        </g>
                    </g>
                </g>
            </g>
        </g>
    </g>
</svg>