<?xml version="1.0" encoding="UTF-8"?>
<svg width="65px" height="65px" viewBox="0 0 65 65" version="1.1" xmlns="http://www.w3.org/2000/svg" xmlns:xlink="http://www.w3.org/1999/xlink">
    <!-- Generator: Sketch 57.1 (83088) - https://sketch.com -->
    <title>COLLECT</title>
    <desc>Created with Sketch.</desc>
    <g id="Symbol" stroke="none" stroke-width="1" fill="none" fill-rule="evenodd">
        <g id="Section/-RGPD" transform="translate(-833.000000, -165.000000)">
            <g id="ARGUMENTS">
                <g transform="translate(165.000000, 165.000000)">
                    <g id="ARGU_3" transform="translate(581.000000, 0.000000)">
                        <g id="COLLECT" transform="translate(87.000000, 0.000000)">
                            <rect id="Pastille" fill="#F28017" x="0" y="0" width="65" height="65" rx="32.5"></rect>
                            <g id="Icone_collect" transform="translate(15.000000, 18.000000)" fill="#FFFFFF">
                                <g>
                                    <path d="M0.900857143,10.8415714 L16.9722857,18.8772857 C17.1614614,18.9710357 17.3657014,19.0179086 17.5716,19.0179086 C17.7774986,19.0179086 17.9817557,18.9710314 18.1709143,18.8772857 L34.2423429,10.8415714 C34.6960286,10.6138929 34.9823143,10.1501571 34.9823143,9.6429 C34.9823143,9.13564286 34.6960414,8.67192857 34.2423429,8.44422857 L18.1709143,0.408514286 C17.7942386,0.221014286 17.3505857,0.221014286 16.9722429,0.408514286 L0.900814286,8.44422857 C0.447128571,8.67190714 0.160842857,9.13564286 0.160842857,9.6429 C0.160842857,10.1501571 0.447115714,10.6138714 0.900814286,10.8415714 L0.900857143,10.8415714 Z M17.5714286,3.10371429 L30.648,9.64285714 L17.5714286,16.182 L4.49485714,9.64285714 L17.5714286,3.10371429 Z" id="Shape" fill-rule="nonzero"></path>
                                    <path d="M33.0437143,13.8012857 L17.5714286,21.5391429 L2.09914286,13.8012857 C1.43785714,13.4714871 0.632614286,13.7393443 0.301157143,14.4006 C-0.0303171429,15.0618857 0.239215714,15.8671286 0.900471429,16.1985857 L16.9719,24.2343 C17.1610757,24.32805 17.3653157,24.3749229 17.5712143,24.3749229 C17.7771129,24.3749229 17.98137,24.3280457 18.1705286,24.2343 L34.2419571,16.1985857 C34.9032429,15.8671114 35.1727714,15.0635571 34.8412714,14.4006 C34.5097971,13.7409857 33.7062429,13.4697857 33.0432857,13.8012857 L33.0437143,13.8012857 Z" id="Path" fill-rule="nonzero"></path>
                                    <path d="M33.0437143,19.1584286 L17.5714286,26.8962857 L2.09914286,19.1584286 C1.43785714,18.82863 0.632614286,19.0948114 0.301157143,19.7577429 C-0.0303171429,20.4190286 0.239215714,21.2242714 0.900471429,21.5557286 L16.9719,29.5914429 C17.1610757,29.6851929 17.3653157,29.7320657 17.5712143,29.7320657 C17.7771129,29.7320657 17.98137,29.6851886 18.1705286,29.5914429 L34.2419571,21.5557286 C34.9032429,21.2242543 35.1727714,20.4207 34.8412714,19.7577429 C34.5097971,19.0964571 33.7062429,18.8269286 33.0432857,19.1584286 L33.0437143,19.1584286 Z" id="Path" fill-rule="nonzero"></path>
                                </g>
                            </g>
                        </g>
                    </g>
                </g>
            </g>
        </g>
    </g>
</svg>