<?xml version="1.0" encoding="UTF-8"?>
<svg width="65px" height="65px" viewBox="0 0 65 65" version="1.1" xmlns="http://www.w3.org/2000/svg" xmlns:xlink="http://www.w3.org/1999/xlink">
    <!-- Generator: Sketch 57.1 (83088) - https://sketch.com -->
    <title>DELETE</title>
    <desc>Created with Sketch.</desc>
    <g id="Symbol" stroke="none" stroke-width="1" fill="none" fill-rule="evenodd">
        <g id="Section/-RGPD" transform="translate(-1124.000000, -165.000000)">
            <g id="ARGUMENTS">
                <g transform="translate(165.000000, 165.000000)">
                    <g id="ARGU_4" transform="translate(872.000000, 0.000000)">
                        <g id="DELETE" transform="translate(87.000000, 0.000000)">
                            <rect id="Pastille" fill="#F28017" x="0" y="0" width="65" height="65" rx="32.5"></rect>
                            <g id="Icone_delete" transform="translate(18.000000, 18.000000)" fill="#FFFFFF">
                                <g transform="translate(-0.000000, 0.000000)" id="Shape">
                                    <path d="M24.9148485,9.71 L23.893303,28.7475758 C23.8601576,29.4388485 23.2671212,29.9987576 22.5758182,29.9987576 L5.90915152,29.9999412 C5.21787879,29.9999412 4.62481818,29.4400321 4.59166667,28.7487594 L3.57012121,9.71118364 C3.53697576,8.98675939 4.09687879,8.36057758 4.82130303,8.32742606 C5.54572727,8.29427455 6.17190909,8.85418364 6.20506061,9.57860788 L7.16030303,27.3649715 L21.3566667,27.3649715 L22.3119091,9.57860788 C22.3450545,8.85418364 22.9712424,8.29427455 23.6956667,8.32742606 C24.3869394,8.35938667 24.9468485,8.98557758 24.9148788,9.71000182 L24.9148485,9.71 Z M28.4058182,5.29606061 C28.4058182,6.02048485 27.8127273,6.61354545 27.0882727,6.61354545 L1.39706061,6.61354545 C0.672636364,6.61354545 0.0795757576,6.02051515 0.0795757576,5.29606061 C0.0795757576,4.57163636 0.672606061,3.97857576 1.39706061,3.97857576 L8.64372727,3.97857576 L8.64372727,1.01457576 C8.64372727,0.388393939 9.07224242,0.0261818182 9.69724242,0.0261818182 L18.7881515,0.0261818182 C19.4143333,0.0261818182 19.8416667,0.388393939 19.8416667,1.01457576 L19.8416667,3.97857576 L27.0883333,3.97857576 C27.8127576,3.97857576 28.4058182,4.57160606 28.4058182,5.29606061 L28.4058182,5.29606061 Z M10.9484564,3.97857576 L17.5357576,3.97857576 L17.5369412,2.3320303 L10.9484564,2.3320303 L10.9484564,3.97857576 Z M11.5083939,25.3882727 C12.1677273,25.3882727 12.6613333,24.7620909 12.6613333,24.1370909 L12.3322727,9.90769697 C12.3322727,9.28151515 11.8055152,8.75475758 11.1461818,8.75475758 C10.52,8.75475758 9.99324242,9.28151515 10.0263939,9.94084848 L10.3554545,24.2032727 C10.3566382,24.8282727 10.8833939,25.3882727 11.5083939,25.3882727 L11.5083939,25.3882727 Z M16.9441515,25.3882727 C17.5703333,25.3882727 18.0970909,24.8615152 18.0970909,24.2353333 L18.4261515,10.0059394 C18.4261515,9.37975758 17.9325455,8.81984848 17.3063636,8.81984848 C16.6470303,8.81984848 16.1534242,9.31345455 16.1202727,9.93963636 L15.7912121,24.1690303 C15.7580667,24.8283636 16.2848182,25.3882727 16.9441515,25.3882727 C16.9110091,25.3882727 16.9110091,25.3882727 16.9441515,25.3882727 L16.9441515,25.3882727 Z" fill-rule="nonzero"></path>
                                </g>
                            </g>
                        </g>
                    </g>
                </g>
            </g>
        </g>
    </g>
</svg>