<?xml version="1.0" encoding="UTF-8"?>
<svg width="65px" height="65px" viewBox="0 0 65 65" version="1.1" xmlns="http://www.w3.org/2000/svg" xmlns:xlink="http://www.w3.org/1999/xlink">
    <!-- Generator: Sketch 57.1 (83088) - https://sketch.com -->
    <title>Group</title>
    <desc>Created with Sketch.</desc>
    <g id="Symbol" stroke="none" stroke-width="1" fill="none" fill-rule="evenodd">
        <g id="Section/-RGPD" transform="translate(-543.000000, -165.000000)">
            <g id="ARGUMENTS">
                <g transform="translate(165.000000, 165.000000)">
                    <g id="ARGU_2" transform="translate(291.000000, 0.000000)">
                        <g id="Group" transform="translate(87.000000, 0.000000)">
                            <rect id="Pastille" fill="#F28017" x="0" y="0" width="65" height="65" rx="32.5"></rect>
                            <g id="Icone_mask" transform="translate(20.000000, 18.000000)" fill="#FFFFFF">
                                <g>
                                    <path d="M24.3181818,11.52 C24.3892045,9.60236364 24.4602273,7.40068182 24.3181818,4.915 C24.1051136,0.653636364 14.5881818,0.227727273 12.4572727,0.227727273 L12.38625,0.227727273 C10.2555682,0.29875 0.738522727,0.724909091 0.525340909,4.915 C0.383295455,7.40081818 0.454318182,9.60227273 0.525340909,11.52 C0.525340909,12.4432727 0.596363636,13.3665909 0.596363636,14.1478182 L0.596363636,14.645 C0.596363636,14.8580682 0.596363636,15.0711364 0.667386364,15.2841818 C1.16456818,21.1791818 5.14184091,27.926 12.2442045,29.6305455 L12.4572727,29.7015682 L12.6703409,29.6305455 C19.7726136,27.926 23.7498864,21.1787273 24.2471591,15.2841818 C24.2471591,15.0711136 24.3181818,14.8580455 24.3181818,14.645 L24.3181818,14.1478182 C24.2471591,13.3665455 24.3181818,12.5142727 24.3181818,11.52 Z M2.23,5.05681818 C2.30102273,2.99718182 8.26681818,1.93181818 12.5281818,1.86081818 C16.7895455,1.93184091 22.6845455,2.99718182 22.8263636,5.05681818 C22.9684091,7.47159091 22.8973864,9.60227273 22.8263636,11.52 C22.8263636,12.4432727 22.7553409,13.3665909 22.7553409,14.2188636 C22.7553409,14.5739773 22.7553409,14.8580455 22.6843182,15.2131818 C22.47125,16.9177273 20.9797727,18.1961818 19.2042273,18.1961818 C17.2865909,18.1961818 15.7241364,16.6336364 15.7241364,14.7160455 L14.1616364,14.7160455 L14.1616364,16.5626364 C14.1616364,17.4859091 13.4514091,18.1961818 12.5280909,18.1961818 C11.6047727,18.1961818 10.8945455,17.4859545 10.8945455,16.5626364 L10.8945455,14.7160455 L9.33204545,14.7160455 C9.33204545,16.6336818 7.76954545,18.1961818 5.85195455,18.1961818 C4.07640909,18.1961818 2.65595455,16.9177273 2.37186364,15.2131818 C2.37186364,14.8580682 2.30084091,14.574 2.30084091,14.2188636 C2.30084091,13.4375909 2.30084091,12.5143182 2.22981818,11.52 C2.15879545,9.60236364 2.08777273,7.47172727 2.22981818,5.05681818 L2.23,5.05681818 Z M19.0622727,19.7586364 C18.6361364,20.4688636 18.281,21.0370455 18.0679545,21.1080909 C17.4997727,21.3921818 15.5111364,21.3921818 14.8009091,21.1080909 C14.5878409,20.9660455 14.0196364,20.3268182 13.4514545,19.6166364 C14.3037273,19.3325455 14.9429091,18.7643636 15.3690909,17.9830909 C16.2923636,19.0484545 17.5708182,19.6876364 19.0622727,19.7586364 Z M11.5340909,19.6165909 C10.9659091,20.3268182 10.3977273,20.9660455 10.1846364,21.1080455 C9.47440909,21.4631591 7.55681818,21.4631591 6.91759091,21.1080455 C6.70452273,20.966 6.34940909,20.4688636 5.92327273,19.7585909 C7.41472727,19.6875682 8.69318182,19.0483636 9.54545455,17.9830455 C10.0426364,18.7643182 10.6818182,19.3325 11.5340909,19.6165909 Z M13.3096364,27.8552273 L13.3096364,23.3807727 L11.7471364,23.3807727 L11.7471364,27.8552273 C7.41477273,26.4347727 4.50259091,22.8125 3.22440909,18.9775 L4.07668182,19.4036364 C4.50281818,20.2559091 5.49713636,22.0314545 6.34940909,22.5286364 C6.91759091,22.8127273 7.76986364,22.9547727 8.62213636,22.9547727 C9.54540909,22.9547727 10.4687273,22.8127273 11.0369091,22.5996591 C11.5340909,22.3865909 12.1732727,21.6763864 12.6704545,21.0371591 C13.1676364,21.6763409 13.8068182,22.3866136 14.304,22.5996591 C15.3693636,23.0968409 17.8551364,23.1678409 18.9203636,22.5996591 C19.7726364,22.1735227 20.7669545,20.3269318 21.1930909,19.4746591 C21.4771818,19.4036364 21.6902727,19.2615909 21.9033182,19.1195455 C20.4828636,22.8127273 17.5709545,26.435 13.3096818,27.8554545 L13.3096364,27.8552273 Z" id="Shape" fill-rule="nonzero"></path>
                                    <path d="M6.63363636,5.625 C8.12509091,5.625 9.40354545,6.83236364 9.40354545,8.39490909 L10.9660455,8.39490909 C10.9660455,5.98013636 8.97740909,4.06254545 6.63368182,4.06254545 C4.28995455,4.06254545 2.30131818,6.05118182 2.30131818,8.39490909 L3.86381818,8.39490909 C3.86381818,6.90345455 5.14222727,5.625 6.63372727,5.625 L6.63363636,5.625 Z" id="Path" fill-rule="nonzero"></path>
                                    <path d="M18.4231818,5.625 C19.9146364,5.625 21.1930909,6.83236364 21.1930909,8.39490909 L22.7555909,8.39490909 C22.7555909,5.98013636 20.7669545,4.06254545 18.4232273,4.06254545 C16.0084545,4.06254545 14.0908636,6.05118182 14.0908636,8.39490909 L15.6533636,8.39490909 C15.6533636,6.90345455 16.8607273,5.625 18.4232727,5.625 L18.4231818,5.625 Z" id="Path" fill-rule="nonzero"></path>
                                    <path d="M4.645,10.9518182 C5.35522727,11.7330909 6.34954545,12.2302273 7.48590909,12.2302273 C8.62227273,12.2302273 9.61659091,11.7330455 10.3268182,10.9518182 C9.61659091,10.1705455 8.62227273,9.67340909 7.48590909,9.67340909 C6.34954545,9.67340909 5.35522727,10.1705909 4.645,10.9518182 Z" id="Path" fill-rule="nonzero"></path>
                                    <path d="M14.73,10.9518182 C15.4402273,11.7330909 16.4345455,12.2302273 17.5709091,12.2302273 C18.7072727,12.2302273 19.7015909,11.7330455 20.4118182,10.9518182 C19.7015909,10.1705455 18.7072727,9.67340909 17.5709091,9.67340909 C16.4345455,9.67340909 15.4402273,10.1705909 14.73,10.9518182 L14.73,10.9518182 Z" id="Path" fill-rule="nonzero"></path>
                                </g>
                            </g>
                        </g>
                    </g>
                </g>
            </g>
        </g>
    </g>
</svg>