<svg width="146" height="60" viewBox="0 0 146 60" fill="none" xmlns="http://www.w3.org/2000/svg">
<g clip-path="url(#clip0_6540_2930)">
<path d="M66 30.525L72.1425 14.775H75.5625L81.705 30.525H78.9375L77.2725 26.115H70.41L68.745 30.525H66ZM71.265 23.91H76.4175L73.8525 17.115L71.265 23.91Z" fill="#383838"/>
<path d="M84.6216 30.525V19.185H86.9391V20.2875C87.7941 19.3875 88.9191 18.735 90.5391 18.735C93.0366 18.735 94.9491 20.4225 94.9491 23.7075V30.525H92.6091V23.7975C92.6091 21.9975 91.6191 20.9175 89.9991 20.9175C88.4466 20.9175 87.5241 21.885 86.9391 22.875V30.525H84.6216Z" fill="#383838"/>
<path d="M103.817 18.735C107.507 18.735 109.982 21.5025 109.982 24.855C109.982 28.2075 107.507 30.975 103.817 30.975C100.15 30.975 97.6522 28.2075 97.6522 24.855C97.6522 21.5025 100.15 18.735 103.817 18.735ZM103.84 28.7925C105.977 28.7925 107.552 27.015 107.552 24.855C107.552 22.65 105.977 20.9175 103.84 20.9175C101.657 20.9175 100.082 22.6725 100.082 24.855C100.082 27.0375 101.657 28.7925 103.84 28.7925Z" fill="#383838"/>
<path d="M113.4 26.5875V21.2775H111.262V19.185H113.4V16.35H115.74V19.185H119.497V21.2775H115.74V26.5875C115.74 28.1175 116.55 28.6125 117.81 28.6125C118.575 28.6125 119.092 28.5225 119.497 28.365V30.4125C118.957 30.6375 118.327 30.75 117.45 30.75C114.795 30.75 113.4 29.355 113.4 26.5875Z" fill="#383838"/>
<path d="M132.279 28.68C131.221 30.0975 129.489 30.975 127.374 30.975C123.459 30.975 121.141 28.1625 121.141 24.855C121.141 21.4575 123.301 18.735 126.901 18.735C130.029 18.735 132.054 20.8725 132.054 23.7525C132.054 24.27 131.986 24.7875 131.896 25.125H123.526C123.684 27.6 125.191 28.8825 127.374 28.8825C128.746 28.8825 129.894 28.275 130.591 27.33L132.279 28.68ZM126.856 20.67C125.169 20.67 123.999 21.6375 123.639 23.3925H129.736C129.691 21.975 128.679 20.67 126.856 20.67Z" fill="#383838"/>
<path d="M138.088 30.8625C135.838 30.8625 134.308 29.58 134.308 27.5775C134.308 25.8675 135.636 24.63 138.043 24.225L141.711 23.6175V23.0325C141.711 21.6375 140.676 20.7825 139.213 20.7825C137.976 20.7825 137.008 21.345 136.356 22.2675L134.623 20.94C135.636 19.59 137.256 18.735 139.281 18.735C142.341 18.735 144.028 20.535 144.028 23.0325V30.525H141.711V29.2425C140.901 30.2325 139.483 30.8625 138.088 30.8625ZM136.648 27.4875C136.648 28.365 137.346 28.9725 138.516 28.9725C139.933 28.9725 141.036 28.2975 141.711 27.2175V25.26L138.651 25.7775C137.233 26.025 136.648 26.6325 136.648 27.4875Z" fill="#383838"/>
<rect x="66" y="36.975" width="63" height="9" fill="#383838"/>
<path d="M68.472 44.475V38.175H71.982V39.048H69.498V40.83H71.622V41.703H69.498V44.475H68.472Z" fill="white"/>
<path d="M72.8088 44.475V39.939H73.7358V40.452C74.0508 40.101 74.4468 39.849 75.0048 39.849C75.1488 39.849 75.2838 39.876 75.4008 39.912V40.821C75.2568 40.785 75.1128 40.758 74.9238 40.758C74.3478 40.758 73.9698 41.064 73.7358 41.451V44.475H72.8088Z" fill="white"/>
<path d="M77.4611 44.61C76.5611 44.61 75.9491 44.097 75.9491 43.296C75.9491 42.612 76.4801 42.117 77.4431 41.955L78.9101 41.712V41.478C78.9101 40.92 78.4961 40.578 77.9111 40.578C77.4161 40.578 77.0291 40.803 76.7681 41.172L76.0751 40.641C76.4801 40.101 77.1281 39.759 77.9381 39.759C79.1621 39.759 79.8371 40.479 79.8371 41.478V44.475H78.9101V43.962C78.5861 44.358 78.0191 44.61 77.4611 44.61ZM76.8851 43.26C76.8851 43.611 77.1641 43.854 77.6321 43.854C78.1991 43.854 78.6401 43.584 78.9101 43.152V42.369L77.6861 42.576C77.1191 42.675 76.8851 42.918 76.8851 43.26Z" fill="white"/>
<path d="M81.2902 44.475V39.939H82.2172V40.38C82.5592 40.02 83.0092 39.759 83.6572 39.759C84.6562 39.759 85.4212 40.434 85.4212 41.748V44.475H84.4852V41.784C84.4852 41.064 84.0892 40.632 83.4412 40.632C82.8202 40.632 82.4512 41.019 82.2172 41.415V44.475H81.2902Z" fill="white"/>
<path d="M88.9865 43.782C89.4995 43.782 89.9135 43.53 90.1655 43.179L90.8945 43.737C90.4805 44.295 89.8145 44.655 88.9775 44.655C87.4565 44.655 86.5025 43.53 86.5025 42.207C86.5025 40.884 87.4565 39.759 88.9775 39.759C89.8055 39.759 90.4805 40.119 90.8945 40.677L90.1655 41.235C89.9135 40.884 89.4995 40.632 88.9775 40.632C88.1045 40.632 87.4745 41.316 87.4745 42.207C87.4745 43.107 88.1045 43.782 88.9865 43.782Z" fill="white"/>
<path d="M95.7827 43.737C95.3597 44.304 94.6667 44.655 93.8207 44.655C92.2547 44.655 91.3277 43.53 91.3277 42.207C91.3277 40.848 92.1917 39.759 93.6317 39.759C94.8827 39.759 95.6927 40.614 95.6927 41.766C95.6927 41.973 95.6657 42.18 95.6297 42.315H92.2817C92.3447 43.305 92.9477 43.818 93.8207 43.818C94.3697 43.818 94.8287 43.575 95.1077 43.197L95.7827 43.737ZM93.6137 40.533C92.9387 40.533 92.4707 40.92 92.3267 41.622H94.7657C94.7477 41.055 94.3427 40.533 93.6137 40.533Z" fill="white"/>
<path d="M98.8752 39.12V38.175H103.96V39.12H101.935V44.475H100.9V39.12H98.8752Z" fill="white"/>
<path d="M104.397 44.475V39.939H105.324V40.452C105.639 40.101 106.035 39.849 106.593 39.849C106.737 39.849 106.872 39.876 106.989 39.912V40.821C106.845 40.785 106.701 40.758 106.512 40.758C105.936 40.758 105.558 41.064 105.324 41.451V44.475H104.397Z" fill="white"/>
<path d="M109.049 44.61C108.149 44.61 107.537 44.097 107.537 43.296C107.537 42.612 108.068 42.117 109.031 41.955L110.498 41.712V41.478C110.498 40.92 110.084 40.578 109.499 40.578C109.004 40.578 108.617 40.803 108.356 41.172L107.663 40.641C108.068 40.101 108.716 39.759 109.526 39.759C110.75 39.759 111.425 40.479 111.425 41.478V44.475H110.498V43.962C110.174 44.358 109.607 44.61 109.049 44.61ZM108.473 43.26C108.473 43.611 108.752 43.854 109.22 43.854C109.787 43.854 110.228 43.584 110.498 43.152V42.369L109.274 42.576C108.707 42.675 108.473 42.918 108.473 43.26Z" fill="white"/>
<path d="M112.168 39.939H113.167L114.499 43.467L115.822 39.939H116.83L115.111 44.475H113.878L112.168 39.939Z" fill="white"/>
<path d="M118.831 44.61C117.931 44.61 117.319 44.097 117.319 43.296C117.319 42.612 117.85 42.117 118.813 41.955L120.28 41.712V41.478C120.28 40.92 119.866 40.578 119.281 40.578C118.786 40.578 118.399 40.803 118.138 41.172L117.445 40.641C117.85 40.101 118.498 39.759 119.308 39.759C120.532 39.759 121.207 40.479 121.207 41.478V44.475H120.28V43.962C119.956 44.358 119.389 44.61 118.831 44.61ZM118.255 43.26C118.255 43.611 118.534 43.854 119.002 43.854C119.569 43.854 120.01 43.584 120.28 43.152V42.369L119.056 42.576C118.489 42.675 118.255 42.918 118.255 43.26Z" fill="white"/>
<path d="M123.128 38.931C122.786 38.931 122.498 38.643 122.498 38.301C122.498 37.959 122.786 37.671 123.128 37.671C123.47 37.671 123.758 37.959 123.758 38.301C123.758 38.643 123.47 38.931 123.128 38.931ZM122.66 44.475V39.939H123.587V44.475H122.66Z" fill="white"/>
<path d="M125.104 44.475V37.725H126.031V44.475H125.104Z" fill="white"/>
<path d="M21.8087 18.9141C17.995 24.3329 10.5047 25.6225 5.08588 21.8087C-0.332919 17.995 -1.62246 10.5047 2.19128 5.08588C6.00502 -0.33292 13.4953 -1.62246 18.9141 2.19128C24.3329 6.00502 25.6225 13.4953 21.8087 18.9141Z" fill="#383838"/>
<path d="M58.3699 40.1168C56.0915 42.5278 52.2942 42.6363 49.8832 40.37C47.4722 38.0915 47.3637 34.2942 49.6301 31.8832C51.9085 29.4722 55.7058 29.3637 58.1168 31.6301C60.5278 33.9085 60.6363 37.7058 58.3699 40.1168Z" fill="#E0E0E0"/>
<path d="M51 30C51 41.55 41.55 51 30 51C18.45 51 9 41.55 9 30C9 18.45 18.45 9 30 9C41.55 9 51 18.45 51 30Z" fill="#6B6B6B"/>
<path d="M35.85 20.55H24.3C19.5 20.55 15.6 24.45 15.6 29.25C15.6 34.05 19.5 37.95 24.3 37.95H25.2V42.6C25.2 43.2 25.95 43.65 26.4 43.2L31.95 37.95H35.7C40.5 37.95 44.4 34.05 44.4 29.25C44.4 24.45 40.5 20.55 35.85 20.55ZM25.65 31.05C24.9 31.05 24.3 30.45 24.3 29.7C24.3 28.95 24.9 28.35 25.65 28.35C26.4 28.35 27 28.95 27 29.7C27 30.45 26.4 31.05 25.65 31.05ZM30 31.05C29.25 31.05 28.65 30.45 28.65 29.7C28.65 28.95 29.25 28.35 30 28.35C30.75 28.35 31.35 28.95 31.35 29.7C31.35 30.45 30.75 31.05 30 31.05ZM34.5 31.05C33.75 31.05 33.15 30.45 33.15 29.7C33.15 28.95 33.75 28.35 34.5 28.35C35.25 28.35 35.85 28.95 35.85 29.7C35.7 30.45 35.1 31.05 34.5 31.05Z" fill="white"/>
</g>
<defs>
<clipPath id="clip0_6540_2930">
<rect width="145.5" height="60" fill="white"/>
</clipPath>
</defs>
</svg>
