<?xml version="1.0" encoding="iso-8859-1"?>
<!-- Generator: Adobe Illustrator 27.8.0, SVG Export Plug-In . SVG Version: 6.00 Build 0)  -->
<svg version="1.1" id="Calque_1" xmlns="http://www.w3.org/2000/svg" xmlns:xlink="http://www.w3.org/1999/xlink" x="0px" y="0px"
	 viewBox="0 0 96 96" enable-background="new 0 0 96 96" xml:space="preserve">
<g>
	<path fill="#FFFFFF" d="M84.396,96H11.604C5.195,96,0,90.805,0,84.396V11.604C0,5.195,5.195,0,11.604,0h72.792
		C90.805,0,96,5.195,96,11.604v72.792C96,90.805,90.805,96,84.396,96z"/>
</g>
<path fill="#634E9F" d="M48,57.021c-16.864,0-33.03,2.986-48,8.456v18.919C0,90.805,5.195,96,11.604,96h72.792
	C90.805,96,96,90.805,96,84.396V65.477C81.03,60.007,64.864,57.021,48,57.021z"/>
<g>
	<rect x="4.489" y="9.576" fill="none" width="86.978" height="45.445"/>
	<g>
		<g>
			<path fill="#283276" d="M40.332,39.326c0,1.555-1.261,2.816-2.816,2.816c-1.555,0-2.816-1.261-2.816-2.816
				c0-1.555,1.261-2.816,2.816-2.816C39.072,36.509,40.332,37.77,40.332,39.326"/>
			<path fill="#F29FC5" d="M21.765,28.807c0,1.555-1.261,2.816-2.816,2.816c-1.555,0-2.816-1.261-2.816-2.816
				c0-1.555,1.261-2.816,2.816-2.816C20.504,25.991,21.765,27.252,21.765,28.807"/>
			<path fill="#008ECF" d="M35.004,36.243c0,1.555-1.261,2.816-2.816,2.816s-2.816-1.261-2.816-2.816
				c0-1.555,1.261-2.816,2.816-2.816S35.004,34.688,35.004,36.243"/>
			<path fill="#F29FC5" d="M28.188,39.65c0,1.555-1.261,2.816-2.816,2.816s-2.816-1.261-2.816-2.816
				c0-1.555,1.261-2.816,2.816-2.816S28.188,38.094,28.188,39.65"/>
			<path fill="#283276" d="M28.189,46.295c0,1.556-1.261,2.817-2.817,2.817c-1.556,0-2.817-1.261-2.817-2.817
				c0-1.556,1.261-2.817,2.817-2.817C26.928,43.478,28.189,44.739,28.189,46.295"/>
			<path fill="#283276" d="M40.332,25.303c0,1.555-1.261,2.816-2.816,2.816c-1.555,0-2.816-1.261-2.816-2.816
				c0-1.555,1.261-2.816,2.816-2.816C39.072,22.487,40.332,23.747,40.332,25.303"/>
			<path fill="#283276" d="M35.004,28.807c0,1.555-1.261,2.816-2.816,2.816s-2.816-1.261-2.816-2.816
				c0-1.555,1.261-2.816,2.816-2.816S35.004,27.252,35.004,28.807"/>
			<path fill="#283276" d="M21.348,36.495c0,1.555-1.261,2.816-2.816,2.816s-2.816-1.261-2.816-2.816
				c0-1.555,1.261-2.816,2.816-2.816S21.348,34.94,21.348,36.495"/>
			<path fill="#283276" d="M15.976,24.693c0.337,1.518-0.621,3.021-2.139,3.358c-1.518,0.337-3.021-0.621-3.358-2.139
				c-0.337-1.518,0.621-3.021,2.139-3.358C14.136,22.218,15.64,23.175,15.976,24.693"/>
			<path fill="#E1000F" d="M15.699,30.785c-0.125,0.877-0.937,1.485-1.813,1.36c-0.876-0.125-1.485-0.937-1.36-1.813
				c0.125-0.876,0.937-1.485,1.813-1.36C15.216,29.097,15.824,29.909,15.699,30.785"/>
			<path fill="#E1000F" d="M31.855,42.388c-0.144,1.007-1.077,1.707-2.084,1.563c-1.007-0.144-1.707-1.077-1.563-2.084
				c0.144-1.007,1.077-1.707,2.084-1.563C31.299,40.448,31.998,41.381,31.855,42.388"/>
			<path fill="#E1000F" d="M37.317,30.716c-0.087,0.608-0.65,1.03-1.257,0.943c-0.608-0.087-1.03-0.65-0.944-1.257
				c0.087-0.608,0.65-1.03,1.258-0.943C36.981,29.545,37.403,30.108,37.317,30.716"/>
			<path fill="#E1000F" d="M26.346,25.484c-0.125,0.877-0.937,1.485-1.813,1.36c-0.876-0.125-1.485-0.937-1.36-1.813
				c0.125-0.876,0.937-1.485,1.813-1.36C25.862,23.795,26.471,24.607,26.346,25.484"/>
			<path fill="#F29FC5" d="M30.959,23.404c-0.125,0.877-0.937,1.485-1.813,1.36c-0.876-0.125-1.485-0.937-1.36-1.813
				c0.125-0.876,0.937-1.485,1.813-1.36C30.475,21.716,31.084,22.527,30.959,23.404"/>
			<path fill="#FFE000" d="M20.535,41.034c-0.125,0.877-0.937,1.485-1.813,1.36c-0.876-0.125-1.485-0.937-1.36-1.813
				c0.125-0.876,0.937-1.485,1.813-1.36C20.051,39.345,20.66,40.157,20.535,41.034"/>
			<path fill="#FFE000" d="M36.3,33.824c-0.125,0.877-0.937,1.485-1.813,1.36c-0.876-0.125-1.485-0.937-1.36-1.813
				c0.125-0.876,0.937-1.485,1.813-1.36C35.816,32.136,36.425,32.948,36.3,33.824"/>
			<path fill="#283276" d="M34.465,41.272c0.472,0.749,0.249,1.739-0.5,2.211c-0.749,0.473-1.739,0.249-2.211-0.5
				c-0.472-0.749-0.249-1.739,0.5-2.211C33.003,40.3,33.993,40.524,34.465,41.272"/>
			<path fill="#FFE000" d="M22.22,22.453c-0.125,0.876-0.937,1.485-1.813,1.36c-0.876-0.125-1.485-0.937-1.36-1.813
				c0.125-0.876,0.937-1.485,1.813-1.36C21.736,20.765,22.345,21.576,22.22,22.453"/>
			<path fill="#008ECF" d="M28.327,18.44c0,1.632-1.323,2.955-2.955,2.955c-1.632,0-2.955-1.323-2.955-2.955
				c0-1.632,1.323-2.955,2.955-2.955C27.004,15.485,28.327,16.808,28.327,18.44"/>
			<path fill="#008ECF" d="M16.031,39.312c0,1.555-1.261,2.816-2.816,2.816s-2.816-1.261-2.816-2.816
				c0-1.555,1.261-2.816,2.816-2.816S16.031,37.756,16.031,39.312"/>
			<path fill="#008ECF" d="M29.906,31.727c0,2.716-2.201,4.917-4.917,4.917c-2.715,0-4.917-2.201-4.917-4.917
				c0-2.716,2.201-4.917,4.917-4.917C27.705,26.81,29.906,29.011,29.906,31.727"/>
		</g>
		<g>
			<g>
				<polygon fill="#283276" points="46.927,22.02 51.893,22.02 51.893,23.255 48.379,23.255 48.379,25.776 51.384,25.776 
					51.384,27.011 48.379,27.011 48.379,30.933 46.927,30.933 				"/>
				<path fill="#283276" d="M53.064,24.516h1.311v0.726c0.446-0.497,1.006-0.853,1.795-0.853c0.204,0,0.395,0.038,0.561,0.089v1.286
					c-0.204-0.051-0.408-0.089-0.675-0.089c-0.815,0-1.35,0.433-1.681,0.98v4.278h-1.311V24.516z"/>
				<path fill="#283276" d="M57.508,29.265c0-0.968,0.751-1.668,2.114-1.897l2.075-0.344v-0.331c0-0.789-0.586-1.273-1.413-1.273
					c-0.701,0-1.248,0.318-1.617,0.84l-0.98-0.751c0.573-0.764,1.49-1.248,2.636-1.248c1.732,0,2.687,1.019,2.687,2.432v4.24h-1.312
					v-0.726c-0.458,0.56-1.26,0.917-2.05,0.917C58.374,31.124,57.508,30.398,57.508,29.265 M59.889,30.055
					c0.802,0,1.426-0.382,1.808-0.993v-1.108l-1.732,0.293c-0.802,0.14-1.133,0.484-1.133,0.968
					C58.832,29.711,59.227,30.055,59.889,30.055"/>
				<path fill="#283276" d="M64.863,24.516h1.312v0.624c0.484-0.51,1.12-0.879,2.037-0.879c1.414,0,2.496,0.955,2.496,2.814v3.858
					h-1.324v-3.807c0-1.019-0.561-1.63-1.477-1.63c-0.878,0-1.401,0.548-1.732,1.108v4.329h-1.312V24.516z"/>
				<path fill="#283276" d="M77.404,29.1l1.031,0.789c-0.586,0.79-1.528,1.299-2.712,1.299c-2.152,0-3.501-1.592-3.501-3.463
					c0-1.872,1.35-3.463,3.501-3.463c1.171,0,2.126,0.509,2.712,1.299l-1.031,0.79c-0.356-0.497-0.942-0.853-1.681-0.853
					c-1.235,0-2.126,0.968-2.126,2.229c0,1.273,0.891,2.228,2.139,2.228C76.462,29.953,77.047,29.596,77.404,29.1"/>
				<path fill="#283276" d="M82.781,31.188c-2.216,0-3.527-1.592-3.527-3.463c0-1.923,1.222-3.463,3.26-3.463
					c1.77,0,2.916,1.209,2.916,2.839c0,0.293-0.038,0.586-0.089,0.777h-4.737c0.089,1.401,0.942,2.126,2.178,2.126
					c0.777,0,1.426-0.344,1.821-0.879l0.955,0.764C84.959,30.691,83.978,31.188,82.781,31.188 M80.668,26.897h3.451
					c-0.026-0.802-0.599-1.541-1.63-1.541C81.534,25.356,80.871,25.904,80.668,26.897"/>
			</g>
			<g>
				<polygon fill="#283276" points="45.973,33.473 53.167,33.473 53.167,34.81 50.302,34.81 50.302,42.386 48.837,42.386 
					48.837,34.81 45.973,34.81 				"/>
				<path fill="#283276" d="M53.79,35.969h1.311v0.726c0.446-0.497,1.006-0.853,1.795-0.853c0.204,0,0.395,0.038,0.561,0.089v1.286
					c-0.204-0.051-0.408-0.089-0.675-0.089c-0.815,0-1.35,0.433-1.681,0.98v4.278H53.79V35.969z"/>
				<path fill="#283276" d="M58.233,40.718c0-0.968,0.751-1.668,2.114-1.897l2.075-0.344v-0.331c0-0.789-0.586-1.273-1.413-1.273
					c-0.701,0-1.248,0.318-1.617,0.84l-0.98-0.751c0.573-0.764,1.49-1.248,2.636-1.248c1.732,0,2.687,1.019,2.687,2.432v4.24h-1.312
					V41.66c-0.458,0.56-1.26,0.917-2.05,0.917C59.099,42.577,58.233,41.851,58.233,40.718 M60.615,41.508
					c0.802,0,1.426-0.382,1.808-0.993v-1.108L60.691,39.7c-0.802,0.14-1.133,0.484-1.133,0.968
					C59.558,41.164,59.953,41.508,60.615,41.508"/>
				<polygon fill="#283276" points="66.191,35.969 68.076,40.96 69.947,35.969 71.374,35.969 68.942,42.386 67.197,42.386 
					64.778,35.969 				"/>
				<path fill="#283276" d="M72.06,40.718c0-0.968,0.751-1.668,2.114-1.897l2.075-0.344v-0.331c0-0.789-0.586-1.273-1.413-1.273
					c-0.7,0-1.248,0.318-1.617,0.84l-0.981-0.751c0.573-0.764,1.49-1.248,2.636-1.248c1.732,0,2.687,1.019,2.687,2.432v4.24H76.25
					V41.66c-0.458,0.56-1.26,0.917-2.05,0.917C72.926,42.577,72.06,41.851,72.06,40.718 M74.442,41.508
					c0.802,0,1.426-0.382,1.808-0.993v-1.108L74.518,39.7c-0.802,0.14-1.133,0.484-1.133,0.968
					C73.385,41.164,73.78,41.508,74.442,41.508"/>
				<rect x="79.611" y="35.969" fill="#283276" width="1.312" height="6.417"/>
				<rect x="83.061" y="32.836" fill="#283276" width="1.312" height="9.55"/>
			</g>
			<path fill="#283276" d="M79.486,34.011c0-0.424,0.357-0.781,0.781-0.781c0.423,0,0.781,0.357,0.781,0.781
				c0,0.424-0.357,0.781-0.781,0.781C79.843,34.792,79.486,34.435,79.486,34.011"/>
		</g>
	</g>
</g>
<g>
	<rect x="37.473" y="68.586" fill="#FFFFFF" width="20.389" height="15.535"/>
	<g>
		<polygon fill="#5F438C" points="40.386,67.145 40.386,81.927 54.95,81.927 54.95,67.145 47.668,69.087 		"/>
		<path fill="#FFFFFF" d="M54.95,67.145v14.781H40.386V67.145l7.282,1.942L54.95,67.145 M55.57,66.339l-0.779,0.208l-7.122,1.899
			l-7.122-1.899l-0.779-0.208v0.807v14.781v0.62h0.62H54.95h0.62v-0.62V67.145V66.339L55.57,66.339z"/>
	</g>
	<g>
		<path fill="#FFFFFF" d="M51.066,86.063l-3.884-3.884c0,0-0.971-0.971,0.971-0.971c0.971,0,2.913,0.971,2.913,0.971v-8.001
			c0,0,0-0.971,0.971-0.971s0.971,0.971,0.971,0.971v3.684c0,0,4.855,1.26,4.855,2.303c0,2.985-0.971,5.898-0.971,5.898H51.066z"/>
		<path fill="#5F438C" d="M52.037,73.208c0.971,0,0.971,0.971,0.971,0.971v3.684c0,0,4.855,1.26,4.855,2.303
			c0,2.985-0.971,5.897-0.971,5.897h-5.826l-3.884-3.884c0,0-0.971-0.971,0.971-0.971c0.971,0,2.913,0.971,2.913,0.971v-8.001
			C51.066,74.179,51.066,73.208,52.037,73.208 M52.037,72.588c-1.167,0-1.591,0.951-1.591,1.591v7.038
			c-0.695-0.291-1.64-0.628-2.293-0.628c-0.624,0-1.486,0.077-1.762,0.744c-0.26,0.627,0.249,1.18,0.353,1.285l3.884,3.884
			l0.182,0.182h0.257h5.826h0.447l0.141-0.424c0.041-0.123,1.003-3.043,1.003-6.094c0-0.965-1.632-1.899-4.855-2.779v-3.208
			C53.628,73.539,53.204,72.588,52.037,72.588L52.037,72.588z"/>
	</g>
	<rect x="47.358" y="69.087" fill="#FFFFFF" width="0.62" height="10.681"/>
</g>
<g>
</g>
<g>
</g>
<g>
</g>
<g>
</g>
<g>
</g>
<g>
</g>
<g>
</g>
<g>
</g>
<g>
</g>
<g>
</g>
<g>
</g>
<g>
</g>
<g>
</g>
<g>
</g>
<g>
</g>
</svg>
