<svg width="120" height="52" viewBox="0 0 120 52" fill="none" xmlns="http://www.w3.org/2000/svg">
<g clip-path="url(#clip0_26_2172)">
<path d="M58.668 10.0997H66.3524V12.018H60.9213V15.9122H65.5666V17.8188H60.9213V23.8855H58.668V10.0997Z" fill="#283276"/>
<path d="M68.1665 13.9593H70.2003V15.0802C70.8936 14.3175 71.7603 13.7628 72.9736 13.7628C73.2856 13.7628 73.5861 13.8206 73.8403 13.9015V15.889C73.5283 15.8082 73.2047 15.7504 72.8003 15.7504C71.5407 15.7504 70.7087 16.4206 70.2003 17.2641V23.8855H68.1665V13.9593Z" fill="#283276"/>
<path d="M75.0308 21.3086C75.0308 19.8064 76.1979 18.7317 78.301 18.3735L81.5134 17.842V17.3335C81.5134 16.1086 80.6121 15.3691 79.3294 15.3691C78.2432 15.3691 77.3996 15.866 76.8334 16.6633L75.3197 15.4962C76.2094 14.3175 77.6192 13.5664 79.3988 13.5664C82.0797 13.5664 83.5588 15.138 83.5588 17.322V23.874H81.525V22.7531C80.8201 23.6197 79.5721 24.1744 78.3588 24.1744C76.3943 24.1744 75.0539 23.0535 75.0539 21.2971M78.7401 22.522C79.9765 22.522 80.9472 21.9326 81.5365 20.9851V19.2749L78.8556 19.7255C77.6192 19.9451 77.0992 20.4766 77.0992 21.2277C77.0992 21.9789 77.7116 22.522 78.7285 22.522" fill="#283276"/>
<path d="M86.4131 13.9593H88.4469V14.9184C89.198 14.1326 90.1802 13.5548 91.6015 13.5548C93.7855 13.5548 95.4611 15.0339 95.4611 17.9113V23.8739H93.4158V17.9921C93.4158 16.4206 92.5491 15.473 91.1278 15.473C89.7064 15.473 88.9669 16.3166 88.4469 17.1833V23.8739H86.4131V13.9477V13.9593Z" fill="#283276"/>
<path d="M105.803 21.0544L107.398 22.2793C106.497 23.5041 105.041 24.2899 103.203 24.2899C99.8752 24.2899 97.7837 21.8286 97.7837 18.9397C97.7837 16.0508 99.8752 13.5895 103.203 13.5895C105.017 13.5895 106.497 14.3753 107.398 15.6001L105.803 16.825C105.249 16.0624 104.347 15.5077 103.203 15.5077C101.297 15.5077 99.9099 17.0099 99.9099 18.9513C99.9099 20.8926 101.285 22.3948 103.215 22.3948C104.336 22.3948 105.249 21.8401 105.792 21.0775" fill="#283276"/>
<path d="M114.111 24.2784C110.691 24.2784 108.657 21.8171 108.657 18.9282C108.657 16.0393 110.552 13.578 113.695 13.578C116.434 13.578 118.202 15.45 118.202 17.9691C118.202 18.4198 118.144 18.8704 118.063 19.1709H110.737C110.876 21.3318 112.193 22.4642 114.1 22.4642C115.302 22.4642 116.307 21.9327 116.919 21.1007L118.399 22.2793C117.474 23.5158 115.96 24.29 114.111 24.29M110.841 17.6571H116.18C116.145 16.4207 115.255 15.2767 113.661 15.2767C112.182 15.2767 111.165 16.1202 110.841 17.6571Z" fill="#283276"/>
<path d="M57.2002 27.8143H68.3166V29.8828H63.8909V41.6001H61.626V29.8828H57.2002V27.8143Z" fill="#283276"/>
<path d="M69.2871 31.674H71.3209V32.7949C72.0142 32.0322 72.8809 31.4775 74.0942 31.4775C74.4062 31.4775 74.7067 31.5353 74.9609 31.6162V33.6038C74.6489 33.5229 74.3253 33.4651 73.9209 33.4651C72.6613 33.4651 71.8293 34.1353 71.3209 34.9789V41.6002H69.2871V31.674Z" fill="#283276"/>
<path d="M76.1514 39.0232C76.1514 37.521 77.3185 36.4463 79.4216 36.0881L82.634 35.5566V35.0481C82.634 33.8232 81.7327 33.0837 80.45 33.0837C79.3638 33.0837 78.5203 33.5806 77.954 34.3779L76.4403 33.2108C77.33 32.0321 78.7398 31.281 80.5194 31.281C83.2003 31.281 84.6794 32.8526 84.6794 35.0366V41.5886H82.6456V40.4677C81.9407 41.3343 80.6927 41.889 79.4794 41.889C77.5149 41.889 76.1745 40.7681 76.1745 39.0117M79.8607 40.2366C81.0971 40.2366 82.0678 39.6472 82.6571 38.6997V36.9894L79.9763 37.4401C78.7398 37.6597 78.2198 38.1912 78.2198 38.9423C78.2198 39.6934 78.8323 40.2366 79.8491 40.2366" fill="#283276"/>
<path d="M88.4579 31.674L91.3815 39.3931L94.2704 31.674H96.4775L92.7104 41.6002H90.0179L86.2739 31.674H88.4579Z" fill="#283276"/>
<path d="M97.5405 39.0232C97.5405 37.521 98.7076 36.4463 100.811 36.0881L104.023 35.5566V35.0481C104.023 33.8232 103.122 33.0837 101.839 33.0837C100.753 33.0837 99.9094 33.5806 99.3432 34.3779L97.8294 33.2108C98.7192 32.0321 100.129 31.281 101.909 31.281C104.589 31.281 106.069 32.8526 106.069 35.0366V41.5886H104.035V40.4677C103.33 41.3343 102.082 41.889 100.869 41.889C98.9041 41.889 97.5636 40.7681 97.5636 39.0117M101.25 40.2366C102.486 40.2366 103.457 39.6472 104.046 38.6997V36.9894L101.365 37.4401C100.129 37.6597 99.609 38.1912 99.609 38.9423C99.609 39.6934 100.221 40.2366 101.238 40.2366" fill="#283276"/>
<path d="M111.246 31.674H109.212V41.6002H111.246V31.674Z" fill="#283276"/>
<path d="M109.015 28.6464C109.015 27.9877 109.57 27.4446 110.217 27.4446C110.864 27.4446 111.419 27.9992 111.419 28.6464C111.419 29.2935 110.864 29.8481 110.217 29.8481C109.57 29.8481 109.015 29.2935 109.015 28.6464Z" fill="#283276"/>
<path d="M116.584 26.8322H114.55V41.6002H116.584V26.8322Z" fill="#283276"/>
<path d="M46.2915 36.8622C46.2915 39.2657 44.3386 41.2186 41.9351 41.2186C39.5315 41.2186 37.5786 39.2657 37.5786 36.8622C37.5786 34.4586 39.5315 32.5057 41.9351 32.5057C44.3386 32.5057 46.2915 34.4586 46.2915 36.8622Z" fill="#283276"/>
<path d="M17.5762 20.6035C17.5762 23.0071 15.6233 24.96 13.2197 24.96C10.8162 24.96 8.86328 23.0071 8.86328 20.6035C8.86328 18.2 10.8162 16.2471 13.2197 16.2471C15.6233 16.2471 17.5762 18.2 17.5762 20.6035Z" fill="#F29FC5"/>
<path d="M38.0522 32.1013C38.0522 34.5049 36.0994 36.4578 33.6958 36.4578C31.2922 36.4578 29.3394 34.5049 29.3394 32.1013C29.3394 29.6978 31.2922 27.7449 33.6958 27.7449C36.0994 27.7449 38.0522 29.6978 38.0522 32.1013Z" fill="#008ECF"/>
<path d="M27.5137 37.3706C27.5137 39.7742 25.5608 41.7271 23.1572 41.7271C20.7537 41.7271 18.8008 39.7742 18.8008 37.3706C18.8008 34.967 20.7537 33.0142 23.1572 33.0142C25.5608 33.0142 27.5137 34.967 27.5137 37.3706Z" fill="#F29FC5"/>
<path d="M27.5137 47.6436C27.5137 50.0471 25.5608 52 23.1572 52C20.7537 52 18.8008 50.0471 18.8008 47.6436C18.8008 45.24 20.7537 43.2871 23.1572 43.2871C25.5608 43.2871 27.5137 45.24 27.5137 47.6436Z" fill="#283276"/>
<path d="M46.2915 15.184C46.2915 17.5875 44.3386 19.5404 41.9351 19.5404C39.5315 19.5404 37.5786 17.5875 37.5786 15.184C37.5786 12.7804 39.5315 10.8275 41.9351 10.8275C44.3386 10.8275 46.2915 12.7804 46.2915 15.184Z" fill="#283276"/>
<path d="M38.0522 20.6035C38.0522 23.0071 36.0994 24.96 33.6958 24.96C31.2922 24.96 29.3394 23.0071 29.3394 20.6035C29.3394 18.2 31.2922 16.2471 33.6958 16.2471C36.0994 16.2471 38.0522 18.2 38.0522 20.6035Z" fill="#283276"/>
<path d="M16.9287 32.4943C16.9287 34.8978 14.9758 36.8507 12.5723 36.8507C10.1687 36.8507 8.21582 34.8978 8.21582 32.4943C8.21582 30.0907 10.1687 28.1378 12.5723 28.1378C14.9758 28.1378 16.9287 30.0907 16.9287 32.4943Z" fill="#283276"/>
<path d="M8.62036 14.2365C9.14036 16.5823 7.66125 18.9049 5.31548 19.4249C2.9697 19.9449 0.647034 18.4658 0.127034 16.12C-0.392965 13.7743 1.08615 11.4516 3.43192 10.9316C5.7777 10.4116 8.10036 11.8907 8.62036 14.2365Z" fill="#283276"/>
<path d="M8.19276 23.6542C7.99631 25.0062 6.74831 25.9538 5.38476 25.7573C4.03276 25.5609 3.0852 24.3129 3.28165 22.9493C3.47809 21.5973 4.72609 20.6498 6.08965 20.8462C7.44165 21.0427 8.3892 22.2907 8.19276 23.6542Z" fill="#E1000F"/>
<path d="M33.1759 41.6C32.9563 43.16 31.5119 44.2347 29.9519 44.0151C28.3919 43.7955 27.3172 42.3511 27.5367 40.7911C27.7563 39.2311 29.2008 38.1564 30.7608 38.376C32.3208 38.5955 33.3954 40.04 33.1759 41.6Z" fill="#E1000F"/>
<path d="M41.6233 23.5502C41.4846 24.4862 40.618 25.1449 39.682 25.0062C38.746 24.8676 38.0873 24.0009 38.226 23.0649C38.3646 22.1289 39.2313 21.4702 40.1673 21.6089C41.1033 21.7476 41.762 22.6142 41.6233 23.5502Z" fill="#E1000F"/>
<path d="M24.6596 15.4614C24.4631 16.8134 23.2151 17.7609 21.8516 17.5645C20.4996 17.368 19.552 16.12 19.7484 14.7565C19.9449 13.4045 21.1929 12.4569 22.5564 12.6534C23.9084 12.8498 24.856 14.0978 24.6596 15.4614Z" fill="#E1000F"/>
<path d="M31.7894 12.2488C31.593 13.6008 30.345 14.5484 28.9814 14.3519C27.6294 14.1555 26.6819 12.9075 26.8783 11.5439C27.0748 10.1919 28.3228 9.24438 29.6863 9.44083C31.0383 9.63727 31.9859 10.8853 31.7894 12.2488Z" fill="#F29FC5"/>
<path d="M15.681 39.5085C15.4846 40.8605 14.2366 41.808 12.873 41.6116C11.521 41.4151 10.5735 40.1671 10.7699 38.8036C10.9664 37.4516 12.2144 36.504 13.5779 36.7005C14.9299 36.8969 15.8775 38.1449 15.681 39.5085Z" fill="#FFE000"/>
<path d="M40.0516 28.3573C39.8552 29.7094 38.6072 30.6569 37.2436 30.4605C35.8916 30.264 34.9441 29.016 35.1405 27.6525C35.337 26.3005 36.585 25.3529 37.9485 25.5493C39.3005 25.7458 40.2481 26.9938 40.0516 28.3573Z" fill="#FFE000"/>
<path d="M37.2206 39.8783C37.9486 41.0338 37.6019 42.5707 36.4464 43.2987C35.2908 44.0267 33.7539 43.6801 33.0259 42.5245C32.2979 41.3689 32.6446 39.8321 33.8001 39.1041C34.9557 38.3761 36.4926 38.7227 37.2206 39.8783Z" fill="#283276"/>
<path d="M18.2806 10.7698C18.0842 12.1218 16.8362 13.0694 15.4726 12.8729C14.1206 12.6765 13.1731 11.4285 13.3695 10.0649C13.566 8.71294 14.814 7.76538 16.1775 7.96182C17.5295 8.15827 18.4771 9.40627 18.2806 10.7698Z" fill="#FFE000"/>
<path d="M27.7217 4.56444C27.7217 7.08356 25.6763 9.12889 23.1572 9.12889C20.6381 9.12889 18.5928 7.08356 18.5928 4.56444C18.5928 2.04533 20.6381 0 23.1572 0C25.6763 0 27.7217 2.04533 27.7217 4.56444Z" fill="#008ECF"/>
<path d="M8.71289 36.8391C8.71289 39.2427 6.76 41.1956 4.35644 41.1956C1.95289 41.1956 0 39.2427 0 36.8391C0 34.4356 1.95289 32.4827 4.35644 32.4827C6.76 32.4827 8.71289 34.4356 8.71289 36.8391Z" fill="#008ECF"/>
<path d="M30.1715 25.1103C30.1715 29.3049 26.7626 32.7138 22.5679 32.7138C18.3732 32.7138 14.9644 29.3049 14.9644 25.1103C14.9644 20.9156 18.3732 17.5067 22.5679 17.5067C26.7626 17.5067 30.1715 20.9156 30.1715 25.1103Z" fill="#008ECF"/>
</g>
<defs>
<clipPath id="clip0_26_2172">
<rect width="119.6" height="52" fill="white"/>
</clipPath>
</defs>
</svg>
