<?xml version="1.0" encoding="UTF-8" standalone="no"?>
<svg
   id="Calque_1"
   data-name="Calque 1"
   viewBox="0 0 283.46 283.46"
   version="1.1"
   sodipodi:docname="logo.svg"
   inkscape:version="1.1.2 (0a00cf5339, 2022-02-04)"
   xmlns:inkscape="http://www.inkscape.org/namespaces/inkscape"
   xmlns:sodipodi="http://sodipodi.sourceforge.net/DTD/sodipodi-0.dtd"
   xmlns="http://www.w3.org/2000/svg"
   xmlns:svg="http://www.w3.org/2000/svg">
  <sodipodi:namedview
     id="namedview35"
     pagecolor="#ffffff"
     bordercolor="#666666"
     borderopacity="1.0"
     inkscape:pageshadow="2"
     inkscape:pageopacity="0.0"
     inkscape:pagecheckerboard="0"
     showgrid="false"
     inkscape:zoom="21.535099"
     inkscape:cx="148.61785"
     inkscape:cy="190.6887"
     inkscape:window-width="3840"
     inkscape:window-height="2054"
     inkscape:window-x="0"
     inkscape:window-y="27"
     inkscape:window-maximized="1"
     inkscape:current-layer="Calque_1" />
  <defs
     id="defs4">
    <style
       id="style2">.cls-1{font-size:26px;font-family:Lato-Bold, Lato;font-weight:700;letter-spacing:-0.01em;}.cls-1,.cls-7{fill:#23333c;}.cls-2{fill:#f0801e;}.cls-3{font-size:12px;font-family:Lato-Regular, Lato;}.cls-3,.cls-8{fill:#fff;}.cls-4{letter-spacing:-0.01em;}.cls-5{letter-spacing:-0.01em;}.cls-6{letter-spacing:0em;}</style>
  </defs>
  <title
     id="title6">Anotéa-V-color</title>
  <text
     class="cls-1"
     transform="translate(100.64 178.42)"
     id="text8">Anotea</text>
  <g
     id="g202"
     transform="matrix(1.0017275,0,0,1,-8.191035,0)">
    <rect
       class="cls-2"
       x="110.58237"
       y="186.16"
       width="76backend/src/http/site/static/images/logo.svg"
       height="15.31"
       id="rect10"
       style="stroke-width:1.16161" />
    <text
       class="cls-3"
       transform="translate(113.65,197.89)"
       id="text20">France Travail</text>
  </g>
  <path
     class="cls-7"
     d="M185.61,108.3a42.52,42.52,0,1,1-42.52-42.52,42.51,42.51,0,0,1,42.52,42.52"
     id="path22" />
  <path
     class="cls-8"
     d="M141.82,132.16v-13s-20.91-1.62-20.91-22.68,17.73-21.59,17.73-21.59h32.5S189.57,77,188.44,98.1c-1.07,20-17.3,21.1-17.3,21.1H154.68Z"
     id="path24" />
  <path
     class="cls-2"
     d="M139.82,137V120.92c-5.42-1-20.91-5.62-20.91-24.4,0-22.73,19.47-23.58,19.67-23.59h32.79c7,.8,20,7.11,19.07,25.26-1.15,21.55-19,23-19.17,23H155.51Zm-1.18-60.08c-.58,0-15.73.81-15.73,19.59,0,19,18.29,20.62,19.07,20.68l1.84.15v10l10-10.1h17.22c1.1-.1,14.45-1.65,15.39-19.21,1-18.3-13.91-20.85-15.44-21.06Z"
     id="path26" />
  <path
     class="cls-2"
     d="M158,97.9a3.09,3.09,0,0,0-3.1-3.2,3.18,3.18,0,0,0,0,6.36A3.09,3.09,0,0,0,158,97.9"
     id="path28" />
  <path
     class="cls-2"
     d="M142.05,97.9a3.13,3.13,0,1,0-3.11,3.16,3.13,3.13,0,0,0,3.11-3.16"
     id="path30" />
  <path
     class="cls-2"
     d="M174,97.9a3.15,3.15,0,1,0-3.15,3.16A3.13,3.13,0,0,0,174,97.9"
     id="path32" />
</svg>
