<?xml version="1.0" encoding="utf-8"?>
<!-- Generator: Adobe Illustrator 27.8.0, SVG Export Plug-In . SVG Version: 6.00 Build 0)  -->
<svg version="1.1" id="Calque_1" xmlns="http://www.w3.org/2000/svg" xmlns:xlink="http://www.w3.org/1999/xlink" x="0px" y="0px"
	 viewBox="0 0 893.4 296.2" style="enable-background:new 0 0 893.4 296.2;" xml:space="preserve">
<style type="text/css">
	.st0{fill:none;}
	.st1{fill:#383838;}
	.st2{fill:#283276;}
	.st3{fill:#FFFFFF;}
	.st4{fill:#F29FC5;}
	.st5{fill:#008ECF;}
	.st6{fill:#E1000F;}
	.st7{fill:#FFE000;}
	.st8{fill:#C2C2C2;}
	.st9{fill:#ADADAD;}
	.st10{fill:#6B6B6B;}
	.st11{fill:#E0E0E0;}
	.st12{fill:#262626;}
	.st13{fill:#656565;}
	.st14{fill:#7F7F7F;}
	.st15{fill:#262626;stroke:#000000;stroke-width:0.2157;stroke-miterlimit:10;}
	.st16{fill:#000091;}
	.st17{fill:#808080;}
</style>
<rect y="0" class="st0" width="893.4" height="296.2"/>
<g>
	<g>
		<path class="st2" d="M560.1,193.9c0,10.1-8.2,18.4-18.4,18.4s-18.4-8.2-18.4-18.4c0-10.1,8.2-18.4,18.4-18.4
			S560.1,183.8,560.1,193.9"/>
		<path class="st4" d="M439.1,125.4c0,10.1-8.2,18.4-18.4,18.4s-18.4-8.2-18.4-18.4c0-10.1,8.2-18.4,18.4-18.4
			S439.1,115.2,439.1,125.4"/>
		<path class="st5" d="M525.4,173.8c0,10.1-8.2,18.4-18.4,18.4c-10.1,0-18.4-8.2-18.4-18.4c0-10.1,8.2-18.4,18.4-18.4
			C517.2,155.5,525.4,163.7,525.4,173.8"/>
		<path class="st4" d="M481,196c0,10.1-8.2,18.4-18.4,18.4c-10.1,0-18.4-8.2-18.4-18.4c0-10.1,8.2-18.4,18.4-18.4
			C472.8,177.7,481,185.9,481,196"/>
		<path class="st2" d="M481,239.3c0,10.1-8.2,18.4-18.4,18.4c-10.1,0-18.4-8.2-18.4-18.4c0-10.1,8.2-18.4,18.4-18.4
			C472.8,221,481,229.2,481,239.3"/>
		<path class="st2" d="M560.1,102.5c0,10.1-8.2,18.4-18.4,18.4s-18.4-8.2-18.4-18.4c0-10.1,8.2-18.4,18.4-18.4
			S560.1,92.4,560.1,102.5"/>
		<path class="st2" d="M525.4,125.4c0,10.1-8.2,18.4-18.4,18.4c-10.1,0-18.4-8.2-18.4-18.4c0-10.1,8.2-18.4,18.4-18.4
			C517.2,107,525.4,115.2,525.4,125.4"/>
		<path class="st2" d="M436.4,175.5c0,10.1-8.2,18.4-18.4,18.4s-18.4-8.2-18.4-18.4c0-10.1,8.2-18.4,18.4-18.4
			S436.4,165.3,436.4,175.5"/>
		<path class="st2" d="M401.4,98.5c2.2,9.9-4,19.7-13.9,21.9c-9.9,2.2-19.7-4-21.9-13.9c-2.2-9.9,4-19.7,13.9-21.9
			C389.4,82.4,399.2,88.6,401.4,98.5"/>
		<path class="st6" d="M399.6,138.2c-0.8,5.7-6.1,9.7-11.8,8.9c-5.7-0.8-9.7-6.1-8.9-11.8c0.8-5.7,6.1-9.7,11.8-8.9
			C396.4,127.2,400.4,132.5,399.6,138.2"/>
		<path class="st6" d="M504.9,213.9c-0.9,6.6-7,11.1-13.6,10.2c-6.6-0.9-11.1-7-10.2-13.6c0.9-6.6,7-11.1,13.6-10.2
			C501.3,201.2,505.8,207.3,504.9,213.9"/>
		<path class="st6" d="M540.5,137.8c-0.6,4-4.2,6.7-8.2,6.1c-4-0.6-6.7-4.2-6.2-8.2c0.6-4,4.2-6.7,8.2-6.1
			C538.3,130.2,541.1,133.8,540.5,137.8"/>
		<path class="st6" d="M469,103.7c-0.8,5.7-6.1,9.7-11.8,8.9c-5.7-0.8-9.7-6.1-8.9-11.8c0.8-5.7,6.1-9.7,11.8-8.9
			C465.8,92.7,469.8,98,469,103.7"/>
		<path class="st4" d="M499,90.1c-0.8,5.7-6.1,9.7-11.8,8.9c-5.7-0.8-9.7-6.1-8.9-11.8c0.8-5.7,6.1-9.7,11.8-8.9
			C495.9,79.1,499.9,84.4,499,90.1"/>
		<path class="st7" d="M431.1,205c-0.8,5.7-6.1,9.7-11.8,8.9c-5.7-0.8-9.7-6.1-8.9-11.8c0.8-5.7,6.1-9.7,11.8-8.9
			C428,194,431.9,199.3,431.1,205"/>
		<path class="st7" d="M533.9,158.1c-0.8,5.7-6.1,9.7-11.8,8.9c-5.7-0.8-9.7-6.1-8.9-11.8c0.8-5.7,6.1-9.7,11.8-8.9
			C530.7,147,534.7,152.3,533.9,158.1"/>
		<path class="st2" d="M521.9,206.6c3.1,4.9,1.6,11.3-3.3,14.4c-4.9,3.1-11.3,1.6-14.4-3.3c-3.1-4.9-1.6-11.3,3.3-14.4
			C512.4,200.3,518.8,201.7,521.9,206.6"/>
		<path class="st7" d="M442.1,83.9c-0.8,5.7-6.1,9.7-11.8,8.9c-5.7-0.8-9.7-6.1-8.9-11.8c0.8-5.7,6.1-9.7,11.8-8.9
			C438.9,72.9,442.9,78.2,442.1,83.9"/>
		<path class="st5" d="M481.9,57.8c0,10.6-8.6,19.3-19.3,19.3c-10.6,0-19.3-8.6-19.3-19.3c0-10.6,8.6-19.3,19.3-19.3
			C473.3,38.5,481.9,47.1,481.9,57.8"/>
		<path class="st5" d="M401.7,193.8c0,10.1-8.2,18.4-18.4,18.4S365,204,365,193.8c0-10.1,8.2-18.4,18.4-18.4
			S401.7,183.7,401.7,193.8"/>
		<path class="st5" d="M492.2,144.4c0,17.7-14.3,32-32,32c-17.7,0-32-14.3-32-32c0-17.7,14.3-32,32-32
			C477.8,112.3,492.2,126.7,492.2,144.4"/>
	</g>
	<g>
		<g>
			<polygon class="st2" points="603.1,81.1 635.5,81.1 635.5,89.2 612.6,89.2 612.6,105.6 632.2,105.6 632.2,113.6 612.6,113.6 
				612.6,139.2 603.1,139.2 			"/>
			<path class="st2" d="M643.1,97.4h8.5v4.7c2.9-3.2,6.6-5.6,11.7-5.6c1.3,0,2.6,0.2,3.7,0.6v8.4c-1.3-0.3-2.7-0.6-4.4-0.6
				c-5.3,0-8.8,2.8-11,6.4v27.9h-8.5V97.4z"/>
			<path class="st2" d="M672.1,128.3c0-6.3,4.9-10.9,13.8-12.4l13.5-2.2v-2.2c0-5.1-3.8-8.3-9.2-8.3c-4.6,0-8.1,2.1-10.5,5.5
				l-6.4-4.9c3.7-5,9.7-8.1,17.2-8.1c11.3,0,17.5,6.6,17.5,15.9v27.6h-8.5v-4.7c-3,3.7-8.2,6-13.4,6
				C677.7,140.5,672.1,135.7,672.1,128.3 M687.6,133.5c5.2,0,9.3-2.5,11.8-6.5v-7.2l-11.3,1.9c-5.2,0.9-7.4,3.2-7.4,6.3
				C680.7,131.2,683.3,133.5,687.6,133.5"/>
			<path class="st2" d="M720,97.4h8.5v4.1c3.2-3.3,7.3-5.7,13.3-5.7c9.2,0,16.3,6.2,16.3,18.3v25.1h-8.6v-24.8
				c0-6.6-3.7-10.6-9.6-10.6c-5.7,0-9.1,3.6-11.3,7.2v28.2H720V97.4z"/>
			<path class="st2" d="M801.8,127.3l6.7,5.1c-3.8,5.1-10,8.5-17.7,8.5c-14,0-22.8-10.4-22.8-22.6s8.8-22.6,22.8-22.6
				c7.6,0,13.9,3.3,17.7,8.5l-6.7,5.1c-2.3-3.2-6.1-5.6-11-5.6c-8.1,0-13.9,6.3-13.9,14.5c0,8.3,5.8,14.5,13.9,14.5
				C795.6,132.8,799.5,130.5,801.8,127.3"/>
			<path class="st2" d="M836.8,140.9c-14.4,0-23-10.4-23-22.6c0-12.5,8-22.6,21.2-22.6c11.5,0,19,7.9,19,18.5c0,1.9-0.2,3.8-0.6,5.1
				h-30.9c0.6,9.1,6.1,13.9,14.2,13.9c5.1,0,9.3-2.2,11.9-5.7l6.2,5C851,137.6,844.6,140.9,836.8,140.9 M823.1,112.9h22.5
				c-0.2-5.2-3.9-10-10.6-10C828.7,102.9,824.4,106.4,823.1,112.9"/>
		</g>
		<g>
			<polygon class="st2" points="596.9,155.8 643.8,155.8 643.8,164.5 625.1,164.5 625.1,213.9 615.6,213.9 615.6,164.5 596.9,164.5 
							"/>
			<path class="st2" d="M647.9,172h8.5v4.7c2.9-3.2,6.6-5.6,11.7-5.6c1.3,0,2.6,0.2,3.7,0.6v8.4c-1.3-0.3-2.7-0.6-4.4-0.6
				c-5.3,0-8.8,2.8-11,6.4v27.9h-8.5V172z"/>
			<path class="st2" d="M676.8,203c0-6.3,4.9-10.9,13.8-12.4l13.5-2.2v-2.2c0-5.1-3.8-8.3-9.2-8.3c-4.6,0-8.1,2.1-10.5,5.5l-6.4-4.9
				c3.7-5,9.7-8.1,17.2-8.1c11.3,0,17.5,6.6,17.5,15.9v27.6h-8.5v-4.7c-3,3.7-8.2,6-13.4,6C682.5,215.1,676.8,210.4,676.8,203
				 M692.3,208.1c5.2,0,9.3-2.5,11.8-6.5v-7.2l-11.3,1.9c-5.2,0.9-7.4,3.2-7.4,6.3C685.5,205.9,688,208.1,692.3,208.1"/>
			<polygon class="st2" points="728.7,172 741,204.6 753.2,172 762.5,172 746.6,213.9 735.3,213.9 719.5,172 			"/>
			<path class="st2" d="M767,203c0-6.3,4.9-10.9,13.8-12.4l13.5-2.2v-2.2c0-5.1-3.8-8.3-9.2-8.3c-4.6,0-8.1,2.1-10.5,5.5l-6.4-4.9
				c3.7-5,9.7-8.1,17.2-8.1c11.3,0,17.5,6.6,17.5,15.9v27.6h-8.5v-4.7c-3,3.7-8.2,6-13.4,6C772.6,215.1,767,210.4,767,203
				 M782.5,208.1c5.2,0,9.3-2.5,11.8-6.5v-7.2l-11.3,1.9c-5.2,0.9-7.4,3.2-7.4,6.3C775.6,205.9,778.2,208.1,782.5,208.1"/>
			<rect x="816.2" y="172" class="st2" width="8.5" height="41.8"/>
			<rect x="838.7" y="151.6" class="st2" width="8.5" height="62.2"/>
		</g>
		<path class="st2" d="M815.4,159.3c0-2.8,2.3-5.1,5.1-5.1c2.8,0,5.1,2.3,5.1,5.1c0,2.8-2.3,5.1-5.1,5.1
			C817.7,164.4,815.4,162,815.4,159.3"/>
	</g>
</g>
<g>
	<g>
		<path d="M38.4,96.6h8.9c6.4,0,10.3,3.3,10.3,8.7c0,3.5-1.7,6.1-4.7,7.5l9.1,12.9h-6.9l-7.8-11.7h-3v11.7h-5.9V96.6z M44.3,101.5
			v7.5h3.3c2.5,0,3.9-1.5,3.9-3.8c0-2.2-1.5-3.7-3.9-3.7H44.3z"/>
		<path d="M65.7,96.6h16.9v4.9h-11v6.9H81v4.9h-9.4v7.5h11v4.9H65.7V96.6z M71.5,94.1l4.7-5.6h6.1l-5.4,5.6H71.5z"/>
		<path d="M89.5,96.6h9.6c6.4,0,10.3,3.3,10.3,8.7c0,5.3-3.9,8.6-10.3,8.6h-3.7v11.7h-5.9V96.6z M95.4,101.5v7.5h3.9
			c2.5,0,4-1.5,4-3.8c0-2.2-1.5-3.7-4-3.7H95.4z"/>
		<path d="M131.4,96.6h5.9v17.7c0,7.6-4.5,12.2-11.8,12.2c-7.3,0-11.7-4.6-11.7-12.2V96.6h5.9v18.2c0,3.9,2.2,6.2,5.9,6.2
			c3.6,0,5.8-2.3,5.8-6.2V96.6z"/>
		<path d="M144.6,96.6h8.5c6.1,0,9.7,3,9.7,7.9c0,2.4-1.1,4.4-3.1,5.7c3.1,1.4,4.8,3.9,4.8,6.9c0,5.3-4.1,8.5-10.8,8.5h-9.2V96.6z
			 M150.5,101.5v6.5h2.8c2.2,0,3.6-1.2,3.6-3.3c0-2-1.3-3.2-3.6-3.2H150.5z M150.5,113v7.8h3.6c2.7,0,4.4-1.5,4.4-3.9
			c0-2.5-1.7-3.9-4.4-3.9H150.5z"/>
		<path d="M170.7,96.6h5.9v23.7h11v5.3h-16.9V96.6z"/>
		<path d="M192.7,96.6h5.9v29h-5.9V96.6z"/>
		<path d="M237.2,127.7c0.6,0,1.5-0.1,2.1-0.3v5c-1,0.4-1.8,0.5-3.1,0.5c-3.2,0-6.2-1.3-9.1-3.8l-3.4-3.1c-1.2,0.3-2.6,0.5-4,0.5
			c-9.2,0-15.4-7-15.4-15.3s6.3-15.3,15.4-15.3c9.1,0,15.4,7,15.4,15.3c0,4.9-2.2,9.3-5.7,12.1l1.7,1.7
			C233.4,126.9,235.4,127.7,237.2,127.7z M229.1,111.1c0-5.6-3.9-9.8-9.3-9.8c-5.5,0-9.4,4.3-9.4,9.8c0,5.6,3.9,9.8,9.4,9.8
			C225.2,121,229.1,116.7,229.1,111.1z"/>
		<path d="M257.9,96.6h5.9v17.7c0,7.6-4.5,12.2-11.8,12.2c-7.3,0-11.7-4.6-11.7-12.2V96.6h5.9v18.2c0,3.9,2.2,6.2,5.9,6.2
			c3.6,0,5.8-2.3,5.8-6.2V96.6z"/>
		<path d="M271.1,96.6H288v4.9h-11v6.9h9.4v4.9H277v7.5h11v4.9h-16.9V96.6z"/>
	</g>
	<g>
		<path d="M38.4,138.6h16.9v4.9h-11v6.9h9.4v4.9h-9.4v12.4h-5.9V138.6z"/>
		<path d="M60.5,138.6h8.9c6.4,0,10.3,3.3,10.3,8.7c0,3.5-1.7,6.1-4.7,7.5l9.1,12.9h-6.9l-7.8-11.7h-3v11.7h-5.9V138.6z M66.4,143.5
			v7.5h3.3c2.5,0,3.9-1.5,3.9-3.8c0-2.2-1.5-3.7-3.9-3.7H66.4z"/>
		<path d="M96.4,138.6h7.7l11,29h-6.3l-2.8-7.5H94.5l-2.8,7.5h-6.3L96.4,138.6z M104.3,155l-4-10.9l-4,10.9H104.3z"/>
		<path d="M119.6,138.6h7.5l13,21v-21h5.9v29h-7.5l-13-21v21h-5.9V138.6z"/>
		<path d="M174.7,158.9l4.6,3.6c-2.2,3.1-5.7,5.2-9.9,5.8l-3.6,6h-5.2l3.6-6.1c-7.5-1.3-12.5-7.7-12.5-15.1
			c0-8.3,6.3-15.3,15.4-15.3c5.3,0,9.6,2.4,12.2,5.9l-4.6,3.6c-1.7-2.4-4.3-4-7.6-4c-5.5,0-9.4,4.3-9.4,9.8c0,5.6,3.9,9.8,9.4,9.8
			C170.4,162.9,173.1,161.3,174.7,158.9z"/>
		<path d="M191.6,138.6h7.7l11,29h-6.3l-2.8-7.5h-11.6l-2.8,7.5h-6.3L191.6,138.6z M199.5,155l-4-10.9l-4,10.9H199.5z"/>
		<path d="M214.8,138.6h5.9v29h-5.9V138.6z"/>
		<path d="M230.5,159.6c1.7,2.2,4.1,3.6,6.4,3.6c2.3,0,3.7-1.2,3.7-3.3c0-5.3-13.2-3.9-13.2-13.7c0-4.6,3.8-8.4,9.4-8.4
			c4.4,0,7.7,1.9,10.2,4.9l-4.3,3.9c-1.7-2.2-3.6-3.6-5.8-3.6c-2.1,0-3.4,1.3-3.4,3.1c0,5.3,13.2,3.8,13.2,13.7
			c-0.1,5.5-4.3,8.7-9.7,8.7c-4.9,0-8.2-1.8-10.7-4.9L230.5,159.6z"/>
		<path d="M252.9,138.6h16.9v4.9h-11v6.9h9.4v4.9h-9.4v7.5h11v4.9h-16.9V138.6z"/>
	</g>
	<g>
		<path class="st16" d="M73.2,72.5C73.2,72.5,73.2,72.4,73.2,72.5c0.1-0.1,0.2-0.1,0.3-0.2c0,0,0,0,0,0
			C73.4,72.3,73.3,72.4,73.2,72.5"/>
		<path class="st16" d="M87.4,67.7L87.4,67.7C87.3,67.8,87.4,67.8,87.4,67.7"/>
		<path class="st16" d="M82.9,72.7c0.4-0.4,0.8-0.9,1.3-1.3h0c0.8-0.9,1.5-1.7,2.4-2.5c0.3-0.2,0.5-0.5,0.8-0.6
			c0.1-0.1,0.1-0.2,0.1-0.3c-0.4,0.1-0.6,0.4-1,0.6c-0.1,0-0.1-0.1-0.1-0.1c0.3-0.2,0.5-0.4,0.8-0.6c0,0,0,0-0.1,0
			c-0.1,0-0.1-0.1-0.1-0.1c-1-0.1-1.7,0.5-2.3,1.1c-0.1,0.1-0.3-0.1-0.4-0.1c-1.1,0.4-1.9,1.3-3,1.8v-0.1c-0.4,0.1-0.9,0.4-1.3,0.5
			c-0.7,0.1-1.2,0.1-1.8,0.1c-0.9,0.1-1.8,0.3-2.7,0.5c0,0-0.1,0-0.1,0c-0.5,0.1-0.9,0.3-1.4,0.5c0,0,0,0-0.1,0c0,0-0.1,0.1-0.1,0.1
			c-0.2,0.2-0.3,0.3-0.5,0.4c-0.5,0.2-0.8,0.6-1.2,1c0,0-0.1,0-0.1,0c-0.4,0.4-0.8,0.8-1.2,1.1c0,0-0.1,0-0.2,0c0,0,0,0,0,0
			c0,0,0,0,0-0.1c0.1-0.1,0.1-0.2,0.2-0.3c0.1-0.1,0.1-0.2,0.2-0.3c0.1-0.2,0.2-0.3,0.3-0.4c0,0,0-0.1,0-0.1c0,0-0.1,0-0.1,0
			c0.4-0.4,0.8-0.7,1.2-0.9v0c0,0-0.1,0-0.1-0.1c0-0.1,0.1-0.1,0.1-0.2c0,0,0,0,0-0.1c0,0,0,0-0.1-0.1c-0.1,0.1-0.2,0.2-0.3,0.2
			c-0.2,0.2-0.3,0.5-0.6,0.5c0,0-0.1,0-0.1,0c0,0-0.1,0-0.1,0c0,0,0,0,0,0c0,0,0,0,0,0c0,0,0,0,0,0c0,0,0,0,0-0.1c0,0,0,0,0-0.1
			c0,0,0,0,0-0.1c0,0,0-0.1,0.1-0.1c0,0,0,0,0-0.1c0-0.1,0.1-0.1,0.1-0.2c0,0,0-0.1,0-0.1c0,0,0.1-0.1,0.1-0.1c0-0.1,0-0.1-0.1-0.1
			c0.1-0.2,0.3-0.3,0.5-0.4h0c0.3-0.1,0.6-0.3,0.8-0.5c0,0,0.1-0.1,0.1-0.1c-0.4,0.1-0.8,0.3-1.2,0.6c0,0-0.1,0-0.1,0.1
			c0,0-0.1,0-0.2-0.1c0,0,0,0,0-0.1c0.1-0.1,0.3-0.2,0.4-0.4c0.1,0,0.1,0,0.1,0.1c2.3-1.8,5.6-1.4,8.3-2.3c0.2-0.1,0.4-0.3,0.7-0.4
			c0.4-0.1,0.7-0.5,1.1-0.7c0.6-0.4,1-1,1.2-1.7c0-0.1-0.1-0.1-0.1-0.1c-1,1-2,1.8-3.2,2.4c-1.5,0.8-3.2,0.7-4.8,0.9
			c0.1-0.1,0.2-0.1,0.4-0.1c0-0.2,0.1-0.3,0.3-0.4h0.2c0.1,0,0.1-0.1,0.1-0.1c0.1,0,0.4-0.1,0.3-0.1c-0.2-0.3-0.7,0.2-1,0
			c0.1-0.1,0.1-0.4,0.2-0.4h0.3c0-0.1,0.1-0.3,0.1-0.3c1.1-0.7,2.1-1.2,3.1-1.8c-0.2,0-0.4,0.2-0.6,0.1c0.1,0,0-0.2,0.1-0.2
			c0.8-0.2,1.5-0.7,2.3-1c-0.3,0-0.5,0.2-0.8,0c0.1-0.1,0.2-0.2,0.4-0.2v-0.2c0-0.1,0.1-0.1,0.1-0.1c-0.1,0-0.1-0.1-0.1-0.1
			c0.1-0.1,0.3-0.1,0.4-0.2c-0.1,0-0.2,0-0.2-0.1c0.2-0.3,0.6-0.4,1-0.4c-0.1-0.1-0.3,0-0.3-0.1c0-0.1,0.1-0.1,0.1-0.1h-0.1
			C81.9,63,82,62.8,82,62.8c0.4-0.5,0.4-1.2,0.7-1.8c-0.1,0-0.1,0-0.1-0.1c-0.7,0.8-1.9,1.1-3,1.4h-0.4c-0.4,0.1-0.9,0.1-1.2-0.1
			c-0.3-0.1-0.4-0.4-0.7-0.6c-0.6-0.4-1.2-0.7-1.8-0.9c-1.8-0.6-3.7-0.9-5.6-0.8c0.8-0.4,1.7-0.5,2.6-0.7c1.2-0.4,2.4-0.8,3.7-0.7
			c-0.2-0.1-0.5,0-0.7,0c-1-0.1-2,0.2-3.1,0.4c-0.7,0.1-1.4,0.4-2.1,0.6c-0.4,0.1-0.7,0.6-1.2,0.5v-0.2c0.7-0.9,1.6-1.8,2.8-1.8
			c1.3-0.2,2.6,0,3.9,0.1c1,0.1,1.8,0.3,2.8,0.5c0.4,0,0.4,0.6,0.7,0.7c0.4,0.1,0.9,0,1.3,0.3c0-0.1-0.1-0.3,0-0.4
			c0.3-0.3,0.7,0.1,1-0.1c0.6-0.4-0.5-1-0.8-1.5c0-0.1,0.1-0.1,0.1-0.1c0.6,0.5,1,1.1,1.8,1.5c0.4,0.1,1.2,0.4,1.1-0.1
			c-0.4-0.8-1.1-1.5-1.7-2.2v-0.3c-0.1,0-0.1-0.1-0.2-0.1v-0.3c-0.3-0.1-0.2-0.4-0.4-0.7c-0.2-0.4-0.1-0.9-0.2-1.3
			c-0.1-0.4-0.2-0.8-0.3-1.2c-0.2-1.2-0.5-2.3-0.7-3.5c-0.1-1.4,0.8-2.5,1.5-3.7c0.5-0.9,1.1-1.8,2-2.3c0.2-0.9,0.8-1.6,1.4-2.3
			c0.6-0.7,1.6-1.1,2.3-1.5c1-0.5,1.9-0.7,1.9-0.7H38.5v38.7h35.9c1.4-1,2.8-1.5,4.7-2.4C80.1,74.4,82.2,73.4,82.9,72.7 M71.6,67.4
			c-0.1,0-0.4,0.1-0.4-0.1c0.1-0.4,0.6-0.4,0.9-0.5c0.1-0.1,0.4-0.2,0.5-0.1c0.1,0.2,0.4,0.1,0.5,0.3C72.7,67.4,72.1,67.2,71.6,67.4
			 M60.4,65.8c0,0-0.1-0.1-0.1-0.1c1-1.2,1.7-2.4,2.3-3.7c1-0.5,1.7-1.3,2.5-2c1.2-1.3,2.6-2.5,4.1-3.2c0.6-0.2,1.3-0.1,1.9,0.1
			C71,57,70.6,57,70.3,57.2c-0.1,0-0.1,0-0.2-0.1c0.1-0.1,0.1-0.1,0.1-0.2c-0.7,0.8-1.8,1.2-2.3,2.1c-0.4,0.7-0.7,1.7-1.7,1.9
			c-0.3,0.1,0.1-0.2-0.1-0.1C63.8,62.2,62.2,63.8,60.4,65.8 M66.5,61c-0.1,0.1-0.2,0.2-0.2,0.3c-0.1,0.1-0.1,0.2-0.3,0.3
			c-0.1,0-0.1,0-0.1-0.1c0.1-0.3,0.3-0.6,0.6-0.7C66.5,60.8,66.5,60.9,66.5,61 M69.9,72c0,0.1-0.1,0.2-0.2,0.2
			c0.1,0,0.2,0.1,0.1,0.1c-0.2,0.2-0.3,0.3-0.6,0.4c0,0-0.1,0-0.1,0c-0.1,0.1-0.2,0.2-0.3,0.3c-0.1,0.1-0.5,0-0.4-0.1
			c0.2-0.2,0.4-0.3,0.5-0.5c0.1-0.1,0.2-0.2,0.3-0.3c0.1-0.1,0.1-0.1,0.2-0.2C69.6,71.8,70,71.8,69.9,72 M68.6,71.4
			C68.6,71.4,68.6,71.4,68.6,71.4c-0.3,0.2-0.6,0.4-0.9,0.6c-0.3,0.2-0.6,0.3-1,0.5c0,0,0,0,0,0c0,0-0.1-0.1-0.1,0
			c-0.3,0.1-0.5,0.3-0.7,0.6c0,0-0.1,0.1-0.1,0.1c0,0,0,0,0,0c0,0,0,0,0,0c0,0-0.1,0.1-0.1,0.1c0,0,0,0,0,0c0,0,0,0,0,0
			c-0.1,0.1-0.1,0.1-0.2,0.2c0,0,0,0.1-0.1,0.1c0,0-0.2,0-0.2-0.1c0,0,0,0,0,0c0,0-0.1,0-0.1,0.1c0,0-0.1,0-0.1,0.1c0,0,0,0-0.1,0
			c0,0,0,0-0.1,0c-0.1,0.1-0.2,0.1-0.3,0.2c-0.2,0.1-0.3,0.3-0.4,0.5c0,0,0,0,0,0c0,0,0,0,0,0c0,0,0,0,0,0c0,0,0,0,0,0c0,0,0,0,0,0
			c0,0,0,0,0,0.1c0,0,0,0,0,0c0,0,0,0-0.1,0c0,0,0,0,0,0c0,0,0,0,0,0c0,0,0-0.1-0.1-0.1c0,0,0,0,0,0c0,0,0,0,0,0
			C64,74,64,74,64.1,73.9c0,0,0,0,0,0c0,0,0.1-0.1,0.1-0.1c0-0.1,0.1-0.1,0.1-0.2c0,0,0,0,0-0.1c0.1-0.1,0.2-0.2,0.2-0.3
			c0,0,0,0,0,0c0,0,0,0,0,0c0-0.1,0.1-0.1,0.1-0.2c0,0,0.1-0.1,0.1-0.1c0,0,0,0,0,0c0,0,0,0,0,0c0,0,0,0,0,0c0-0.1,0-0.1,0.1-0.2
			l0,0c0,0,0,0,0,0c0,0,0-0.1,0-0.1c0,0,0,0,0,0c0,0,0-0.1,0-0.1c0,0,0,0,0-0.1c0.1-0.1,0.2-0.3,0.3-0.4c0,0,0,0,0,0
			c-0.1,0.1-0.2,0.2-0.3,0.2c-0.1,0.1-0.2,0-0.1-0.1c0.1,0,0.1-0.1,0.2-0.2c0,0,0,0,0,0c0.1-0.1,0.2-0.3,0.4-0.4
			c0.1-0.1,0.2-0.1,0.2-0.2c0,0,0,0,0,0c0.1-0.1,0.1-0.1,0.2-0.2c0,0,0,0,0,0c0.7-0.7,1.9-0.6,2.8-1.1c0.4-0.1,0.8,0.1,1.2,0
			c0.2,0,0.4,0,0.7,0.1C69.8,70.6,69.2,71,68.6,71.4 M70.1,66.3c-0.1-0.1,0.2,0,0.3-0.1h-0.6c-0.1,0-0.1-0.1-0.1-0.1
			c-0.4,0.1-0.8,0.2-1.2,0.3c-0.5,0.1-1,0.5-1.5,0.7c-0.8,0.3-1.5,1-2.3,1.2c-0.1,0-0.1-0.1-0.1-0.1c0.1-0.2,0.4-0.3,0.5-0.5
			c0-0.1,0-0.1-0.1-0.1c0.6-0.8,1.4-1.2,2.1-1.9v-0.2c0.2-0.3,0.6-0.4,0.7-0.8c0.1-0.2,0.4-0.5,0.7-0.7c-0.1-0.1-0.2-0.1-0.2-0.2
			c-0.3,0-0.6,0.1-0.9-0.1c0.1-0.1,0.3-0.2,0.5-0.3c-0.1,0-0.1,0-0.2-0.1c-0.1-0.1,0.1-0.3,0.4-0.4c0.3-0.1,0.7-0.1,0.9-0.3
			c-0.5-0.1-1.1,0.1-1.6-0.1c0.4-1,1-1.8,1.8-2.2c0.1,0,0.2,0,0.2,0.1c0,0.4-0.2,0.7-0.6,0.7c0.6,0.1,1.2,0.1,1.8,0.4
			c-0.1,0.1-0.2,0.1-0.3,0.1c0.4,0.2,0.8,0.1,1.2,0.4c-0.2,0.2-0.4,0-0.7,0c2.3,0.7,4.7,1.2,6.6,2.6c-1.6,0.8-3.3,1.2-5,1.5
			c-0.2,0-0.4,0-0.6-0.1c0,0.1,0,0.2-0.1,0.2c-0.3,0-0.5,0-0.7,0.1C70.7,66.4,70.3,66.5,70.1,66.3"/>
		<path class="st6" d="M145.3,38.5h-41.7c0,0,0.1,0,0.4,0.2c0.3,0.2,0.8,0.4,1.1,0.6c0.5,0.3,1.1,0.6,1.4,1.2c0.1,0.2,0.4,0.7,0.2,1
			c-0.1,0.4-0.2,1-0.6,1.1c-0.4,0.2-1,0.2-1.5,0.1c-0.3,0-0.6-0.1-0.9-0.1c1.1,0.4,2.1,1,2.9,2c0.1,0.1,0.4,0.2,0.7,0.2
			c0.1,0,0.1,0.1,0.1,0.2c-0.1,0.1-0.3,0.2-0.2,0.4h0.2c0.4-0.1,0.3-0.9,0.8-0.7c0.4,0.2,0.5,0.7,0.3,1.1c-0.3,0.3-0.6,0.5-0.9,0.7
			c-0.1,0.1-0.1,0.4,0,0.5c0.2,0.3,0.3,0.6,0.4,0.9c0.2,0.5,0.3,1.1,0.5,1.6c0.3,1.1,0.6,2.2,0.5,3.3c0,0.6-0.3,1.1-0.1,1.7
			c0.1,0.6,0.5,1,0.8,1.5c0.3,0.4,0.6,0.7,0.8,1.2c0.4,0.7,1.2,1.5,0.9,2.3c-0.2,0.5-1,0.4-1.5,0.7c-0.4,0.4-0.1,1,0.1,1.3
			c0.4,0.7-0.4,1.1-1,1.3c0.1,0.2,0.4,0.1,0.5,0.3c0.1,0.4,0.4,0.6,0.2,1c-0.3,0.4-1.2,0.7-0.7,1.3c0.3,0.5,0.1,1.1-0.1,1.6
			c-0.2,0.7-0.8,1-1.3,1.1c-0.4,0.1-1,0.1-1.4,0.1c-0.1-0.1-0.3-0.1-0.4-0.1c-1.2-0.1-2.5-0.5-3.7-0.5c-0.4,0.1-0.7,0.1-1,0.3
			c-0.3,0.2-0.6,0.5-0.9,0.8c0,0,0,0,0,0c-0.1,0.1-0.1,0.1-0.2,0.2c0,0-0.1,0.1-0.1,0.1c0,0,0,0.1-0.1,0.1c-0.2,0.3-0.4,0.5-0.6,0.8
			c0,0,0,0,0,0.1c0,0,0,0.1-0.1,0.1c-0.2,0.4-0.4,0.9-0.6,1.3c-0.5,1.7-0.3,3.1,0.1,3.5c0.1,0.1,2.4,0.8,4,1.5
			c0.8,0.3,1.3,0.6,1.7,0.9h40.9V38.5z"/>
		<path class="st17" d="M106.2,52.6c0.3,0.1,0.7,0.1,0.7,0.2c-0.1,0.6-1,0.7-1.5,1.3h-0.2c-0.2,0.1-0.1,0.5-0.4,0.5
			c-0.2-0.1-0.4,0-0.7,0.1c0.3,0.3,0.7,0.5,1.1,0.4c0.1,0,0.2,0.1,0.2,0.3c0,0,0.1,0,0.1-0.1c0.1,0,0.1,0,0.1,0.1v0.3
			c-0.2,0.3-0.6,0.1-0.9,0.2c0.6,0.1,1.2,0.1,1.7,0c0.4-0.1,0-0.9,0.3-1.2c-0.1,0,0-0.2-0.1-0.2c0.1-0.1,0.3-0.4,0.4-0.4
			c0.1,0,0.4-0.1,0.4-0.2c0-0.1-0.3-0.2-0.2-0.4c0.4-0.3,0.8-0.7,0.7-1.2c-0.1-0.2-0.7-0.2-1-0.4c-0.4-0.1-0.8,0-1.2,0.1
			c-0.4,0-0.7,0.2-1.1,0.3c-0.5,0.1-1,0.4-1.4,0.7c0.5-0.2,1-0.3,1.6-0.4C105.4,52.6,105.7,52.5,106.2,52.6"/>
	</g>
	<path d="M133.3,248c0.8,0,1.5,0.6,1.1,2.1l-3.7,0.9C131.4,249.3,132.4,248,133.3,248 M135.3,253.9h-0.7c-0.9,1.1-1.9,1.9-2.9,1.9
		c-1,0-1.5-0.6-1.5-1.9c0-0.6,0.1-1.1,0.2-1.6l5.9-1.9c1.2-2.7-0.2-3.9-1.9-3.9c-2.8,0-6,4.7-6,8.8c0,1.8,0.9,2.8,2.2,2.8
		C132.3,258.1,133.9,256.5,135.3,253.9 M134.1,245.4l4.2-3.9V241H136l-2.6,4.3H134.1z M121.4,248.1h2l-3.1,8.5
		c-0.3,0.7,0.1,1.5,0.9,1.5c1.8,0,4.6-1.8,5.6-4.1h-0.6c-0.8,0.8-2.3,1.9-3.6,2.2l2.9-8h2.9l0.4-1.2h-2.8l1.1-3.1h-1.1l-2,3.1
		l-2.4,0.3V248.1z M118.7,247.7c0.2-0.8-0.3-1.2-0.7-1.2c-1.7,0-3.7,1.5-4.5,3.7h0.6c0.6-0.8,1.5-1.7,2.4-1.8l-3.3,8.5
		c-0.3,0.8,0.3,1.2,0.7,1.2c1.6,0,3.5-1.6,4.3-3.7h-0.6c-0.6,0.8-1.5,1.7-2.4,1.8L118.7,247.7z M119.3,243.4c0.8,0,1.4-0.6,1.4-1.4
		c0-0.8-0.6-1.4-1.4-1.4c-0.8,0-1.4,0.6-1.4,1.4C117.9,242.8,118.5,243.4,119.3,243.4 M100.5,256.5c-0.4,1,0,1.6,1,1.6
		c0.6,0,0.8-0.1,1.1-0.8l2.3-6c1-1.3,3.2-2.6,4.1-2.6c0.6,0,0.5,0.5,0.1,1.3l-3.5,6.7c-0.3,0.7,0.1,1.5,0.9,1.5
		c1.7,0,3.7-1.5,4.5-3.7h-0.6c-0.6,0.8-1.5,1.7-2.4,1.8l3-6c0.4-0.8,0.6-1.5,0.6-2.1c0-1-0.6-1.6-1.6-1.6c-1.5,0-3,1.7-4.7,3.7v-1.6
		c0-1.1-0.4-2.1-1.4-2.1c-0.6,0-1.3,0.6-1.8,1.3v0.2c1.1-0.1,1.6,1.6,0.8,3.4L100.5,256.5z M100.5,249c0.4-1.4,0.2-2.6-0.9-2.6
		c-1.3,0-1.6,1-2.9,3.7v-1.6c0-1.1-0.4-2.1-1.4-2.1c-1.2,0-2.3,1.9-3.1,3.7h0.6c0.6-0.8,1.1-1.3,1.5-1.3c0.5,0,0.8,0.8,0,2.5
		l-2.3,5.1c-0.4,1,0,1.6,1,1.6c0.6,0,0.8-0.1,1.1-0.8l2.3-6c0.6-0.8,1.2-1.5,1.9-2.2H100.5z M87.4,248c0.8,0,1.5,0.6,1.1,2.1
		l-3.7,0.9C85.4,249.3,86.5,248,87.4,248 M89.4,253.9h-0.7c-0.9,1.1-1.9,1.9-2.9,1.9c-1,0-1.5-0.6-1.5-1.9c0-0.6,0.1-1.1,0.2-1.6
		l5.9-1.9c1.2-2.7-0.2-3.9-1.9-3.9c-2.8,0-6,4.7-6,8.8c0,1.8,0.9,2.8,2.2,2.8C86.4,258.1,88,256.5,89.4,253.9 M75.4,248.1h2
		l-3.1,8.5c-0.3,0.7,0.1,1.5,0.9,1.5c1.8,0,4.6-1.8,5.6-4.1h-0.6c-0.8,0.8-2.3,1.9-3.6,2.2l2.9-8h2.9l0.4-1.2h-2.8l1.1-3.1h-1.1
		l-2,3.1l-2.4,0.3V248.1z M64.7,254.7c0-2.6,2.9-6.2,4.6-6.2c0.4,0,0.7,0,1,0.1l-1.7,4.5c-1,1.2-2.5,2.6-3.2,2.6
		C64.9,255.9,64.7,255.5,64.7,254.7 M73.7,245.9l-0.9-0.1l-1,1h-0.2c-4.9,0-9.1,5.5-9.1,9.4c0,1.1,0.7,1.8,1.8,1.8
		c1.3,0,2.5-1.8,3.9-3.7L68,255c-0.2,2,0.4,3,1.5,3c1.2,0,2.3-1.9,3.1-3.7h-0.6c-0.6,0.8-1.1,1.3-1.5,1.3c-0.4,0-0.8-0.8,0-2.5
		L73.7,245.9z M63.3,249c0.4-1.4,0.2-2.6-0.9-2.6c-1.3,0-1.6,1-2.9,3.7v-1.6c0-1.1-0.4-2.1-1.4-2.1c-1.2,0-2.3,1.9-3.1,3.7h0.6
		c0.6-0.8,1.1-1.3,1.5-1.3c0.5,0,0.8,0.8,0,2.5l-2.3,5.1c-0.4,1,0,1.6,1,1.6c0.6,0,0.8-0.1,1.1-0.8l2.3-6c0.6-0.8,1.2-1.5,1.9-2.2
		H63.3z M46.9,257.6l0.2-0.7c-2.8-0.5-3.2-0.5-2.1-3.6l1.2-3.2h3.1c1.4,0,1.4,0.6,1.2,2.1h0.8l1.9-5.1h-0.8
		c-0.7,1.2-1.3,2.1-2.8,2.1h-3.1l1.6-4.5c0.5-1.4,0.8-1.7,2.7-1.7h1.4c2,0,2.2,0.5,2.2,2.5h0.8L56,242H44.2l-0.2,0.7
		c2.3,0.5,2.5,0.7,1.4,3.6l-2.6,7c-1.1,2.9-1.5,3.2-4.1,3.6l-0.2,0.7H46.9z"/>
	<path d="M104.7,221.3c0.8,0,1.5,0.6,1.1,2.1l-3.7,0.9C102.8,222.6,103.8,221.3,104.7,221.3 M106.7,227.3H106
		c-0.9,1.1-1.9,1.9-2.9,1.9c-1,0-1.5-0.6-1.5-1.9c0-0.6,0.1-1.1,0.2-1.6l5.9-1.9c1.2-2.7-0.2-3.9-1.9-3.9c-2.8,0-6,4.7-6,8.8
		c0,1.8,0.9,2.8,2.2,2.8C103.7,231.4,105.4,229.8,106.7,227.3 M105.5,218.7l4.2-3.9v-0.4h-2.2l-2.6,4.3H105.5z M92.8,221.4h2
		l-3.1,8.5c-0.3,0.7,0.1,1.5,0.9,1.5c1.8,0,4.6-1.8,5.6-4.1h-0.6c-0.8,0.8-2.3,1.9-3.6,2.2l2.9-8h2.9l0.4-1.2h-2.8l1.1-3.1h-1.1
		l-2,3.1l-2.4,0.3V221.4z M90.1,221c0.2-0.8-0.3-1.2-0.7-1.2c-1.7,0-3.7,1.5-4.5,3.7h0.6c0.6-0.8,1.5-1.7,2.4-1.8l-3.3,8.5
		c-0.3,0.8,0.3,1.2,0.7,1.2c1.6,0,3.5-1.6,4.3-3.7H89c-0.6,0.8-1.5,1.7-2.4,1.8L90.1,221z M90.7,216.7c0.8,0,1.4-0.6,1.4-1.4
		c0-0.8-0.6-1.4-1.4-1.4c-0.8,0-1.4,0.6-1.4,1.4C89.3,216.1,89.9,216.7,90.7,216.7 M79.4,229.5l6-15.6l-0.2-0.2l-3.7,0.4v0.4
		l0.7,0.6c0.7,0.5,0.4,1-0.1,2.6l-4.7,12.3c-0.3,0.7,0.1,1.5,0.9,1.5c1.7,0,3.5-1.5,4.3-3.7H82C81.4,228.5,80.2,229.3,79.4,229.5
		 M68.1,228c0-2.6,2.9-6.2,4.6-6.2c0.4,0,0.7,0,1,0.1l-1.7,4.5c-1,1.2-2.5,2.6-3.2,2.6C68.3,229.2,68.1,228.8,68.1,228 M77,219.3
		l-0.9-0.1l-1,1h-0.2c-4.9,0-9.1,5.5-9.1,9.4c0,1.1,0.7,1.8,1.8,1.8c1.3,0,2.5-1.8,3.9-3.7l-0.1,0.7c-0.2,2,0.4,3,1.5,3
		c1.2,0,2.3-1.9,3.1-3.7h-0.6c-0.6,0.8-1.1,1.3-1.5,1.3c-0.4,0-0.8-0.8,0-2.5L77,219.3z M55.3,233.4c0-1.1,1.1-1.8,2.6-2.5
		c0.5,0.3,1.3,0.5,2.3,0.9c1.6,0.5,2.2,0.7,2.2,1.2c0,1-1.8,1.8-4.2,1.8C56.3,234.9,55.3,234.5,55.3,233.4 M59.7,226.5
		c-0.7,0-1-0.6-1-1.3c0-1.9,1-4.7,2.6-4.7c0.7,0,1,0.6,1,1.3C62.4,223.7,61.3,226.5,59.7,226.5 M64.4,232.4c0-1.4-1.2-1.9-3.2-2.5
		c-1.7-0.5-2.5-0.7-2.5-1.2c0-0.4,0.4-1,1.1-1.4c2.8-0.1,4.6-2.7,4.6-4.8c0-0.4-0.1-0.8-0.2-1.2h2.4l0.4-1.2h-3.8
		c-0.4-0.3-1-0.4-1.5-0.4c-3,0-4.9,2.6-4.9,4.7c0,1.6,1,2.6,2.3,2.8c-1.4,0.6-2.2,1.3-2.2,2.2c0,0.5,0.2,0.8,0.6,1.2
		c-3.2,0.9-4.5,2-4.5,3.5c0,1.5,1.9,2.1,4.2,2.1C61.1,236.3,64.4,234.2,64.4,232.4 M49.4,223.3c1.4,0,1.4,0.6,1.2,2.1h0.8l1.9-5.1
		h-0.8c-0.7,1.2-1.3,2.1-2.8,2.1h-3.1l1.6-4.3c0.5-1.4,0.8-1.7,2.7-1.7h1.4c2,0,2.2,0.5,2.2,2.5h0.8l0.7-3.5H44.2L44,216
		c2.3,0.5,2.5,0.7,1.4,3.6l-2.6,7c-1.1,2.9-1.5,3.2-4.1,3.6l-0.2,0.7h13.1l2.3-3.7h-0.9c-1.5,1.4-3.4,2.8-6,2.8
		c-3.5,0-3.2-0.1-2-3.3l1.2-3.4H49.4z M51.2,214.3l4.2-2.9V211h-2.5l-2.3,3.3H51.2z"/>
	<path d="M103.3,194.7c0.8,0,1.5,0.6,1.1,2.1l-3.7,0.9C101.4,195.9,102.4,194.7,103.3,194.7 M105.3,200.6h-0.7
		c-0.9,1.1-1.9,1.9-2.9,1.9c-1,0-1.5-0.6-1.5-1.9c0-0.6,0.1-1.1,0.2-1.6l5.9-1.9c1.2-2.7-0.2-3.9-1.9-3.9c-2.8,0-6,4.7-6,8.8
		c0,1.8,0.9,2.8,2.2,2.8C102.3,204.7,104,203.1,105.3,200.6 M104.2,192l4.2-3.9v-0.4h-2.2l-2.6,4.3H104.2z M91.9,194.7h1.6l-3.1,8.5
		c-0.3,0.7,0.1,1.5,0.9,1.5c1.8,0,4.6-1.8,5.6-4.1h-0.6c-0.8,0.8-2.3,1.9-3.6,2.2l2.9-8h2.9l0.4-1.2H96l1.1-3.1H96l-2,3.1l-2,0.3
		V194.7z M90.4,195.7c0.4-1.4,0.2-2.6-0.9-2.6c-1.3,0-1.6,1-2.9,3.7v-1.6c0-1.1-0.4-2.1-1.4-2.1c-1.2,0-2.3,1.9-3.1,3.7h0.6
		c0.6-0.8,1.1-1.3,1.5-1.3c0.5,0,0.8,0.8,0,2.5l-2.3,5.1c-0.4,1,0,1.6,1,1.6c0.6,0,0.8-0.2,1.1-0.8l2.3-6c0.6-0.8,1.2-1.5,1.9-2.2
		H90.4z M77.3,194.7c0.8,0,1.5,0.6,1.1,2.1l-3.7,0.9C75.4,195.9,76.4,194.7,77.3,194.7 M79.3,200.6h-0.7c-0.9,1.1-1.9,1.9-2.9,1.9
		c-1,0-1.5-0.6-1.5-1.9c0-0.6,0.1-1.1,0.2-1.6l5.9-1.9c1.2-2.7-0.2-3.9-1.9-3.9c-2.8,0-6,4.7-6,8.8c0,1.8,0.9,2.8,2.2,2.8
		C76.3,204.7,77.9,203.1,79.3,200.6 M64.8,203c-0.6,0-1.4-0.5-1.4-1c0-0.2,0.3-0.8,0.6-1.6l1-2.5c1-1.2,2.6-2.5,3.5-2.5
		c0.5,0,0.9,0.3,0.9,1.1C69.3,198.7,67.2,203,64.8,203 M71.5,195.4c0-1.7-0.6-2.4-1.8-2.4c-1.5,0-2.9,1.6-4.3,3.5l3.6-9.4l-0.2-0.2
		l-3.7,0.4v0.4l0.7,0.6c0.7,0.5,0.4,1-0.1,2.6l-3.8,9.9c-0.3,0.7-0.6,1.6-0.6,1.8c0,1,1.4,2,2.6,2C66.7,204.7,71.5,199.5,71.5,195.4
		 M59.9,194.3c0.2-0.8-0.3-1.2-0.7-1.2c-1.7,0-3.7,1.5-4.5,3.7h0.6c0.6-0.8,1.5-1.7,2.4-1.8l-3.3,8.5c-0.3,0.8,0.3,1.2,0.7,1.2
		c1.6,0,3.5-1.6,4.3-3.7h-0.6c-0.6,0.8-1.5,1.7-2.4,1.8L59.9,194.3z M60.5,190c0.8,0,1.4-0.6,1.4-1.4c0-0.8-0.6-1.4-1.4-1.4
		c-0.8,0-1.4,0.6-1.4,1.4C59.1,189.4,59.7,190,60.5,190 M51.9,188.7h-7.8l-0.2,0.7c2.3,0.5,2.5,0.7,1.4,3.6l-2.5,7
		c-1.1,2.9-1.5,3.2-4.1,3.6l-0.2,0.7h11.8l2.6-4.6H52c-1.5,1.6-3.2,3.6-5.8,3.6c-2,0-2.2-0.3-1.2-3.3l2.5-7c1-2.9,1.5-3.2,4.1-3.6
		L51.9,188.7z"/>
</g>
</svg>
