<?xml version="1.0" encoding="UTF-8" standalone="no"?>
<!-- Generator: Adobe Illustrator 27.8.0, SVG Export Plug-In . SVG Version: 6.00 Build 0)  -->

<svg
   version="1.1"
   id="Calque_1"
   x="0px"
   y="0px"
   viewBox="0 0 577.99998 296.2"
   xml:space="preserve"
   sodipodi:docname="logo_FT.svg"
   inkscape:version="1.1.2 (0a00cf5339, 2022-02-04)"
   width="578"
   height="296.20001"
   xmlns:inkscape="http://www.inkscape.org/namespaces/inkscape"
   xmlns:sodipodi="http://sodipodi.sourceforge.net/DTD/sodipodi-0.dtd"
   xmlns="http://www.w3.org/2000/svg"
   xmlns:svg="http://www.w3.org/2000/svg"><defs
   id="defs151" /><sodipodi:namedview
   id="namedview149"
   pagecolor="#ffffff"
   bordercolor="#666666"
   borderopacity="1.0"
   inkscape:pageshadow="2"
   inkscape:pageopacity="0.0"
   inkscape:pagecheckerboard="0"
   showgrid="false"
   inkscape:zoom="1.5066039"
   inkscape:cx="248.90417"
   inkscape:cy="111.50907"
   inkscape:window-width="2645"
   inkscape:window-height="935"
   inkscape:window-x="1070"
   inkscape:window-y="805"
   inkscape:window-maximized="0"
   inkscape:current-layer="Calque_1" />
<style
   type="text/css"
   id="style2">
	.st0{fill:none;}
	.st1{fill:#383838;}
	.st2{fill:#283276;}
	.st3{fill:#FFFFFF;}
	.st4{fill:#F29FC5;}
	.st5{fill:#008ECF;}
	.st6{fill:#E1000F;}
	.st7{fill:#FFE000;}
	.st8{fill:#C2C2C2;}
	.st9{fill:#ADADAD;}
	.st10{fill:#6B6B6B;}
	.st11{fill:#E0E0E0;}
	.st12{fill:#262626;}
	.st13{fill:#656565;}
	.st14{fill:#7F7F7F;}
	.st15{fill:#262626;stroke:#000000;stroke-width:0.2157;stroke-miterlimit:10;}
	.st16{fill:#000091;}
	.st17{fill:#808080;}
</style>
<rect
   y="0"
   class="st0"
   width="893.40002"
   height="296.20001"
   id="rect4"
   x="0" />
<g
   id="g84"
   transform="translate(-326)">
	<g
   id="g48">
		<path
   class="st2"
   d="m 560.1,193.9 c 0,10.1 -8.2,18.4 -18.4,18.4 -10.2,0 -18.4,-8.2 -18.4,-18.4 0,-10.1 8.2,-18.4 18.4,-18.4 10.2,0 18.4,8.3 18.4,18.4"
   id="path6" />
		<path
   class="st4"
   d="m 439.1,125.4 c 0,10.1 -8.2,18.4 -18.4,18.4 -10.2,0 -18.4,-8.2 -18.4,-18.4 0,-10.1 8.2,-18.4 18.4,-18.4 10.2,0 18.4,8.2 18.4,18.4"
   id="path8" />
		<path
   class="st5"
   d="m 525.4,173.8 c 0,10.1 -8.2,18.4 -18.4,18.4 -10.1,0 -18.4,-8.2 -18.4,-18.4 0,-10.1 8.2,-18.4 18.4,-18.4 10.2,0.1 18.4,8.3 18.4,18.4"
   id="path10" />
		<path
   class="st4"
   d="m 481,196 c 0,10.1 -8.2,18.4 -18.4,18.4 -10.1,0 -18.4,-8.2 -18.4,-18.4 0,-10.1 8.2,-18.4 18.4,-18.4 10.2,0.1 18.4,8.3 18.4,18.4"
   id="path12" />
		<path
   class="st2"
   d="m 481,239.3 c 0,10.1 -8.2,18.4 -18.4,18.4 -10.1,0 -18.4,-8.2 -18.4,-18.4 0,-10.1 8.2,-18.4 18.4,-18.4 10.2,0.1 18.4,8.3 18.4,18.4"
   id="path14" />
		<path
   class="st2"
   d="m 560.1,102.5 c 0,10.1 -8.2,18.4 -18.4,18.4 -10.2,0 -18.4,-8.2 -18.4,-18.4 0,-10.1 8.2,-18.4 18.4,-18.4 10.2,0 18.4,8.3 18.4,18.4"
   id="path16" />
		<path
   class="st2"
   d="m 525.4,125.4 c 0,10.1 -8.2,18.4 -18.4,18.4 -10.1,0 -18.4,-8.2 -18.4,-18.4 0,-10.1 8.2,-18.4 18.4,-18.4 10.2,0 18.4,8.2 18.4,18.4"
   id="path18" />
		<path
   class="st2"
   d="m 436.4,175.5 c 0,10.1 -8.2,18.4 -18.4,18.4 -10.2,0 -18.4,-8.2 -18.4,-18.4 0,-10.1 8.2,-18.4 18.4,-18.4 10.2,0 18.4,8.2 18.4,18.4"
   id="path20" />
		<path
   class="st2"
   d="m 401.4,98.5 c 2.2,9.9 -4,19.7 -13.9,21.9 -9.9,2.2 -19.7,-4 -21.9,-13.9 -2.2,-9.9 4,-19.7 13.9,-21.9 9.9,-2.2 19.7,4 21.9,13.9"
   id="path22" />
		<path
   class="st6"
   d="m 399.6,138.2 c -0.8,5.7 -6.1,9.7 -11.8,8.9 -5.7,-0.8 -9.7,-6.1 -8.9,-11.8 0.8,-5.7 6.1,-9.7 11.8,-8.9 5.7,0.8 9.7,6.1 8.9,11.8"
   id="path24" />
		<path
   class="st6"
   d="m 504.9,213.9 c -0.9,6.6 -7,11.1 -13.6,10.2 -6.6,-0.9 -11.1,-7 -10.2,-13.6 0.9,-6.6 7,-11.1 13.6,-10.2 6.6,0.9 11.1,7 10.2,13.6"
   id="path26" />
		<path
   class="st6"
   d="m 540.5,137.8 c -0.6,4 -4.2,6.7 -8.2,6.1 -4,-0.6 -6.7,-4.2 -6.2,-8.2 0.6,-4 4.2,-6.7 8.2,-6.1 4,0.6 6.8,4.2 6.2,8.2"
   id="path28" />
		<path
   class="st6"
   d="m 469,103.7 c -0.8,5.7 -6.1,9.7 -11.8,8.9 -5.7,-0.8 -9.7,-6.1 -8.9,-11.8 0.8,-5.7 6.1,-9.7 11.8,-8.9 5.7,0.8 9.7,6.1 8.9,11.8"
   id="path30" />
		<path
   class="st4"
   d="m 499,90.1 c -0.8,5.7 -6.1,9.7 -11.8,8.9 -5.7,-0.8 -9.7,-6.1 -8.9,-11.8 0.8,-5.7 6.1,-9.7 11.8,-8.9 5.8,0.8 9.8,6.1 8.9,11.8"
   id="path32" />
		<path
   class="st7"
   d="m 431.1,205 c -0.8,5.7 -6.1,9.7 -11.8,8.9 -5.7,-0.8 -9.7,-6.1 -8.9,-11.8 0.8,-5.7 6.1,-9.7 11.8,-8.9 5.8,0.8 9.7,6.1 8.9,11.8"
   id="path34" />
		<path
   class="st7"
   d="m 533.9,158.1 c -0.8,5.7 -6.1,9.7 -11.8,8.9 -5.7,-0.8 -9.7,-6.1 -8.9,-11.8 0.8,-5.7 6.1,-9.7 11.8,-8.9 5.7,0.7 9.7,6 8.9,11.8"
   id="path36" />
		<path
   class="st2"
   d="m 521.9,206.6 c 3.1,4.9 1.6,11.3 -3.3,14.4 -4.9,3.1 -11.3,1.6 -14.4,-3.3 -3.1,-4.9 -1.6,-11.3 3.3,-14.4 4.9,-3 11.3,-1.6 14.4,3.3"
   id="path38" />
		<path
   class="st7"
   d="m 442.1,83.9 c -0.8,5.7 -6.1,9.7 -11.8,8.9 -5.7,-0.8 -9.7,-6.1 -8.9,-11.8 0.8,-5.7 6.1,-9.7 11.8,-8.9 5.7,0.8 9.7,6.1 8.9,11.8"
   id="path40" />
		<path
   class="st5"
   d="m 481.9,57.8 c 0,10.6 -8.6,19.3 -19.3,19.3 -10.6,0 -19.3,-8.6 -19.3,-19.3 0,-10.6 8.6,-19.3 19.3,-19.3 10.7,0 19.3,8.6 19.3,19.3"
   id="path42" />
		<path
   class="st5"
   d="m 401.7,193.8 c 0,10.1 -8.2,18.4 -18.4,18.4 -10.2,0 -18.3,-8.2 -18.3,-18.4 0,-10.1 8.2,-18.4 18.4,-18.4 10.2,0 18.3,8.3 18.3,18.4"
   id="path44" />
		<path
   class="st5"
   d="m 492.2,144.4 c 0,17.7 -14.3,32 -32,32 -17.7,0 -32,-14.3 -32,-32 0,-17.7 14.3,-32 32,-32 17.6,-0.1 32,14.3 32,32"
   id="path46" />
	</g>
	<g
   id="g82">
		<g
   id="g62">
			<polygon
   class="st2"
   points="612.6,139.2 603.1,139.2 603.1,81.1 635.5,81.1 635.5,89.2 612.6,89.2 612.6,105.6 632.2,105.6 632.2,113.6 612.6,113.6 "
   id="polygon50" />
			<path
   class="st2"
   d="m 643.1,97.4 h 8.5 v 4.7 c 2.9,-3.2 6.6,-5.6 11.7,-5.6 1.3,0 2.6,0.2 3.7,0.6 v 8.4 c -1.3,-0.3 -2.7,-0.6 -4.4,-0.6 -5.3,0 -8.8,2.8 -11,6.4 v 27.9 h -8.5 z"
   id="path52" />
			<path
   class="st2"
   d="m 672.1,128.3 c 0,-6.3 4.9,-10.9 13.8,-12.4 l 13.5,-2.2 v -2.2 c 0,-5.1 -3.8,-8.3 -9.2,-8.3 -4.6,0 -8.1,2.1 -10.5,5.5 l -6.4,-4.9 c 3.7,-5 9.7,-8.1 17.2,-8.1 11.3,0 17.5,6.6 17.5,15.9 v 27.6 h -8.5 v -4.7 c -3,3.7 -8.2,6 -13.4,6 -8.4,0 -14,-4.8 -14,-12.2 m 15.5,5.2 c 5.2,0 9.3,-2.5 11.8,-6.5 v -7.2 l -11.3,1.9 c -5.2,0.9 -7.4,3.2 -7.4,6.3 0,3.2 2.6,5.5 6.9,5.5"
   id="path54" />
			<path
   class="st2"
   d="m 720,97.4 h 8.5 v 4.1 c 3.2,-3.3 7.3,-5.7 13.3,-5.7 9.2,0 16.3,6.2 16.3,18.3 v 25.1 h -8.6 v -24.8 c 0,-6.6 -3.7,-10.6 -9.6,-10.6 -5.7,0 -9.1,3.6 -11.3,7.2 v 28.2 H 720 Z"
   id="path56" />
			<path
   class="st2"
   d="m 801.8,127.3 6.7,5.1 c -3.8,5.1 -10,8.5 -17.7,8.5 -14,0 -22.8,-10.4 -22.8,-22.6 0,-12.2 8.8,-22.6 22.8,-22.6 7.6,0 13.9,3.3 17.7,8.5 l -6.7,5.1 c -2.3,-3.2 -6.1,-5.6 -11,-5.6 -8.1,0 -13.9,6.3 -13.9,14.5 0,8.3 5.8,14.5 13.9,14.5 4.8,0.1 8.7,-2.2 11,-5.4"
   id="path58" />
			<path
   class="st2"
   d="m 836.8,140.9 c -14.4,0 -23,-10.4 -23,-22.6 0,-12.5 8,-22.6 21.2,-22.6 11.5,0 19,7.9 19,18.5 0,1.9 -0.2,3.8 -0.6,5.1 h -30.9 c 0.6,9.1 6.1,13.9 14.2,13.9 5.1,0 9.3,-2.2 11.9,-5.7 l 6.2,5 c -3.8,5.1 -10.2,8.4 -18,8.4 m -13.7,-28 h 22.5 c -0.2,-5.2 -3.9,-10 -10.6,-10 -6.3,0 -10.6,3.5 -11.9,10"
   id="path60" />
		</g>
		<g
   id="g78">
			<polygon
   class="st2"
   points="596.9,155.8 643.8,155.8 643.8,164.5 625.1,164.5 625.1,213.9 615.6,213.9 615.6,164.5 596.9,164.5 "
   id="polygon64" />
			<path
   class="st2"
   d="m 647.9,172 h 8.5 v 4.7 c 2.9,-3.2 6.6,-5.6 11.7,-5.6 1.3,0 2.6,0.2 3.7,0.6 v 8.4 c -1.3,-0.3 -2.7,-0.6 -4.4,-0.6 -5.3,0 -8.8,2.8 -11,6.4 v 27.9 h -8.5 z"
   id="path66" />
			<path
   class="st2"
   d="m 676.8,203 c 0,-6.3 4.9,-10.9 13.8,-12.4 l 13.5,-2.2 v -2.2 c 0,-5.1 -3.8,-8.3 -9.2,-8.3 -4.6,0 -8.1,2.1 -10.5,5.5 l -6.4,-4.9 c 3.7,-5 9.7,-8.1 17.2,-8.1 11.3,0 17.5,6.6 17.5,15.9 v 27.6 h -8.5 v -4.7 c -3,3.7 -8.2,6 -13.4,6 -8.3,-0.1 -14,-4.8 -14,-12.2 m 15.5,5.1 c 5.2,0 9.3,-2.5 11.8,-6.5 v -7.2 l -11.3,1.9 c -5.2,0.9 -7.4,3.2 -7.4,6.3 0.1,3.3 2.6,5.5 6.9,5.5"
   id="path68" />
			<polygon
   class="st2"
   points="728.7,172 741,204.6 753.2,172 762.5,172 746.6,213.9 735.3,213.9 719.5,172 "
   id="polygon70" />
			<path
   class="st2"
   d="m 767,203 c 0,-6.3 4.9,-10.9 13.8,-12.4 l 13.5,-2.2 v -2.2 c 0,-5.1 -3.8,-8.3 -9.2,-8.3 -4.6,0 -8.1,2.1 -10.5,5.5 l -6.4,-4.9 c 3.7,-5 9.7,-8.1 17.2,-8.1 11.3,0 17.5,6.6 17.5,15.9 v 27.6 h -8.5 v -4.7 c -3,3.7 -8.2,6 -13.4,6 -8.4,-0.1 -14,-4.8 -14,-12.2 m 15.5,5.1 c 5.2,0 9.3,-2.5 11.8,-6.5 v -7.2 l -11.3,1.9 c -5.2,0.9 -7.4,3.2 -7.4,6.3 0,3.3 2.6,5.5 6.9,5.5"
   id="path72" />
			<rect
   x="816.20001"
   y="172"
   class="st2"
   width="8.5"
   height="41.799999"
   id="rect74" />
			<rect
   x="838.70001"
   y="151.60001"
   class="st2"
   width="8.5"
   height="62.200001"
   id="rect76" />
		</g>
		<path
   class="st2"
   d="m 815.4,159.3 c 0,-2.8 2.3,-5.1 5.1,-5.1 2.8,0 5.1,2.3 5.1,5.1 0,2.8 -2.3,5.1 -5.1,5.1 -2.8,0 -5.1,-2.4 -5.1,-5.1"
   id="path80" />
	</g>
</g>

</svg>
