<?xml version="1.0" encoding="UTF-8"?>
<svg width="40px" height="40px" viewBox="0 0 40 40" version="1.1" xmlns="http://www.w3.org/2000/svg" xmlns:xlink="http://www.w3.org/1999/xlink">
    <!-- Generator: Sketch 57.1 (83088) - https://sketch.com -->
    <title>Illu</title>
    <desc>Created with Sketch.</desc>
    <g id="Symbol" stroke="none" stroke-width="1" fill="none" fill-rule="evenodd">
        <g id="Section-/-Features-/-Organisme" transform="translate(-181.000000, -433.000000)">
            <g id="Features-list" transform="translate(165.000000, 211.000000)">
                <g id="Feature" transform="translate(0.000000, 206.000000)">
                    <g id="Illu" transform="translate(16.000000, 16.000000)">
                        <rect id="Rectangle-Copy-19" fill="#FDF2E7" x="0" y="0" width="40" height="40" rx="20"></rect>
                        <g id="Icons/sliders" transform="translate(8.000000, 12.000000)" fill="#F28017" fill-rule="nonzero">
                            <g id="Rectangle" transform="translate(0.916667, 0.250000)">
                                <g id="Mask">
                                    <path d="M4.66666667,14.5 C4.66666667,14.9142136 4.25626102,15.25 3.75,15.25 C3.24373898,15.25 2.83333333,14.9142136 2.83333333,14.5 L2.83333333,9.25 C2.83333333,8.83578644 3.24373898,8.5 3.75,8.5 C4.25626102,8.5 4.66666667,8.83578644 4.66666667,9.25 L4.66666667,14.5 Z" id="Path"></path>
                                    <path d="M4.66666667,6.25 C4.66666667,6.66421356 4.25626102,7 3.75,7 C3.24373898,7 2.83333333,6.66421356 2.83333333,6.25 L2.83333333,1 C2.83333333,0.585786438 3.24373898,0.25 3.75,0.25 C4.25626102,0.25 4.66666667,0.585786438 4.66666667,1 L4.66666667,6.25 Z" id="Path"></path>
                                    <path d="M12,14.5 C12,14.9142136 11.5895944,15.25 11.0833333,15.25 C10.5770723,15.25 10.1666667,14.9142136 10.1666667,14.5 L10.1666667,7.75 C10.1666667,7.33578644 10.5770723,7 11.0833333,7 C11.5895944,7 12,7.33578644 12,7.75 L12,14.5 Z" id="Path"></path>
                                    <path d="M12,4.75 C12,5.16421356 11.5895944,5.5 11.0833333,5.5 C10.5770723,5.5 10.1666667,5.16421356 10.1666667,4.75 L10.1666667,1 C10.1666667,0.585786438 10.5770723,0.25 11.0833333,0.25 C11.5895944,0.25 12,0.585786438 12,1 L12,4.75 Z" id="Path"></path>
                                    <path d="M19.3333333,14.5 C19.3333333,14.9142136 18.9229277,15.25 18.4166667,15.25 C17.9104056,15.25 17.5,14.9142136 17.5,14.5 L17.5,10.75 C17.5,10.3357864 17.9104056,10 18.4166667,10 C18.9229277,10 19.3333333,10.3357864 19.3333333,10.75 L19.3333333,14.5 Z" id="Path"></path>
                                    <path d="M19.3333333,7.75 C19.3333333,8.16421356 18.9229277,8.5 18.4166667,8.5 C17.9104056,8.5 17.5,8.16421356 17.5,7.75 L17.5,1 C17.5,0.585786438 17.9104056,0.25 18.4166667,0.25 C18.9229277,0.25 19.3333333,0.585786438 19.3333333,1 L19.3333333,7.75 Z" id="Path"></path>
                                    <path d="M1,10 C0.493738979,10 0.0833333333,9.66421356 0.0833333333,9.25 C0.0833333333,8.83578644 0.493738979,8.5 1,8.5 L6.5,8.5 C7.00626102,8.5 7.41666667,8.83578644 7.41666667,9.25 C7.41666667,9.66421356 7.00626102,10 6.5,10 L1,10 Z" id="Path"></path>
                                    <path d="M8.33333333,5.5 C7.82707231,5.5 7.41666667,5.16421356 7.41666667,4.75 C7.41666667,4.33578644 7.82707231,4 8.33333333,4 L13.8333333,4 C14.3395944,4 14.75,4.33578644 14.75,4.75 C14.75,5.16421356 14.3395944,5.5 13.8333333,5.5 L8.33333333,5.5 Z" id="Path"></path>
                                    <path d="M15.6666667,11.5 C15.1604056,11.5 14.75,11.1642136 14.75,10.75 C14.75,10.3357864 15.1604056,10 15.6666667,10 L21.1666667,10 C21.6729277,10 22.0833333,10.3357864 22.0833333,10.75 C22.0833333,11.1642136 21.6729277,11.5 21.1666667,11.5 L15.6666667,11.5 Z" id="Path"></path>
                                </g>
                            </g>
                        </g>
                    </g>
                </g>
            </g>
        </g>
    </g>
</svg>