<?xml version="1.0" encoding="UTF-8"?>
<svg width="40px" height="40px" viewBox="0 0 40 40" version="1.1" xmlns="http://www.w3.org/2000/svg" xmlns:xlink="http://www.w3.org/1999/xlink">
    <!-- Generator: Sketch 57.1 (83088) - https://sketch.com -->
    <title>Illu</title>
    <desc>Created with Sketch.</desc>
    <g id="Symbol" stroke="none" stroke-width="1" fill="none" fill-rule="evenodd">
        <g id="Section-/-Features-/-Organisme" transform="translate(-181.000000, -319.000000)">
            <g id="Features-list" transform="translate(165.000000, 211.000000)">
                <g id="Feature" transform="translate(0.000000, 92.000000)">
                    <g id="Illu" transform="translate(16.000000, 16.000000)">
                        <rect id="Rectangle-Copy-18" fill="#FDF2E7" x="0" y="0" width="40" height="40" rx="20"></rect>
                        <g id="Icons/pie-chart" transform="translate(10.000000, 10.000000)" fill="#F28017">
                            <g id="Icon" transform="translate(-0.000044, 0.000000)">
                                <path d="M18.0896689,13.1358553 C18.3170438,12.6225421 18.938296,12.3819661 19.4772747,12.5985136 C20.0162533,12.8150612 20.268858,13.4067302 20.0414832,13.9200433 C18.2160228,18.0411357 13.7341164,20.4942676 9.08475718,19.9160608 C4.43578418,19.3379021 0.762452051,15.8710698 0.104018372,11.4416643 C-0.554356214,7.01265633 1.96314829,2.70789792 6.25945245,0.918134847 C6.79540031,0.694868606 7.41991453,0.927658153 7.654344,1.43808485 C7.88877348,1.94851155 7.64434453,2.5432872 7.10839668,2.76655344 C3.68397301,4.19310677 1.67633282,7.6260325 2.20148983,11.1588611 C2.72658774,14.6912922 5.65476377,17.454858 9.3590491,17.9155329 C13.0629482,18.3761597 16.6343181,16.4214019 18.0896689,13.1358553 Z" id="Path"></path>
                                <path d="M21.0000437,10.6060606 C21.0000437,11.1918172 20.5014517,11.6666667 19.8864073,11.6666667 L9.86368005,11.6666667 C9.24863567,11.6666667 8.75004369,11.1918172 8.75004369,10.6060606 L8.75004369,1.06060606 C8.75004369,0.474849508 9.24863567,0 9.86368005,0 C12.8172273,0 15.649805,1.11742103 17.7382783,3.10644323 C19.8267516,5.09546543 21.0000437,7.79315844 21.0000437,10.6060606 Z M16.1633586,4.60636671 C14.7572509,3.26721649 12.9295213,2.42193002 10.9773164,2.18772845 L10.9773164,9.54545455 L18.7029288,9.54545455 C18.4570172,7.68621184 17.5694664,5.94551692 16.1633586,4.60636671 Z" id="Path"></path>
                            </g>
                        </g>
                    </g>
                </g>
            </g>
        </g>
    </g>
</svg>