<?xml version="1.0" encoding="UTF-8"?>
<svg width="444px" height="341px" viewBox="0 0 444 341" version="1.1" xmlns="http://www.w3.org/2000/svg" xmlns:xlink="http://www.w3.org/1999/xlink">
    <!-- Generator: sketchtool 57 (101010) - https://sketch.com -->
    <title>F597E52A-6984-42FB-9435-6CF86E1E88BE</title>
    <desc>Created with sketchtool.</desc>
    <g id="Maquettes" stroke="none" stroke-width="1" fill="none" fill-rule="evenodd">
        <g id="OF---FAQ1" transform="translate(-735.000000, -184.000000)">
            <g id="Section/Landing/OF" transform="translate(1.000000, 108.000000)">
                <g id="Illu_OF">
                    <g transform="translate(720.000000, 0.000000)">
                        <rect id="Container" x="0" y="0" width="458" height="493"></rect>
                        <g id="Illu" transform="translate(14.000000, 76.000000)">
                            <path d="M0.172330499,247.125882 C6.40209465,154.717485 275.48808,-67.1673873 390.547455,19.8355821 C505.606831,106.838551 417.95466,277.451711 287.914549,319.516065 C157.874439,361.58042 -6.05743366,339.53428 0.172330499,247.125882 Z" id="Background-Shape" fill="#FEF9F3" transform="translate(222.000000, 170.000000) scale(-1, 1) translate(-222.000000, -170.000000) "></path>
                            <g id="Piecahrt" transform="translate(69.000000, 195.000000)">
                                <path d="M38.1853816,11.5436108 C61.299652,1.62074802 87.9048704,7.10727444 105.59451,25.4447169 C123.284149,43.7821593 128.574345,71.359072 118.998176,95.3158082 C109.422007,119.272544 86.8654415,134.890973 61.8470407,134.88792 C45.442924,134.88792 29.7107836,128.133051 18.1120043,116.109519 C6.51322506,104.085987 -0.00193085549,87.7788532 0,70.7760122 C0,44.8444791 15.0711111,21.4664735 38.1853816,11.5436108 Z" id="Path" fill="#FBD8B9"></path>
                                <path d="M59.8160438,73.56259 L69.0903572,6.66222984 C84.5672411,8.39937729 95.7767739,11.6381739 102.718955,16.3786197 C109.661137,21.1190655 117.233702,30.7055628 125.436652,45.1381114 L59.8160438,73.56259 Z" id="Path" fill="#FEF9F3" fill-rule="nonzero"></path>
                                <polygon id="Path" fill="#F7B374" transform="translate(97.740916, 35.807048) rotate(14.000000) translate(-97.740916, -35.807048) " points="75.5320231 66.8801473 79.1494197 4.73394848 100.933893 12.2569023 119.949808 23.8219777"></polygon>
                            </g>
                            <g id="Charts" transform="translate(144.000000, 16.000000)">
                                <path d="M5,0 L151,0 C153.761424,-5.07265313e-16 156,2.23857625 156,5 L156,129 C156,131.761424 153.761424,134 151,134 L5,134 C2.23857625,134 3.38176876e-16,131.761424 0,129 L0,5 C-3.38176876e-16,2.23857625 2.23857625,5.07265313e-16 5,0 Z" id="Path" fill="#FFFFFF" fill-rule="nonzero"></path>
                                <polygon id="Path" fill="#F7B374" points="11.0862944 10.3076923 31.6751269 10.3076923 31.6751269 123.692308 11.0862944 123.692308"></polygon>
                                <polygon id="Path" fill="#F7B374" points="38.8020305 28.5443787 59.3908629 28.5443787 59.3908629 123.692308 38.8020305 123.692308"></polygon>
                                <polygon id="Path" fill="#F7B374" points="68.1015228 53.1242604 88.6903553 53.1242604 88.6903553 123.692308 68.1015228 123.692308"></polygon>
                                <polygon id="Path" fill="#F7B374" points="95.0253807 88.0118343 115.614213 88.0118343 115.614213 123.692308 95.0253807 123.692308"></polygon>
                                <polygon id="Path" fill="#F7B374" points="124.324873 53.1242604 144.913706 53.1242604 144.913706 123.692308 124.324873 123.692308"></polygon>
                            </g>
                            <g id="People" transform="translate(334.500000, 215.000000) scale(-1, 1) translate(-334.500000, -215.000000) translate(283.000000, 89.000000)">
                                <g id="Head-Head/Front/Chongo">
                                    <g id="Head" transform="translate(33.661426, 18.896952)" fill="#F7B374">
                                        <path d="M23.7770232,5.56785435 C27.3892749,12.1519921 26.9600455,28.8532037 22.291532,30.0299727 C20.4296734,30.4992822 16.463291,29.3496081 12.4265056,26.9701656 L14.9606337,44.4992733 L0,44.4992733 L5.14998341,21.024017 C2.27780967,17.7270366 0.333907696,13.6866015 0.658751817,9.15920223 C1.59476005,-3.88607912 20.1647715,-1.01628344 23.7770232,5.56785435 Z"></path>
                                    </g>
                                    <path d="M51.5290945,17.2937442 C49.4848227,16.6841652 46.5172582,16.4774374 45.2688921,16.617287 C45.9790196,14.9534894 46.2608087,13.0998188 46.0310826,11.2949432 C45.8077988,9.54117214 45.0064298,8.04788695 44.265284,6.48310451 C43.9236535,5.76184221 43.5364977,5.04451103 42.9592715,4.49282744 C42.3712605,3.93077551 41.6269175,3.55977603 40.8464023,3.38277734 C40.0476579,3.20160183 39.2124552,3.21668751 38.4124701,3.38110661 C38.0585755,3.45383234 37.7410438,3.61205993 37.3939732,3.70001875 C37.0385515,3.79013968 36.8661376,3.57260131 36.6081611,3.35398188 C35.9864594,2.82721176 35.0750472,2.56716816 34.2885192,2.47409888 C33.4060733,2.36972764 32.4904139,2.49989686 31.6488166,2.78357633 C30.8296479,3.05973753 30.0426904,3.50818008 29.4504323,4.16148313 C29.1867293,4.45228776 28.9473637,4.78328809 28.7917951,5.14873486 C28.7279929,5.2987071 28.7174467,5.38755042 28.5644073,5.44248783 C28.4228686,5.49334669 28.2573264,5.49482086 28.1112542,5.54322278 C26.6988253,6.0110261 25.4912124,7.07822699 24.8336727,8.44846811 C24.4500483,9.24786142 24.2683289,10.6553105 24.3181013,12.2328297 C24.3678737,13.8103489 25.8244918,17.9265466 27.186862,19.4279397 C28.4029214,20.7680586 30.1903851,21.6524133 31.9154305,22.0395303 C30.7704268,23.3193557 30.0082363,24.9186337 29.4446104,26.5451347 C28.8324052,28.3119276 28.4535051,30.1477117 28.3135888,32.0181879 C28.1806874,33.7953491 28.1683756,35.6747194 28.5944235,37.4139453 C28.9929844,39.0403972 29.8453188,40.3746686 31.2681985,41.221137 C31.919964,41.6088929 32.6212155,41.9001889 33.3265233,42.1664241 C34.0216189,42.4287772 34.7188142,42.6838578 35.4469324,42.8310782 C36.8249549,43.1095981 38.4127564,43.0617859 39.4742494,41.9891797 C39.856824,41.6025049 40.2775749,41.1166184 40.5566916,40.6442451 C40.6570477,40.4743716 40.7175572,40.3632683 40.5956315,40.1972276 C40.4495593,39.9983621 40.2132955,39.845982 40.0256588,39.6904079 C38.9556239,38.8033998 38.2932645,37.6192481 38.1262907,36.2120053 C37.9568832,34.7841732 38.3490974,32.9412149 39.7686844,32.3180832 C41.5210259,31.5488612 43.4508396,32.4317909 45.0083386,33.25482 C45.6702685,30.9702495 47.0293938,28.9132416 49.1602536,27.8653032 C51.51769,26.7059667 54.2228173,26.5702939 56.6454398,25.5755731 C57.2767332,25.3163648 57.9197182,25.0221205 58.384515,24.4939744 C58.5787371,24.273242 58.8066021,23.9869091 58.8841478,23.6949742 C58.9860309,23.3114935 58.7331127,22.989977 58.5377453,22.6910153 C57.5018305,21.1058401 53.5733664,17.9033233 51.5290945,17.2937442 Z" id="hair" fill="#24303A" fill-rule="nonzero"></path>
                                </g>
                                <path d="M21.3923077,135.427252 C21.5657615,138.303269 21.3923077,247.245283 21.3923077,247.245283 L30.6387277,247.245283 L44.7818809,175.651996 C44.9606717,173.331 47.5384615,147.670615 47.5384615,147.670615 L31.2604927,133.924528 L21.3923077,135.427252 Z" id="Path" fill="#FF9533" fill-rule="nonzero"></path>
                                <path d="M59.6073566,135.509434 C59.6073566,135.509434 70.5153846,190.476702 70.5153846,192.714346 C70.5153846,194.95199 52.6558928,245.660377 52.6558928,245.660377 L43.4925997,245.660377 L51.287581,187.195979 L24.5615385,137.738422" id="Path" fill="#FFA95A"></path>
                                <path d="M19.8875621,80.8301887 C19.4127726,81.4760452 16.4250091,88.0009152 16.6505996,90.5696069 C16.9968549,94.4987721 19.8770695,96.6720916 24.8033381,99.0566038 C26.219837,99.0566038 27.7307692,83.7402267 27.7307692,83.7402267 L23.3002753,80.8301887 L19.8875621,80.8301887 Z" id="Path" fill="#F7B374"></path>
                                <path d="M27.7307692,65.7735849 C21.2207876,70.4393561 15.699273,79.6228547 16.7726863,81.3134207 C17.2875129,82.1037842 19.9697591,83.5125893 23.0329771,84.7924528" id="Path" fill="#FFFFFF" fill-rule="nonzero"></path>
                                <path d="M40.8038462,59.1658507 C43.0015948,59.1658507 45.8819113,58.3747154 48.2197977,58.3747154 C60.6357771,69.4264094 62.3697698,132.678216 60.2274872,136.845606 C56.8213384,143.472558 32.4507358,148.808083 22.3513287,138.243663 C18.831,134.575602 19.4770571,67.6531974 35.1139257,56.2641509 C36.8996,58.3747154 38.6060975,59.1658507 40.8038462,59.1658507 Z" id="Path" fill="#FFFFFF" fill-rule="nonzero"></path>
                                <polyline id="Path" fill="#000000" fill-rule="nonzero" points="20.6 247.245283 20.6 252 42.7846154 252 42.7846154 249.314373 30.0446114 247.245283"></polyline>
                                <polyline id="Path" fill="#000000" fill-rule="nonzero" points="42.7846154 244.075472 42.7846154 252 66.5538462 252 66.5538462 248.918239 52.0954391 244.075472"></polyline>
                                <path d="M62.0965924,78.4320149 C62.5145822,78.8679649 66.1309878,84.0448717 66.6362793,85.1503164 C67.6442168,84.3069607 100.011973,57.6880587 100.54372,57.327362 C101.075467,56.9666652 101.996102,56.9978045 102.355891,57.236539 C102.959662,57.6240867 103.172245,58.3934932 102.850601,59.0270481 C102.564886,59.5460363 98.5410725,63.018067 98.5410725,63.018067 C98.8691152,63.4202828 100.549011,67.5981374 98.3982152,69.5599125 C96.9352508,70.896307 95.2765191,71.3400419 93.6812794,70.5122558 C92.6230773,71.6358651 67.3267562,99.0566038 62.9140535,99.0566038 C60.8717234,99.0566038 53.8664256,92.0061498 50.7076923,86.6943062" id="Path" fill="#F7B374"></path>
                                <path d="M38.8230769,68.6792453 C38.8230769,77.3962264 45.9983578,89.5471698 48.4821089,89.5471698 C50.96586,89.5471698 63.3846154,80.8301887 63.3846154,78.7169811 C63.3846154,76.6037736 53.7255834,61.0188679 45.4464131,61.0188679 C42.134745,61.0188679 38.8230769,64.4528302 38.8230769,68.6792453 Z" id="Path" fill="#FFFFFF" fill-rule="nonzero"></path>
                            </g>
                        </g>
                    </g>
                </g>
            </g>
        </g>
    </g>
</svg>