<?xml version="1.0" encoding="UTF-8"?>
<svg width="445px" height="335px" viewBox="0 0 445 335" version="1.1" xmlns="http://www.w3.org/2000/svg" xmlns:xlink="http://www.w3.org/1999/xlink">
    <!-- Generator: sketchtool 57 (101010) - https://sketch.com -->
    <title>359202CC-AA5C-40AD-9337-3AB04DC2032E</title>
    <desc>Created with sketchtool.</desc>
    <g id="Maquettes" stroke="none" stroke-width="1" fill="none" fill-rule="evenodd">
        <g id="Stagiaire-FAQ-/-1" transform="translate(-736.000000, -188.000000)">
            <g id="Section/Landing/Stagiaire" transform="translate(0.000000, 107.000000)">
                <g id="Illu">
                    <g transform="translate(736.000000, 0.000000)">
                        <rect id="Rectangle" x="0" y="0" width="444" height="493"></rect>
                        <g id="Group" transform="translate(0.000000, 81.000000)">
                            <path d="M0.194125889,196.743587 C6.680762,108.807569 354.716405,-60.9182094 419.328009,22.373049 C483.939612,105.664307 421.823569,261.980211 286.421513,302.008736 C151.019456,342.037261 -6.29251022,284.679605 0.194125889,196.743587 Z" id="Background-Shape" fill="#EBEDF6" opacity="0.577869234" transform="translate(222.500000, 157.500000) scale(-1, 1) translate(-222.500000, -157.500000) "></path>
                            <g id="humaaan-4-copy" transform="translate(364.500000, 212.000000) scale(-1, 1) translate(-364.500000, -212.000000) translate(295.000000, 91.000000)">
                                <g id="Head/Front-Head/Front/Long" transform="translate(34.805195, 0.000000)">
                                    <path d="M49.7553134,17.624773 C51.5808078,18.9051419 53.0555511,20.5698636 54.1010332,22.4679861 C54.4925447,22.8446813 54.8898146,23.6136574 55.306292,24.9149342 C57.3294921,31.2363894 60.5742727,50.3102415 57.7032485,53.1223704 L40.8202752,53.1223704 L40.8133961,52.9894954 C33.4076819,52.086069 27.4617871,46.169295 26.676435,38.5768409 C25.9064537,31.1330124 26.8440287,25.4212755 29.4891598,21.44163 L29.6907463,21.1464042 L29.6907463,21.1464042 C34.2589519,14.6332554 43.2421645,13.0565674 49.7553134,17.624773 Z" id="Hair-Back" fill="#24303A" fill-rule="nonzero"></path>
                                    <g id="Head" transform="translate(31.437261, 18.092165)" fill="#F7B374">
                                        <path d="M22.2059661,5.3307297 C25.5795398,11.6344612 25.1786715,27.6243989 20.8186282,28.7510516 C19.0798306,29.2003638 15.3756541,28.0997124 11.6056863,25.8217114 L13.9721159,42.6041313 L0,42.6041313 L4.81009375,20.1291058 C2.12748183,16.972453 0.31183005,13.1039262 0.61522506,8.7691287 C1.48938693,-3.72057818 18.8323925,-0.973001799 22.2059661,5.3307297 Z"></path>
                                    </g>
                                    <path d="M42.4993456,16.3413106 C49.2409095,16.3413106 51.3688257,19.4860337 53.1805991,22.155949 C51.8257076,26.8164897 46.5674795,27.5072915 41.895511,30.4126161 C41.3460996,29.9636862 40.6437539,29.694737 39.8787475,29.694737 C38.1103631,29.694737 36.6768043,31.1318583 36.6768043,32.9046373 C36.6768043,34.6774163 38.1103631,36.1145376 39.8787475,36.1145376 L40.0241875,36.1104442 C40.6680414,43.0429354 40.4101853,50.9598812 38.4915902,52.8391188 L21.6086159,52.8391188 C20.6679467,36.4548291 29.7590173,42.7995595 29.7590173,27.3733253 C30.3259603,26.8180123 30.8616674,26.2683809 31.3917594,25.7944171 L31.3725687,25.3411125 C34.2960441,19.3412446 38.0049697,16.3413106 42.4993456,16.3413106 Z" id="Hair-Front" fill="#24303A" fill-rule="nonzero"></path>
                                </g>
                                <g id="Bottom/Skinny-Jeans-1" transform="translate(38.363636, 113.359259)">
                                    <polygon id="Leg" fill="#F7B374" points="23.5215699 0 43.0218614 67.3844562 52.1938246 117.977735 61.3997122 117.977735 52.2102315 2.69518256e-29"></polygon>
                                    <path d="M14.7579396,0 C16.1186049,35.0058754 15.5819784,54.0990311 15.2774452,57.279467 C14.972912,60.459903 13.2440548,81.7603308 1.46310143,119.045407 L11.0380342,119.045407 C26.6399694,83.2767471 32.0864556,61.9763194 33.8758794,57.279467 C35.6653033,52.5826147 40.9502705,33.489459 48.6660885,0 L14.7579396,0 Z" id="Leg" fill="#F7B374"></path>
                                    <path d="M23.1029533,0 C28.1752833,23.187176 36.9482402,60.1997987 49.421824,111.037868 L62.8864822,111.037868 C63.8810007,58.857452 59.6503653,24.5140088 52.3239612,0 L23.1029533,0 Z" id="Pant" fill="#A6ABAF" fill-rule="nonzero"></path>
                                    <path d="M14.6899012,0 C16.0224948,35.0058754 12.5689939,69.493293 1.87131546,111.582892 L16.2373651,111.582892 C31.8679837,76.3480684 43.0709513,42.0308335 50.7274354,0 L14.6899012,0 Z" id="Pant" fill="#91979C" fill-rule="nonzero"></path>
                                    <g id="Left-Shoe-Accessories/Shoe/Flat-Simple" transform="translate(0.098332, 106.233345)" fill="#191847">
                                        <path d="M0,19.7519279 L0.528312555,11.2105536 C3.6215083,12.1177678 7.49580038,11.7618772 12.1511888,10.1428819 C16.9374678,13.5427187 22.9084638,15.9114832 30.0641769,17.2491756 C31.1499302,17.4521569 31.8655677,18.4968764 31.6625961,19.5826315 C31.6514761,19.6421159 31.637662,19.7010649 31.6211965,19.7592966 L31.1704408,21.3534355 L31.1704408,21.3534355 L12.1511888,21.3534355 L1.05662511,21.3534355 L0,19.7519279 Z" id="Shoe"></path>
                                    </g>
                                    <g id="Right-Shoe-Accessories/Shoe/Flat-Simple" transform="translate(50.138886, 106.233345)" fill="#191847">
                                        <path d="M0,19.7519279 L0.528312555,11.2105536 C3.6215083,12.1177678 7.49580038,11.7618772 12.1511888,10.1428819 C16.9374678,13.5427187 22.9084638,15.9114832 30.0641769,17.2491756 C31.1499302,17.4521569 31.8655677,18.4968764 31.6625961,19.5826315 C31.6514761,19.6421159 31.637662,19.7010649 31.6211965,19.7592966 L31.1704408,21.3534355 L31.1704408,21.3534355 L12.1511888,21.3534355 L1.05662511,21.3534355 L0,19.7519279 Z" id="Shoe"></path>
                                    </g>
                                </g>
                                <g id="Group-3" transform="translate(31.150024, 170.643561) rotate(14.000000) translate(-31.150024, -170.643561) translate(5.650024, 148.143561)" fill="#24303A" fill-rule="nonzero">
                                    <rect id="Rectangle" x="0.0719782383" y="10.9039005" width="50.0664452" height="33.455402"></rect>
                                    <path d="M25.2996003,22.3281023 C30.2013568,22.3281023 34.1750155,17.3465671 34.1750155,11.2015319 C34.1750155,5.05649682 30.2013568,0.0749615923 25.2996003,0.0749615923 C20.3978437,0.0749615923 16.424185,5.05649682 16.424185,11.2015319 C16.424185,17.3465671 20.3978437,22.3281023 25.2996003,22.3281023 Z M25.2996003,19.156131 C21.7952403,19.156131 18.9543952,15.5947357 18.9543952,11.2015319 C18.9543952,6.80832818 21.7952403,3.24693287 25.2996003,3.24693287 C28.8039602,3.24693287 31.6448053,6.80832818 31.6448053,11.2015319 C31.6448053,15.5947357 28.8039602,19.156131 25.2996003,19.156131 Z" id="Oval"></path>
                                </g>
                                <g id="Body/Long-Sleeve-1" transform="translate(24.129870, 58.018519)">
                                    <path d="M84.5480795,48.3997847 L100.885176,61.7238379 C105.428926,63.2032787 109.198302,64.946052 112.193304,66.9521579 C112.888743,67.6537121 113.70061,69.0434754 110.68329,68.6537731 C107.665969,68.2640707 104.474544,67.9894482 104.002078,68.9978733 C103.529612,70.0062985 105.297853,71.3335225 104.379387,72.6795494 C103.767077,73.5769007 101.228419,71.1151021 96.7634155,65.2941536 L80.3019982,57.4625625 L84.5480795,48.3997847 Z" id="Arm" fill="#F7B374" transform="translate(96.572666, 60.629560) rotate(5.000000) translate(-96.572666, -60.629560) "></path>
                                    <path d="M23.6002464,49.7860233 C15.8569002,69.1431776 11.2563295,79.744309 9.79853438,81.5894174 C8.72951777,82.942455 2.25754754,94.3560636 5.66425532,96.7461738 C9.0709631,99.1362839 6.30393914,92.6890628 10.7623204,91.3479172 C11.9321328,90.9960207 13.4459178,91.1810169 13.6199169,91.9553181 C13.9325051,93.3463457 12.4631686,95.8948903 14.9663828,95.3610208 C14.7691889,94.4421518 16.2381407,91.8041571 15.9814946,90.5091254 C15.6173696,88.6717571 15.0499095,85.2277316 14.9029083,82.9559371 C14.8524377,82.1759506 19.0245878,77.2799636 19.427059,76.8527793 C20.4704918,75.7452761 25.4937432,67.5099638 34.4968132,52.1468423 L23.6002464,49.7860233 Z" id="Arm" fill="#F7B374" transform="translate(19.589872, 73.529297) rotate(-12.000000) translate(-19.589872, -73.529297) "></path>
                                    <path d="M47.2420902,4.916267 L51.7692474,3.72838091 C61.4057602,22.7398476 76.7867723,39.434565 97.9122839,53.8125332 L84.5919579,73.1594026 C62.8715948,51.9557403 48.6499878,29.3630278 47.2420902,4.916267 Z" id="Coat-Back" fill="#31438F" transform="translate(72.577187, 38.443892) rotate(5.000000) translate(-72.577187, -38.443892) "></path>
                                    <path d="M30.1493806,60.6289854 L71.2308482,60.6289854 C61.7132163,37.5607982 56.9544003,17.9646468 56.9544003,1.84053129 L44.5621509,0 C34.8230073,15.6137756 32.0726475,34.8374948 30.1493806,60.6289854 Z" id="Shirt" fill="#FFFFFF"></path>
                                    <path d="M45.113573,0 C46.08151,0.033225288 47.5558023,0.0930872414 49.5364498,0.17958586 L49.5364498,0.17958586 L52.5308619,8.70976862 C52.8476044,19.1100556 54.6973319,40.0694403 58.0800445,71.5879225 L58.0800445,71.5879225 L31.1502922,71.5871262 C31.2208857,73.7642382 31.3372959,75.9616899 31.4995229,78.1794812 L31.4995229,78.1794812 L11.4759862,78.1794812 C14.471154,44.4952738 25.4091326,18.4354467 44.2899219,5.68434189e-14 L44.2899219,5.68434189e-14 L44.2989862,0.009 L44.3046579,0 Z" id="Coat-Front" fill="#384EAA"></path>
                                    <path d="M38.6857894,71.7974828 L31.1572375,71.7970072 C30.8276962,62.034887 31.4182433,52.6812268 32.9288788,43.7360267 C33.6957732,57.3048098 35.6146089,66.6585512 38.6857894,71.7974828 Z" id="Shade" fill="#384EAA"></path>
                                    <polygon id="Light" fill-opacity="0.2" fill="#FFFFFF" points="37.1443802 55.3106534 50.4233516 49.1569559 50.4233516 55.3106534"></polygon>
                                </g>
                            </g>
                            <g id="drawing-woman-colour" transform="translate(125.500000, 213.000000) scale(-1, 1) translate(-125.500000, -213.000000) translate(35.000000, 91.000000)">
                                <path d="M74.8965517,158.510949 L58.8472906,231.532847" id="Path" stroke="#24303A" stroke-width="4" fill="#24303A" fill-rule="nonzero" stroke-linecap="round"></path>
                                <path d="M83.8128079,158.510949 L99.862069,231.532847" id="Path" stroke="#24303A" stroke-width="4" fill="#24303A" fill-rule="nonzero" stroke-linecap="round"></path>
                                <polygon id="Path" fill="#24303A" fill-rule="nonzero" points="112.73233 169.19708 38.5635955 170.087591 0 80.1459854 32.7664537 80.1459854 63.5597347 151.964941 65.2265687 155.852486 108.454419 153.793978"></polygon>
                                <path d="M81.137931,122 L81.137931,211.941606" id="Path" stroke="#24303A" stroke-width="4" fill="#24303A" fill-rule="nonzero" stroke-linecap="round"></path>
                                <path d="M93.6206897,122 L93.6206897,226.189781" id="Path" stroke="#24303A" stroke-width="4" fill="#24303A" fill-rule="nonzero" stroke-linecap="round"></path>
                                <polygon id="Rectangle" fill="#DE8E68" fill-rule="nonzero" transform="translate(110.593375, 226.200405) rotate(-0.310000) translate(-110.593375, -226.200405) " points="108.467155 223.840754 112.719534 223.840808 112.719595 228.560056 108.467215 228.560001"></polygon>
                                <polygon id="Path" fill="#000000" fill-rule="nonzero" points="109.669951 231.802071 124.567661 232.423358 124.827586 231.313917 114.547651 227.970803 109.777668 228.116615"></polygon>
                                <polygon id="Rectangle" fill="#DE8E68" fill-rule="nonzero" transform="translate(86.995403, 228.022129) rotate(32.820000) translate(-86.995403, -228.022129) " points="84.2035222 224.918209 89.7939671 224.912202 89.7872838 231.126049 84.1968389 231.132056"></polygon>
                                <path d="M109.669951,209.041535 L109.669951,224.408759 L113.803851,224.408759 C113.803851,224.408759 120.855799,203.509334 123.044335,189.678832" id="Path" fill="#1C2755"></path>
                                <path d="M65.08867,134.778615 C67.7909169,134.304255 84.792661,131.79562 103.340018,131.79562 C124.720999,131.79562 133.865877,133.962168 136.055495,135.900659 C138.245114,137.839149 129.873043,166.916503 128.585032,169.19708" id="Path" fill="#1C2755"></path>
                                <path d="M34.5041264,128.233577 C33.0227277,130.964751 33.4325813,131.461329 33.0227277,140.648007 C31.541329,173.918681 80.9137429,161.419095 112.763815,170.357485 C104.616122,195.931211 86.1061818,222.086671 86.1061818,223.328114 C86.1061818,224.569557 89.8911555,227.390116 90.5503779,227.052443 C103.142267,220.596939 136.938547,174.451246 136.412651,167.163975 C135.425051,153.508102 76.7239899,132.702772 68.3293971,132.702772 L34.5041264,128.233577 Z" id="Path" fill="#384EAA"></path>
                                <path d="M80.7898061,88.1605839 C88.3069285,94.5273458 95.1930046,111.822612 95.6993786,111.822612 C114.182031,111.822612 131.905122,116.642073 133.171057,116.642073 C134.436992,116.642073 136.968862,114.866482 137.98161,114.866482 C138.994358,114.866482 143.551724,116.895729 143.551724,117.910352 C143.551724,118.924975 89.3697032,118.164008 88.1037682,118.164008 C86.9644266,117.022557 70.4384236,95.8547089 70.4384236,94.3327738 L80.7898061,88.1605839 Z" id="Path" fill="#F7B374"></path>
                                <path d="M132.852217,87.270073 L136.418719,100.627737" id="Path" stroke="#24303A" stroke-width="4" fill="#24303A" fill-rule="nonzero" stroke-linecap="round"></path>
                                <path d="M61.5991716,68.1683453 C56.9075997,72.0835298 62.056217,100.461107 66.3981491,102.213428 C70.7400812,103.965748 85.3655367,93.4518255 85.5940594,89.6968532 C85.8225821,85.9418809 66.3981491,64.1630415 61.5991716,68.1683453 Z" id="Path" fill="#FFFFFF" fill-rule="nonzero"></path>
                                <g id="Head/Front-Head/Front/Short-Beard" transform="translate(71.234253, 38.364535) rotate(10.000000) translate(-71.234253, -38.364535) translate(30.451974, 7.285186)">
                                    <g id="Head" transform="translate(32.385928, 18.528074)" fill="#F7B374">
                                        <path d="M22.8760651,5.45916705 C26.3514415,11.9147792 25.9384764,28.2899747 21.4468621,29.4437727 C19.6556002,29.9039089 15.8396657,28.7767485 11.9559479,26.443879 L14.3937459,43.6306253 L0,43.6306253 L4.95443632,20.613145 C2.19131666,17.3806098 0.321270512,13.4192158 0.633790416,8.98041003 C1.53433146,-3.81022092 19.4006887,-0.996445076 22.8760651,5.45916705 Z"></path>
                                    </g>
                                    <path d="M47.4586143,17.7036173 C51.497201,18.0488326 55.1034652,19.2760782 56.1255095,20.0049091 C56.1255095,23.815252 55.3846572,24.9457696 49.0567681,24.8461186 C47.5019831,25.6644104 46.3067243,27.0734774 45.0617959,28.9208012 C45.6124044,36.5692512 47.0699005,40.394006 49.4339958,40.394006 C52.9801387,40.394006 55.9887891,38.1505257 57.5447514,38.1505257 C58.6789952,38.1505257 58.4257534,39.5650522 57.6739173,40.613823 C57.0536283,41.4790928 54.032873,42.3131093 54.032873,43.6545679 C54.032873,44.9960266 56.4195202,43.958214 56.4195202,44.7538069 C56.4195202,46.0698146 56.8389699,48.5441445 54.5470336,48.5441445 C52.2275176,48.5441445 45.5770544,47.7017711 44.4373451,44.2710224 C43.7019657,42.057386 43.2264351,37.4708192 43.0107533,30.5113221 C42.8705009,30.4902774 42.7270083,30.4816704 42.5814985,30.4816704 C40.5941369,30.4816704 38.9830621,32.0872126 38.9830621,34.0677493 C38.9830621,35.0731772 39.3982568,35.9819642 40.0671,36.633119 C39.2344706,37.8043337 38.301332,39.0278243 37.2320547,40.2903076 C33.2150117,37.8885217 30.2341373,30.8575938 34.1614489,24.1033977 C35.2469702,20.794622 37.7044384,19.0272806 40.6067676,18.2066472 C42.9578038,17.2265786 45.3984019,17.1160749 47.4586143,17.7036173 Z" id="Hair" fill="#24303A" fill-rule="nonzero"></path>
                                </g>
                                <path d="M33.7105601,120.648526 C39.4996382,96.0886992 57.4201967,62.7429875 61.6990805,58.7737226 C65.2972923,58.7737226 70.5218187,61.9762699 73.1750047,66.6926654 C77.0175879,73.5233747 77.5714286,83.4061206 77.5714286,90.303445 C77.5714286,103.451635 71.7297008,132.382665 69.2001254,134.044795 C64.6695426,137.021744 40.0030362,134.789032 33.4588611,128.835135 C32.2733586,127.758472 33.7105601,120.648526 33.7105601,120.648526 Z" id="Path" fill="#FFFFFF" fill-rule="nonzero"></path>
                                <path d="M59.1525442,71.687227 C53.8853261,75.6017722 59.6656683,103.974716 64.5403465,105.72675 C69.4150248,107.478784 84.4454751,99.3509142 84.7020371,95.596555 C84.9585991,91.8421959 64.5403465,67.6825773 59.1525442,71.687227 Z" id="Path" fill="#FFFFFF" fill-rule="nonzero"></path>
                                <path d="M83.6120983,93.7781762 C84.3476848,94.8005104 88.761204,101.190099 88.761204,101.190099 C91.213159,101.190099 100.040197,100.678932 129.708854,91.7335079 C130.689636,91.4779244 133.001829,95.799842 131.425222,96.8451787 C126.030921,100.423348 89.251595,117.547445 81.1601433,117.547445 C79.1985792,117.547445 68.6551724,104.001518 68.6551724,102.212433" id="Path" fill="#F7B374"></path>
                                <path d="M133.588326,97.0656934 C135.472162,97.0656934 142.660099,95.5015804 142.660099,93.5721491 C142.660099,91.6427178 135.472162,89.9416058 133.588326,89.9416058 C131.704491,89.9416058 130.17734,91.6427178 130.17734,93.5721491 C130.17734,95.5015804 131.704491,97.0656934 133.588326,97.0656934 Z" id="Oval" fill="#F7B374"></path>
                                <path d="M89.3644023,227.080292 C102.110142,220.621744 142.119267,177.647561 140.847193,170.443796 C138.348028,156.284672 75.3690807,132.686131 66.8719212,132.686131" id="Path"></path>
                                <polygon id="Path" fill="#000000" fill-rule="nonzero" points="81.137931 232.430834 96.918483 244 98.0788177 242.819473 89.4923409 231.250307 84.1687253 227.970803"></polygon>
                                <rect id="Rectangle" fill="#24303A" fill-rule="nonzero" x="77.5714286" y="118.437956" width="103.428571" height="4.45255474"></rect>
                                <path d="M164.059113,122 L164.059113,211.941606" id="Path" stroke="#24303A" stroke-width="5" fill="#24303A" fill-rule="nonzero"></path>
                                <path d="M176.541872,122 L176.541872,226.189781" id="Path" stroke="#24303A" stroke-width="5" fill="#24303A" fill-rule="nonzero"></path>
                                <path d="M48.1477833,169.19708 L32.0985222,231.532847" id="Path" stroke="#24303A" stroke-width="5" fill="#24303A" fill-rule="nonzero"></path>
                            </g>
                        </g>
                    </g>
                </g>
            </g>
        </g>
    </g>
</svg>