<?xml version="1.0" encoding="UTF-8"?>
<svg width="65px" height="65px" viewBox="0 0 65 65" version="1.1" xmlns="http://www.w3.org/2000/svg" xmlns:xlink="http://www.w3.org/1999/xlink">
    <!-- Generator: sketchtool 57 (101010) - https://sketch.com -->
    <title>8EAC02AF-28A1-427B-A405-6BD4DD6BF0A4</title>
    <desc>Created with sketchtool.</desc>
    <g id="Maquettes" stroke="none" stroke-width="1" fill="none" fill-rule="evenodd">
        <g id="D_Landing" transform="translate(-307.000000, -2113.000000)">
            <g id="Section-/-Value" transform="translate(0.000000, 1938.000000)">
                <g id="OF">
                    <g transform="translate(165.000000, 175.000000)">
                        <g id="Illu_OF" transform="translate(142.000000, 0.000000)">
                            <rect id="Rectangle-Copy-17" fill="#FDF2E7" x="0" y="0" width="65" height="65" rx="32.5"></rect>
                            <g id="ic_formation" transform="translate(16.000000, 22.000000)" fill="#F28017">
                                <path d="M16.578808,2.2812509 L2.56436753,6.53960505 L16.5791483,10.12784 L30.4355966,6.53970015 L16.578808,2.2812509 Z M17.4157254,0.124978262 L31.272514,4.3834275 C32.6108395,4.79471985 33.321066,6.09353432 32.8588493,7.28441081 C32.5872323,7.98421735 31.9508464,8.52321079 31.1519511,8.73008545 L17.2955028,12.3182253 C16.8301712,12.4387233 16.3359868,12.4393888 15.8702474,12.3201446 L1.85546669,8.7319096 C0.494777434,8.38352936 -0.290893439,7.11958319 0.100621682,5.90880681 C0.332321379,5.19226612 0.942920898,4.62170072 1.73589318,4.38075234 L15.7503337,0.122398188 C16.2903186,-0.041678774 16.8763859,-0.040770821 17.4157254,0.124978262 Z" id="Line"></path>
                                <path d="M30.0882353,6.94404632 C30.0882353,6.27204082 30.740056,5.72727273 31.5441176,5.72727273 C32.3481793,5.72727273 33,6.27204082 33,6.94404632 L33,13.1014082 C33,13.7734137 32.3481793,14.3181818 31.5441176,14.3181818 C30.740056,14.3181818 30.0882353,13.7734137 30.0882353,13.1014082 L30.0882353,6.94404632 Z" id="Line-4"></path>
                                <path d="M4.85294118,13.8409091 C4.85294118,13.0501377 5.40580747,12.4090909 6.08780261,12.4090909 C6.76979774,12.4090909 7.32266403,13.0501377 7.32266403,13.8409091 L7.32266403,18.1363636 L24.7067477,18.1363636 L24.7067477,13.8409091 C24.7067477,13.0501377 25.259614,12.4090909 25.9416092,12.4090909 C26.6236043,12.4090909 27.1764706,13.0501377 27.1764706,13.8409091 L27.1764706,18.1363636 C27.1764706,19.7179063 26.070738,21 24.7067477,21 L7.32266403,21 C5.95867376,21 4.85294118,19.7179063 4.85294118,18.1363636 L4.85294118,13.8409091 Z" id="Line-2"></path>
                            </g>
                        </g>
                    </g>
                </g>
            </g>
        </g>
    </g>
</svg>