<?xml version="1.0" encoding="UTF-8"?>
<svg width="65px" height="65px" viewBox="0 0 65 65" version="1.1" xmlns="http://www.w3.org/2000/svg" xmlns:xlink="http://www.w3.org/1999/xlink">
    <!-- Generator: sketchtool 57 (101010) - https://sketch.com -->
    <title>AB0AF810-4ED3-4DCF-8879-90635CB7E4F5</title>
    <desc>Created with sketchtool.</desc>
    <g id="Maquettes" stroke="none" stroke-width="1" fill="none" fill-rule="evenodd">
        <g id="D_Landing" transform="translate(-1065.000000, -2113.000000)">
            <g id="Section-/-Value" transform="translate(0.000000, 1938.000000)">
                <g id="Stagiaires">
                    <g transform="translate(919.000000, 175.000000)">
                        <g id="Illu_Stag" transform="translate(146.000000, 0.000000)">
                            <g id="Picto_Stagiaire">
                                <rect id="Rectangle-Copy-22" fill="#EBEDF6" x="0" y="0" width="65" height="65" rx="32.5"></rect>
                                <g id="Icons/users" transform="translate(16.000000, 16.000000)">
                                    <g id="Rectangle" transform="translate(0.000000, 4.125000)">
                                        <g id="Mask" transform="translate(1.100000, 0.000000)" fill="#000000" fill-rule="nonzero">
                                            <path d="M23.2053563,23.9479164 C23.2053563,24.6158997 22.6537071,25.1574072 21.9732135,25.1574072 C21.2927198,25.1574072 20.7410707,24.6158997 20.7410707,23.9479164 L20.7410707,21.528935 C20.7410707,19.5249852 19.0861233,17.9004629 17.0446422,17.9004629 L7.18749978,17.9004629 C5.14601874,17.9004629 3.49107137,19.5249852 3.49107137,21.528935 L3.49107137,23.9479164 C3.49107137,24.6158997 2.93942224,25.1574072 2.25892856,25.1574072 C1.57843488,25.1574072 1.02678575,24.6158997 1.02678575,23.9479164 L1.02678575,21.528935 C1.02678575,18.1890186 3.78503138,15.4814814 7.18749978,15.4814814 L17.0446422,15.4814814 C20.4471106,15.4814814 23.2053563,18.1890186 23.2053563,21.528935 L23.2053563,23.9479164 Z" id="Path"></path>
                                            <path d="M12.1160709,13.0624998 C8.71360252,13.0624998 5.9553569,10.3549626 5.9553569,7.01504617 C5.9553569,3.67512978 8.71360252,0.96759259 12.1160709,0.96759259 C15.5185393,0.96759259 18.276785,3.67512978 18.276785,7.01504617 C18.276785,10.3549626 15.5185393,13.0624998 12.1160709,13.0624998 Z M12.1160711,10.6435183 C14.1575521,10.6435183 15.8124995,9.018996 15.8124995,7.01504617 C15.8124995,5.01109634 14.1575521,3.38657402 12.1160711,3.38657402 C10.07459,3.38657402 8.41964267,5.01109634 8.41964267,7.01504617 C8.41964267,9.018996 10.07459,10.6435183 12.1160711,10.6435183 Z" id="Oval"></path>
                                            <path d="M30.5982143,23.9479164 C30.5982143,24.6158997 30.0465652,25.1574072 29.3660715,25.1574072 C28.6855779,25.1574072 28.1339287,24.6158997 28.1339287,23.9479164 L28.1339291,21.5298371 C28.1326726,19.8762676 26.9926557,18.4326821 25.3616078,18.0192901 C24.7027226,17.8522945 24.3065027,17.1926054 24.4766259,16.5458333 C24.6467491,15.8990612 25.3187933,15.5101255 25.9776785,15.6771212 C28.6960917,16.3661079 30.5961198,18.7720837 30.5982143,21.5289349 L30.5982143,23.9479164 Z" id="Path"></path>
                                            <path d="M20.4354518,3.50601137 C19.7762235,3.34032533 19.378644,2.68142489 19.5474331,2.03431605 C19.7162222,1.38720721 20.3874629,0.996936919 21.0466912,1.16262296 C23.772676,1.84775381 25.6793067,4.258906 25.6793067,7.02109398 C25.6793067,9.78328196 23.772676,12.1944341 21.0466912,12.879565 C20.3874629,13.045251 19.7162222,12.6549807 19.5474331,12.0078719 C19.378644,11.3607631 19.7762235,10.7018626 20.4354518,10.5361766 C22.0710427,10.1250981 23.2150211,8.67840677 23.2150211,7.02109398 C23.2150211,5.36378119 22.0710427,3.91708988 20.4354518,3.50601137 Z" id="Path"></path>
                                        </g>
                                        <rect fill="#384EAA" x="-0.275000004" y="0" width="35.75" height="26.125"></rect>
                                    </g>
                                </g>
                            </g>
                        </g>
                    </g>
                </g>
            </g>
        </g>
    </g>
</svg>