<?xml version="1.0" encoding="UTF-8"?>
<svg width="65px" height="65px" viewBox="0 0 65 65" version="1.1" xmlns="http://www.w3.org/2000/svg" xmlns:xlink="http://www.w3.org/1999/xlink">
    <!-- Generator: sketchtool 57 (101010) - https://sketch.com -->
    <title>033BC2E0-3425-4EC4-96B5-39BDD08A0F8C</title>
    <desc>Created with sketchtool.</desc>
    <g id="Maquettes" stroke="none" stroke-width="1" fill="none" fill-rule="evenodd">
        <g id="D_Landing" transform="translate(-688.000000, -2113.000000)">
            <g id="Section-/-Value" transform="translate(0.000000, 1938.000000)">
                <g id="Financeurs">
                    <g transform="translate(545.000000, 175.000000)">
                        <g id="Picto_Financeur" transform="translate(143.000000, 0.000000)">
                            <rect id="Rectangle-Copy-23" fill="#E5F2ED" x="0" y="0" width="65" height="65" rx="32.5"></rect>
                            <g id="ic_money" transform="translate(20.000000, 22.000000)">
                                <path d="M23,4.42945605 C21.6984277,1.55988268 18.7921916,0.125095994 14.2812915,0.125095994 C7.51494133,0.125095994 6,5.34584175 6,10.8305286 C6,16.3152154 6.93080989,22.125096 14.2812915,22.125096 C19.1816125,22.125096 22.0878487,20.5748481 23,17.4743522" id="Path-2" stroke="#007E54" stroke-width="3" stroke-linecap="round"></path>
                                <path d="M1.2,9.62509599 C0.233508402,9.62509599 -0.5,8.70821049 -0.5,7.62509599 C-0.5,6.5419815 0.233508402,5.62509599 1.2,5.62509599 L14.8,5.62509599 C15.7664916,5.62509599 16.5,6.5419815 16.5,7.62509599 C16.5,8.70821049 15.7664916,9.62509599 14.8,9.62509599 L1.2,9.62509599 Z" id="Line-3" stroke="#E5F2ED" fill="#007E54" fill-rule="nonzero"></path>
                                <path d="M1.2,17.625096 C0.233508402,17.625096 -0.5,16.7082105 -0.5,15.625096 C-0.5,14.5419815 0.233508402,13.625096 1.2,13.625096 L14.8,13.625096 C15.7664916,13.625096 16.5,14.5419815 16.5,15.625096 C16.5,16.7082105 15.7664916,17.625096 14.8,17.625096 L1.2,17.625096 Z" id="Line-3-Copy" stroke="#E5F2ED" fill="#007E54" fill-rule="nonzero"></path>
                            </g>
                        </g>
                    </g>
                </g>
            </g>
        </g>
    </g>
</svg>